  0
SECTION
  2
HEADER
  9
$ACADVER
  1
AC1009
  9
$EXTMIN
 10
0.0
 20
0.0
 30
0.0
  9
$EXTMAX
 10
1000.0
 20
1000.0
 30
0.0
  9
$FILLMODE
 70
 0
  9
$SPLFRAME
 70
 1
  0
ENDSEC
  0
SECTION
  2
TABLES
  0
TABLE
  2
LAYER
 70
   255
  0
LAYER
  2
0
 70
     0
 62
     7
  6
CONTINUOUS
  0
ENDTAB
  0
ENDSEC
  0
SECTION
  2
ENTITIES
  0
POLYLINE
8
0
 62
     0
 66
     1
 10
0
 20
0
 30
0.0
 40
0
 41
0
  0
VERTEX
  8
0
 10
306.005
 20
68.7214
 30
0.0
 40
0
 41
0
  0
VERTEX
  8
0
 10
228.898
 20
68.7214
 30
0.0
 40
0
 41
0
  0
VERTEX
  8
0
 10
228.898
 20
66.583
 30
0.0
 40
0
 41
0
  0
VERTEX
  8
0
 10
306.005
 20
66.583
 30
0.0
 40
0
 41
0
  0
SEQEND
  8
0
  0
POLYLINE
8
0
 62
     0
 66
     1
 10
0
 20
0
 30
0.0
 40
0
 41
0
  0
VERTEX
  8
0
 10
306.002
 20
68.7214
 30
0.0
 40
0
 41
0
  0
VERTEX
  8
0
 10
383.109
 20
68.7214
 30
0.0
 40
0
 41
0
  0
VERTEX
  8
0
 10
383.109
 20
66.583
 30
0.0
 40
0
 41
0
  0
VERTEX
  8
0
 10
306.002
 20
66.583
 30
0.0
 40
0
 41
0
  0
SEQEND
  8
0
  0
POLYLINE
8
0
 62
     7
 66
     1
 10
0
 20
0
 30
0.0
 70
     1
 40
0
 41
0
  0
VERTEX
  8
0
 10
304.938
 20
78.7522
 30
0.0
 40
0
 41
0
  0
VERTEX
  8
0
 10
304.938
 20
46.1519
 30
0.0
 40
0
 41
0
  0
VERTEX
  8
0
 10
307.071
 20
46.1519
 30
0.0
 40
0
 41
0
  0
VERTEX
  8
0
 10
307.071
 20
78.7522
 30
0.0
 40
0
 41
0
  0
VERTEX
  8
0
 10
304.938
 20
78.7522
 30
0.0
 40
0
 41
0
  0
SEQEND
  8
0
  0
POLYLINE
8
0
 62
     0
 66
     1
 10
0
 20
0
 30
0.0
 70
     1
 40
0
 41
0
  0
VERTEX
  8
0
 10
304.938
 20
78.7522
 30
0.0
 40
0
 41
0
  0
VERTEX
  8
0
 10
304.938
 20
46.1519
 30
0.0
 40
0
 41
0
  0
VERTEX
  8
0
 10
307.071
 20
46.1519
 30
0.0
 40
0
 41
0
  0
VERTEX
  8
0
 10
307.071
 20
78.7522
 30
0.0
 40
0
 41
0
  0
VERTEX
  8
0
 10
304.938
 20
78.7522
 30
0.0
 40
0
 41
0
  0
SEQEND
  8
0
  0
POLYLINE
8
0
 62
     0
 66
     1
 10
0
 20
0
 30
0.0
 40
0
 41
0
  0
VERTEX
  8
0
 10
306.009
 20
47.1504
 30
0.0
 40
0
 41
0
  0
VERTEX
  8
0
 10
306.411
 20
47.5503
 30
0.0
 40
0
 41
0
  0
VERTEX
  8
0
 10
306.009
 20
47.9502
 30
0.0
 40
0
 41
0
  0
VERTEX
  8
0
 10
305.606
 20
47.5503
 30
0.0
 40
0
 41
0
  0
VERTEX
  8
0
 10
306.009
 20
47.1504
 30
0.0
 40
0
 41
0
  0
SEQEND
  8
0
  0
POLYLINE
8
0
 62
     0
 66
     1
 10
0
 20
0
 30
0.0
 40
0
 41
0
  0
VERTEX
  8
0
 10
306.031
 20
76.9631
 30
0.0
 40
0
 41
0
  0
VERTEX
  8
0
 10
306.433
 20
77.363
 30
0.0
 40
0
 41
0
  0
VERTEX
  8
0
 10
306.031
 20
77.7629
 30
0.0
 40
0
 41
0
  0
VERTEX
  8
0
 10
305.629
 20
77.363
 30
0.0
 40
0
 41
0
  0
VERTEX
  8
0
 10
306.031
 20
76.9631
 30
0.0
 40
0
 41
0
  0
SEQEND
  8
0
  0
POLYLINE
8
0
 62
     0
 66
     1
 10
0
 20
0
 30
0.0
 40
0
 41
0
  0
VERTEX
  8
0
 10
306.005
 20
36.0139
 30
0.0
 40
0
 41
0
  0
VERTEX
  8
0
 10
306.005
 20
84.2266
 30
0.0
 40
0
 41
0
  0
SEQEND
  8
0
  0
POLYLINE
8
0
 62
     0
 66
     1
 10
0
 20
0
 30
0.0
 40
0
 41
0
  0
VERTEX
  8
0
 10
307.379
 20
78.3918
 30
0.0
 40
0
 41
0
  0
VERTEX
  8
0
 10
318.231
 20
68.8193
 30
0.0
 40
0
 41
0
  0
SEQEND
  8
0
  0
POLYLINE
8
0
 62
     0
 66
     1
 10
0
 20
0
 30
0.0
 40
0.0473883
 41
0.0473883
  0
VERTEX
  8
0
 10
383.109
 20
81.5757
 30
0.0
 40
0.0473883
 41
0.0473883
  0
VERTEX
  8
0
 10
383.133
 20
38.6895
 30
0.0
 40
0.0473883
 41
0.0473883
  0
SEQEND
  8
0
  0
POLYLINE
8
0
 62
     0
 66
     1
 10
0
 20
0
 30
0.0
 40
0
 41
0
  0
VERTEX
  8
0
 10
485.912
 20
78.7825
 30
0.0
 40
0
 41
0
  0
VERTEX
  8
0
 10
485.912
 20
44.5208
 30
0.0
 40
0
 41
0
  0
SEQEND
  8
0
  0
POLYLINE
8
0
 62
     0
 66
     1
 10
0
 20
0
 30
0.0
 40
0.0473883
 41
0.0473883
  0
VERTEX
  8
0
 10
306.015
 20
82.301
 30
0.0
 40
0.0473883
 41
0.0473883
  0
VERTEX
  8
0
 10
383.115
 20
81.5901
 30
0.0
 40
0.0473883
 41
0.0473883
  0
VERTEX
  8
0
 10
485.9
 20
78.7942
 30
0.0
 40
0.0473883
 41
0.0473883
  0
VERTEX
  8
0
 10
550.253
 20
75.323
 30
0.0
 40
0.0473883
 41
0.0473883
  0
SEQEND
  8
0
  0
POLYLINE
8
0
 62
     0
 66
     1
 10
0
 20
0
 30
0.0
 40
0.0473883
 41
0.0473883
  0
VERTEX
  8
0
 10
306.014
 20
37.2944
 30
0.0
 40
0.0473883
 41
0.0473883
  0
VERTEX
  8
0
 10
383.115
 20
38.7278
 30
0.0
 40
0.0473883
 41
0.0473883
  0
VERTEX
  8
0
 10
485.912
 20
44.521
 30
0.0
 40
0.0473883
 41
0.0473883
  0
VERTEX
  8
0
 10
563.225
 20
53.1987
 30
0.0
 40
0.0473883
 41
0.0473883
  0
SEQEND
  8
0
  0
POLYLINE
8
0
 62
     0
 66
     1
 10
0
 20
0
 30
0.0
 40
0.0473883
 41
0.0473883
  0
VERTEX
  8
0
 10
550.158
 20
75.3232
 30
0.0
 40
0.0473883
 41
0.0473883
  0
VERTEX
  8
0
 10
550.409
 20
75.3132
 30
0.0
 40
0.0473883
 41
0.0473883
  0
VERTEX
  8
0
 10
551.011
 20
75.2717
 30
0.0
 40
0.0473883
 41
0.0473883
  0
VERTEX
  8
0
 10
552.218
 20
75.0981
 30
0.0
 40
0.0473883
 41
0.0473883
  0
VERTEX
  8
0
 10
554.128
 20
74.6689
 30
0.0
 40
0.0473883
 41
0.0473883
  0
VERTEX
  8
0
 10
556.331
 20
73.8325
 30
0.0
 40
0.0473883
 41
0.0473883
  0
VERTEX
  8
0
 10
560.133
 20
70.687
 30
0.0
 40
0.0473883
 41
0.0473883
  0
VERTEX
  8
0
 10
561.575
 20
68.5134
 30
0.0
 40
0.0473883
 41
0.0473883
  0
VERTEX
  8
0
 10
562.57
 20
65.7131
 30
0.0
 40
0.0473883
 41
0.0473883
  0
VERTEX
  8
0
 10
563.04
 20
62.1736
 30
0.0
 40
0.0473883
 41
0.0473883
  0
VERTEX
  8
0
 10
563.182
 20
58.6021
 30
0.0
 40
0.0473883
 41
0.0473883
  0
VERTEX
  8
0
 10
563.22
 20
55.7864
 30
0.0
 40
0.0473883
 41
0.0473883
  0
VERTEX
  8
0
 10
563.225
 20
54.0112
 30
0.0
 40
0.0473883
 41
0.0473883
  0
VERTEX
  8
0
 10
563.225
 20
53.3108
 30
0.0
 40
0.0473883
 41
0.0473883
  0
VERTEX
  8
0
 10
563.225
 20
53.2107
 30
0.0
 40
0.0473883
 41
0.0473883
  0
SEQEND
  8
0
  0
POLYLINE
8
0
 62
     0
 66
     1
 10
0
 20
0
 30
0.0
 40
0
 41
0
  0
VERTEX
  8
0
 10
561.271
 20
55.7043
 30
0.0
 40
0
 41
0
  0
VERTEX
  8
0
 10
563.231
 20
53.2107
 30
0.0
 40
0
 41
0
  0
SEQEND
  8
0
  0
POLYLINE
8
0
 62
     0
 66
     1
 10
0
 20
0
 30
0.0
 40
0
 41
0
  0
VERTEX
  8
0
 10
306.014
 20
44.0828
 30
0.0
 40
0
 41
0
  0
VERTEX
  8
0
 10
383.115
 20
44.0828
 30
0.0
 40
0
 41
0
  0
VERTEX
  8
0
 10
486.042
 20
48.3003
 30
0.0
 40
0
 41
0
  0
VERTEX
  8
0
 10
561.247
 20
55.7043
 30
0.0
 40
0
 41
0
  0
SEQEND
  8
0
  0
POLYLINE
8
0
 62
     0
 66
     1
 10
0
 20
0
 30
0.0
 40
0
 41
0
  0
VERTEX
  8
0
 10
306.014
 20
81.7681
 30
0.0
 40
0
 41
0
  0
VERTEX
  8
0
 10
383.115
 20
81.0571
 30
0.0
 40
0
 41
0
  0
VERTEX
  8
0
 10
485.9
 20
78.2612
 30
0.0
 40
0
 41
0
  0
VERTEX
  8
0
 10
554.417
 20
74.5652
 30
0.0
 40
0
 41
0
  0
SEQEND
  8
0
  0
POLYLINE
8
0
 62
     0
 66
     1
 10
0
 20
0
 30
0.0
 40
0
 41
0
  0
VERTEX
  8
0
 10
306.014
 20
81.3652
 30
0.0
 40
0
 41
0
  0
VERTEX
  8
0
 10
383.115
 20
80.6545
 30
0.0
 40
0
 41
0
  0
VERTEX
  8
0
 10
485.9
 20
77.8586
 30
0.0
 40
0
 41
0
  0
VERTEX
  8
0
 10
555.744
 20
74.0911
 30
0.0
 40
0
 41
0
  0
SEQEND
  8
0
  0
POLYLINE
8
0
 62
     0
 66
     1
 10
0
 20
0
 30
0.0
 70
     1
 40
0
 41
0
  0
VERTEX
  8
0
 10
561.188
 20
68.1912
 30
0.0
 40
0
 41
0
  0
VERTEX
  8
0
 10
561.602
 20
67.125
 30
0.0
 40
0
 41
0
  0
VERTEX
  8
0
 10
485.912
 20
67.125
 30
0.0
 40
0
 41
0
  0
VERTEX
  8
0
 10
485.935
 20
68.1912
 30
0.0
 40
0
 41
0
  0
VERTEX
  8
0
 10
561.188
 20
68.1912
 30
0.0
 40
0
 41
0
  0
SEQEND
  8
0
  0
POLYLINE
8
0
 62
     0
 66
     1
 10
0
 20
0
 30
0.0
 40
0
 41
0
  0
VERTEX
  8
0
 10
561.235
 20
56.4036
 30
0.0
 40
0
 41
0
  0
VERTEX
  8
0
 10
560.572
 20
64.9807
 30
0.0
 40
0
 41
0
  0
VERTEX
  8
0
 10
560.927
 20
64.9807
 30
0.0
 40
0
 41
0
  0
VERTEX
  8
0
 10
560.548
 20
69.8618
 30
0.0
 40
0
 41
0
  0
SEQEND
  8
0
  0
POLYLINE
8
0
 62
     0
 66
     1
 10
0
 20
0
 30
0.0
 40
0
 41
0
  0
VERTEX
  8
0
 10
560.572
 20
69.8145
 30
0.0
 40
0
 41
0
  0
VERTEX
  8
0
 10
560.674
 20
69.6802
 30
0.0
 40
0
 41
0
  0
VERTEX
  8
0
 10
561.2
 20
68.8943
 30
0.0
 40
0
 41
0
  0
VERTEX
  8
0
 10
561.851
 20
67.4924
 30
0.0
 40
0
 41
0
  0
VERTEX
  8
0
 10
562.38
 20
65.8535
 30
0.0
 40
0
 41
0
  0
VERTEX
  8
0
 10
562.704
 20
64.0488
 30
0.0
 40
0
 41
0
  0
VERTEX
  8
0
 10
562.878
 20
61.9163
 30
0.0
 40
0
 41
0
  0
VERTEX
  8
0
 10
562.925
 20
59.3101
 30
0.0
 40
0
 41
0
  0
VERTEX
  8
0
 10
562.728
 20
57.6436
 30
0.0
 40
0
 41
0
  0
VERTEX
  8
0
 10
562.147
 20
56.7432
 30
0.0
 40
0
 41
0
  0
VERTEX
  8
0
 10
561.417
 20
56.4036
 30
0.0
 40
0
 41
0
  0
VERTEX
  8
0
 10
561.259
 20
56.3562
 30
0.0
 40
0
 41
0
  0
SEQEND
  8
0
  0
POLYLINE
8
0
 62
     0
 66
     1
 10
0
 20
0
 30
0.0
 70
     1
 40
0
 41
0
  0
VERTEX
  8
0
 10
560.868
 20
60.6128
 30
0.0
 40
0
 41
0
  0
VERTEX
  8
0
 10
560.892
 20
60.198
 30
0.0
 40
0
 41
0
  0
VERTEX
  8
0
 10
485.912
 20
56.1228
 30
0.0
 40
0
 41
0
  0
VERTEX
  8
0
 10
485.912
 20
56.5137
 30
0.0
 40
0
 41
0
  0
VERTEX
  8
0
 10
560.868
 20
60.6128
 30
0.0
 40
0
 41
0
  0
SEQEND
  8
0
  0
POLYLINE
8
0
 62
     0
 66
     1
 10
0
 20
0
 30
0.0
 70
     1
 40
0
 41
0
  0
VERTEX
  8
0
 10
485.923
 20
68.4541
 30
0.0
 40
0
 41
0
  0
VERTEX
  8
0
 10
485.923
 20
66.8503
 30
0.0
 40
0
 41
0
  0
VERTEX
  8
0
 10
383.109
 20
66.8503
 30
0.0
 40
0
 41
0
  0
VERTEX
  8
0
 10
383.109
 20
68.4541
 30
0.0
 40
0
 41
0
  0
VERTEX
  8
0
 10
485.923
 20
68.4541
 30
0.0
 40
0
 41
0
  0
SEQEND
  8
0
  0
POLYLINE
8
0
 62
     0
 66
     1
 10
0
 20
0
 30
0.0
 40
0
 41
0
  0
VERTEX
  8
0
 10
552.219
 20
74.26
 30
0.0
 40
0
 41
0
  0
VERTEX
  8
0
 10
552.764
 20
74.0625
 30
0.0
 40
0
 41
0
  0
VERTEX
  8
0
 10
553.893
 20
73.644
 30
0.0
 40
0
 41
0
  0
VERTEX
  8
0
 10
555.252
 20
73.083
 30
0.0
 40
0
 41
0
  0
VERTEX
  8
0
 10
557.322
 20
71.843
 30
0.0
 40
0
 41
0
  0
VERTEX
  8
0
 10
558.996
 20
70.1768
 30
0.0
 40
0
 41
0
  0
VERTEX
  8
0
 10
560.078
 20
68.5339
 30
0.0
 40
0
 41
0
  0
VERTEX
  8
0
 10
560.275
 20
68.1943
 30
0.0
 40
0
 41
0
  0
SEQEND
  8
0
  0
POLYLINE
8
0
 62
     7
 66
     1
 10
0
 20
0
 30
0.0
 70
     1
 40
0
 41
0
  0
VERTEX
  8
0
 10
382.043
 20
80.6633
 30
0.0
 40
0
 41
0
  0
VERTEX
  8
0
 10
382.049
 20
68.7217
 30
0.0
 40
0
 41
0
  0
VERTEX
  8
0
 10
383.115
 20
68.7217
 30
0.0
 40
0
 41
0
  0
VERTEX
  8
0
 10
383.115
 20
80.6572
 30
0.0
 40
0
 41
0
  0
VERTEX
  8
0
 10
382.043
 20
80.6633
 30
0.0
 40
0
 41
0
  0
SEQEND
  8
0
  0
POLYLINE
8
0
 62
     0
 66
     1
 10
0
 20
0
 30
0.0
 70
     1
 40
0
 41
0
  0
VERTEX
  8
0
 10
382.043
 20
80.6633
 30
0.0
 40
0
 41
0
  0
VERTEX
  8
0
 10
382.049
 20
68.7217
 30
0.0
 40
0
 41
0
  0
VERTEX
  8
0
 10
383.115
 20
68.7217
 30
0.0
 40
0
 41
0
  0
VERTEX
  8
0
 10
383.115
 20
80.6572
 30
0.0
 40
0
 41
0
  0
VERTEX
  8
0
 10
382.043
 20
80.6633
 30
0.0
 40
0
 41
0
  0
SEQEND
  8
0
  0
POLYLINE
8
0
 62
     7
 66
     1
 10
0
 20
0
 30
0.0
 70
     1
 40
0
 41
0
  0
VERTEX
  8
0
 10
383.115
 20
80.6511
 30
0.0
 40
0
 41
0
  0
VERTEX
  8
0
 10
383.115
 20
68.4607
 30
0.0
 40
0
 41
0
  0
VERTEX
  8
0
 10
384.187
 20
68.4607
 30
0.0
 40
0
 41
0
  0
VERTEX
  8
0
 10
384.181
 20
80.6216
 30
0.0
 40
0
 41
0
  0
VERTEX
  8
0
 10
383.115
 20
80.6511
 30
0.0
 40
0
 41
0
  0
SEQEND
  8
0
  0
POLYLINE
8
0
 62
     0
 66
     1
 10
0
 20
0
 30
0.0
 70
     1
 40
0
 41
0
  0
VERTEX
  8
0
 10
383.115
 20
80.6511
 30
0.0
 40
0
 41
0
  0
VERTEX
  8
0
 10
383.115
 20
68.4607
 30
0.0
 40
0
 41
0
  0
VERTEX
  8
0
 10
384.187
 20
68.4607
 30
0.0
 40
0
 41
0
  0
VERTEX
  8
0
 10
384.181
 20
80.6216
 30
0.0
 40
0
 41
0
  0
VERTEX
  8
0
 10
383.115
 20
80.6511
 30
0.0
 40
0
 41
0
  0
SEQEND
  8
0
  0
POLYLINE
8
0
 62
     0
 66
     1
 10
0
 20
0
 30
0.0
 70
     1
 40
0
 41
0
  0
VERTEX
  8
0
 10
485.912
 20
56.5134
 30
0.0
 40
0
 41
0
  0
VERTEX
  8
0
 10
485.912
 20
56.1226
 30
0.0
 40
0
 41
0
  0
VERTEX
  8
0
 10
383.127
 20
53.3149
 30
0.0
 40
0
 41
0
  0
VERTEX
  8
0
 10
383.127
 20
53.7295
 30
0.0
 40
0
 41
0
  0
VERTEX
  8
0
 10
485.912
 20
56.5134
 30
0.0
 40
0
 41
0
  0
SEQEND
  8
0
  0
POLYLINE
8
0
 62
     7
 66
     1
 10
0
 20
0
 30
0.0
 70
     1
 40
0
 41
0
  0
VERTEX
  8
0
 10
307.092
 20
81.3503
 30
0.0
 40
0
 41
0
  0
VERTEX
  8
0
 10
307.092
 20
78.6018
 30
0.0
 40
0
 41
0
  0
VERTEX
  8
0
 10
307.898
 20
77.9387
 30
0.0
 40
0
 41
0
  0
VERTEX
  8
0
 10
307.898
 20
81.3445
 30
0.0
 40
0
 41
0
  0
VERTEX
  8
0
 10
307.092
 20
81.3503
 30
0.0
 40
0
 41
0
  0
SEQEND
  8
0
  0
POLYLINE
8
0
 62
     0
 66
     1
 10
0
 20
0
 30
0.0
 70
     1
 40
0
 41
0
  0
VERTEX
  8
0
 10
307.092
 20
81.3503
 30
0.0
 40
0
 41
0
  0
VERTEX
  8
0
 10
307.092
 20
78.6018
 30
0.0
 40
0
 41
0
  0
VERTEX
  8
0
 10
307.898
 20
77.9387
 30
0.0
 40
0
 41
0
  0
VERTEX
  8
0
 10
307.898
 20
81.3445
 30
0.0
 40
0
 41
0
  0
VERTEX
  8
0
 10
307.092
 20
81.3503
 30
0.0
 40
0
 41
0
  0
SEQEND
  8
0
  0
POLYLINE
8
0
 62
     0
 66
     1
 10
0
 20
0
 30
0.0
 70
     1
 40
0
 41
0
  0
VERTEX
  8
0
 10
307.904
 20
53.3083
 30
0.0
 40
0
 41
0
  0
VERTEX
  8
0
 10
307.904
 20
53.729
 30
0.0
 40
0
 41
0
  0
VERTEX
  8
0
 10
383.121
 20
53.7349
 30
0.0
 40
0
 41
0
  0
VERTEX
  8
0
 10
383.121
 20
53.3203
 30
0.0
 40
0
 41
0
  0
VERTEX
  8
0
 10
307.904
 20
53.3083
 30
0.0
 40
0
 41
0
  0
SEQEND
  8
0
  0
POLYLINE
8
0
 62
     7
 66
     1
 10
0
 20
0
 30
0.0
 70
     1
 40
0
 41
0
  0
VERTEX
  8
0
 10
369.876
 20
80.7817
 30
0.0
 40
0
 41
0
  0
VERTEX
  8
0
 10
370.676
 20
80.77
 30
0.0
 40
0
 41
0
  0
VERTEX
  8
0
 10
370.676
 20
43.5527
 30
0.0
 40
0
 41
0
  0
VERTEX
  8
0
 10
369.876
 20
43.5527
 30
0.0
 40
0
 41
0
  0
VERTEX
  8
0
 10
369.876
 20
80.7817
 30
0.0
 40
0
 41
0
  0
SEQEND
  8
0
  0
POLYLINE
8
0
 62
     0
 66
     1
 10
0
 20
0
 30
0.0
 70
     1
 40
0
 41
0
  0
VERTEX
  8
0
 10
369.876
 20
80.7817
 30
0.0
 40
0
 41
0
  0
VERTEX
  8
0
 10
370.676
 20
80.77
 30
0.0
 40
0
 41
0
  0
VERTEX
  8
0
 10
370.676
 20
43.5527
 30
0.0
 40
0
 41
0
  0
VERTEX
  8
0
 10
369.876
 20
43.5527
 30
0.0
 40
0
 41
0
  0
VERTEX
  8
0
 10
369.876
 20
80.7817
 30
0.0
 40
0
 41
0
  0
SEQEND
  8
0
  0
POLYLINE
8
0
 62
     7
 66
     1
 10
0
 20
0
 30
0.0
 70
     1
 40
0
 41
0
  0
VERTEX
  8
0
 10
356.998
 20
80.9063
 30
0.0
 40
0
 41
0
  0
VERTEX
  8
0
 10
357.816
 20
80.8884
 30
0.0
 40
0
 41
0
  0
VERTEX
  8
0
 10
357.816
 20
43.5527
 30
0.0
 40
0
 41
0
  0
VERTEX
  8
0
 10
356.998
 20
43.5527
 30
0.0
 40
0
 41
0
  0
VERTEX
  8
0
 10
356.998
 20
80.9063
 30
0.0
 40
0
 41
0
  0
SEQEND
  8
0
  0
POLYLINE
8
0
 62
     0
 66
     1
 10
0
 20
0
 30
0.0
 70
     1
 40
0
 41
0
  0
VERTEX
  8
0
 10
356.998
 20
80.9063
 30
0.0
 40
0
 41
0
  0
VERTEX
  8
0
 10
357.816
 20
80.8884
 30
0.0
 40
0
 41
0
  0
VERTEX
  8
0
 10
357.816
 20
43.5527
 30
0.0
 40
0
 41
0
  0
VERTEX
  8
0
 10
356.998
 20
43.5527
 30
0.0
 40
0
 41
0
  0
VERTEX
  8
0
 10
356.998
 20
80.9063
 30
0.0
 40
0
 41
0
  0
SEQEND
  8
0
  0
POLYLINE
8
0
 62
     7
 66
     1
 10
0
 20
0
 30
0.0
 70
     1
 40
0
 41
0
  0
VERTEX
  8
0
 10
344.144
 20
81.0188
 30
0.0
 40
0
 41
0
  0
VERTEX
  8
0
 10
344.944
 20
81.0068
 30
0.0
 40
0
 41
0
  0
VERTEX
  8
0
 10
344.944
 20
43.5527
 30
0.0
 40
0
 41
0
  0
VERTEX
  8
0
 10
344.144
 20
43.5527
 30
0.0
 40
0
 41
0
  0
VERTEX
  8
0
 10
344.144
 20
81.0188
 30
0.0
 40
0
 41
0
  0
SEQEND
  8
0
  0
POLYLINE
8
0
 62
     0
 66
     1
 10
0
 20
0
 30
0.0
 70
     1
 40
0
 41
0
  0
VERTEX
  8
0
 10
344.144
 20
81.0188
 30
0.0
 40
0
 41
0
  0
VERTEX
  8
0
 10
344.944
 20
81.0068
 30
0.0
 40
0
 41
0
  0
VERTEX
  8
0
 10
344.944
 20
43.5527
 30
0.0
 40
0
 41
0
  0
VERTEX
  8
0
 10
344.144
 20
43.5527
 30
0.0
 40
0
 41
0
  0
VERTEX
  8
0
 10
344.144
 20
81.0188
 30
0.0
 40
0
 41
0
  0
SEQEND
  8
0
  0
POLYLINE
8
0
 62
     7
 66
     1
 10
0
 20
0
 30
0.0
 70
     1
 40
0
 41
0
  0
VERTEX
  8
0
 10
331.302
 20
81.1313
 30
0.0
 40
0
 41
0
  0
VERTEX
  8
0
 10
332.102
 20
81.1252
 30
0.0
 40
0
 41
0
  0
VERTEX
  8
0
 10
332.102
 20
43.5527
 30
0.0
 40
0
 41
0
  0
VERTEX
  8
0
 10
331.302
 20
43.5527
 30
0.0
 40
0
 41
0
  0
VERTEX
  8
0
 10
331.302
 20
81.1313
 30
0.0
 40
0
 41
0
  0
SEQEND
  8
0
  0
POLYLINE
8
0
 62
     0
 66
     1
 10
0
 20
0
 30
0.0
 70
     1
 40
0
 41
0
  0
VERTEX
  8
0
 10
331.302
 20
81.1313
 30
0.0
 40
0
 41
0
  0
VERTEX
  8
0
 10
332.102
 20
81.1252
 30
0.0
 40
0
 41
0
  0
VERTEX
  8
0
 10
332.102
 20
43.5527
 30
0.0
 40
0
 41
0
  0
VERTEX
  8
0
 10
331.302
 20
43.5527
 30
0.0
 40
0
 41
0
  0
VERTEX
  8
0
 10
331.302
 20
81.1313
 30
0.0
 40
0
 41
0
  0
SEQEND
  8
0
  0
POLYLINE
8
0
 62
     7
 66
     1
 10
0
 20
0
 30
0.0
 70
     1
 40
0
 41
0
  0
VERTEX
  8
0
 10
318.46
 20
81.2556
 30
0.0
 40
0
 41
0
  0
VERTEX
  8
0
 10
319.259
 20
81.2439
 30
0.0
 40
0
 41
0
  0
VERTEX
  8
0
 10
319.259
 20
43.5527
 30
0.0
 40
0
 41
0
  0
VERTEX
  8
0
 10
318.46
 20
43.5527
 30
0.0
 40
0
 41
0
  0
VERTEX
  8
0
 10
318.46
 20
81.2556
 30
0.0
 40
0
 41
0
  0
SEQEND
  8
0
  0
POLYLINE
8
0
 62
     0
 66
     1
 10
0
 20
0
 30
0.0
 70
     1
 40
0
 41
0
  0
VERTEX
  8
0
 10
318.46
 20
81.2556
 30
0.0
 40
0
 41
0
  0
VERTEX
  8
0
 10
319.259
 20
81.2439
 30
0.0
 40
0
 41
0
  0
VERTEX
  8
0
 10
319.259
 20
43.5527
 30
0.0
 40
0
 41
0
  0
VERTEX
  8
0
 10
318.46
 20
43.5527
 30
0.0
 40
0
 41
0
  0
VERTEX
  8
0
 10
318.46
 20
81.2556
 30
0.0
 40
0
 41
0
  0
SEQEND
  8
0
  0
POLYLINE
8
0
 62
     7
 66
     1
 10
0
 20
0
 30
0.0
 70
     1
 40
0
 41
0
  0
VERTEX
  8
0
 10
485.39
 20
66.8376
 30
0.0
 40
0
 41
0
  0
VERTEX
  8
0
 10
485.911
 20
66.8376
 30
0.0
 40
0
 41
0
  0
VERTEX
  8
0
 10
485.911
 20
47.8943
 30
0.0
 40
0
 41
0
  0
VERTEX
  8
0
 10
485.39
 20
47.8943
 30
0.0
 40
0
 41
0
  0
VERTEX
  8
0
 10
485.39
 20
66.8376
 30
0.0
 40
0
 41
0
  0
SEQEND
  8
0
  0
POLYLINE
8
0
 62
     0
 66
     1
 10
0
 20
0
 30
0.0
 70
     1
 40
0
 41
0
  0
VERTEX
  8
0
 10
485.39
 20
66.8376
 30
0.0
 40
0
 41
0
  0
VERTEX
  8
0
 10
485.911
 20
66.8376
 30
0.0
 40
0
 41
0
  0
VERTEX
  8
0
 10
485.911
 20
47.8943
 30
0.0
 40
0
 41
0
  0
VERTEX
  8
0
 10
485.39
 20
47.8943
 30
0.0
 40
0
 41
0
  0
VERTEX
  8
0
 10
485.39
 20
66.8376
 30
0.0
 40
0
 41
0
  0
SEQEND
  8
0
  0
POLYLINE
8
0
 62
     7
 66
     1
 10
0
 20
0
 30
0.0
 70
     1
 40
0
 41
0
  0
VERTEX
  8
0
 10
485.911
 20
67.1101
 30
0.0
 40
0
 41
0
  0
VERTEX
  8
0
 10
486.456
 20
67.1101
 30
0.0
 40
0
 41
0
  0
VERTEX
  8
0
 10
486.456
 20
47.8943
 30
0.0
 40
0
 41
0
  0
VERTEX
  8
0
 10
485.911
 20
47.8943
 30
0.0
 40
0
 41
0
  0
VERTEX
  8
0
 10
485.911
 20
67.1101
 30
0.0
 40
0
 41
0
  0
SEQEND
  8
0
  0
POLYLINE
8
0
 62
     0
 66
     1
 10
0
 20
0
 30
0.0
 70
     1
 40
0
 41
0
  0
VERTEX
  8
0
 10
485.911
 20
67.1101
 30
0.0
 40
0
 41
0
  0
VERTEX
  8
0
 10
486.456
 20
67.1101
 30
0.0
 40
0
 41
0
  0
VERTEX
  8
0
 10
486.456
 20
47.8943
 30
0.0
 40
0
 41
0
  0
VERTEX
  8
0
 10
485.911
 20
47.8943
 30
0.0
 40
0
 41
0
  0
VERTEX
  8
0
 10
485.911
 20
67.1101
 30
0.0
 40
0
 41
0
  0
SEQEND
  8
0
  0
POLYLINE
8
0
 62
     7
 66
     1
 10
0
 20
0
 30
0.0
 70
     1
 40
0
 41
0
  0
VERTEX
  8
0
 10
549.91
 20
74.405
 30
0.0
 40
0
 41
0
  0
VERTEX
  8
0
 10
550.443
 20
74.3755
 30
0.0
 40
0
 41
0
  0
VERTEX
  8
0
 10
550.443
 20
54.2122
 30
0.0
 40
0
 41
0
  0
VERTEX
  8
0
 10
549.91
 20
54.2122
 30
0.0
 40
0
 41
0
  0
VERTEX
  8
0
 10
549.91
 20
74.405
 30
0.0
 40
0
 41
0
  0
SEQEND
  8
0
  0
POLYLINE
8
0
 62
     0
 66
     1
 10
0
 20
0
 30
0.0
 70
     1
 40
0
 41
0
  0
VERTEX
  8
0
 10
549.91
 20
74.405
 30
0.0
 40
0
 41
0
  0
VERTEX
  8
0
 10
550.443
 20
74.3755
 30
0.0
 40
0
 41
0
  0
VERTEX
  8
0
 10
550.443
 20
54.2122
 30
0.0
 40
0
 41
0
  0
VERTEX
  8
0
 10
549.91
 20
54.2122
 30
0.0
 40
0
 41
0
  0
VERTEX
  8
0
 10
549.91
 20
74.405
 30
0.0
 40
0
 41
0
  0
SEQEND
  8
0
  0
POLYLINE
8
0
 62
     7
 66
     1
 10
0
 20
0
 30
0.0
 70
     1
 40
0
 41
0
  0
VERTEX
  8
0
 10
537.061
 20
75.1011
 30
0.0
 40
0
 41
0
  0
VERTEX
  8
0
 10
537.594
 20
75.0654
 30
0.0
 40
0
 41
0
  0
VERTEX
  8
0
 10
537.594
 20
52.9473
 30
0.0
 40
0
 41
0
  0
VERTEX
  8
0
 10
537.061
 20
52.9473
 30
0.0
 40
0
 41
0
  0
VERTEX
  8
0
 10
537.061
 20
75.1011
 30
0.0
 40
0
 41
0
  0
SEQEND
  8
0
  0
POLYLINE
8
0
 62
     0
 66
     1
 10
0
 20
0
 30
0.0
 70
     1
 40
0
 41
0
  0
VERTEX
  8
0
 10
537.061
 20
75.1011
 30
0.0
 40
0
 41
0
  0
VERTEX
  8
0
 10
537.594
 20
75.0654
 30
0.0
 40
0
 41
0
  0
VERTEX
  8
0
 10
537.594
 20
52.9473
 30
0.0
 40
0
 41
0
  0
VERTEX
  8
0
 10
537.061
 20
52.9473
 30
0.0
 40
0
 41
0
  0
VERTEX
  8
0
 10
537.061
 20
75.1011
 30
0.0
 40
0
 41
0
  0
SEQEND
  8
0
  0
POLYLINE
8
0
 62
     7
 66
     1
 10
0
 20
0
 30
0.0
 70
     1
 40
0
 41
0
  0
VERTEX
  8
0
 10
524.21
 20
75.791
 30
0.0
 40
0
 41
0
  0
VERTEX
  8
0
 10
524.744
 20
75.7644
 30
0.0
 40
0
 41
0
  0
VERTEX
  8
0
 10
524.744
 20
51.6826
 30
0.0
 40
0
 41
0
  0
VERTEX
  8
0
 10
524.21
 20
51.6826
 30
0.0
 40
0
 41
0
  0
VERTEX
  8
0
 10
524.21
 20
75.791
 30
0.0
 40
0
 41
0
  0
SEQEND
  8
0
  0
POLYLINE
8
0
 62
     0
 66
     1
 10
0
 20
0
 30
0.0
 70
     1
 40
0
 41
0
  0
VERTEX
  8
0
 10
524.21
 20
75.791
 30
0.0
 40
0
 41
0
  0
VERTEX
  8
0
 10
524.744
 20
75.7644
 30
0.0
 40
0
 41
0
  0
VERTEX
  8
0
 10
524.744
 20
51.6826
 30
0.0
 40
0
 41
0
  0
VERTEX
  8
0
 10
524.21
 20
51.6826
 30
0.0
 40
0
 41
0
  0
VERTEX
  8
0
 10
524.21
 20
75.791
 30
0.0
 40
0
 41
0
  0
SEQEND
  8
0
  0
POLYLINE
8
0
 62
     7
 66
     1
 10
0
 20
0
 30
0.0
 70
     1
 40
0
 41
0
  0
VERTEX
  8
0
 10
511.344
 20
76.4841
 30
0.0
 40
0
 41
0
  0
VERTEX
  8
0
 10
511.889
 20
76.4546
 30
0.0
 40
0
 41
0
  0
VERTEX
  8
0
 10
511.889
 20
50.418
 30
0.0
 40
0
 41
0
  0
VERTEX
  8
0
 10
511.344
 20
50.418
 30
0.0
 40
0
 41
0
  0
VERTEX
  8
0
 10
511.344
 20
76.4841
 30
0.0
 40
0
 41
0
  0
SEQEND
  8
0
  0
POLYLINE
8
0
 62
     0
 66
     1
 10
0
 20
0
 30
0.0
 70
     1
 40
0
 41
0
  0
VERTEX
  8
0
 10
511.344
 20
76.4841
 30
0.0
 40
0
 41
0
  0
VERTEX
  8
0
 10
511.889
 20
76.4546
 30
0.0
 40
0
 41
0
  0
VERTEX
  8
0
 10
511.889
 20
50.418
 30
0.0
 40
0
 41
0
  0
VERTEX
  8
0
 10
511.344
 20
50.418
 30
0.0
 40
0
 41
0
  0
VERTEX
  8
0
 10
511.344
 20
76.4841
 30
0.0
 40
0
 41
0
  0
SEQEND
  8
0
  0
POLYLINE
8
0
 62
     7
 66
     1
 10
0
 20
0
 30
0.0
 70
     1
 40
0
 41
0
  0
VERTEX
  8
0
 10
498.502
 20
77.1802
 30
0.0
 40
0
 41
0
  0
VERTEX
  8
0
 10
499.035
 20
77.1477
 30
0.0
 40
0
 41
0
  0
VERTEX
  8
0
 10
499.035
 20
49.1563
 30
0.0
 40
0
 41
0
  0
VERTEX
  8
0
 10
498.502
 20
49.1563
 30
0.0
 40
0
 41
0
  0
VERTEX
  8
0
 10
498.502
 20
77.1802
 30
0.0
 40
0
 41
0
  0
SEQEND
  8
0
  0
POLYLINE
8
0
 62
     0
 66
     1
 10
0
 20
0
 30
0.0
 70
     1
 40
0
 41
0
  0
VERTEX
  8
0
 10
498.502
 20
77.1802
 30
0.0
 40
0
 41
0
  0
VERTEX
  8
0
 10
499.035
 20
77.1477
 30
0.0
 40
0
 41
0
  0
VERTEX
  8
0
 10
499.035
 20
49.1563
 30
0.0
 40
0
 41
0
  0
VERTEX
  8
0
 10
498.502
 20
49.1563
 30
0.0
 40
0
 41
0
  0
VERTEX
  8
0
 10
498.502
 20
77.1802
 30
0.0
 40
0
 41
0
  0
SEQEND
  8
0
  0
POLYLINE
8
0
 62
     7
 66
     1
 10
0
 20
0
 30
0.0
 70
     1
 40
0
 41
0
  0
VERTEX
  8
0
 10
486.445
 20
77.8259
 30
0.0
 40
0
 41
0
  0
VERTEX
  8
0
 10
486.445
 20
68.2063
 30
0.0
 40
0
 41
0
  0
VERTEX
  8
0
 10
485.923
 20
68.1826
 30
0.0
 40
0
 41
0
  0
VERTEX
  8
0
 10
485.917
 20
77.8555
 30
0.0
 40
0
 41
0
  0
VERTEX
  8
0
 10
486.445
 20
77.8259
 30
0.0
 40
0
 41
0
  0
SEQEND
  8
0
  0
POLYLINE
8
0
 62
     0
 66
     1
 10
0
 20
0
 30
0.0
 70
     1
 40
0
 41
0
  0
VERTEX
  8
0
 10
486.445
 20
77.8259
 30
0.0
 40
0
 41
0
  0
VERTEX
  8
0
 10
486.445
 20
68.2063
 30
0.0
 40
0
 41
0
  0
VERTEX
  8
0
 10
485.923
 20
68.1826
 30
0.0
 40
0
 41
0
  0
VERTEX
  8
0
 10
485.917
 20
77.8555
 30
0.0
 40
0
 41
0
  0
VERTEX
  8
0
 10
486.445
 20
77.8259
 30
0.0
 40
0
 41
0
  0
SEQEND
  8
0
  0
POLYLINE
8
0
 62
     7
 66
     1
 10
0
 20
0
 30
0.0
 70
     1
 40
0
 41
0
  0
VERTEX
  8
0
 10
485.906
 20
77.8613
 30
0.0
 40
0
 41
0
  0
VERTEX
  8
0
 10
485.911
 20
68.4729
 30
0.0
 40
0
 41
0
  0
VERTEX
  8
0
 10
485.414
 20
68.4729
 30
0.0
 40
0
 41
0
  0
VERTEX
  8
0
 10
485.414
 20
77.8733
 30
0.0
 40
0
 41
0
  0
VERTEX
  8
0
 10
485.906
 20
77.8613
 30
0.0
 40
0
 41
0
  0
SEQEND
  8
0
  0
POLYLINE
8
0
 62
     0
 66
     1
 10
0
 20
0
 30
0.0
 70
     1
 40
0
 41
0
  0
VERTEX
  8
0
 10
485.906
 20
77.8613
 30
0.0
 40
0
 41
0
  0
VERTEX
  8
0
 10
485.911
 20
68.4729
 30
0.0
 40
0
 41
0
  0
VERTEX
  8
0
 10
485.414
 20
68.4729
 30
0.0
 40
0
 41
0
  0
VERTEX
  8
0
 10
485.414
 20
77.8733
 30
0.0
 40
0
 41
0
  0
VERTEX
  8
0
 10
485.906
 20
77.8613
 30
0.0
 40
0
 41
0
  0
SEQEND
  8
0
  0
POLYLINE
8
0
 62
     7
 66
     1
 10
0
 20
0
 30
0.0
 70
     1
 40
0
 41
0
  0
VERTEX
  8
0
 10
472.791
 20
78.2168
 30
0.0
 40
0
 41
0
  0
VERTEX
  8
0
 10
473.324
 20
78.2051
 30
0.0
 40
0
 41
0
  0
VERTEX
  8
0
 10
473.324
 20
47.3674
 30
0.0
 40
0
 41
0
  0
VERTEX
  8
0
 10
472.791
 20
47.3674
 30
0.0
 40
0
 41
0
  0
VERTEX
  8
0
 10
472.791
 20
78.2168
 30
0.0
 40
0
 41
0
  0
SEQEND
  8
0
  0
POLYLINE
8
0
 62
     0
 66
     1
 10
0
 20
0
 30
0.0
 70
     1
 40
0
 41
0
  0
VERTEX
  8
0
 10
472.791
 20
78.2168
 30
0.0
 40
0
 41
0
  0
VERTEX
  8
0
 10
473.324
 20
78.2051
 30
0.0
 40
0
 41
0
  0
VERTEX
  8
0
 10
473.324
 20
47.3674
 30
0.0
 40
0
 41
0
  0
VERTEX
  8
0
 10
472.791
 20
47.3674
 30
0.0
 40
0
 41
0
  0
VERTEX
  8
0
 10
472.791
 20
78.2168
 30
0.0
 40
0
 41
0
  0
SEQEND
  8
0
  0
POLYLINE
8
0
 62
     7
 66
     1
 10
0
 20
0
 30
0.0
 70
     1
 40
0
 41
0
  0
VERTEX
  8
0
 10
459.949
 20
78.5664
 30
0.0
 40
0
 41
0
  0
VERTEX
  8
0
 10
460.482
 20
78.5544
 30
0.0
 40
0
 41
0
  0
VERTEX
  8
0
 10
460.482
 20
46.8401
 30
0.0
 40
0
 41
0
  0
VERTEX
  8
0
 10
459.949
 20
46.8401
 30
0.0
 40
0
 41
0
  0
VERTEX
  8
0
 10
459.949
 20
78.5664
 30
0.0
 40
0
 41
0
  0
SEQEND
  8
0
  0
POLYLINE
8
0
 62
     0
 66
     1
 10
0
 20
0
 30
0.0
 70
     1
 40
0
 41
0
  0
VERTEX
  8
0
 10
459.949
 20
78.5664
 30
0.0
 40
0
 41
0
  0
VERTEX
  8
0
 10
460.482
 20
78.5544
 30
0.0
 40
0
 41
0
  0
VERTEX
  8
0
 10
460.482
 20
46.8401
 30
0.0
 40
0
 41
0
  0
VERTEX
  8
0
 10
459.949
 20
46.8401
 30
0.0
 40
0
 41
0
  0
VERTEX
  8
0
 10
459.949
 20
78.5664
 30
0.0
 40
0
 41
0
  0
SEQEND
  8
0
  0
POLYLINE
8
0
 62
     7
 66
     1
 10
0
 20
0
 30
0.0
 70
     1
 40
0
 41
0
  0
VERTEX
  8
0
 10
447.106
 20
78.9099
 30
0.0
 40
0
 41
0
  0
VERTEX
  8
0
 10
447.64
 20
78.8982
 30
0.0
 40
0
 41
0
  0
VERTEX
  8
0
 10
447.64
 20
46.3191
 30
0.0
 40
0
 41
0
  0
VERTEX
  8
0
 10
447.106
 20
46.3191
 30
0.0
 40
0
 41
0
  0
VERTEX
  8
0
 10
447.106
 20
78.9099
 30
0.0
 40
0
 41
0
  0
SEQEND
  8
0
  0
POLYLINE
8
0
 62
     0
 66
     1
 10
0
 20
0
 30
0.0
 70
     1
 40
0
 41
0
  0
VERTEX
  8
0
 10
447.106
 20
78.9099
 30
0.0
 40
0
 41
0
  0
VERTEX
  8
0
 10
447.64
 20
78.8982
 30
0.0
 40
0
 41
0
  0
VERTEX
  8
0
 10
447.64
 20
46.3191
 30
0.0
 40
0
 41
0
  0
VERTEX
  8
0
 10
447.106
 20
46.3191
 30
0.0
 40
0
 41
0
  0
VERTEX
  8
0
 10
447.106
 20
78.9099
 30
0.0
 40
0
 41
0
  0
SEQEND
  8
0
  0
POLYLINE
8
0
 62
     7
 66
     1
 10
0
 20
0
 30
0.0
 70
     1
 40
0
 41
0
  0
VERTEX
  8
0
 10
434.252
 20
79.2654
 30
0.0
 40
0
 41
0
  0
VERTEX
  8
0
 10
434.786
 20
79.2534
 30
0.0
 40
0
 41
0
  0
VERTEX
  8
0
 10
434.786
 20
45.7917
 30
0.0
 40
0
 41
0
  0
VERTEX
  8
0
 10
434.252
 20
45.7917
 30
0.0
 40
0
 41
0
  0
VERTEX
  8
0
 10
434.252
 20
79.2654
 30
0.0
 40
0
 41
0
  0
SEQEND
  8
0
  0
POLYLINE
8
0
 62
     0
 66
     1
 10
0
 20
0
 30
0.0
 70
     1
 40
0
 41
0
  0
VERTEX
  8
0
 10
434.252
 20
79.2654
 30
0.0
 40
0
 41
0
  0
VERTEX
  8
0
 10
434.786
 20
79.2534
 30
0.0
 40
0
 41
0
  0
VERTEX
  8
0
 10
434.786
 20
45.7917
 30
0.0
 40
0
 41
0
  0
VERTEX
  8
0
 10
434.252
 20
45.7917
 30
0.0
 40
0
 41
0
  0
VERTEX
  8
0
 10
434.252
 20
79.2654
 30
0.0
 40
0
 41
0
  0
SEQEND
  8
0
  0
POLYLINE
8
0
 62
     7
 66
     1
 10
0
 20
0
 30
0.0
 70
     1
 40
0
 41
0
  0
VERTEX
  8
0
 10
421.393
 20
79.6147
 30
0.0
 40
0
 41
0
  0
VERTEX
  8
0
 10
421.938
 20
79.603
 30
0.0
 40
0
 41
0
  0
VERTEX
  8
0
 10
421.938
 20
45.2646
 30
0.0
 40
0
 41
0
  0
VERTEX
  8
0
 10
421.393
 20
45.2646
 30
0.0
 40
0
 41
0
  0
VERTEX
  8
0
 10
421.393
 20
79.6147
 30
0.0
 40
0
 41
0
  0
SEQEND
  8
0
  0
POLYLINE
8
0
 62
     0
 66
     1
 10
0
 20
0
 30
0.0
 70
     1
 40
0
 41
0
  0
VERTEX
  8
0
 10
421.393
 20
79.6147
 30
0.0
 40
0
 41
0
  0
VERTEX
  8
0
 10
421.938
 20
79.603
 30
0.0
 40
0
 41
0
  0
VERTEX
  8
0
 10
421.938
 20
45.2646
 30
0.0
 40
0
 41
0
  0
VERTEX
  8
0
 10
421.393
 20
45.2646
 30
0.0
 40
0
 41
0
  0
VERTEX
  8
0
 10
421.393
 20
79.6147
 30
0.0
 40
0
 41
0
  0
SEQEND
  8
0
  0
POLYLINE
8
0
 62
     7
 66
     1
 10
0
 20
0
 30
0.0
 70
     1
 40
0
 41
0
  0
VERTEX
  8
0
 10
408.533
 20
79.9644
 30
0.0
 40
0
 41
0
  0
VERTEX
  8
0
 10
409.066
 20
79.9495
 30
0.0
 40
0
 41
0
  0
VERTEX
  8
0
 10
409.066
 20
44.7373
 30
0.0
 40
0
 41
0
  0
VERTEX
  8
0
 10
408.533
 20
44.7373
 30
0.0
 40
0
 41
0
  0
VERTEX
  8
0
 10
408.533
 20
79.9644
 30
0.0
 40
0
 41
0
  0
SEQEND
  8
0
  0
POLYLINE
8
0
 62
     0
 66
     1
 10
0
 20
0
 30
0.0
 70
     1
 40
0
 41
0
  0
VERTEX
  8
0
 10
408.533
 20
79.9644
 30
0.0
 40
0
 41
0
  0
VERTEX
  8
0
 10
409.066
 20
79.9495
 30
0.0
 40
0
 41
0
  0
VERTEX
  8
0
 10
409.066
 20
44.7373
 30
0.0
 40
0
 41
0
  0
VERTEX
  8
0
 10
408.533
 20
44.7373
 30
0.0
 40
0
 41
0
  0
VERTEX
  8
0
 10
408.533
 20
79.9644
 30
0.0
 40
0
 41
0
  0
SEQEND
  8
0
  0
POLYLINE
8
0
 62
     7
 66
     1
 10
0
 20
0
 30
0.0
 70
     1
 40
0
 41
0
  0
VERTEX
  8
0
 10
395.685
 20
80.3108
 30
0.0
 40
0
 41
0
  0
VERTEX
  8
0
 10
396.218
 20
80.302
 30
0.0
 40
0
 41
0
  0
VERTEX
  8
0
 10
396.218
 20
44.2102
 30
0.0
 40
0
 41
0
  0
VERTEX
  8
0
 10
395.685
 20
44.2102
 30
0.0
 40
0
 41
0
  0
VERTEX
  8
0
 10
395.685
 20
80.3108
 30
0.0
 40
0
 41
0
  0
SEQEND
  8
0
  0
POLYLINE
8
0
 62
     0
 66
     1
 10
0
 20
0
 30
0.0
 70
     1
 40
0
 41
0
  0
VERTEX
  8
0
 10
395.685
 20
80.3108
 30
0.0
 40
0
 41
0
  0
VERTEX
  8
0
 10
396.218
 20
80.302
 30
0.0
 40
0
 41
0
  0
VERTEX
  8
0
 10
396.218
 20
44.2102
 30
0.0
 40
0
 41
0
  0
VERTEX
  8
0
 10
395.685
 20
44.2102
 30
0.0
 40
0
 41
0
  0
VERTEX
  8
0
 10
395.685
 20
80.3108
 30
0.0
 40
0
 41
0
  0
SEQEND
  8
0
  0
POLYLINE
8
0
 62
     0
 66
     1
 10
0
 20
0
 30
0.0
 40
0
 41
0
  0
VERTEX
  8
0
 10
560.909
 20
64.9954
 30
0.0
 40
0
 41
0
  0
VERTEX
  8
0
 10
560.507
 20
70.1726
 30
0.0
 40
0
 41
0
  0
SEQEND
  8
0
  0
POLYLINE
8
0
 62
     0
 66
     1
 10
0
 20
0
 30
0.0
 40
0
 41
0
  0
VERTEX
  8
0
 10
561.265
 20
55.7195
 30
0.0
 40
0
 41
0
  0
VERTEX
  8
0
 10
560.104
 20
70.6702
 30
0.0
 40
0
 41
0
  0
SEQEND
  8
0
  0
POLYLINE
8
0
 62
     7
 66
     1
 10
0
 20
0
 30
0.0
 70
     1
 40
0
 41
0
  0
VERTEX
  8
0
 10
380.965
 20
66.583
 30
0.0
 40
0
 41
0
  0
VERTEX
  8
0
 10
380.965
 20
44.0913
 30
0.0
 40
0
 41
0
  0
VERTEX
  8
0
 10
383.115
 20
38.7249
 30
0.0
 40
0
 41
0
  0
VERTEX
  8
0
 10
383.121
 20
66.583
 30
0.0
 40
0
 41
0
  0
VERTEX
  8
0
 10
380.965
 20
66.583
 30
0.0
 40
0
 41
0
  0
SEQEND
  8
0
  0
POLYLINE
8
0
 62
     0
 66
     1
 10
0
 20
0
 30
0.0
 70
     1
 40
0
 41
0
  0
VERTEX
  8
0
 10
380.965
 20
66.583
 30
0.0
 40
0
 41
0
  0
VERTEX
  8
0
 10
380.965
 20
44.0913
 30
0.0
 40
0
 41
0
  0
VERTEX
  8
0
 10
383.115
 20
38.7249
 30
0.0
 40
0
 41
0
  0
VERTEX
  8
0
 10
383.121
 20
66.583
 30
0.0
 40
0
 41
0
  0
VERTEX
  8
0
 10
380.965
 20
66.583
 30
0.0
 40
0
 41
0
  0
SEQEND
  8
0
  0
POLYLINE
8
0
 62
     7
 66
     1
 10
0
 20
0
 30
0.0
 70
     1
 40
0
 41
0
  0
VERTEX
  8
0
 10
385.271
 20
66.8494
 30
0.0
 40
0
 41
0
  0
VERTEX
  8
0
 10
385.248
 20
44.0796
 30
0.0
 40
0
 41
0
  0
VERTEX
  8
0
 10
383.115
 20
38.7249
 30
0.0
 40
0
 41
0
  0
VERTEX
  8
0
 10
383.121
 20
66.8435
 30
0.0
 40
0
 41
0
  0
VERTEX
  8
0
 10
385.271
 20
66.8494
 30
0.0
 40
0
 41
0
  0
SEQEND
  8
0
  0
POLYLINE
8
0
 62
     0
 66
     1
 10
0
 20
0
 30
0.0
 70
     1
 40
0
 41
0
  0
VERTEX
  8
0
 10
385.271
 20
66.8494
 30
0.0
 40
0
 41
0
  0
VERTEX
  8
0
 10
385.248
 20
44.0796
 30
0.0
 40
0
 41
0
  0
VERTEX
  8
0
 10
383.115
 20
38.7249
 30
0.0
 40
0
 41
0
  0
VERTEX
  8
0
 10
383.121
 20
66.8435
 30
0.0
 40
0
 41
0
  0
VERTEX
  8
0
 10
385.271
 20
66.8494
 30
0.0
 40
0
 41
0
  0
SEQEND
  8
0
  0
POLYLINE
8
0
 62
     0
 66
     1
 10
0
 20
0
 30
0.0
 40
0
 41
0
  0
VERTEX
  8
0
 10
384.176
 20
66.8289
 30
0.0
 40
0
 41
0
  0
VERTEX
  8
0
 10
384.176
 20
41.4287
 30
0.0
 40
0
 41
0
  0
SEQEND
  8
0
  0
POLYLINE
8
0
 62
     0
 66
     1
 10
0
 20
0
 30
0.0
 40
0
 41
0
  0
VERTEX
  8
0
 10
382.091
 20
66.4971
 30
0.0
 40
0
 41
0
  0
VERTEX
  8
0
 10
382.067
 20
41.3577
 30
0.0
 40
0
 41
0
  0
SEQEND
  8
0
  0
TEXT
  8
0
 62
     0
 10
308.692
 20
70.0986
 30
0
 40
0.663434
  1
1
 50
0
  0
TEXT
  8
0
 62
     0
 10
319.923
 20
70.0037
 30
0
 40
0.663434
  1
2
 50
0
  0
TEXT
  8
0
 62
     0
 10
332.765
 20
70.0037
 30
0
 40
0.663434
  1
3
 50
0
  0
TEXT
  8
0
 62
     0
 10
345.607
 20
70.0037
 30
0
 40
0.663434
  1
4
 50
0
  0
TEXT
  8
0
 62
     0
 10
358.449
 20
70.0037
 30
0
 40
0.663434
  1
5
 50
0
  0
TEXT
  8
0
 62
     0
 10
371.339
 20
70.0037
 30
0
 40
0.663434
  1
6
 50
0
  0
TEXT
  8
0
 62
     0
 10
380.438
 20
70.0037
 30
0
 40
0.663434
  1
7C
 50
0
  0
TEXT
  8
0
 62
     0
 10
385.223
 20
70.0037
 30
0
 40
0.663434
  1
7M
 50
0
  0
TEXT
  8
0
 62
     0
 10
397.023
 20
70.0037
 30
0
 40
0.663434
  1
8
 50
0
  0
TEXT
  8
0
 62
     0
 10
409.865
 20
70.0037
 30
0
 40
0.663434
  1
9
 50
0
  0
TEXT
  8
0
 62
     0
 10
422.708
 20
70.0037
 30
0
 40
0.663434
  1
10
 50
0
  0
TEXT
  8
0
 62
     0
 10
435.597
 20
70.0037
 30
0
 40
0.663434
  1
11
 50
0
  0
TEXT
  8
0
 62
     0
 10
448.439
 20
70.0037
 30
0
 40
0.663434
  1
12
 50
0
  0
TEXT
  8
0
 62
     0
 10
461.281
 20
70.0037
 30
0
 40
0.663434
  1
13
 50
0
  0
TEXT
  8
0
 62
     0
 10
474.124
 20
70.0037
 30
0
 40
0.663434
  1
14
 50
0
  0
TEXT
  8
0
 62
     0
 10
483.222
 20
70.0037
 30
0
 40
0.663434
  1
15M
 50
0
  0
TEXT
  8
0
 62
     0
 10
487.535
 20
70.0037
 30
0
 40
0.663434
  1
15T
 50
0
  0
TEXT
  8
0
 62
     0
 10
499.855
 20
70.0037
 30
0
 40
0.663434
  1
16
 50
0
  0
TEXT
  8
0
 62
     0
 10
512.698
 20
70.0037
 30
0
 40
0.663434
  1
17
 50
0
  0
TEXT
  8
0
 62
     0
 10
525.54
 20
70.0037
 30
0
 40
0.663434
  1
18
 50
0
  0
TEXT
  8
0
 62
     0
 10
538.382
 20
70.0037
 30
0
 40
0.663434
  1
19
 50
0
  0
TEXT
  8
0
 62
     0
 10
551.224
 20
70.0037
 30
0
 40
0.663434
  1
20
 50
0
  0
TEXT
  8
0
 62
     0
 10
564.114
 20
70.0037
 30
0
 40
0.663434
  1
(21)
 50
0
  0
POLYLINE
8
0
 62
     0
 66
     1
 10
0
 20
0
 30
0.0
 40
0
 41
0
  0
VERTEX
  8
0
 10
552.309
 20
75.1604
 30
0.0
 40
0
 41
0
  0
VERTEX
  8
0
 10
563.018
 20
74.5916
 30
0.0
 40
0
 41
0
  0
SEQEND
  8
0
  0
POLYLINE
8
0
 62
     0
 66
     1
 10
0
 20
0
 30
0.0
 40
0
 41
0
  0
VERTEX
  8
0
 10
389.531
 20
81.605
 30
0.0
 40
0
 41
0
  0
VERTEX
  8
0
 10
575.861
 20
81.605
 30
0.0
 40
0
 41
0
  0
SEQEND
  8
0
  0
POLYLINE
8
0
 62
     0
 66
     1
 10
0
 20
0
 30
0.0
 40
0
 41
0
  0
VERTEX
  8
0
 10
389.531
 20
38.7661
 30
0.0
 40
0
 41
0
  0
VERTEX
  8
0
 10
575.861
 20
38.7661
 30
0.0
 40
0
 41
0
  0
SEQEND
  8
0
  0
POLYLINE
8
0
 62
     0
 66
     1
 10
0
 20
0
 30
0.0
 40
0
 41
0
  0
VERTEX
  8
0
 10
490.213
 20
78.7974
 30
0.0
 40
0
 41
0
  0
VERTEX
  8
0
 10
575.891
 20
78.7974
 30
0.0
 40
0
 41
0
  0
SEQEND
  8
0
  0
POLYLINE
8
0
 62
     0
 66
     1
 10
0
 20
0
 30
0.0
 40
0
 41
0
  0
VERTEX
  8
0
 10
490.195
 20
44.5178
 30
0.0
 40
0
 41
0
  0
VERTEX
  8
0
 10
575.873
 20
44.5178
 30
0.0
 40
0
 41
0
  0
SEQEND
  8
0
  0
POLYLINE
8
0
 62
     0
 66
     1
 10
0
 20
0
 30
0.0
 40
0
 41
0
  0
VERTEX
  8
0
 10
310.297
 20
82.3013
 30
0.0
 40
0
 41
0
  0
VERTEX
  8
0
 10
575.86
 20
82.3013
 30
0.0
 40
0
 41
0
  0
SEQEND
  8
0
  0
POLYLINE
8
0
 62
     0
 66
     1
 10
0
 20
0
 30
0.0
 40
0
 41
0
  0
VERTEX
  8
0
 10
310.297
 20
37.321
 30
0.0
 40
0
 41
0
  0
VERTEX
  8
0
 10
575.86
 20
37.321
 30
0.0
 40
0
 41
0
  0
SEQEND
  8
0
  0
POLYLINE
8
0
 62
     0
 66
     1
 10
0
 20
0
 30
0.0
 40
0
 41
0
  0
VERTEX
  8
0
 10
307.098
 20
75.113
 30
0.0
 40
0
 41
0
  0
VERTEX
  8
0
 10
314.301
 20
68.7629
 30
0.0
 40
0
 41
0
  0
SEQEND
  8
0
  0
POLYLINE
8
0
 62
     7
 66
     1
 10
0
 20
0
 30
0.0
 70
     1
 40
0
 41
0
  0
VERTEX
  8
0
 10
307.075
 20
68.7156
 30
0.0
 40
0
 41
0
  0
VERTEX
  8
0
 10
307.88
 20
69.8054
 30
0.0
 40
0
 41
0
  0
VERTEX
  8
0
 10
307.88
 20
74.4258
 30
0.0
 40
0
 41
0
  0
VERTEX
  8
0
 10
307.075
 20
75.1604
 30
0.0
 40
0
 41
0
  0
VERTEX
  8
0
 10
307.075
 20
68.7156
 30
0.0
 40
0
 41
0
  0
SEQEND
  8
0
  0
POLYLINE
8
0
 62
     0
 66
     1
 10
0
 20
0
 30
0.0
 70
     1
 40
0
 41
0
  0
VERTEX
  8
0
 10
307.075
 20
68.7156
 30
0.0
 40
0
 41
0
  0
VERTEX
  8
0
 10
307.88
 20
69.8054
 30
0.0
 40
0
 41
0
  0
VERTEX
  8
0
 10
307.88
 20
74.4258
 30
0.0
 40
0
 41
0
  0
VERTEX
  8
0
 10
307.075
 20
75.1604
 30
0.0
 40
0
 41
0
  0
VERTEX
  8
0
 10
307.075
 20
68.7156
 30
0.0
 40
0
 41
0
  0
SEQEND
  8
0
  0
POLYLINE
8
0
 62
     0
 66
     1
 10
0
 20
0
 30
0.0
 40
0
 41
0
  0
VERTEX
  8
0
 10
307.075
 20
49.4521
 30
0.0
 40
0
 41
0
  0
VERTEX
  8
0
 10
318.448
 20
44.4529
 30
0.0
 40
0
 41
0
  0
SEQEND
  8
0
  0
POLYLINE
8
0
 62
     7
 66
     1
 10
0
 20
0
 30
0.0
 70
     1
 40
0
 41
0
  0
VERTEX
  8
0
 10
307.075
 20
49.4521
 30
0.0
 40
0
 41
0
  0
VERTEX
  8
0
 10
307.88
 20
49.0967
 30
0.0
 40
0
 41
0
  0
VERTEX
  8
0
 10
307.88
 20
65.5166
 30
0.0
 40
0
 41
0
  0
VERTEX
  8
0
 10
307.075
 20
66.583
 30
0.0
 40
0
 41
0
  0
VERTEX
  8
0
 10
307.075
 20
49.4521
 30
0.0
 40
0
 41
0
  0
SEQEND
  8
0
  0
POLYLINE
8
0
 62
     0
 66
     1
 10
0
 20
0
 30
0.0
 70
     1
 40
0
 41
0
  0
VERTEX
  8
0
 10
307.075
 20
49.4521
 30
0.0
 40
0
 41
0
  0
VERTEX
  8
0
 10
307.88
 20
49.0967
 30
0.0
 40
0
 41
0
  0
VERTEX
  8
0
 10
307.88
 20
65.5166
 30
0.0
 40
0
 41
0
  0
VERTEX
  8
0
 10
307.075
 20
66.583
 30
0.0
 40
0
 41
0
  0
VERTEX
  8
0
 10
307.075
 20
49.4521
 30
0.0
 40
0
 41
0
  0
SEQEND
  8
0
  0
POLYLINE
8
0
 62
     0
 66
     1
 10
0
 20
0
 30
0.0
 40
0
 41
0
  0
VERTEX
  8
0
 10
306.008
 20
62.2886
 30
0.0
 40
0
 41
0
  0
VERTEX
  8
0
 10
383.109
 20
62.2886
 30
0.0
 40
0
 41
0
  0
VERTEX
  8
0
 10
485.894
 20
63.3547
 30
0.0
 40
0
 41
0
  0
VERTEX
  8
0
 10
560.885
 20
64.9897
 30
0.0
 40
0
 41
0
  0
SEQEND
  8
0
  0
POLYLINE
8
0
 62
     0
 66
     1
 10
0
 20
0
 30
0.0
 40
0
 41
0
  0
VERTEX
  8
0
 10
304.628
 20
78.3918
 30
0.0
 40
0
 41
0
  0
VERTEX
  8
0
 10
293.776
 20
68.8193
 30
0.0
 40
0
 41
0
  0
SEQEND
  8
0
  0
POLYLINE
8
0
 62
     0
 66
     1
 10
0
 20
0
 30
0.0
 40
0.0473883
 41
0.0473883
  0
VERTEX
  8
0
 10
228.898
 20
81.5757
 30
0.0
 40
0.0473883
 41
0.0473883
  0
VERTEX
  8
0
 10
228.874
 20
38.6895
 30
0.0
 40
0.0473883
 41
0.0473883
  0
SEQEND
  8
0
  0
POLYLINE
8
0
 62
     0
 66
     1
 10
0
 20
0
 30
0.0
 40
0
 41
0
  0
VERTEX
  8
0
 10
126.095
 20
78.7825
 30
0.0
 40
0
 41
0
  0
VERTEX
  8
0
 10
126.095
 20
44.5208
 30
0.0
 40
0
 41
0
  0
SEQEND
  8
0
  0
POLYLINE
8
0
 62
     0
 66
     1
 10
0
 20
0
 30
0.0
 40
0.0473883
 41
0.0473883
  0
VERTEX
  8
0
 10
305.992
 20
82.301
 30
0.0
 40
0.0473883
 41
0.0473883
  0
VERTEX
  8
0
 10
228.892
 20
81.5901
 30
0.0
 40
0.0473883
 41
0.0473883
  0
VERTEX
  8
0
 10
126.107
 20
78.7942
 30
0.0
 40
0.0473883
 41
0.0473883
  0
VERTEX
  8
0
 10
61.7542
 20
75.323
 30
0.0
 40
0.0473883
 41
0.0473883
  0
SEQEND
  8
0
  0
POLYLINE
8
0
 62
     0
 66
     1
 10
0
 20
0
 30
0.0
 40
0.0473883
 41
0.0473883
  0
VERTEX
  8
0
 10
305.992
 20
37.2944
 30
0.0
 40
0.0473883
 41
0.0473883
  0
VERTEX
  8
0
 10
228.892
 20
38.7278
 30
0.0
 40
0.0473883
 41
0.0473883
  0
VERTEX
  8
0
 10
126.095
 20
44.521
 30
0.0
 40
0.0473883
 41
0.0473883
  0
VERTEX
  8
0
 10
48.7815
 20
53.1987
 30
0.0
 40
0.0473883
 41
0.0473883
  0
SEQEND
  8
0
  0
POLYLINE
8
0
 62
     0
 66
     1
 10
0
 20
0
 30
0.0
 40
0.0473883
 41
0.0473883
  0
VERTEX
  8
0
 10
61.8484
 20
75.3232
 30
0.0
 40
0.0473883
 41
0.0473883
  0
VERTEX
  8
0
 10
61.5977
 20
75.3132
 30
0.0
 40
0.0473883
 41
0.0473883
  0
VERTEX
  8
0
 10
60.9954
 20
75.2717
 30
0.0
 40
0.0473883
 41
0.0473883
  0
VERTEX
  8
0
 10
59.7891
 20
75.0981
 30
0.0
 40
0.0473883
 41
0.0473883
  0
VERTEX
  8
0
 10
57.8784
 20
74.6689
 30
0.0
 40
0.0473883
 41
0.0473883
  0
VERTEX
  8
0
 10
55.6763
 20
73.8325
 30
0.0
 40
0.0473883
 41
0.0473883
  0
VERTEX
  8
0
 10
51.8735
 20
70.687
 30
0.0
 40
0.0473883
 41
0.0473883
  0
VERTEX
  8
0
 10
50.4314
 20
68.5134
 30
0.0
 40
0.0473883
 41
0.0473883
  0
VERTEX
  8
0
 10
49.437
 20
65.7131
 30
0.0
 40
0.0473883
 41
0.0473883
  0
VERTEX
  8
0
 10
48.9666
 20
62.1736
 30
0.0
 40
0.0473883
 41
0.0473883
  0
VERTEX
  8
0
 10
48.825
 20
58.6021
 30
0.0
 40
0.0473883
 41
0.0473883
  0
VERTEX
  8
0
 10
48.7869
 20
55.7864
 30
0.0
 40
0.0473883
 41
0.0473883
  0
VERTEX
  8
0
 10
48.7815
 20
54.0112
 30
0.0
 40
0.0473883
 41
0.0473883
  0
VERTEX
  8
0
 10
48.7815
 20
53.3108
 30
0.0
 40
0.0473883
 41
0.0473883
  0
VERTEX
  8
0
 10
48.7815
 20
53.2107
 30
0.0
 40
0.0473883
 41
0.0473883
  0
SEQEND
  8
0
  0
POLYLINE
8
0
 62
     0
 66
     1
 10
0
 20
0
 30
0.0
 40
0
 41
0
  0
VERTEX
  8
0
 10
50.7361
 20
55.7043
 30
0.0
 40
0
 41
0
  0
VERTEX
  8
0
 10
48.7754
 20
53.2107
 30
0.0
 40
0
 41
0
  0
SEQEND
  8
0
  0
POLYLINE
8
0
 62
     0
 66
     1
 10
0
 20
0
 30
0.0
 40
0
 41
0
  0
VERTEX
  8
0
 10
305.992
 20
44.0828
 30
0.0
 40
0
 41
0
  0
VERTEX
  8
0
 10
228.892
 20
44.0828
 30
0.0
 40
0
 41
0
  0
VERTEX
  8
0
 10
125.965
 20
48.3003
 30
0.0
 40
0
 41
0
  0
VERTEX
  8
0
 10
50.7598
 20
55.7043
 30
0.0
 40
0
 41
0
  0
SEQEND
  8
0
  0
POLYLINE
8
0
 62
     0
 66
     1
 10
0
 20
0
 30
0.0
 40
0
 41
0
  0
VERTEX
  8
0
 10
305.992
 20
81.7681
 30
0.0
 40
0
 41
0
  0
VERTEX
  8
0
 10
228.892
 20
81.0571
 30
0.0
 40
0
 41
0
  0
VERTEX
  8
0
 10
126.107
 20
78.2612
 30
0.0
 40
0
 41
0
  0
VERTEX
  8
0
 10
57.5898
 20
74.5652
 30
0.0
 40
0
 41
0
  0
SEQEND
  8
0
  0
POLYLINE
8
0
 62
     0
 66
     1
 10
0
 20
0
 30
0.0
 40
0
 41
0
  0
VERTEX
  8
0
 10
305.992
 20
81.3652
 30
0.0
 40
0
 41
0
  0
VERTEX
  8
0
 10
228.892
 20
80.6545
 30
0.0
 40
0
 41
0
  0
VERTEX
  8
0
 10
126.107
 20
77.8586
 30
0.0
 40
0
 41
0
  0
VERTEX
  8
0
 10
56.2629
 20
74.0911
 30
0.0
 40
0
 41
0
  0
SEQEND
  8
0
  0
POLYLINE
8
0
 62
     0
 66
     1
 10
0
 20
0
 30
0.0
 70
     1
 40
0
 41
0
  0
VERTEX
  8
0
 10
50.8193
 20
68.1912
 30
0.0
 40
0
 41
0
  0
VERTEX
  8
0
 10
50.4045
 20
67.125
 30
0.0
 40
0
 41
0
  0
VERTEX
  8
0
 10
126.095
 20
67.125
 30
0.0
 40
0
 41
0
  0
VERTEX
  8
0
 10
126.072
 20
68.1912
 30
0.0
 40
0
 41
0
  0
VERTEX
  8
0
 10
50.8193
 20
68.1912
 30
0.0
 40
0
 41
0
  0
SEQEND
  8
0
  0
POLYLINE
8
0
 62
     0
 66
     1
 10
0
 20
0
 30
0.0
 40
0
 41
0
  0
VERTEX
  8
0
 10
50.7717
 20
56.4036
 30
0.0
 40
0
 41
0
  0
VERTEX
  8
0
 10
51.4351
 20
64.9807
 30
0.0
 40
0
 41
0
  0
VERTEX
  8
0
 10
51.0798
 20
64.9807
 30
0.0
 40
0
 41
0
  0
VERTEX
  8
0
 10
51.4587
 20
69.8618
 30
0.0
 40
0
 41
0
  0
SEQEND
  8
0
  0
POLYLINE
8
0
 62
     0
 66
     1
 10
0
 20
0
 30
0.0
 40
0
 41
0
  0
VERTEX
  8
0
 10
51.4351
 20
69.8145
 30
0.0
 40
0
 41
0
  0
VERTEX
  8
0
 10
51.3325
 20
69.6802
 30
0.0
 40
0
 41
0
  0
VERTEX
  8
0
 10
50.8071
 20
68.8943
 30
0.0
 40
0
 41
0
  0
VERTEX
  8
0
 10
50.1558
 20
67.4924
 30
0.0
 40
0
 41
0
  0
VERTEX
  8
0
 10
49.6265
 20
65.8535
 30
0.0
 40
0
 41
0
  0
VERTEX
  8
0
 10
49.3027
 20
64.0488
 30
0.0
 40
0
 41
0
  0
VERTEX
  8
0
 10
49.1289
 20
61.9163
 30
0.0
 40
0
 41
0
  0
VERTEX
  8
0
 10
49.0815
 20
59.3101
 30
0.0
 40
0
 41
0
  0
VERTEX
  8
0
 10
49.279
 20
57.6436
 30
0.0
 40
0
 41
0
  0
VERTEX
  8
0
 10
49.8594
 20
56.7432
 30
0.0
 40
0
 41
0
  0
VERTEX
  8
0
 10
50.5901
 20
56.4036
 30
0.0
 40
0
 41
0
  0
VERTEX
  8
0
 10
50.748
 20
56.3562
 30
0.0
 40
0
 41
0
  0
SEQEND
  8
0
  0
POLYLINE
8
0
 62
     0
 66
     1
 10
0
 20
0
 30
0.0
 70
     1
 40
0
 41
0
  0
VERTEX
  8
0
 10
51.1389
 20
60.6128
 30
0.0
 40
0
 41
0
  0
VERTEX
  8
0
 10
51.1152
 20
60.198
 30
0.0
 40
0
 41
0
  0
VERTEX
  8
0
 10
126.095
 20
56.1228
 30
0.0
 40
0
 41
0
  0
VERTEX
  8
0
 10
126.095
 20
56.5137
 30
0.0
 40
0
 41
0
  0
VERTEX
  8
0
 10
51.1389
 20
60.6128
 30
0.0
 40
0
 41
0
  0
SEQEND
  8
0
  0
POLYLINE
8
0
 62
     0
 66
     1
 10
0
 20
0
 30
0.0
 70
     1
 40
0
 41
0
  0
VERTEX
  8
0
 10
126.083
 20
68.4541
 30
0.0
 40
0
 41
0
  0
VERTEX
  8
0
 10
126.083
 20
66.8503
 30
0.0
 40
0
 41
0
  0
VERTEX
  8
0
 10
228.898
 20
66.8503
 30
0.0
 40
0
 41
0
  0
VERTEX
  8
0
 10
228.898
 20
68.4541
 30
0.0
 40
0
 41
0
  0
VERTEX
  8
0
 10
126.083
 20
68.4541
 30
0.0
 40
0
 41
0
  0
SEQEND
  8
0
  0
POLYLINE
8
0
 62
     0
 66
     1
 10
0
 20
0
 30
0.0
 40
0
 41
0
  0
VERTEX
  8
0
 10
59.7874
 20
74.26
 30
0.0
 40
0
 41
0
  0
VERTEX
  8
0
 10
59.2424
 20
74.0625
 30
0.0
 40
0
 41
0
  0
VERTEX
  8
0
 10
58.114
 20
73.644
 30
0.0
 40
0
 41
0
  0
VERTEX
  8
0
 10
56.7546
 20
73.083
 30
0.0
 40
0
 41
0
  0
VERTEX
  8
0
 10
54.6853
 20
71.843
 30
0.0
 40
0
 41
0
  0
VERTEX
  8
0
 10
53.011
 20
70.1768
 30
0.0
 40
0
 41
0
  0
VERTEX
  8
0
 10
51.9289
 20
68.5339
 30
0.0
 40
0
 41
0
  0
VERTEX
  8
0
 10
51.7314
 20
68.1943
 30
0.0
 40
0
 41
0
  0
SEQEND
  8
0
  0
POLYLINE
8
0
 62
     7
 66
     1
 10
0
 20
0
 30
0.0
 70
     1
 40
0
 41
0
  0
VERTEX
  8
0
 10
229.964
 20
80.6633
 30
0.0
 40
0
 41
0
  0
VERTEX
  8
0
 10
229.958
 20
68.7217
 30
0.0
 40
0
 41
0
  0
VERTEX
  8
0
 10
228.892
 20
68.7217
 30
0.0
 40
0
 41
0
  0
VERTEX
  8
0
 10
228.892
 20
80.6572
 30
0.0
 40
0
 41
0
  0
VERTEX
  8
0
 10
229.964
 20
80.6633
 30
0.0
 40
0
 41
0
  0
SEQEND
  8
0
  0
POLYLINE
8
0
 62
     0
 66
     1
 10
0
 20
0
 30
0.0
 70
     1
 40
0
 41
0
  0
VERTEX
  8
0
 10
229.964
 20
80.6633
 30
0.0
 40
0
 41
0
  0
VERTEX
  8
0
 10
229.958
 20
68.7217
 30
0.0
 40
0
 41
0
  0
VERTEX
  8
0
 10
228.892
 20
68.7217
 30
0.0
 40
0
 41
0
  0
VERTEX
  8
0
 10
228.892
 20
80.6572
 30
0.0
 40
0
 41
0
  0
VERTEX
  8
0
 10
229.964
 20
80.6633
 30
0.0
 40
0
 41
0
  0
SEQEND
  8
0
  0
POLYLINE
8
0
 62
     7
 66
     1
 10
0
 20
0
 30
0.0
 70
     1
 40
0
 41
0
  0
VERTEX
  8
0
 10
228.892
 20
80.6511
 30
0.0
 40
0
 41
0
  0
VERTEX
  8
0
 10
228.892
 20
68.4607
 30
0.0
 40
0
 41
0
  0
VERTEX
  8
0
 10
227.82
 20
68.4607
 30
0.0
 40
0
 41
0
  0
VERTEX
  8
0
 10
227.826
 20
80.6216
 30
0.0
 40
0
 41
0
  0
VERTEX
  8
0
 10
228.892
 20
80.6511
 30
0.0
 40
0
 41
0
  0
SEQEND
  8
0
  0
POLYLINE
8
0
 62
     0
 66
     1
 10
0
 20
0
 30
0.0
 70
     1
 40
0
 41
0
  0
VERTEX
  8
0
 10
228.892
 20
80.6511
 30
0.0
 40
0
 41
0
  0
VERTEX
  8
0
 10
228.892
 20
68.4607
 30
0.0
 40
0
 41
0
  0
VERTEX
  8
0
 10
227.82
 20
68.4607
 30
0.0
 40
0
 41
0
  0
VERTEX
  8
0
 10
227.826
 20
80.6216
 30
0.0
 40
0
 41
0
  0
VERTEX
  8
0
 10
228.892
 20
80.6511
 30
0.0
 40
0
 41
0
  0
SEQEND
  8
0
  0
POLYLINE
8
0
 62
     0
 66
     1
 10
0
 20
0
 30
0.0
 70
     1
 40
0
 41
0
  0
VERTEX
  8
0
 10
126.095
 20
56.5134
 30
0.0
 40
0
 41
0
  0
VERTEX
  8
0
 10
126.095
 20
56.1226
 30
0.0
 40
0
 41
0
  0
VERTEX
  8
0
 10
228.88
 20
53.3149
 30
0.0
 40
0
 41
0
  0
VERTEX
  8
0
 10
228.88
 20
53.7295
 30
0.0
 40
0
 41
0
  0
VERTEX
  8
0
 10
126.095
 20
56.5134
 30
0.0
 40
0
 41
0
  0
SEQEND
  8
0
  0
POLYLINE
8
0
 62
     7
 66
     1
 10
0
 20
0
 30
0.0
 70
     1
 40
0
 41
0
  0
VERTEX
  8
0
 10
304.915
 20
81.3503
 30
0.0
 40
0
 41
0
  0
VERTEX
  8
0
 10
304.915
 20
78.6018
 30
0.0
 40
0
 41
0
  0
VERTEX
  8
0
 10
304.109
 20
77.9387
 30
0.0
 40
0
 41
0
  0
VERTEX
  8
0
 10
304.109
 20
81.3445
 30
0.0
 40
0
 41
0
  0
VERTEX
  8
0
 10
304.915
 20
81.3503
 30
0.0
 40
0
 41
0
  0
SEQEND
  8
0
  0
POLYLINE
8
0
 62
     0
 66
     1
 10
0
 20
0
 30
0.0
 70
     1
 40
0
 41
0
  0
VERTEX
  8
0
 10
304.915
 20
81.3503
 30
0.0
 40
0
 41
0
  0
VERTEX
  8
0
 10
304.915
 20
78.6018
 30
0.0
 40
0
 41
0
  0
VERTEX
  8
0
 10
304.109
 20
77.9387
 30
0.0
 40
0
 41
0
  0
VERTEX
  8
0
 10
304.109
 20
81.3445
 30
0.0
 40
0
 41
0
  0
VERTEX
  8
0
 10
304.915
 20
81.3503
 30
0.0
 40
0
 41
0
  0
SEQEND
  8
0
  0
POLYLINE
8
0
 62
     0
 66
     1
 10
0
 20
0
 30
0.0
 70
     1
 40
0
 41
0
  0
VERTEX
  8
0
 10
304.103
 20
53.3083
 30
0.0
 40
0
 41
0
  0
VERTEX
  8
0
 10
304.103
 20
53.729
 30
0.0
 40
0
 41
0
  0
VERTEX
  8
0
 10
228.886
 20
53.7349
 30
0.0
 40
0
 41
0
  0
VERTEX
  8
0
 10
228.886
 20
53.3203
 30
0.0
 40
0
 41
0
  0
VERTEX
  8
0
 10
304.103
 20
53.3083
 30
0.0
 40
0
 41
0
  0
SEQEND
  8
0
  0
POLYLINE
8
0
 62
     7
 66
     1
 10
0
 20
0
 30
0.0
 70
     1
 40
0
 41
0
  0
VERTEX
  8
0
 10
242.131
 20
80.7817
 30
0.0
 40
0
 41
0
  0
VERTEX
  8
0
 10
241.332
 20
80.77
 30
0.0
 40
0
 41
0
  0
VERTEX
  8
0
 10
241.332
 20
43.5527
 30
0.0
 40
0
 41
0
  0
VERTEX
  8
0
 10
242.131
 20
43.5527
 30
0.0
 40
0
 41
0
  0
VERTEX
  8
0
 10
242.131
 20
80.7817
 30
0.0
 40
0
 41
0
  0
SEQEND
  8
0
  0
POLYLINE
8
0
 62
     0
 66
     1
 10
0
 20
0
 30
0.0
 70
     1
 40
0
 41
0
  0
VERTEX
  8
0
 10
242.131
 20
80.7817
 30
0.0
 40
0
 41
0
  0
VERTEX
  8
0
 10
241.332
 20
80.77
 30
0.0
 40
0
 41
0
  0
VERTEX
  8
0
 10
241.332
 20
43.5527
 30
0.0
 40
0
 41
0
  0
VERTEX
  8
0
 10
242.131
 20
43.5527
 30
0.0
 40
0
 41
0
  0
VERTEX
  8
0
 10
242.131
 20
80.7817
 30
0.0
 40
0
 41
0
  0
SEQEND
  8
0
  0
POLYLINE
8
0
 62
     7
 66
     1
 10
0
 20
0
 30
0.0
 70
     1
 40
0
 41
0
  0
VERTEX
  8
0
 10
255.009
 20
80.9063
 30
0.0
 40
0
 41
0
  0
VERTEX
  8
0
 10
254.191
 20
80.8884
 30
0.0
 40
0
 41
0
  0
VERTEX
  8
0
 10
254.191
 20
43.5527
 30
0.0
 40
0
 41
0
  0
VERTEX
  8
0
 10
255.009
 20
43.5527
 30
0.0
 40
0
 41
0
  0
VERTEX
  8
0
 10
255.009
 20
80.9063
 30
0.0
 40
0
 41
0
  0
SEQEND
  8
0
  0
POLYLINE
8
0
 62
     0
 66
     1
 10
0
 20
0
 30
0.0
 70
     1
 40
0
 41
0
  0
VERTEX
  8
0
 10
255.009
 20
80.9063
 30
0.0
 40
0
 41
0
  0
VERTEX
  8
0
 10
254.191
 20
80.8884
 30
0.0
 40
0
 41
0
  0
VERTEX
  8
0
 10
254.191
 20
43.5527
 30
0.0
 40
0
 41
0
  0
VERTEX
  8
0
 10
255.009
 20
43.5527
 30
0.0
 40
0
 41
0
  0
VERTEX
  8
0
 10
255.009
 20
80.9063
 30
0.0
 40
0
 41
0
  0
SEQEND
  8
0
  0
POLYLINE
8
0
 62
     7
 66
     1
 10
0
 20
0
 30
0.0
 70
     1
 40
0
 41
0
  0
VERTEX
  8
0
 10
267.863
 20
81.0188
 30
0.0
 40
0
 41
0
  0
VERTEX
  8
0
 10
267.063
 20
81.0068
 30
0.0
 40
0
 41
0
  0
VERTEX
  8
0
 10
267.063
 20
43.5527
 30
0.0
 40
0
 41
0
  0
VERTEX
  8
0
 10
267.863
 20
43.5527
 30
0.0
 40
0
 41
0
  0
VERTEX
  8
0
 10
267.863
 20
81.0188
 30
0.0
 40
0
 41
0
  0
SEQEND
  8
0
  0
POLYLINE
8
0
 62
     0
 66
     1
 10
0
 20
0
 30
0.0
 70
     1
 40
0
 41
0
  0
VERTEX
  8
0
 10
267.863
 20
81.0188
 30
0.0
 40
0
 41
0
  0
VERTEX
  8
0
 10
267.063
 20
81.0068
 30
0.0
 40
0
 41
0
  0
VERTEX
  8
0
 10
267.063
 20
43.5527
 30
0.0
 40
0
 41
0
  0
VERTEX
  8
0
 10
267.863
 20
43.5527
 30
0.0
 40
0
 41
0
  0
VERTEX
  8
0
 10
267.863
 20
81.0188
 30
0.0
 40
0
 41
0
  0
SEQEND
  8
0
  0
POLYLINE
8
0
 62
     7
 66
     1
 10
0
 20
0
 30
0.0
 70
     1
 40
0
 41
0
  0
VERTEX
  8
0
 10
280.705
 20
81.1313
 30
0.0
 40
0
 41
0
  0
VERTEX
  8
0
 10
279.906
 20
81.1252
 30
0.0
 40
0
 41
0
  0
VERTEX
  8
0
 10
279.906
 20
43.5527
 30
0.0
 40
0
 41
0
  0
VERTEX
  8
0
 10
280.705
 20
43.5527
 30
0.0
 40
0
 41
0
  0
VERTEX
  8
0
 10
280.705
 20
81.1313
 30
0.0
 40
0
 41
0
  0
SEQEND
  8
0
  0
POLYLINE
8
0
 62
     0
 66
     1
 10
0
 20
0
 30
0.0
 70
     1
 40
0
 41
0
  0
VERTEX
  8
0
 10
280.705
 20
81.1313
 30
0.0
 40
0
 41
0
  0
VERTEX
  8
0
 10
279.906
 20
81.1252
 30
0.0
 40
0
 41
0
  0
VERTEX
  8
0
 10
279.906
 20
43.5527
 30
0.0
 40
0
 41
0
  0
VERTEX
  8
0
 10
280.705
 20
43.5527
 30
0.0
 40
0
 41
0
  0
VERTEX
  8
0
 10
280.705
 20
81.1313
 30
0.0
 40
0
 41
0
  0
SEQEND
  8
0
  0
POLYLINE
8
0
 62
     7
 66
     1
 10
0
 20
0
 30
0.0
 70
     1
 40
0
 41
0
  0
VERTEX
  8
0
 10
293.547
 20
81.2556
 30
0.0
 40
0
 41
0
  0
VERTEX
  8
0
 10
292.748
 20
81.2439
 30
0.0
 40
0
 41
0
  0
VERTEX
  8
0
 10
292.748
 20
43.5527
 30
0.0
 40
0
 41
0
  0
VERTEX
  8
0
 10
293.547
 20
43.5527
 30
0.0
 40
0
 41
0
  0
VERTEX
  8
0
 10
293.547
 20
81.2556
 30
0.0
 40
0
 41
0
  0
SEQEND
  8
0
  0
POLYLINE
8
0
 62
     0
 66
     1
 10
0
 20
0
 30
0.0
 70
     1
 40
0
 41
0
  0
VERTEX
  8
0
 10
293.547
 20
81.2556
 30
0.0
 40
0
 41
0
  0
VERTEX
  8
0
 10
292.748
 20
81.2439
 30
0.0
 40
0
 41
0
  0
VERTEX
  8
0
 10
292.748
 20
43.5527
 30
0.0
 40
0
 41
0
  0
VERTEX
  8
0
 10
293.547
 20
43.5527
 30
0.0
 40
0
 41
0
  0
VERTEX
  8
0
 10
293.547
 20
81.2556
 30
0.0
 40
0
 41
0
  0
SEQEND
  8
0
  0
POLYLINE
8
0
 62
     7
 66
     1
 10
0
 20
0
 30
0.0
 70
     1
 40
0
 41
0
  0
VERTEX
  8
0
 10
126.617
 20
66.8376
 30
0.0
 40
0
 41
0
  0
VERTEX
  8
0
 10
126.095
 20
66.8376
 30
0.0
 40
0
 41
0
  0
VERTEX
  8
0
 10
126.095
 20
47.8943
 30
0.0
 40
0
 41
0
  0
VERTEX
  8
0
 10
126.617
 20
47.8943
 30
0.0
 40
0
 41
0
  0
VERTEX
  8
0
 10
126.617
 20
66.8376
 30
0.0
 40
0
 41
0
  0
SEQEND
  8
0
  0
POLYLINE
8
0
 62
     0
 66
     1
 10
0
 20
0
 30
0.0
 70
     1
 40
0
 41
0
  0
VERTEX
  8
0
 10
126.617
 20
66.8376
 30
0.0
 40
0
 41
0
  0
VERTEX
  8
0
 10
126.095
 20
66.8376
 30
0.0
 40
0
 41
0
  0
VERTEX
  8
0
 10
126.095
 20
47.8943
 30
0.0
 40
0
 41
0
  0
VERTEX
  8
0
 10
126.617
 20
47.8943
 30
0.0
 40
0
 41
0
  0
VERTEX
  8
0
 10
126.617
 20
66.8376
 30
0.0
 40
0
 41
0
  0
SEQEND
  8
0
  0
POLYLINE
8
0
 62
     7
 66
     1
 10
0
 20
0
 30
0.0
 70
     1
 40
0
 41
0
  0
VERTEX
  8
0
 10
126.095
 20
67.1101
 30
0.0
 40
0
 41
0
  0
VERTEX
  8
0
 10
125.551
 20
67.1101
 30
0.0
 40
0
 41
0
  0
VERTEX
  8
0
 10
125.551
 20
47.8943
 30
0.0
 40
0
 41
0
  0
VERTEX
  8
0
 10
126.095
 20
47.8943
 30
0.0
 40
0
 41
0
  0
VERTEX
  8
0
 10
126.095
 20
67.1101
 30
0.0
 40
0
 41
0
  0
SEQEND
  8
0
  0
POLYLINE
8
0
 62
     0
 66
     1
 10
0
 20
0
 30
0.0
 70
     1
 40
0
 41
0
  0
VERTEX
  8
0
 10
126.095
 20
67.1101
 30
0.0
 40
0
 41
0
  0
VERTEX
  8
0
 10
125.551
 20
67.1101
 30
0.0
 40
0
 41
0
  0
VERTEX
  8
0
 10
125.551
 20
47.8943
 30
0.0
 40
0
 41
0
  0
VERTEX
  8
0
 10
126.095
 20
47.8943
 30
0.0
 40
0
 41
0
  0
VERTEX
  8
0
 10
126.095
 20
67.1101
 30
0.0
 40
0
 41
0
  0
SEQEND
  8
0
  0
POLYLINE
8
0
 62
     7
 66
     1
 10
0
 20
0
 30
0.0
 70
     1
 40
0
 41
0
  0
VERTEX
  8
0
 10
62.0972
 20
74.405
 30
0.0
 40
0
 41
0
  0
VERTEX
  8
0
 10
61.5642
 20
74.3755
 30
0.0
 40
0
 41
0
  0
VERTEX
  8
0
 10
61.5642
 20
54.2122
 30
0.0
 40
0
 41
0
  0
VERTEX
  8
0
 10
62.0972
 20
54.2122
 30
0.0
 40
0
 41
0
  0
VERTEX
  8
0
 10
62.0972
 20
74.405
 30
0.0
 40
0
 41
0
  0
SEQEND
  8
0
  0
POLYLINE
8
0
 62
     0
 66
     1
 10
0
 20
0
 30
0.0
 70
     1
 40
0
 41
0
  0
VERTEX
  8
0
 10
62.0972
 20
74.405
 30
0.0
 40
0
 41
0
  0
VERTEX
  8
0
 10
61.5642
 20
74.3755
 30
0.0
 40
0
 41
0
  0
VERTEX
  8
0
 10
61.5642
 20
54.2122
 30
0.0
 40
0
 41
0
  0
VERTEX
  8
0
 10
62.0972
 20
54.2122
 30
0.0
 40
0
 41
0
  0
VERTEX
  8
0
 10
62.0972
 20
74.405
 30
0.0
 40
0
 41
0
  0
SEQEND
  8
0
  0
POLYLINE
8
0
 62
     7
 66
     1
 10
0
 20
0
 30
0.0
 70
     1
 40
0
 41
0
  0
VERTEX
  8
0
 10
74.9456
 20
75.1011
 30
0.0
 40
0
 41
0
  0
VERTEX
  8
0
 10
74.4126
 20
75.0654
 30
0.0
 40
0
 41
0
  0
VERTEX
  8
0
 10
74.4126
 20
52.9473
 30
0.0
 40
0
 41
0
  0
VERTEX
  8
0
 10
74.9456
 20
52.9473
 30
0.0
 40
0
 41
0
  0
VERTEX
  8
0
 10
74.9456
 20
75.1011
 30
0.0
 40
0
 41
0
  0
SEQEND
  8
0
  0
POLYLINE
8
0
 62
     0
 66
     1
 10
0
 20
0
 30
0.0
 70
     1
 40
0
 41
0
  0
VERTEX
  8
0
 10
74.9456
 20
75.1011
 30
0.0
 40
0
 41
0
  0
VERTEX
  8
0
 10
74.4126
 20
75.0654
 30
0.0
 40
0
 41
0
  0
VERTEX
  8
0
 10
74.4126
 20
52.9473
 30
0.0
 40
0
 41
0
  0
VERTEX
  8
0
 10
74.9456
 20
52.9473
 30
0.0
 40
0
 41
0
  0
VERTEX
  8
0
 10
74.9456
 20
75.1011
 30
0.0
 40
0
 41
0
  0
SEQEND
  8
0
  0
POLYLINE
8
0
 62
     7
 66
     1
 10
0
 20
0
 30
0.0
 70
     1
 40
0
 41
0
  0
VERTEX
  8
0
 10
87.7966
 20
75.791
 30
0.0
 40
0
 41
0
  0
VERTEX
  8
0
 10
87.2634
 20
75.7644
 30
0.0
 40
0
 41
0
  0
VERTEX
  8
0
 10
87.2634
 20
51.6826
 30
0.0
 40
0
 41
0
  0
VERTEX
  8
0
 10
87.7966
 20
51.6826
 30
0.0
 40
0
 41
0
  0
VERTEX
  8
0
 10
87.7966
 20
75.791
 30
0.0
 40
0
 41
0
  0
SEQEND
  8
0
  0
POLYLINE
8
0
 62
     0
 66
     1
 10
0
 20
0
 30
0.0
 70
     1
 40
0
 41
0
  0
VERTEX
  8
0
 10
87.7966
 20
75.791
 30
0.0
 40
0
 41
0
  0
VERTEX
  8
0
 10
87.2634
 20
75.7644
 30
0.0
 40
0
 41
0
  0
VERTEX
  8
0
 10
87.2634
 20
51.6826
 30
0.0
 40
0
 41
0
  0
VERTEX
  8
0
 10
87.7966
 20
51.6826
 30
0.0
 40
0
 41
0
  0
VERTEX
  8
0
 10
87.7966
 20
75.791
 30
0.0
 40
0
 41
0
  0
SEQEND
  8
0
  0
POLYLINE
8
0
 62
     7
 66
     1
 10
0
 20
0
 30
0.0
 70
     1
 40
0
 41
0
  0
VERTEX
  8
0
 10
100.663
 20
76.4841
 30
0.0
 40
0
 41
0
  0
VERTEX
  8
0
 10
100.118
 20
76.4546
 30
0.0
 40
0
 41
0
  0
VERTEX
  8
0
 10
100.118
 20
50.418
 30
0.0
 40
0
 41
0
  0
VERTEX
  8
0
 10
100.663
 20
50.418
 30
0.0
 40
0
 41
0
  0
VERTEX
  8
0
 10
100.663
 20
76.4841
 30
0.0
 40
0
 41
0
  0
SEQEND
  8
0
  0
POLYLINE
8
0
 62
     0
 66
     1
 10
0
 20
0
 30
0.0
 70
     1
 40
0
 41
0
  0
VERTEX
  8
0
 10
100.663
 20
76.4841
 30
0.0
 40
0
 41
0
  0
VERTEX
  8
0
 10
100.118
 20
76.4546
 30
0.0
 40
0
 41
0
  0
VERTEX
  8
0
 10
100.118
 20
50.418
 30
0.0
 40
0
 41
0
  0
VERTEX
  8
0
 10
100.663
 20
50.418
 30
0.0
 40
0
 41
0
  0
VERTEX
  8
0
 10
100.663
 20
76.4841
 30
0.0
 40
0
 41
0
  0
SEQEND
  8
0
  0
POLYLINE
8
0
 62
     7
 66
     1
 10
0
 20
0
 30
0.0
 70
     1
 40
0
 41
0
  0
VERTEX
  8
0
 10
113.505
 20
77.1802
 30
0.0
 40
0
 41
0
  0
VERTEX
  8
0
 10
112.972
 20
77.1477
 30
0.0
 40
0
 41
0
  0
VERTEX
  8
0
 10
112.972
 20
49.1563
 30
0.0
 40
0
 41
0
  0
VERTEX
  8
0
 10
113.505
 20
49.1563
 30
0.0
 40
0
 41
0
  0
VERTEX
  8
0
 10
113.505
 20
77.1802
 30
0.0
 40
0
 41
0
  0
SEQEND
  8
0
  0
POLYLINE
8
0
 62
     0
 66
     1
 10
0
 20
0
 30
0.0
 70
     1
 40
0
 41
0
  0
VERTEX
  8
0
 10
113.505
 20
77.1802
 30
0.0
 40
0
 41
0
  0
VERTEX
  8
0
 10
112.972
 20
77.1477
 30
0.0
 40
0
 41
0
  0
VERTEX
  8
0
 10
112.972
 20
49.1563
 30
0.0
 40
0
 41
0
  0
VERTEX
  8
0
 10
113.505
 20
49.1563
 30
0.0
 40
0
 41
0
  0
VERTEX
  8
0
 10
113.505
 20
77.1802
 30
0.0
 40
0
 41
0
  0
SEQEND
  8
0
  0
POLYLINE
8
0
 62
     7
 66
     1
 10
0
 20
0
 30
0.0
 70
     1
 40
0
 41
0
  0
VERTEX
  8
0
 10
125.562
 20
77.8259
 30
0.0
 40
0
 41
0
  0
VERTEX
  8
0
 10
125.562
 20
68.2063
 30
0.0
 40
0
 41
0
  0
VERTEX
  8
0
 10
126.083
 20
68.1826
 30
0.0
 40
0
 41
0
  0
VERTEX
  8
0
 10
126.089
 20
77.8555
 30
0.0
 40
0
 41
0
  0
VERTEX
  8
0
 10
125.562
 20
77.8259
 30
0.0
 40
0
 41
0
  0
SEQEND
  8
0
  0
POLYLINE
8
0
 62
     0
 66
     1
 10
0
 20
0
 30
0.0
 70
     1
 40
0
 41
0
  0
VERTEX
  8
0
 10
125.562
 20
77.8259
 30
0.0
 40
0
 41
0
  0
VERTEX
  8
0
 10
125.562
 20
68.2063
 30
0.0
 40
0
 41
0
  0
VERTEX
  8
0
 10
126.083
 20
68.1826
 30
0.0
 40
0
 41
0
  0
VERTEX
  8
0
 10
126.089
 20
77.8555
 30
0.0
 40
0
 41
0
  0
VERTEX
  8
0
 10
125.562
 20
77.8259
 30
0.0
 40
0
 41
0
  0
SEQEND
  8
0
  0
POLYLINE
8
0
 62
     7
 66
     1
 10
0
 20
0
 30
0.0
 70
     1
 40
0
 41
0
  0
VERTEX
  8
0
 10
126.101
 20
77.8613
 30
0.0
 40
0
 41
0
  0
VERTEX
  8
0
 10
126.095
 20
68.4729
 30
0.0
 40
0
 41
0
  0
VERTEX
  8
0
 10
126.593
 20
68.4729
 30
0.0
 40
0
 41
0
  0
VERTEX
  8
0
 10
126.593
 20
77.8733
 30
0.0
 40
0
 41
0
  0
VERTEX
  8
0
 10
126.101
 20
77.8613
 30
0.0
 40
0
 41
0
  0
SEQEND
  8
0
  0
POLYLINE
8
0
 62
     0
 66
     1
 10
0
 20
0
 30
0.0
 70
     1
 40
0
 41
0
  0
VERTEX
  8
0
 10
126.101
 20
77.8613
 30
0.0
 40
0
 41
0
  0
VERTEX
  8
0
 10
126.095
 20
68.4729
 30
0.0
 40
0
 41
0
  0
VERTEX
  8
0
 10
126.593
 20
68.4729
 30
0.0
 40
0
 41
0
  0
VERTEX
  8
0
 10
126.593
 20
77.8733
 30
0.0
 40
0
 41
0
  0
VERTEX
  8
0
 10
126.101
 20
77.8613
 30
0.0
 40
0
 41
0
  0
SEQEND
  8
0
  0
POLYLINE
8
0
 62
     7
 66
     1
 10
0
 20
0
 30
0.0
 70
     1
 40
0
 41
0
  0
VERTEX
  8
0
 10
139.216
 20
78.2168
 30
0.0
 40
0
 41
0
  0
VERTEX
  8
0
 10
138.683
 20
78.2051
 30
0.0
 40
0
 41
0
  0
VERTEX
  8
0
 10
138.683
 20
47.3674
 30
0.0
 40
0
 41
0
  0
VERTEX
  8
0
 10
139.216
 20
47.3674
 30
0.0
 40
0
 41
0
  0
VERTEX
  8
0
 10
139.216
 20
78.2168
 30
0.0
 40
0
 41
0
  0
SEQEND
  8
0
  0
POLYLINE
8
0
 62
     0
 66
     1
 10
0
 20
0
 30
0.0
 70
     1
 40
0
 41
0
  0
VERTEX
  8
0
 10
139.216
 20
78.2168
 30
0.0
 40
0
 41
0
  0
VERTEX
  8
0
 10
138.683
 20
78.2051
 30
0.0
 40
0
 41
0
  0
VERTEX
  8
0
 10
138.683
 20
47.3674
 30
0.0
 40
0
 41
0
  0
VERTEX
  8
0
 10
139.216
 20
47.3674
 30
0.0
 40
0
 41
0
  0
VERTEX
  8
0
 10
139.216
 20
78.2168
 30
0.0
 40
0
 41
0
  0
SEQEND
  8
0
  0
POLYLINE
8
0
 62
     7
 66
     1
 10
0
 20
0
 30
0.0
 70
     1
 40
0
 41
0
  0
VERTEX
  8
0
 10
152.058
 20
78.5664
 30
0.0
 40
0
 41
0
  0
VERTEX
  8
0
 10
151.525
 20
78.5544
 30
0.0
 40
0
 41
0
  0
VERTEX
  8
0
 10
151.525
 20
46.8401
 30
0.0
 40
0
 41
0
  0
VERTEX
  8
0
 10
152.058
 20
46.8401
 30
0.0
 40
0
 41
0
  0
VERTEX
  8
0
 10
152.058
 20
78.5664
 30
0.0
 40
0
 41
0
  0
SEQEND
  8
0
  0
POLYLINE
8
0
 62
     0
 66
     1
 10
0
 20
0
 30
0.0
 70
     1
 40
0
 41
0
  0
VERTEX
  8
0
 10
152.058
 20
78.5664
 30
0.0
 40
0
 41
0
  0
VERTEX
  8
0
 10
151.525
 20
78.5544
 30
0.0
 40
0
 41
0
  0
VERTEX
  8
0
 10
151.525
 20
46.8401
 30
0.0
 40
0
 41
0
  0
VERTEX
  8
0
 10
152.058
 20
46.8401
 30
0.0
 40
0
 41
0
  0
VERTEX
  8
0
 10
152.058
 20
78.5664
 30
0.0
 40
0
 41
0
  0
SEQEND
  8
0
  0
POLYLINE
8
0
 62
     7
 66
     1
 10
0
 20
0
 30
0.0
 70
     1
 40
0
 41
0
  0
VERTEX
  8
0
 10
164.9
 20
78.9099
 30
0.0
 40
0
 41
0
  0
VERTEX
  8
0
 10
164.367
 20
78.8982
 30
0.0
 40
0
 41
0
  0
VERTEX
  8
0
 10
164.367
 20
46.3191
 30
0.0
 40
0
 41
0
  0
VERTEX
  8
0
 10
164.9
 20
46.3191
 30
0.0
 40
0
 41
0
  0
VERTEX
  8
0
 10
164.9
 20
78.9099
 30
0.0
 40
0
 41
0
  0
SEQEND
  8
0
  0
POLYLINE
8
0
 62
     0
 66
     1
 10
0
 20
0
 30
0.0
 70
     1
 40
0
 41
0
  0
VERTEX
  8
0
 10
164.9
 20
78.9099
 30
0.0
 40
0
 41
0
  0
VERTEX
  8
0
 10
164.367
 20
78.8982
 30
0.0
 40
0
 41
0
  0
VERTEX
  8
0
 10
164.367
 20
46.3191
 30
0.0
 40
0
 41
0
  0
VERTEX
  8
0
 10
164.9
 20
46.3191
 30
0.0
 40
0
 41
0
  0
VERTEX
  8
0
 10
164.9
 20
78.9099
 30
0.0
 40
0
 41
0
  0
SEQEND
  8
0
  0
POLYLINE
8
0
 62
     7
 66
     1
 10
0
 20
0
 30
0.0
 70
     1
 40
0
 41
0
  0
VERTEX
  8
0
 10
177.754
 20
79.2654
 30
0.0
 40
0
 41
0
  0
VERTEX
  8
0
 10
177.221
 20
79.2534
 30
0.0
 40
0
 41
0
  0
VERTEX
  8
0
 10
177.221
 20
45.7917
 30
0.0
 40
0
 41
0
  0
VERTEX
  8
0
 10
177.754
 20
45.7917
 30
0.0
 40
0
 41
0
  0
VERTEX
  8
0
 10
177.754
 20
79.2654
 30
0.0
 40
0
 41
0
  0
SEQEND
  8
0
  0
POLYLINE
8
0
 62
     0
 66
     1
 10
0
 20
0
 30
0.0
 70
     1
 40
0
 41
0
  0
VERTEX
  8
0
 10
177.754
 20
79.2654
 30
0.0
 40
0
 41
0
  0
VERTEX
  8
0
 10
177.221
 20
79.2534
 30
0.0
 40
0
 41
0
  0
VERTEX
  8
0
 10
177.221
 20
45.7917
 30
0.0
 40
0
 41
0
  0
VERTEX
  8
0
 10
177.754
 20
45.7917
 30
0.0
 40
0
 41
0
  0
VERTEX
  8
0
 10
177.754
 20
79.2654
 30
0.0
 40
0
 41
0
  0
SEQEND
  8
0
  0
POLYLINE
8
0
 62
     7
 66
     1
 10
0
 20
0
 30
0.0
 70
     1
 40
0
 41
0
  0
VERTEX
  8
0
 10
190.614
 20
79.6147
 30
0.0
 40
0
 41
0
  0
VERTEX
  8
0
 10
190.069
 20
79.603
 30
0.0
 40
0
 41
0
  0
VERTEX
  8
0
 10
190.069
 20
45.2646
 30
0.0
 40
0
 41
0
  0
VERTEX
  8
0
 10
190.614
 20
45.2646
 30
0.0
 40
0
 41
0
  0
VERTEX
  8
0
 10
190.614
 20
79.6147
 30
0.0
 40
0
 41
0
  0
SEQEND
  8
0
  0
POLYLINE
8
0
 62
     0
 66
     1
 10
0
 20
0
 30
0.0
 70
     1
 40
0
 41
0
  0
VERTEX
  8
0
 10
190.614
 20
79.6147
 30
0.0
 40
0
 41
0
  0
VERTEX
  8
0
 10
190.069
 20
79.603
 30
0.0
 40
0
 41
0
  0
VERTEX
  8
0
 10
190.069
 20
45.2646
 30
0.0
 40
0
 41
0
  0
VERTEX
  8
0
 10
190.614
 20
45.2646
 30
0.0
 40
0
 41
0
  0
VERTEX
  8
0
 10
190.614
 20
79.6147
 30
0.0
 40
0
 41
0
  0
SEQEND
  8
0
  0
POLYLINE
8
0
 62
     7
 66
     1
 10
0
 20
0
 30
0.0
 70
     1
 40
0
 41
0
  0
VERTEX
  8
0
 10
203.474
 20
79.9644
 30
0.0
 40
0
 41
0
  0
VERTEX
  8
0
 10
202.941
 20
79.9495
 30
0.0
 40
0
 41
0
  0
VERTEX
  8
0
 10
202.941
 20
44.7373
 30
0.0
 40
0
 41
0
  0
VERTEX
  8
0
 10
203.474
 20
44.7373
 30
0.0
 40
0
 41
0
  0
VERTEX
  8
0
 10
203.474
 20
79.9644
 30
0.0
 40
0
 41
0
  0
SEQEND
  8
0
  0
POLYLINE
8
0
 62
     0
 66
     1
 10
0
 20
0
 30
0.0
 70
     1
 40
0
 41
0
  0
VERTEX
  8
0
 10
203.474
 20
79.9644
 30
0.0
 40
0
 41
0
  0
VERTEX
  8
0
 10
202.941
 20
79.9495
 30
0.0
 40
0
 41
0
  0
VERTEX
  8
0
 10
202.941
 20
44.7373
 30
0.0
 40
0
 41
0
  0
VERTEX
  8
0
 10
203.474
 20
44.7373
 30
0.0
 40
0
 41
0
  0
VERTEX
  8
0
 10
203.474
 20
79.9644
 30
0.0
 40
0
 41
0
  0
SEQEND
  8
0
  0
POLYLINE
8
0
 62
     7
 66
     1
 10
0
 20
0
 30
0.0
 70
     1
 40
0
 41
0
  0
VERTEX
  8
0
 10
216.322
 20
80.3108
 30
0.0
 40
0
 41
0
  0
VERTEX
  8
0
 10
215.789
 20
80.302
 30
0.0
 40
0
 41
0
  0
VERTEX
  8
0
 10
215.789
 20
44.2102
 30
0.0
 40
0
 41
0
  0
VERTEX
  8
0
 10
216.322
 20
44.2102
 30
0.0
 40
0
 41
0
  0
VERTEX
  8
0
 10
216.322
 20
80.3108
 30
0.0
 40
0
 41
0
  0
SEQEND
  8
0
  0
POLYLINE
8
0
 62
     0
 66
     1
 10
0
 20
0
 30
0.0
 70
     1
 40
0
 41
0
  0
VERTEX
  8
0
 10
216.322
 20
80.3108
 30
0.0
 40
0
 41
0
  0
VERTEX
  8
0
 10
215.789
 20
80.302
 30
0.0
 40
0
 41
0
  0
VERTEX
  8
0
 10
215.789
 20
44.2102
 30
0.0
 40
0
 41
0
  0
VERTEX
  8
0
 10
216.322
 20
44.2102
 30
0.0
 40
0
 41
0
  0
VERTEX
  8
0
 10
216.322
 20
80.3108
 30
0.0
 40
0
 41
0
  0
SEQEND
  8
0
  0
POLYLINE
8
0
 62
     0
 66
     1
 10
0
 20
0
 30
0.0
 40
0
 41
0
  0
VERTEX
  8
0
 10
51.0974
 20
64.9954
 30
0.0
 40
0
 41
0
  0
VERTEX
  8
0
 10
51.5003
 20
70.1726
 30
0.0
 40
0
 41
0
  0
SEQEND
  8
0
  0
POLYLINE
8
0
 62
     0
 66
     1
 10
0
 20
0
 30
0.0
 40
0
 41
0
  0
VERTEX
  8
0
 10
50.742
 20
55.7195
 30
0.0
 40
0
 41
0
  0
VERTEX
  8
0
 10
51.9031
 20
70.6702
 30
0.0
 40
0
 41
0
  0
SEQEND
  8
0
  0
POLYLINE
8
0
 62
     7
 66
     1
 10
0
 20
0
 30
0.0
 70
     1
 40
0
 41
0
  0
VERTEX
  8
0
 10
231.042
 20
66.583
 30
0.0
 40
0
 41
0
  0
VERTEX
  8
0
 10
231.042
 20
44.0913
 30
0.0
 40
0
 41
0
  0
VERTEX
  8
0
 10
228.892
 20
38.7249
 30
0.0
 40
0
 41
0
  0
VERTEX
  8
0
 10
228.886
 20
66.583
 30
0.0
 40
0
 41
0
  0
VERTEX
  8
0
 10
231.042
 20
66.583
 30
0.0
 40
0
 41
0
  0
SEQEND
  8
0
  0
POLYLINE
8
0
 62
     0
 66
     1
 10
0
 20
0
 30
0.0
 70
     1
 40
0
 41
0
  0
VERTEX
  8
0
 10
231.042
 20
66.583
 30
0.0
 40
0
 41
0
  0
VERTEX
  8
0
 10
231.042
 20
44.0913
 30
0.0
 40
0
 41
0
  0
VERTEX
  8
0
 10
228.892
 20
38.7249
 30
0.0
 40
0
 41
0
  0
VERTEX
  8
0
 10
228.886
 20
66.583
 30
0.0
 40
0
 41
0
  0
VERTEX
  8
0
 10
231.042
 20
66.583
 30
0.0
 40
0
 41
0
  0
SEQEND
  8
0
  0
POLYLINE
8
0
 62
     7
 66
     1
 10
0
 20
0
 30
0.0
 70
     1
 40
0
 41
0
  0
VERTEX
  8
0
 10
226.736
 20
66.8494
 30
0.0
 40
0
 41
0
  0
VERTEX
  8
0
 10
226.759
 20
44.0796
 30
0.0
 40
0
 41
0
  0
VERTEX
  8
0
 10
228.892
 20
38.7249
 30
0.0
 40
0
 41
0
  0
VERTEX
  8
0
 10
228.886
 20
66.8435
 30
0.0
 40
0
 41
0
  0
VERTEX
  8
0
 10
226.736
 20
66.8494
 30
0.0
 40
0
 41
0
  0
SEQEND
  8
0
  0
POLYLINE
8
0
 62
     0
 66
     1
 10
0
 20
0
 30
0.0
 70
     1
 40
0
 41
0
  0
VERTEX
  8
0
 10
226.736
 20
66.8494
 30
0.0
 40
0
 41
0
  0
VERTEX
  8
0
 10
226.759
 20
44.0796
 30
0.0
 40
0
 41
0
  0
VERTEX
  8
0
 10
228.892
 20
38.7249
 30
0.0
 40
0
 41
0
  0
VERTEX
  8
0
 10
228.886
 20
66.8435
 30
0.0
 40
0
 41
0
  0
VERTEX
  8
0
 10
226.736
 20
66.8494
 30
0.0
 40
0
 41
0
  0
SEQEND
  8
0
  0
POLYLINE
8
0
 62
     0
 66
     1
 10
0
 20
0
 30
0.0
 40
0
 41
0
  0
VERTEX
  8
0
 10
227.831
 20
66.8289
 30
0.0
 40
0
 41
0
  0
VERTEX
  8
0
 10
227.831
 20
41.4287
 30
0.0
 40
0
 41
0
  0
SEQEND
  8
0
  0
POLYLINE
8
0
 62
     0
 66
     1
 10
0
 20
0
 30
0.0
 40
0
 41
0
  0
VERTEX
  8
0
 10
229.916
 20
66.4971
 30
0.0
 40
0
 41
0
  0
VERTEX
  8
0
 10
229.939
 20
41.3577
 30
0.0
 40
0
 41
0
  0
SEQEND
  8
0
  0
TEXT
  8
0
 62
     0
 10
302.983
 20
70.0986
 30
0
 40
0.663434
  1
1
 50
0
  0
TEXT
  8
0
 62
     0
 10
291.752
 20
70.0037
 30
0
 40
0.663434
  1
2
 50
0
  0
TEXT
  8
0
 62
     0
 10
278.91
 20
70.0037
 30
0
 40
0.663434
  1
3
 50
0
  0
TEXT
  8
0
 62
     0
 10
266.068
 20
70.0037
 30
0
 40
0.663434
  1
4
 50
0
  0
TEXT
  8
0
 62
     0
 10
253.226
 20
70.0037
 30
0
 40
0.663434
  1
5
 50
0
  0
TEXT
  8
0
 62
     0
 10
240.336
 20
70.0037
 30
0
 40
0.663434
  1
6
 50
0
  0
TEXT
  8
0
 62
     0
 10
230.764
 20
70.0037
 30
0
 40
0.663434
  1
7C
 50
0
  0
TEXT
  8
0
 62
     0
 10
225.883
 20
70.0037
 30
0
 40
0.663434
  1
7M
 50
0
  0
TEXT
  8
0
 62
     0
 10
214.652
 20
70.0037
 30
0
 40
0.663434
  1
8
 50
0
  0
TEXT
  8
0
 62
     0
 10
201.81
 20
70.0037
 30
0
 40
0.663434
  1
9
 50
0
  0
TEXT
  8
0
 62
     0
 10
188.588
 20
70.0037
 30
0
 40
0.663434
  1
10
 50
0
  0
TEXT
  8
0
 62
     0
 10
175.698
 20
70.0037
 30
0
 40
0.663434
  1
11
 50
0
  0
TEXT
  8
0
 62
     0
 10
162.856
 20
70.0037
 30
0
 40
0.663434
  1
12
 50
0
  0
TEXT
  8
0
 62
     0
 10
150.014
 20
70.0037
 30
0
 40
0.663434
  1
13
 50
0
  0
TEXT
  8
0
 62
     0
 10
137.172
 20
70.0037
 30
0
 40
0.663434
  1
14
 50
0
  0
TEXT
  8
0
 62
     0
 10
127.505
 20
70.0037
 30
0
 40
0.663434
  1
15M
 50
0
  0
TEXT
  8
0
 62
     0
 10
123.335
 20
70.0037
 30
0
 40
0.663434
  1
15T
 50
0
  0
TEXT
  8
0
 62
     0
 10
111.44
 20
70.0037
 30
0
 40
0.663434
  1
16
 50
0
  0
TEXT
  8
0
 62
     0
 10
98.5979
 20
70.0037
 30
0
 40
0.663434
  1
17
 50
0
  0
TEXT
  8
0
 62
     0
 10
85.7559
 20
70.0037
 30
0
 40
0.663434
  1
18
 50
0
  0
TEXT
  8
0
 62
     0
 10
72.9136
 20
70.0037
 30
0
 40
0.663434
  1
19
 50
0
  0
TEXT
  8
0
 62
     0
 10
60.0715
 20
70.0037
 30
0
 40
0.663434
  1
20
 50
0
  0
TEXT
  8
0
 62
     0
 10
46.7083
 20
70.0037
 30
0
 40
0.663434
  1
(21)
 50
0
  0
POLYLINE
8
0
 62
     0
 66
     1
 10
0
 20
0
 30
0.0
 40
0.0473883
 41
0.0473883
  0
VERTEX
  8
0
 10
48.0408
 20
53.3145
 30
0.0
 40
0.0473883
 41
0.0473883
  0
VERTEX
  8
0
 10
36.0515
 20
54.6411
 30
0.0
 40
0.0473883
 41
0.0473883
  0
SEQEND
  8
0
  0
POLYLINE
8
0
 62
     0
 66
     1
 10
0
 20
0
 30
0.0
 40
0.0473883
 41
0.0473883
  0
VERTEX
  8
0
 10
59.6982
 20
75.1604
 30
0.0
 40
0.0473883
 41
0.0473883
  0
VERTEX
  8
0
 10
48.9885
 20
74.5916
 30
0.0
 40
0.0473883
 41
0.0473883
  0
SEQEND
  8
0
  0
POLYLINE
8
0
 62
     0
 66
     1
 10
0
 20
0
 30
0.0
 40
0
 41
0
  0
VERTEX
  8
0
 10
222.476
 20
81.605
 30
0.0
 40
0
 41
0
  0
VERTEX
  8
0
 10
36.1462
 20
81.605
 30
0.0
 40
0
 41
0
  0
SEQEND
  8
0
  0
POLYLINE
8
0
 62
     0
 66
     1
 10
0
 20
0
 30
0.0
 40
0
 41
0
  0
VERTEX
  8
0
 10
222.476
 20
38.7661
 30
0.0
 40
0
 41
0
  0
VERTEX
  8
0
 10
36.1462
 20
38.7661
 30
0.0
 40
0
 41
0
  0
SEQEND
  8
0
  0
POLYLINE
8
0
 62
     0
 66
     1
 10
0
 20
0
 30
0.0
 40
0
 41
0
  0
VERTEX
  8
0
 10
121.794
 20
78.7974
 30
0.0
 40
0
 41
0
  0
VERTEX
  8
0
 10
36.116
 20
78.7974
 30
0.0
 40
0
 41
0
  0
SEQEND
  8
0
  0
POLYLINE
8
0
 62
     0
 66
     1
 10
0
 20
0
 30
0.0
 40
0
 41
0
  0
VERTEX
  8
0
 10
121.812
 20
44.5178
 30
0.0
 40
0
 41
0
  0
VERTEX
  8
0
 10
36.1336
 20
44.5178
 30
0.0
 40
0
 41
0
  0
SEQEND
  8
0
  0
POLYLINE
8
0
 62
     0
 66
     1
 10
0
 20
0
 30
0.0
 40
0
 41
0
  0
VERTEX
  8
0
 10
301.709
 20
82.3013
 30
0.0
 40
0
 41
0
  0
VERTEX
  8
0
 10
36.1465
 20
82.3013
 30
0.0
 40
0
 41
0
  0
SEQEND
  8
0
  0
POLYLINE
8
0
 62
     0
 66
     1
 10
0
 20
0
 30
0.0
 40
0
 41
0
  0
VERTEX
  8
0
 10
301.709
 20
37.321
 30
0.0
 40
0
 41
0
  0
VERTEX
  8
0
 10
36.1465
 20
37.321
 30
0.0
 40
0
 41
0
  0
SEQEND
  8
0
  0
POLYLINE
8
0
 62
     0
 66
     1
 10
0
 20
0
 30
0.0
 40
0
 41
0
  0
VERTEX
  8
0
 10
304.909
 20
75.113
 30
0.0
 40
0
 41
0
  0
VERTEX
  8
0
 10
297.706
 20
68.7629
 30
0.0
 40
0
 41
0
  0
SEQEND
  8
0
  0
POLYLINE
8
0
 62
     7
 66
     1
 10
0
 20
0
 30
0.0
 70
     1
 40
0
 41
0
  0
VERTEX
  8
0
 10
304.932
 20
68.7156
 30
0.0
 40
0
 41
0
  0
VERTEX
  8
0
 10
304.127
 20
69.8054
 30
0.0
 40
0
 41
0
  0
VERTEX
  8
0
 10
304.127
 20
74.4258
 30
0.0
 40
0
 41
0
  0
VERTEX
  8
0
 10
304.932
 20
75.1604
 30
0.0
 40
0
 41
0
  0
VERTEX
  8
0
 10
304.932
 20
68.7156
 30
0.0
 40
0
 41
0
  0
SEQEND
  8
0
  0
POLYLINE
8
0
 62
     0
 66
     1
 10
0
 20
0
 30
0.0
 70
     1
 40
0
 41
0
  0
VERTEX
  8
0
 10
304.932
 20
68.7156
 30
0.0
 40
0
 41
0
  0
VERTEX
  8
0
 10
304.127
 20
69.8054
 30
0.0
 40
0
 41
0
  0
VERTEX
  8
0
 10
304.127
 20
74.4258
 30
0.0
 40
0
 41
0
  0
VERTEX
  8
0
 10
304.932
 20
75.1604
 30
0.0
 40
0
 41
0
  0
VERTEX
  8
0
 10
304.932
 20
68.7156
 30
0.0
 40
0
 41
0
  0
SEQEND
  8
0
  0
POLYLINE
8
0
 62
     0
 66
     1
 10
0
 20
0
 30
0.0
 40
0
 41
0
  0
VERTEX
  8
0
 10
304.932
 20
49.4521
 30
0.0
 40
0
 41
0
  0
VERTEX
  8
0
 10
293.559
 20
44.4529
 30
0.0
 40
0
 41
0
  0
SEQEND
  8
0
  0
POLYLINE
8
0
 62
     7
 66
     1
 10
0
 20
0
 30
0.0
 70
     1
 40
0
 41
0
  0
VERTEX
  8
0
 10
304.932
 20
49.4521
 30
0.0
 40
0
 41
0
  0
VERTEX
  8
0
 10
304.127
 20
49.0967
 30
0.0
 40
0
 41
0
  0
VERTEX
  8
0
 10
304.127
 20
65.5166
 30
0.0
 40
0
 41
0
  0
VERTEX
  8
0
 10
304.932
 20
66.583
 30
0.0
 40
0
 41
0
  0
VERTEX
  8
0
 10
304.932
 20
49.4521
 30
0.0
 40
0
 41
0
  0
SEQEND
  8
0
  0
POLYLINE
8
0
 62
     0
 66
     1
 10
0
 20
0
 30
0.0
 70
     1
 40
0
 41
0
  0
VERTEX
  8
0
 10
304.932
 20
49.4521
 30
0.0
 40
0
 41
0
  0
VERTEX
  8
0
 10
304.127
 20
49.0967
 30
0.0
 40
0
 41
0
  0
VERTEX
  8
0
 10
304.127
 20
65.5166
 30
0.0
 40
0
 41
0
  0
VERTEX
  8
0
 10
304.932
 20
66.583
 30
0.0
 40
0
 41
0
  0
VERTEX
  8
0
 10
304.932
 20
49.4521
 30
0.0
 40
0
 41
0
  0
SEQEND
  8
0
  0
POLYLINE
8
0
 62
     0
 66
     1
 10
0
 20
0
 30
0.0
 40
0
 41
0
  0
VERTEX
  8
0
 10
305.999
 20
62.2886
 30
0.0
 40
0
 41
0
  0
VERTEX
  8
0
 10
228.898
 20
62.2886
 30
0.0
 40
0
 41
0
  0
VERTEX
  8
0
 10
126.113
 20
63.3547
 30
0.0
 40
0
 41
0
  0
VERTEX
  8
0
 10
51.1216
 20
64.9897
 30
0.0
 40
0
 41
0
  0
SEQEND
  8
0
  0
POLYLINE
8
0
 62
     0
 66
     1
 10
0
 20
0
 30
0.0
 40
0.0473883
 41
0.0473883
  0
VERTEX
  8
0
 10
306.014
 20
46.1201
 30
0.0
 40
0.0473883
 41
0.0473883
  0
VERTEX
  8
0
 10
306.014
 20
44.0588
 30
0.0
 40
0.0473883
 41
0.0473883
  0
SEQEND
  8
0
  0
POLYLINE
8
0
 62
     0
 66
     1
 10
0
 20
0
 30
0.0
 40
0
 41
0
  0
VERTEX
  8
0
 10
298.793
 20
45.6226
 30
0.0
 40
0
 41
0
  0
VERTEX
  8
0
 10
302.667
 20
47.3286
 30
0.0
 40
0
 41
0
  0
SEQEND
  8
0
  0
POLYLINE
8
0
 62
     7
 66
     1
 10
0
 20
0
 30
0.0
 40
0
 41
0
  0
VERTEX
  8
0
 10
299.275
 20
45.7053
 30
0.0
 40
0
 41
0
  0
VERTEX
  8
0
 10
298.794
 20
45.6228
 30
0.0
 40
0
 41
0
  0
VERTEX
  8
0
 10
299.18
 20
45.9221
 30
0.0
 40
0
 41
0
  0
SEQEND
  8
0
  0
POLYLINE
8
0
 62
     0
 66
     1
 10
0
 20
0
 30
0.0
 40
0
 41
0
  0
VERTEX
  8
0
 10
299.275
 20
45.7053
 30
0.0
 40
0
 41
0
  0
VERTEX
  8
0
 10
298.794
 20
45.6228
 30
0.0
 40
0
 41
0
  0
VERTEX
  8
0
 10
299.18
 20
45.9221
 30
0.0
 40
0
 41
0
  0
SEQEND
  8
0
  0
POLYLINE
8
0
 62
     7
 66
     1
 10
0
 20
0
 30
0.0
 40
0
 41
0
  0
VERTEX
  8
0
 10
302.186
 20
47.2464
 30
0.0
 40
0
 41
0
  0
VERTEX
  8
0
 10
302.667
 20
47.3289
 30
0.0
 40
0
 41
0
  0
VERTEX
  8
0
 10
302.281
 20
47.0296
 30
0.0
 40
0
 41
0
  0
SEQEND
  8
0
  0
POLYLINE
8
0
 62
     0
 66
     1
 10
0
 20
0
 30
0.0
 40
0
 41
0
  0
VERTEX
  8
0
 10
302.186
 20
47.2463
 30
0.0
 40
0
 41
0
  0
VERTEX
  8
0
 10
302.667
 20
47.3289
 30
0.0
 40
0
 41
0
  0
VERTEX
  8
0
 10
302.281
 20
47.0295
 30
0.0
 40
0
 41
0
  0
SEQEND
  8
0
  0
POLYLINE
8
0
 62
     0
 66
     1
 10
0
 20
0
 30
0.0
 40
0
 41
0
  0
VERTEX
  8
0
 10
313.259
 20
45.6699
 30
0.0
 40
0
 41
0
  0
VERTEX
  8
0
 10
309.385
 20
47.376
 30
0.0
 40
0
 41
0
  0
SEQEND
  8
0
  0
POLYLINE
8
0
 62
     7
 66
     1
 10
0
 20
0
 30
0.0
 40
0
 41
0
  0
VERTEX
  8
0
 10
312.873
 20
45.9695
 30
0.0
 40
0
 41
0
  0
VERTEX
  8
0
 10
313.259
 20
45.6702
 30
0.0
 40
0
 41
0
  0
VERTEX
  8
0
 10
312.778
 20
45.7527
 30
0.0
 40
0
 41
0
  0
SEQEND
  8
0
  0
POLYLINE
8
0
 62
     0
 66
     1
 10
0
 20
0
 30
0.0
 40
0
 41
0
  0
VERTEX
  8
0
 10
312.873
 20
45.9695
 30
0.0
 40
0
 41
0
  0
VERTEX
  8
0
 10
313.259
 20
45.6702
 30
0.0
 40
0
 41
0
  0
VERTEX
  8
0
 10
312.778
 20
45.7527
 30
0.0
 40
0
 41
0
  0
SEQEND
  8
0
  0
POLYLINE
8
0
 62
     7
 66
     1
 10
0
 20
0
 30
0.0
 40
0
 41
0
  0
VERTEX
  8
0
 10
309.771
 20
47.0769
 30
0.0
 40
0
 41
0
  0
VERTEX
  8
0
 10
309.385
 20
47.3762
 30
0.0
 40
0
 41
0
  0
VERTEX
  8
0
 10
309.866
 20
47.2937
 30
0.0
 40
0
 41
0
  0
SEQEND
  8
0
  0
POLYLINE
8
0
 62
     0
 66
     1
 10
0
 20
0
 30
0.0
 40
0
 41
0
  0
VERTEX
  8
0
 10
309.771
 20
47.0769
 30
0.0
 40
0
 41
0
  0
VERTEX
  8
0
 10
309.385
 20
47.3762
 30
0.0
 40
0
 41
0
  0
VERTEX
  8
0
 10
309.866
 20
47.2937
 30
0.0
 40
0
 41
0
  0
SEQEND
  8
0
  0
TEXT
  8
0
 62
     0
 10
309.592
 20
52.1833
 30
0
 40
0.663434
  1
Carbon/balsa/glass
 50
0
  0
TEXT
  8
0
 62
     0
 10
309.592
 20
51.5195
 30
0
 40
0.663434
  1
bolt beam.  Fabricate
 50
0
  0
TEXT
  8
0
 62
     0
 10
309.592
 20
50.8562
 30
0
 40
0.663434
  1
before wing assembly.
 50
0
  0
POLYLINE
8
0
 62
     0
 66
     1
 10
0
 20
0
 30
0.0
 40
0
 41
0
  0
VERTEX
  8
0
 10
308.834
 20
51.5698
 30
0.0
 40
0
 41
0
  0
VERTEX
  8
0
 10
308.597
 20
51.5698
 30
0.0
 40
0
 41
0
  0
VERTEX
  8
0
 10
307.665
 20
51.3882
 30
0.0
 40
0
 41
0
  0
VERTEX
  8
0
 10
307.294
 20
50.5669
 30
0.0
 40
0
 41
0
  0
VERTEX
  8
0
 10
306.52
 20
50.0061
 30
0.0
 40
0
 41
0
  0
VERTEX
  8
0
 10
306.322
 20
49.9114
 30
0.0
 40
0
 41
0
  0
SEQEND
  8
0
  0
POLYLINE
8
0
 62
     0
 66
     1
 10
0
 20
0
 30
0.0
 40
0
 41
0
  0
VERTEX
  8
0
 10
298.835
 20
71.5676
 30
0.0
 40
0
 41
0
  0
VERTEX
  8
0
 10
301.962
 20
74.3162
 30
0.0
 40
0
 41
0
  0
SEQEND
  8
0
  0
POLYLINE
8
0
 62
     7
 66
     1
 10
0
 20
0
 30
0.0
 40
0
 41
0
  0
VERTEX
  8
0
 10
299.269
 20
71.7917
 30
0.0
 40
0
 41
0
  0
VERTEX
  8
0
 10
298.835
 20
71.5679
 30
0.0
 40
0
 41
0
  0
VERTEX
  8
0
 10
299.113
 20
71.9695
 30
0.0
 40
0
 41
0
  0
SEQEND
  8
0
  0
POLYLINE
8
0
 62
     0
 66
     1
 10
0
 20
0
 30
0.0
 40
0
 41
0
  0
VERTEX
  8
0
 10
299.269
 20
71.7917
 30
0.0
 40
0
 41
0
  0
VERTEX
  8
0
 10
298.835
 20
71.5679
 30
0.0
 40
0
 41
0
  0
VERTEX
  8
0
 10
299.113
 20
71.9695
 30
0.0
 40
0
 41
0
  0
SEQEND
  8
0
  0
POLYLINE
8
0
 62
     7
 66
     1
 10
0
 20
0
 30
0.0
 40
0
 41
0
  0
VERTEX
  8
0
 10
301.529
 20
74.0925
 30
0.0
 40
0
 41
0
  0
VERTEX
  8
0
 10
301.963
 20
74.3164
 30
0.0
 40
0
 41
0
  0
VERTEX
  8
0
 10
301.685
 20
73.9148
 30
0.0
 40
0
 41
0
  0
SEQEND
  8
0
  0
POLYLINE
8
0
 62
     0
 66
     1
 10
0
 20
0
 30
0.0
 40
0
 41
0
  0
VERTEX
  8
0
 10
301.529
 20
74.0925
 30
0.0
 40
0
 41
0
  0
VERTEX
  8
0
 10
301.963
 20
74.3164
 30
0.0
 40
0
 41
0
  0
VERTEX
  8
0
 10
301.685
 20
73.9148
 30
0.0
 40
0
 41
0
  0
SEQEND
  8
0
  0
POLYLINE
8
0
 62
     0
 66
     1
 10
0
 20
0
 30
0.0
 40
0
 41
0
  0
VERTEX
  8
0
 10
313.146
 20
71.615
 30
0.0
 40
0
 41
0
  0
VERTEX
  8
0
 10
310.019
 20
74.3635
 30
0.0
 40
0
 41
0
  0
SEQEND
  8
0
  0
POLYLINE
8
0
 62
     7
 66
     1
 10
0
 20
0
 30
0.0
 40
0
 41
0
  0
VERTEX
  8
0
 10
312.868
 20
72.0168
 30
0.0
 40
0
 41
0
  0
VERTEX
  8
0
 10
313.146
 20
71.6152
 30
0.0
 40
0
 41
0
  0
VERTEX
  8
0
 10
312.712
 20
71.8391
 30
0.0
 40
0
 41
0
  0
SEQEND
  8
0
  0
POLYLINE
8
0
 62
     0
 66
     1
 10
0
 20
0
 30
0.0
 40
0
 41
0
  0
VERTEX
  8
0
 10
312.868
 20
72.0168
 30
0.0
 40
0
 41
0
  0
VERTEX
  8
0
 10
313.146
 20
71.6152
 30
0.0
 40
0
 41
0
  0
VERTEX
  8
0
 10
312.712
 20
71.8391
 30
0.0
 40
0
 41
0
  0
SEQEND
  8
0
  0
POLYLINE
8
0
 62
     7
 66
     1
 10
0
 20
0
 30
0.0
 40
0
 41
0
  0
VERTEX
  8
0
 10
310.296
 20
73.9622
 30
0.0
 40
0
 41
0
  0
VERTEX
  8
0
 10
310.019
 20
74.3638
 30
0.0
 40
0
 41
0
  0
VERTEX
  8
0
 10
310.453
 20
74.1399
 30
0.0
 40
0
 41
0
  0
SEQEND
  8
0
  0
POLYLINE
8
0
 62
     0
 66
     1
 10
0
 20
0
 30
0.0
 40
0
 41
0
  0
VERTEX
  8
0
 10
310.296
 20
73.9622
 30
0.0
 40
0
 41
0
  0
VERTEX
  8
0
 10
310.019
 20
74.3638
 30
0.0
 40
0
 41
0
  0
VERTEX
  8
0
 10
310.453
 20
74.1399
 30
0.0
 40
0
 41
0
  0
SEQEND
  8
0
  0
POLYLINE
8
0
 62
     0
 66
     1
 10
0
 20
0
 30
0.0
 70
     1
 40
0.0473883
 41
0.0473883
  0
VERTEX
  8
0
 10
225.685
 20
43.0193
 30
0.0
 40
0.0473883
 41
0.0473883
  0
VERTEX
  8
0
 10
225.685
 20
43.5552
 30
0.0
 40
0.0473883
 41
0.0473883
  0
VERTEX
  8
0
 10
232.106
 20
43.5552
 30
0.0
 40
0.0473883
 41
0.0473883
  0
VERTEX
  8
0
 10
232.106
 20
43.0193
 30
0.0
 40
0.0473883
 41
0.0473883
  0
VERTEX
  8
0
 10
225.685
 20
43.0193
 30
0.0
 40
0.0473883
 41
0.0473883
  0
SEQEND
  8
0
  0
POLYLINE
8
0
 62
     0
 66
     1
 10
0
 20
0
 30
0.0
 70
     1
 40
0
 41
0
  0
VERTEX
  8
0
 10
225.662
 20
42.9526
 30
0.0
 40
0
 41
0
  0
VERTEX
  8
0
 10
225.662
 20
43.6216
 30
0.0
 40
0
 41
0
  0
VERTEX
  8
0
 10
228.873
 20
43.6216
 30
0.0
 40
0
 41
0
  0
VERTEX
  8
0
 10
228.873
 20
42.9526
 30
0.0
 40
0
 41
0
  0
VERTEX
  8
0
 10
225.662
 20
42.9526
 30
0.0
 40
0
 41
0
  0
SEQEND
  8
0
  0
POLYLINE
8
0
 62
     0
 66
     1
 10
0
 20
0
 30
0.0
 70
     1
 40
0
 41
0
  0
VERTEX
  8
0
 10
228.918
 20
42.9526
 30
0.0
 40
0
 41
0
  0
VERTEX
  8
0
 10
228.918
 20
43.6216
 30
0.0
 40
0
 41
0
  0
VERTEX
  8
0
 10
232.129
 20
43.6216
 30
0.0
 40
0
 41
0
  0
VERTEX
  8
0
 10
232.129
 20
42.9526
 30
0.0
 40
0
 41
0
  0
VERTEX
  8
0
 10
228.918
 20
42.9526
 30
0.0
 40
0
 41
0
  0
SEQEND
  8
0
  0
POLYLINE
8
0
 62
     0
 66
     1
 10
0
 20
0
 30
0.0
 70
     1
 40
0.0473883
 41
0.0473883
  0
VERTEX
  8
0
 10
379.903
 20
43.0808
 30
0.0
 40
0.0473883
 41
0.0473883
  0
VERTEX
  8
0
 10
379.903
 20
43.6167
 30
0.0
 40
0.0473883
 41
0.0473883
  0
VERTEX
  8
0
 10
386.324
 20
43.6167
 30
0.0
 40
0.0473883
 41
0.0473883
  0
VERTEX
  8
0
 10
386.324
 20
43.0808
 30
0.0
 40
0.0473883
 41
0.0473883
  0
VERTEX
  8
0
 10
379.903
 20
43.0808
 30
0.0
 40
0.0473883
 41
0.0473883
  0
SEQEND
  8
0
  0
POLYLINE
8
0
 62
     0
 66
     1
 10
0
 20
0
 30
0.0
 70
     1
 40
0
 41
0
  0
VERTEX
  8
0
 10
379.88
 20
43.0142
 30
0.0
 40
0
 41
0
  0
VERTEX
  8
0
 10
379.88
 20
43.6831
 30
0.0
 40
0
 41
0
  0
VERTEX
  8
0
 10
383.091
 20
43.6831
 30
0.0
 40
0
 41
0
  0
VERTEX
  8
0
 10
383.091
 20
43.0142
 30
0.0
 40
0
 41
0
  0
VERTEX
  8
0
 10
379.88
 20
43.0142
 30
0.0
 40
0
 41
0
  0
SEQEND
  8
0
  0
POLYLINE
8
0
 62
     0
 66
     1
 10
0
 20
0
 30
0.0
 70
     1
 40
0
 41
0
  0
VERTEX
  8
0
 10
383.136
 20
43.0142
 30
0.0
 40
0
 41
0
  0
VERTEX
  8
0
 10
383.136
 20
43.6831
 30
0.0
 40
0
 41
0
  0
VERTEX
  8
0
 10
386.347
 20
43.6831
 30
0.0
 40
0
 41
0
  0
VERTEX
  8
0
 10
386.347
 20
43.0142
 30
0.0
 40
0
 41
0
  0
VERTEX
  8
0
 10
383.136
 20
43.0142
 30
0.0
 40
0
 41
0
  0
SEQEND
  8
0
  0
POLYLINE
8
0
 62
     0
 66
     1
 10
0
 20
0
 30
0.0
 70
     1
 40
0.0473883
 41
0.0473883
  0
VERTEX
  8
0
 10
371.339
 20
66.8704
 30
0.0
 40
0.0473883
 41
0.0473883
  0
VERTEX
  8
0
 10
371.339
 20
68.4697
 30
0.0
 40
0.0473883
 41
0.0473883
  0
VERTEX
  8
0
 10
394.891
 20
68.4697
 30
0.0
 40
0.0473883
 41
0.0473883
  0
VERTEX
  8
0
 10
394.891
 20
66.8704
 30
0.0
 40
0.0473883
 41
0.0473883
  0
VERTEX
  8
0
 10
371.339
 20
66.8704
 30
0.0
 40
0.0473883
 41
0.0473883
  0
SEQEND
  8
0
  0
POLYLINE
8
0
 62
     0
 66
     1
 10
0
 20
0
 30
0.0
 70
     1
 40
0.0473883
 41
0.0473883
  0
VERTEX
  8
0
 10
217.09
 20
66.8704
 30
0.0
 40
0.0473883
 41
0.0473883
  0
VERTEX
  8
0
 10
217.09
 20
68.4697
 30
0.0
 40
0.0473883
 41
0.0473883
  0
VERTEX
  8
0
 10
240.689
 20
68.4697
 30
0.0
 40
0.0473883
 41
0.0473883
  0
VERTEX
  8
0
 10
240.689
 20
66.8704
 30
0.0
 40
0.0473883
 41
0.0473883
  0
VERTEX
  8
0
 10
217.09
 20
66.8704
 30
0.0
 40
0.0473883
 41
0.0473883
  0
SEQEND
  8
0
  0
POLYLINE
8
0
 62
     0
 66
     1
 10
0
 20
0
 30
0.0
 70
     1
 40
0
 41
0
  0
VERTEX
  8
0
 10
309.847
 20
63.7451
 30
0.0
 40
0
 41
0
  0
VERTEX
  8
0
 10
314.246
 20
63.7451
 30
0.0
 40
0
 41
0
  0
VERTEX
  8
0
 10
314.246
 20
58.7766
 30
0.0
 40
0
 41
0
  0
VERTEX
  8
0
 10
309.847
 20
58.7766
 30
0.0
 40
0
 41
0
  0
VERTEX
  8
0
 10
309.847
 20
63.7451
 30
0.0
 40
0
 41
0
  0
SEQEND
  8
0
  0
POLYLINE
8
0
 62
     0
 66
     1
 10
0
 20
0
 30
0.0
 70
     1
 40
0
 41
0
  0
VERTEX
  8
0
 10
310.505
 20
58.7686
 30
0.0
 40
0
 41
0
  0
VERTEX
  8
0
 10
310.805
 20
58.7686
 30
0.0
 40
0
 41
0
  0
VERTEX
  8
0
 10
310.805
 20
57.7822
 30
0.0
 40
0
 41
0
  0
VERTEX
  8
0
 10
310.505
 20
57.7822
 30
0.0
 40
0
 41
0
  0
VERTEX
  8
0
 10
310.505
 20
58.7686
 30
0.0
 40
0
 41
0
  0
SEQEND
  8
0
  0
POLYLINE
8
0
 62
     0
 66
     1
 10
0
 20
0
 30
0.0
 70
     1
 40
0
 41
0
  0
VERTEX
  8
0
 10
310.505
 20
64.7395
 30
0.0
 40
0
 41
0
  0
VERTEX
  8
0
 10
310.805
 20
64.7395
 30
0.0
 40
0
 41
0
  0
VERTEX
  8
0
 10
310.805
 20
63.7532
 30
0.0
 40
0
 41
0
  0
VERTEX
  8
0
 10
310.505
 20
63.7532
 30
0.0
 40
0
 41
0
  0
VERTEX
  8
0
 10
310.505
 20
64.7395
 30
0.0
 40
0
 41
0
  0
SEQEND
  8
0
  0
POLYLINE
8
0
 62
     0
 66
     1
 10
0
 20
0
 30
0.0
 70
     1
 40
0
 41
0
  0
VERTEX
  8
0
 10
309.202
 20
62.3237
 30
0.0
 40
0
 41
0
  0
VERTEX
  8
0
 10
309.845
 20
62.3237
 30
0.0
 40
0
 41
0
  0
VERTEX
  8
0
 10
309.845
 20
59.3215
 30
0.0
 40
0
 41
0
  0
VERTEX
  8
0
 10
309.202
 20
59.3215
 30
0.0
 40
0
 41
0
  0
VERTEX
  8
0
 10
309.202
 20
62.3237
 30
0.0
 40
0
 41
0
  0
SEQEND
  8
0
  0
POLYLINE
8
0
 62
     0
 66
     1
 10
0
 20
0
 30
0.0
 70
     1
 40
0
 41
0
  0
VERTEX
  8
0
 10
308.429
 20
62.2898
 30
0.0
 40
0
 41
0
  0
VERTEX
  8
0
 10
308.686
 20
62.2898
 30
0.0
 40
0
 41
0
  0
VERTEX
  8
0
 10
308.686
 20
58.6445
 30
0.0
 40
0
 41
0
  0
VERTEX
  8
0
 10
308.429
 20
58.6445
 30
0.0
 40
0
 41
0
  0
VERTEX
  8
0
 10
308.429
 20
62.2898
 30
0.0
 40
0
 41
0
  0
SEQEND
  8
0
  0
POLYLINE
8
0
 62
     0
 66
     1
 10
0
 20
0
 30
0.0
 70
     1
 40
0
 41
0
  0
VERTEX
  8
0
 10
308.244
 20
60.8938
 30
0.0
 40
0
 41
0
  0
VERTEX
  8
0
 10
309.038
 20
60.8938
 30
0.0
 40
0
 41
0
  0
VERTEX
  8
0
 10
309.038
 20
59.9934
 30
0.0
 40
0
 41
0
  0
VERTEX
  8
0
 10
308.244
 20
59.9934
 30
0.0
 40
0
 41
0
  0
VERTEX
  8
0
 10
308.244
 20
60.8938
 30
0.0
 40
0
 41
0
  0
SEQEND
  8
0
  0
POLYLINE
8
0
 62
     0
 66
     1
 10
0
 20
0
 30
0.0
 70
     1
 40
0
 41
0
  0
VERTEX
  8
0
 10
309.049
 20
60.8108
 30
0.0
 40
0
 41
0
  0
VERTEX
  8
0
 10
309.192
 20
60.8108
 30
0.0
 40
0
 41
0
  0
VERTEX
  8
0
 10
309.192
 20
60.0645
 30
0.0
 40
0
 41
0
  0
VERTEX
  8
0
 10
309.049
 20
60.0645
 30
0.0
 40
0
 41
0
  0
VERTEX
  8
0
 10
309.049
 20
60.8108
 30
0.0
 40
0
 41
0
  0
SEQEND
  8
0
  0
POLYLINE
8
0
 62
     0
 66
     1
 10
0
 20
0
 30
0.0
 70
     1
 40
0
 41
0
  0
VERTEX
  8
0
 10
307.896
 20
66.6631
 30
0.0
 40
0
 41
0
  0
VERTEX
  8
0
 10
310.503
 20
66.6631
 30
0.0
 40
0
 41
0
  0
VERTEX
  8
0
 10
310.503
 20
63.8198
 30
0.0
 40
0
 41
0
  0
VERTEX
  8
0
 10
307.896
 20
63.8198
 30
0.0
 40
0
 41
0
  0
VERTEX
  8
0
 10
307.896
 20
66.6631
 30
0.0
 40
0
 41
0
  0
SEQEND
  8
0
  0
POLYLINE
8
0
 62
     0
 66
     1
 10
0
 20
0
 30
0.0
 70
     1
 40
0
 41
0
  0
VERTEX
  8
0
 10
307.896
 20
58.7493
 30
0.0
 40
0
 41
0
  0
VERTEX
  8
0
 10
310.408
 20
58.7493
 30
0.0
 40
0
 41
0
  0
VERTEX
  8
0
 10
310.408
 20
57.7068
 30
0.0
 40
0
 41
0
  0
VERTEX
  8
0
 10
307.896
 20
57.7068
 30
0.0
 40
0
 41
0
  0
VERTEX
  8
0
 10
307.896
 20
58.7493
 30
0.0
 40
0
 41
0
  0
SEQEND
  8
0
  0
POLYLINE
8
0
 62
     0
 66
     1
 10
0
 20
0
 30
0.0
 40
0.0473883
 41
0.0473883
  0
VERTEX
  8
0
 10
49.1484
 20
74.5977
 30
0.0
 40
0.0473883
 41
0.0473883
  0
VERTEX
  8
0
 10
48.8977
 20
74.5889
 30
0.0
 40
0.0473883
 41
0.0473883
  0
VERTEX
  8
0
 10
48.2954
 20
74.5515
 30
0.0
 40
0.0473883
 41
0.0473883
  0
VERTEX
  8
0
 10
47.0891
 20
74.396
 30
0.0
 40
0.0473883
 41
0.0473883
  0
VERTEX
  8
0
 10
45.1785
 20
74.0115
 30
0.0
 40
0.0473883
 41
0.0473883
  0
VERTEX
  8
0
 10
42.9763
 20
73.2622
 30
0.0
 40
0.0473883
 41
0.0473883
  0
VERTEX
  8
0
 10
39.1736
 20
70.4446
 30
0.0
 40
0.0473883
 41
0.0473883
  0
VERTEX
  8
0
 10
37.7314
 20
68.4973
 30
0.0
 40
0.0473883
 41
0.0473883
  0
VERTEX
  8
0
 10
36.7371
 20
65.989
 30
0.0
 40
0.0473883
 41
0.0473883
  0
VERTEX
  8
0
 10
36.2666
 20
62.8184
 30
0.0
 40
0.0473883
 41
0.0473883
  0
VERTEX
  8
0
 10
36.125
 20
59.6189
 30
0.0
 40
0.0473883
 41
0.0473883
  0
VERTEX
  8
0
 10
36.0869
 20
57.0964
 30
0.0
 40
0.0473883
 41
0.0473883
  0
VERTEX
  8
0
 10
36.0815
 20
55.5066
 30
0.0
 40
0.0473883
 41
0.0473883
  0
VERTEX
  8
0
 10
36.0815
 20
54.8792
 30
0.0
 40
0.0473883
 41
0.0473883
  0
VERTEX
  8
0
 10
36.0815
 20
54.7893
 30
0.0
 40
0.0473883
 41
0.0473883
  0
SEQEND
  8
0
  0
POLYLINE
8
0
 62
     0
 66
     1
 10
0
 20
0
 30
0.0
 40
0.0473883
 41
0.0473883
  0
VERTEX
  8
0
 10
47.0874
 20
73.6453
 30
0.0
 40
0.0473883
 41
0.0473883
  0
VERTEX
  8
0
 10
46.5425
 20
73.4683
 30
0.0
 40
0.0473883
 41
0.0473883
  0
VERTEX
  8
0
 10
45.4141
 20
73.0935
 30
0.0
 40
0.0473883
 41
0.0473883
  0
VERTEX
  8
0
 10
44.0547
 20
72.5911
 30
0.0
 40
0.0473883
 41
0.0473883
  0
VERTEX
  8
0
 10
41.9853
 20
71.4802
 30
0.0
 40
0.0473883
 41
0.0473883
  0
VERTEX
  8
0
 10
40.311
 20
69.9873
 30
0.0
 40
0.0473883
 41
0.0473883
  0
VERTEX
  8
0
 10
39.229
 20
68.5156
 30
0.0
 40
0.0473883
 41
0.0473883
  0
VERTEX
  8
0
 10
39.0315
 20
68.2114
 30
0.0
 40
0.0473883
 41
0.0473883
  0
SEQEND
  8
0
  0
POLYLINE
8
0
 62
     0
 66
     1
 10
0
 20
0
 30
0.0
 40
0.0473883
 41
0.0473883
  0
VERTEX
  8
0
 10
38.042
 20
57.0366
 30
0.0
 40
0.0473883
 41
0.0473883
  0
VERTEX
  8
0
 10
39.2031
 20
70.4294
 30
0.0
 40
0.0473883
 41
0.0473883
  0
SEQEND
  8
0
  0
POLYLINE
8
0
 62
     0
 66
     1
 10
0
 20
0
 30
0.0
 40
0.0473883
 41
0.0473883
  0
VERTEX
  8
0
 10
57.3447
 20
74.5413
 30
0.0
 40
0.0473883
 41
0.0473883
  0
VERTEX
  8
0
 10
44.8816
 20
73.8779
 30
0.0
 40
0.0473883
 41
0.0473883
  0
SEQEND
  8
0
  0
POLYLINE
8
0
 62
     0
 66
     1
 10
0
 20
0
 30
0.0
 40
0.0473883
 41
0.0473883
  0
VERTEX
  8
0
 10
56.1836
 20
74.0674
 30
0.0
 40
0.0473883
 41
0.0473883
  0
VERTEX
  8
0
 10
43.3416
 20
73.3804
 30
0.0
 40
0.0473883
 41
0.0473883
  0
SEQEND
  8
0
  0
POLYLINE
8
0
 62
     0
 66
     1
 10
0
 20
0
 30
0.0
 40
0.0473883
 41
0.0473883
  0
VERTEX
  8
0
 10
48.3411
 20
55.9177
 30
0.0
 40
0.0473883
 41
0.0473883
  0
VERTEX
  8
0
 10
38.0342
 20
56.9602
 30
0.0
 40
0.0473883
 41
0.0473883
  0
SEQEND
  8
0
  0
POLYLINE
8
0
 62
     0
 66
     1
 10
0
 20
0
 30
0.0
 40
0.0473883
 41
0.0473883
  0
VERTEX
  8
0
 10
38.0342
 20
56.9602
 30
0.0
 40
0.0473883
 41
0.0473883
  0
VERTEX
  8
0
 10
36.0911
 20
54.6855
 30
0.0
 40
0.0473883
 41
0.0473883
  0
SEQEND
  8
0
  0
POLYLINE
8
0
 62
     0
 66
     1
 10
0
 20
0
 30
0.0
 40
0.0473883
 41
0.0473883
  0
VERTEX
  8
0
 10
48.2226
 20
68.1914
 30
0.0
 40
0.0473883
 41
0.0473883
  0
VERTEX
  8
0
 10
38.1526
 20
68.1914
 30
0.0
 40
0.0473883
 41
0.0473883
  0
VERTEX
  8
0
 10
37.7261
 20
67.125
 30
0.0
 40
0.0473883
 41
0.0473883
  0
VERTEX
  8
0
 10
48.27
 20
67.125
 30
0.0
 40
0.0473883
 41
0.0473883
  0
SEQEND
  8
0
  0
POLYLINE
8
0
 62
     0
 66
     1
 10
0
 20
0
 30
0.0
 70
     1
 40
0.0473883
 41
0.0473883
  0
VERTEX
  8
0
 10
49.2412
 20
73.6648
 30
0.0
 40
0.0473883
 41
0.0473883
  0
VERTEX
  8
0
 10
48.72
 20
73.6409
 30
0.0
 40
0.0473883
 41
0.0473883
  0
VERTEX
  8
0
 10
48.72
 20
55.512
 30
0.0
 40
0.0473883
 41
0.0473883
  0
VERTEX
  8
0
 10
49.2412
 20
55.512
 30
0.0
 40
0.0473883
 41
0.0473883
  0
VERTEX
  8
0
 10
49.2412
 20
73.6648
 30
0.0
 40
0.0473883
 41
0.0473883
  0
SEQEND
  8
0
  0
POLYLINE
8
0
 62
     0
 66
     1
 10
0
 20
0
 30
0.0
 40
0.0473883
 41
0.0473883
  0
VERTEX
  8
0
 10
48.0566
 20
60.7512
 30
0.0
 40
0.0473883
 41
0.0473883
  0
VERTEX
  8
0
 10
38.3894
 20
61.2964
 30
0.0
 40
0.0473883
 41
0.0473883
  0
VERTEX
  8
0
 10
38.3657
 20
60.8936
 30
0.0
 40
0.0473883
 41
0.0473883
  0
VERTEX
  8
0
 10
48.4358
 20
60.3484
 30
0.0
 40
0.0473883
 41
0.0473883
  0
SEQEND
  8
0
  0
POLYLINE
8
0
 62
     0
 66
     1
 10
0
 20
0
 30
0.0
 40
0.0473883
 41
0.0473883
  0
VERTEX
  8
0
 10
563.995
 20
53.3145
 30
0.0
 40
0.0473883
 41
0.0473883
  0
VERTEX
  8
0
 10
575.985
 20
54.6411
 30
0.0
 40
0.0473883
 41
0.0473883
  0
SEQEND
  8
0
  0
POLYLINE
8
0
 62
     0
 66
     1
 10
0
 20
0
 30
0.0
 40
0.0473883
 41
0.0473883
  0
VERTEX
  8
0
 10
552.338
 20
75.1604
 30
0.0
 40
0.0473883
 41
0.0473883
  0
VERTEX
  8
0
 10
563.048
 20
74.5916
 30
0.0
 40
0.0473883
 41
0.0473883
  0
SEQEND
  8
0
  0
POLYLINE
8
0
 62
     0
 66
     1
 10
0
 20
0
 30
0.0
 40
0.0473883
 41
0.0473883
  0
VERTEX
  8
0
 10
562.888
 20
74.5977
 30
0.0
 40
0.0473883
 41
0.0473883
  0
VERTEX
  8
0
 10
563.139
 20
74.5889
 30
0.0
 40
0.0473883
 41
0.0473883
  0
VERTEX
  8
0
 10
563.741
 20
74.5515
 30
0.0
 40
0.0473883
 41
0.0473883
  0
VERTEX
  8
0
 10
564.947
 20
74.396
 30
0.0
 40
0.0473883
 41
0.0473883
  0
VERTEX
  8
0
 10
566.858
 20
74.0115
 30
0.0
 40
0.0473883
 41
0.0473883
  0
VERTEX
  8
0
 10
569.06
 20
73.2622
 30
0.0
 40
0.0473883
 41
0.0473883
  0
VERTEX
  8
0
 10
572.863
 20
70.4446
 30
0.0
 40
0.0473883
 41
0.0473883
  0
VERTEX
  8
0
 10
574.305
 20
68.4973
 30
0.0
 40
0.0473883
 41
0.0473883
  0
VERTEX
  8
0
 10
575.299
 20
65.989
 30
0.0
 40
0.0473883
 41
0.0473883
  0
VERTEX
  8
0
 10
575.77
 20
62.8184
 30
0.0
 40
0.0473883
 41
0.0473883
  0
VERTEX
  8
0
 10
575.911
 20
59.6189
 30
0.0
 40
0.0473883
 41
0.0473883
  0
VERTEX
  8
0
 10
575.949
 20
57.0964
 30
0.0
 40
0.0473883
 41
0.0473883
  0
VERTEX
  8
0
 10
575.955
 20
55.5066
 30
0.0
 40
0.0473883
 41
0.0473883
  0
VERTEX
  8
0
 10
575.955
 20
54.8792
 30
0.0
 40
0.0473883
 41
0.0473883
  0
VERTEX
  8
0
 10
575.955
 20
54.7893
 30
0.0
 40
0.0473883
 41
0.0473883
  0
SEQEND
  8
0
  0
POLYLINE
8
0
 62
     0
 66
     1
 10
0
 20
0
 30
0.0
 40
0.0473883
 41
0.0473883
  0
VERTEX
  8
0
 10
564.949
 20
73.6453
 30
0.0
 40
0.0473883
 41
0.0473883
  0
VERTEX
  8
0
 10
565.017
 20
73.6233
 30
0.0
 40
0.0473883
 41
0.0473883
  0
VERTEX
  8
0
 10
565.494
 20
73.4683
 30
0.0
 40
0.0473883
 41
0.0473883
  0
VERTEX
  8
0
 10
566.622
 20
73.0935
 30
0.0
 40
0.0473883
 41
0.0473883
  0
VERTEX
  8
0
 10
567.982
 20
72.5911
 30
0.0
 40
0.0473883
 41
0.0473883
  0
VERTEX
  8
0
 10
570.051
 20
71.4802
 30
0.0
 40
0.0473883
 41
0.0473883
  0
VERTEX
  8
0
 10
571.725
 20
69.9873
 30
0.0
 40
0.0473883
 41
0.0473883
  0
VERTEX
  8
0
 10
572.807
 20
68.5156
 30
0.0
 40
0.0473883
 41
0.0473883
  0
VERTEX
  8
0
 10
573.005
 20
68.2114
 30
0.0
 40
0.0473883
 41
0.0473883
  0
SEQEND
  8
0
  0
POLYLINE
8
0
 62
     0
 66
     1
 10
0
 20
0
 30
0.0
 40
0.0473883
 41
0.0473883
  0
VERTEX
  8
0
 10
573.994
 20
57.0366
 30
0.0
 40
0.0473883
 41
0.0473883
  0
VERTEX
  8
0
 10
572.833
 20
70.4294
 30
0.0
 40
0.0473883
 41
0.0473883
  0
SEQEND
  8
0
  0
POLYLINE
8
0
 62
     0
 66
     1
 10
0
 20
0
 30
0.0
 40
0.0473883
 41
0.0473883
  0
VERTEX
  8
0
 10
554.692
 20
74.5413
 30
0.0
 40
0.0473883
 41
0.0473883
  0
VERTEX
  8
0
 10
567.155
 20
73.8779
 30
0.0
 40
0.0473883
 41
0.0473883
  0
SEQEND
  8
0
  0
POLYLINE
8
0
 62
     0
 66
     1
 10
0
 20
0
 30
0.0
 40
0.0473883
 41
0.0473883
  0
VERTEX
  8
0
 10
555.853
 20
74.0674
 30
0.0
 40
0.0473883
 41
0.0473883
  0
VERTEX
  8
0
 10
568.695
 20
73.3804
 30
0.0
 40
0.0473883
 41
0.0473883
  0
SEQEND
  8
0
  0
POLYLINE
8
0
 62
     0
 66
     1
 10
0
 20
0
 30
0.0
 40
0.0473883
 41
0.0473883
  0
VERTEX
  8
0
 10
563.695
 20
55.9177
 30
0.0
 40
0.0473883
 41
0.0473883
  0
VERTEX
  8
0
 10
574.002
 20
56.9602
 30
0.0
 40
0.0473883
 41
0.0473883
  0
SEQEND
  8
0
  0
POLYLINE
8
0
 62
     0
 66
     1
 10
0
 20
0
 30
0.0
 40
0.0473883
 41
0.0473883
  0
VERTEX
  8
0
 10
574.002
 20
56.9602
 30
0.0
 40
0.0473883
 41
0.0473883
  0
VERTEX
  8
0
 10
575.945
 20
54.6855
 30
0.0
 40
0.0473883
 41
0.0473883
  0
SEQEND
  8
0
  0
POLYLINE
8
0
 62
     0
 66
     1
 10
0
 20
0
 30
0.0
 40
0.0473883
 41
0.0473883
  0
VERTEX
  8
0
 10
563.814
 20
68.1914
 30
0.0
 40
0.0473883
 41
0.0473883
  0
VERTEX
  8
0
 10
573.884
 20
68.1914
 30
0.0
 40
0.0473883
 41
0.0473883
  0
VERTEX
  8
0
 10
574.31
 20
67.125
 30
0.0
 40
0.0473883
 41
0.0473883
  0
VERTEX
  8
0
 10
563.766
 20
67.125
 30
0.0
 40
0.0473883
 41
0.0473883
  0
SEQEND
  8
0
  0
POLYLINE
8
0
 62
     0
 66
     1
 10
0
 20
0
 30
0.0
 70
     1
 40
0.0473883
 41
0.0473883
  0
VERTEX
  8
0
 10
562.795
 20
73.6648
 30
0.0
 40
0.0473883
 41
0.0473883
  0
VERTEX
  8
0
 10
563.316
 20
73.6409
 30
0.0
 40
0.0473883
 41
0.0473883
  0
VERTEX
  8
0
 10
563.316
 20
55.512
 30
0.0
 40
0.0473883
 41
0.0473883
  0
VERTEX
  8
0
 10
562.795
 20
55.512
 30
0.0
 40
0.0473883
 41
0.0473883
  0
VERTEX
  8
0
 10
562.795
 20
73.6648
 30
0.0
 40
0.0473883
 41
0.0473883
  0
SEQEND
  8
0
  0
POLYLINE
8
0
 62
     0
 66
     1
 10
0
 20
0
 30
0.0
 40
0.0473883
 41
0.0473883
  0
VERTEX
  8
0
 10
563.98
 20
60.7512
 30
0.0
 40
0.0473883
 41
0.0473883
  0
VERTEX
  8
0
 10
573.647
 20
61.2964
 30
0.0
 40
0.0473883
 41
0.0473883
  0
VERTEX
  8
0
 10
573.671
 20
60.8936
 30
0.0
 40
0.0473883
 41
0.0473883
  0
VERTEX
  8
0
 10
563.601
 20
60.3484
 30
0.0
 40
0.0473883
 41
0.0473883
  0
SEQEND
  8
0
  0
TEXT
  8
0
 62
     0
 10
559.66
 20
75.8298
 30
0
 40
0.663434
  1
optional stretched tip
 50
0
  0
ENDSEC
  0
EOF
