  0
SECTION
  2
HEADER
  9
$ACADVER
  1
AC1009
  9
$EXTMIN
 10
0.0
 20
0.0
 30
0.0
  9
$EXTMAX
 10
1000.0
 20
1000.0
 30
0.0
  9
$FILLMODE
 70
 0
  9
$SPLFRAME
 70
 1
  0
ENDSEC
  0
SECTION
  2
TABLES
  0
TABLE
  2
LAYER
 70
   255
  0
LAYER
  2
0
 70
     0
 62
     7
  6
CONTINUOUS
  0
ENDTAB
  0
ENDSEC
  0
SECTION
  2
ENTITIES
  0
POLYLINE
8
0
 62
     0
 66
     1
 10
0
 20
0
 30
0.0
 40
0
 41
0
  0
VERTEX
  8
0
 10
54.7517
 20
575.008
 30
0.0
 40
0
 41
0
  0
VERTEX
  8
0
 10
54.7476
 20
574.859
 30
0.0
 40
0
 41
0
  0
VERTEX
  8
0
 10
54.7197
 20
573.819
 30
0.0
 40
0
 41
0
  0
VERTEX
  8
0
 10
54.6489
 20
571.217
 30
0.0
 40
0
 41
0
  0
VERTEX
  8
0
 10
54.5371
 20
567.277
 30
0.0
 40
0
 41
0
  0
VERTEX
  8
0
 10
54.231
 20
557.167
 30
0.0
 40
0
 41
0
  0
VERTEX
  8
0
 10
53.9023
 20
546.462
 30
0.0
 40
0
 41
0
  0
VERTEX
  8
0
 10
53.5735
 20
535.757
 30
0.0
 40
0
 41
0
  0
VERTEX
  8
0
 10
53.2493
 20
525.052
 30
0.0
 40
0
 41
0
  0
VERTEX
  8
0
 10
52.9387
 20
514.347
 30
0.0
 40
0
 41
0
  0
VERTEX
  8
0
 10
52.6191
 20
503.643
 30
0.0
 40
0
 41
0
  0
VERTEX
  8
0
 10
52.3086
 20
492.938
 30
0.0
 40
0
 41
0
  0
VERTEX
  8
0
 10
51.9934
 20
482.233
 30
0.0
 40
0
 41
0
  0
VERTEX
  8
0
 10
51.7058
 20
471.528
 30
0.0
 40
0
 41
0
  0
VERTEX
  8
0
 10
51.4133
 20
460.828
 30
0.0
 40
0
 41
0
  0
VERTEX
  8
0
 10
51.1348
 20
450.141
 30
0.0
 40
0
 41
0
  0
VERTEX
  8
0
 10
50.8608
 20
439.441
 30
0.0
 40
0
 41
0
  0
VERTEX
  8
0
 10
50.5916
 20
428.741
 30
0.0
 40
0
 41
0
  0
VERTEX
  8
0
 10
50.345
 20
418.059
 30
0.0
 40
0
 41
0
  0
VERTEX
  8
0
 10
50.1211
 20
407.382
 30
0.0
 40
0
 41
0
  0
VERTEX
  8
0
 10
49.9111
 20
396.7
 30
0.0
 40
0
 41
0
  0
VERTEX
  8
0
 10
49.7375
 20
386.009
 30
0.0
 40
0
 41
0
  0
VERTEX
  8
0
 10
49.5823
 20
375.35
 30
0.0
 40
0
 41
0
  0
VERTEX
  8
0
 10
49.4727
 20
364.705
 30
0.0
 40
0
 41
0
  0
VERTEX
  8
0
 10
49.4224
 20
354.093
 30
0.0
 40
0
 41
0
  0
VERTEX
  8
0
 10
49.4636
 20
343.558
 30
0.0
 40
0
 41
0
  0
VERTEX
  8
0
 10
49.6646
 20
333.153
 30
0.0
 40
0
 41
0
  0
VERTEX
  8
0
 10
50.1121
 20
323.015
 30
0.0
 40
0
 41
0
  0
VERTEX
  8
0
 10
50.9705
 20
313.565
 30
0.0
 40
0
 41
0
  0
VERTEX
  8
0
 10
51.5698
 20
309.466
 30
0.0
 40
0
 41
0
  0
VERTEX
  8
0
 10
52.231
 20
306.055
 30
0.0
 40
0
 41
0
  0
VERTEX
  8
0
 10
53.5415
 20
301.647
 30
0.0
 40
0
 41
0
  0
VERTEX
  8
0
 10
54.7197
 20
299.517
 30
0.0
 40
0
 41
0
  0
VERTEX
  8
0
 10
55.843
 20
298.628
 30
0.0
 40
0
 41
0
  0
VERTEX
  8
0
 10
56.948
 20
298.641
 30
0.0
 40
0
 41
0
  0
VERTEX
  8
0
 10
58.0713
 20
299.522
 30
0.0
 40
0
 41
0
  0
VERTEX
  8
0
 10
59.2495
 20
301.647
 30
0.0
 40
0
 41
0
  0
VERTEX
  8
0
 10
60.5601
 20
306.059
 30
0.0
 40
0
 41
0
  0
VERTEX
  8
0
 10
61.2209
 20
309.479
 30
0.0
 40
0
 41
0
  0
VERTEX
  8
0
 10
61.8206
 20
313.583
 30
0.0
 40
0
 41
0
  0
VERTEX
  8
0
 10
62.679
 20
323.02
 30
0.0
 40
0
 41
0
  0
VERTEX
  8
0
 10
63.1265
 20
333.153
 30
0.0
 40
0
 41
0
  0
VERTEX
  8
0
 10
63.3274
 20
343.563
 30
0.0
 40
0
 41
0
  0
VERTEX
  8
0
 10
63.3687
 20
354.111
 30
0.0
 40
0
 41
0
  0
VERTEX
  8
0
 10
63.3184
 20
364.71
 30
0.0
 40
0
 41
0
  0
VERTEX
  8
0
 10
63.2087
 20
375.355
 30
0.0
 40
0
 41
0
  0
VERTEX
  8
0
 10
63.0535
 20
386.027
 30
0.0
 40
0
 41
0
  0
VERTEX
  8
0
 10
62.8799
 20
396.705
 30
0.0
 40
0
 41
0
  0
VERTEX
  8
0
 10
62.6699
 20
407.382
 30
0.0
 40
0
 41
0
  0
VERTEX
  8
0
 10
62.446
 20
418.064
 30
0.0
 40
0
 41
0
  0
VERTEX
  8
0
 10
62.1995
 20
428.759
 30
0.0
 40
0
 41
0
  0
VERTEX
  8
0
 10
61.9302
 20
439.446
 30
0.0
 40
0
 41
0
  0
VERTEX
  8
0
 10
61.6563
 20
450.146
 30
0.0
 40
0
 41
0
  0
VERTEX
  8
0
 10
61.3777
 20
460.846
 30
0.0
 40
0
 41
0
  0
VERTEX
  8
0
 10
61.0852
 20
471.532
 30
0.0
 40
0
 41
0
  0
VERTEX
  8
0
 10
60.7976
 20
482.233
 30
0.0
 40
0
 41
0
  0
VERTEX
  8
0
 10
60.4824
 20
492.938
 30
0.0
 40
0
 41
0
  0
VERTEX
  8
0
 10
60.1719
 20
503.643
 30
0.0
 40
0
 41
0
  0
VERTEX
  8
0
 10
59.8523
 20
514.347
 30
0.0
 40
0
 41
0
  0
VERTEX
  8
0
 10
59.5417
 20
525.052
 30
0.0
 40
0
 41
0
  0
VERTEX
  8
0
 10
59.2175
 20
535.757
 30
0.0
 40
0
 41
0
  0
VERTEX
  8
0
 10
58.8887
 20
546.462
 30
0.0
 40
0
 41
0
  0
VERTEX
  8
0
 10
58.5601
 20
557.167
 30
0.0
 40
0
 41
0
  0
VERTEX
  8
0
 10
58.2539
 20
567.277
 30
0.0
 40
0
 41
0
  0
VERTEX
  8
0
 10
58.1421
 20
571.217
 30
0.0
 40
0
 41
0
  0
VERTEX
  8
0
 10
58.0713
 20
573.819
 30
0.0
 40
0
 41
0
  0
VERTEX
  8
0
 10
58.0432
 20
574.859
 30
0.0
 40
0
 41
0
  0
VERTEX
  8
0
 10
58.0393
 20
575.008
 30
0.0
 40
0
 41
0
  0
SEQEND
  8
0
  0
POLYLINE
8
0
 62
     0
 66
     1
 10
0
 20
0
 30
0.0
 70
     1
 40
0
 41
0
  0
VERTEX
  8
0
 10
63.4744
 20
298.506
 30
0.0
 40
0
 41
0
  0
VERTEX
  8
0
 10
49.4131
 20
298.506
 30
0.0
 40
0
 41
0
  0
VERTEX
  8
0
 10
49.4131
 20
574.842
 30
0.0
 40
0
 41
0
  0
VERTEX
  8
0
 10
63.4744
 20
574.842
 30
0.0
 40
0
 41
0
  0
VERTEX
  8
0
 10
63.4744
 20
298.506
 30
0.0
 40
0
 41
0
  0
SEQEND
  8
0
  0
POLYLINE
8
0
 62
     0
 66
     1
 10
0
 20
0
 30
0.0
 40
0
 41
0
  0
VERTEX
  8
0
 10
49.4131
 20
312.414
 30
0.0
 40
0
 41
0
  0
VERTEX
  8
0
 10
54.6096
 20
298.659
 30
0.0
 40
0
 41
0
  0
SEQEND
  8
0
  0
POLYLINE
8
0
 62
     0
 66
     1
 10
0
 20
0
 30
0.0
 40
0
 41
0
  0
VERTEX
  8
0
 10
49.4895
 20
326.323
 30
0.0
 40
0
 41
0
  0
VERTEX
  8
0
 10
52.6992
 20
298.506
 30
0.0
 40
0
 41
0
  0
SEQEND
  8
0
  0
POLYLINE
8
0
 62
     0
 66
     1
 10
0
 20
0
 30
0.0
 40
0
 41
0
  0
VERTEX
  8
0
 10
45.7754
 20
322.043
 30
0.0
 40
0
 41
0
  0
VERTEX
  8
0
 10
58.2471
 20
289.03
 30
0.0
 40
0
 41
0
  0
SEQEND
  8
0
  0
POLYLINE
8
0
 62
     0
 66
     1
 10
0
 20
0
 30
0.0
 40
0
 41
0
  0
VERTEX
  8
0
 10
47.2427
 20
345.795
 30
0.0
 40
0
 41
0
  0
VERTEX
  8
0
 10
54.9458
 20
279.034
 30
0.0
 40
0
 41
0
  0
SEQEND
  8
0
  0
TEXT
  8
0
 62
     0
 10
60.6902
 20
278.866
 30
0
 40
3.3625
  1
2.7:1
 50
90
  0
TEXT
  8
0
 62
     0
 10
56.7166
 20
268.167
 30
0
 40
3.3625
  1
8.5:1
 50
90
  0
POLYLINE
8
0
 62
     0
 66
     1
 10
0
 20
0
 30
0.0
 40
0
 41
0
  0
VERTEX
  8
0
 10
50.1187
 20
312.415
 30
0.0
 40
0
 41
0
  0
VERTEX
  8
0
 10
48.7278
 20
312.415
 30
0.0
 40
0
 41
0
  0
SEQEND
  8
0
  0
POLYLINE
8
0
 62
     0
 66
     1
 10
0
 20
0
 30
0.0
 40
0
 41
0
  0
VERTEX
  8
0
 10
50.1187
 20
326.247
 30
0.0
 40
0
 41
0
  0
VERTEX
  8
0
 10
48.7278
 20
326.247
 30
0.0
 40
0
 41
0
  0
SEQEND
  8
0
  0
TEXT
  8
0
 62
     0
 10
39.5952
 20
311.192
 30
0
 40
3.3625
  1
5%
 50
90
  0
TEXT
  8
0
 62
     0
 10
39.8245
 20
323.802
 30
0
 40
3.3625
  1
10%
 50
90
  0
POLYLINE
8
0
 62
     0
 66
     1
 10
0
 20
0
 30
0.0
 40
0
 41
0
  0
VERTEX
  8
0
 10
47.4553
 20
312.453
 30
0.0
 40
0
 41
0
  0
VERTEX
  8
0
 10
41.0742
 20
312.453
 30
0.0
 40
0
 41
0
  0
SEQEND
  8
0
  0
POLYLINE
8
0
 62
     0
 66
     1
 10
0
 20
0
 30
0.0
 40
0
 41
0
  0
VERTEX
  8
0
 10
47.4553
 20
326.247
 30
0.0
 40
0
 41
0
  0
VERTEX
  8
0
 10
41.0742
 20
326.247
 30
0.0
 40
0
 41
0
  0
SEQEND
  8
0
  0
POLYLINE
8
0
 62
     7
 66
     1
 10
0
 20
0
 30
0.0
 70
     1
 40
0
 41
0
  0
VERTEX
  8
0
 10
41.9541
 20
377.598
 30
0.0
 40
0
 41
0
  0
VERTEX
  8
0
 10
41.9541
 20
586.685
 30
0.0
 40
0
 41
0
  0
VERTEX
  8
0
 10
70.0769
 20
586.685
 30
0.0
 40
0
 41
0
  0
VERTEX
  8
0
 10
70.0769
 20
377.598
 30
0.0
 40
0
 41
0
  0
VERTEX
  8
0
 10
41.9541
 20
377.598
 30
0.0
 40
0
 41
0
  0
SEQEND
  8
0
  0
POLYLINE
8
0
 62
     0
 66
     1
 10
0
 20
0
 30
0.0
 40
0.305682
 41
0.305682
  0
VERTEX
  8
0
 10
210.412
 20
388.512
 30
0.0
 40
0.305682
 41
0.305682
  0
VERTEX
  8
0
 10
211.025
 20
68.1863
 30
0.0
 40
0.305682
 41
0.305682
  0
SEQEND
  8
0
  0
POLYLINE
8
0
 62
     0
 66
     1
 10
0
 20
0
 30
0.0
 40
0.305682
 41
0.305682
  0
VERTEX
  8
0
 10
153.794
 20
67.5732
 30
0.0
 40
0.305682
 41
0.305682
  0
VERTEX
  8
0
 10
113.638
 20
395.562
 30
0.0
 40
0.305682
 41
0.305682
  0
SEQEND
  8
0
  0
POLYLINE
8
0
 62
     0
 66
     1
 10
0
 20
0
 30
0.0
 40
0.305682
 41
0.305682
  0
VERTEX
  8
0
 10
138.007
 20
201.527
 30
0.0
 40
0.305682
 41
0.305682
  0
VERTEX
  8
0
 10
138.007
 20
395.562
 30
0.0
 40
0.305682
 41
0.305682
  0
SEQEND
  8
0
  0
POLYLINE
8
0
 62
     0
 66
     1
 10
0
 20
0
 30
0.0
 40
0
 41
0
  0
VERTEX
  8
0
 10
131.19
 20
488.163
 30
0.0
 40
0
 41
0
  0
VERTEX
  8
0
 10
131.19
 20
449.54
 30
0.0
 40
0
 41
0
  0
SEQEND
  8
0
  0
POLYLINE
8
0
 62
     0
 66
     1
 10
0
 20
0
 30
0.0
 40
0
 41
0
  0
VERTEX
  8
0
 10
130.426
 20
485.106
 30
0.0
 40
0
 41
0
  0
VERTEX
  8
0
 10
131.19
 20
488.163
 30
0.0
 40
0
 41
0
  0
VERTEX
  8
0
 10
131.954
 20
485.106
 30
0.0
 40
0
 41
0
  0
SEQEND
  8
0
  0
POLYLINE
8
0
 62
     0
 66
     1
 10
0
 20
0
 30
0.0
 40
0
 41
0
  0
VERTEX
  8
0
 10
131.954
 20
452.596
 30
0.0
 40
0
 41
0
  0
VERTEX
  8
0
 10
131.19
 20
449.54
 30
0.0
 40
0
 41
0
  0
VERTEX
  8
0
 10
130.426
 20
452.596
 30
0.0
 40
0
 41
0
  0
SEQEND
  8
0
  0
POLYLINE
8
0
 62
     0
 66
     1
 10
0
 20
0
 30
0.0
 40
0
 41
0
  0
VERTEX
  8
0
 10
108.619
 20
486.888
 30
0.0
 40
0
 41
0
  0
VERTEX
  8
0
 10
108.619
 20
442.167
 30
0.0
 40
0
 41
0
  0
SEQEND
  8
0
  0
POLYLINE
8
0
 62
     0
 66
     1
 10
0
 20
0
 30
0.0
 40
0
 41
0
  0
VERTEX
  8
0
 10
107.855
 20
483.832
 30
0.0
 40
0
 41
0
  0
VERTEX
  8
0
 10
108.62
 20
486.888
 30
0.0
 40
0
 41
0
  0
VERTEX
  8
0
 10
109.384
 20
483.832
 30
0.0
 40
0
 41
0
  0
SEQEND
  8
0
  0
POLYLINE
8
0
 62
     0
 66
     1
 10
0
 20
0
 30
0.0
 40
0
 41
0
  0
VERTEX
  8
0
 10
109.384
 20
445.224
 30
0.0
 40
0
 41
0
  0
VERTEX
  8
0
 10
108.62
 20
442.167
 30
0.0
 40
0
 41
0
  0
VERTEX
  8
0
 10
107.855
 20
445.224
 30
0.0
 40
0
 41
0
  0
SEQEND
  8
0
  0
POLYLINE
8
0
 62
     0
 66
     1
 10
0
 20
0
 30
0.0
 40
0.305682
 41
0.305682
  0
VERTEX
  8
0
 10
224.641
 20
56.6912
 30
0.0
 40
0.305682
 41
0.305682
  0
VERTEX
  8
0
 10
238.435
 20
395.408
 30
0.0
 40
0.305682
 41
0.305682
  0
SEQEND
  8
0
  0
POLYLINE
8
0
 62
     0
 66
     1
 10
0
 20
0
 30
0.0
 40
0.305682
 41
0.305682
  0
VERTEX
  8
0
 10
113.638
 20
229.115
 30
0.0
 40
0.305682
 41
0.305682
  0
VERTEX
  8
0
 10
113.638
 20
394.642
 30
0.0
 40
0.305682
 41
0.305682
  0
SEQEND
  8
0
  0
POLYLINE
8
0
 62
     0
 66
     1
 10
0
 20
0
 30
0.0
 40
0.305682
 41
0.305682
  0
VERTEX
  8
0
 10
131.761
 20
120.756
 30
0.0
 40
0.305682
 41
0.305682
  0
VERTEX
  8
0
 10
86.3948
 20
395.102
 30
0.0
 40
0.305682
 41
0.305682
  0
SEQEND
  8
0
  0
POLYLINE
8
0
 62
     0
 66
     1
 10
0
 20
0
 30
0.0
 40
0.305682
 41
0.305682
  0
VERTEX
  8
0
 10
151.992
 20
84.7388
 30
0.0
 40
0.305682
 41
0.305682
  0
VERTEX
  8
0
 10
176.055
 20
67.8796
 30
0.0
 40
0.305682
 41
0.305682
  0
SEQEND
  8
0
  0
POLYLINE
8
0
 62
     0
 66
     1
 10
0
 20
0
 30
0.0
 40
0
 41
0
  0
VERTEX
  8
0
 10
169.928
 20
505.984
 30
0.0
 40
0
 41
0
  0
VERTEX
  8
0
 10
197.822
 20
505.984
 30
0.0
 40
0
 41
0
  0
SEQEND
  8
0
  0
POLYLINE
8
0
 62
     0
 66
     1
 10
0
 20
0
 30
0.0
 40
0.305682
 41
0.305682
  0
VERTEX
  8
0
 10
153.794
 20
723.586
 30
0.0
 40
0.305682
 41
0.305682
  0
VERTEX
  8
0
 10
113.638
 20
395.598
 30
0.0
 40
0.305682
 41
0.305682
  0
SEQEND
  8
0
  0
POLYLINE
8
0
 62
     0
 66
     1
 10
0
 20
0
 30
0.0
 40
0.305682
 41
0.305682
  0
VERTEX
  8
0
 10
138.007
 20
589.633
 30
0.0
 40
0.305682
 41
0.305682
  0
VERTEX
  8
0
 10
138.007
 20
395.599
 30
0.0
 40
0.305682
 41
0.305682
  0
SEQEND
  8
0
  0
POLYLINE
8
0
 62
     0
 66
     1
 10
0
 20
0
 30
0.0
 40
0.305682
 41
0.305682
  0
VERTEX
  8
0
 10
224.641
 20
734.47
 30
0.0
 40
0.305682
 41
0.305682
  0
VERTEX
  8
0
 10
238.435
 20
395.753
 30
0.0
 40
0.305682
 41
0.305682
  0
SEQEND
  8
0
  0
POLYLINE
8
0
 62
     0
 66
     1
 10
0
 20
0
 30
0.0
 40
0.305682
 41
0.305682
  0
VERTEX
  8
0
 10
113.638
 20
562.045
 30
0.0
 40
0.305682
 41
0.305682
  0
VERTEX
  8
0
 10
113.638
 20
396.518
 30
0.0
 40
0.305682
 41
0.305682
  0
SEQEND
  8
0
  0
POLYLINE
8
0
 62
     0
 66
     1
 10
0
 20
0
 30
0.0
 40
0.305682
 41
0.305682
  0
VERTEX
  8
0
 10
131.761
 20
670.405
 30
0.0
 40
0.305682
 41
0.305682
  0
VERTEX
  8
0
 10
86.3948
 20
396.06
 30
0.0
 40
0.305682
 41
0.305682
  0
SEQEND
  8
0
  0
POLYLINE
8
0
 62
     0
 66
     1
 10
0
 20
0
 30
0.0
 40
0.305682
 41
0.305682
  0
VERTEX
  8
0
 10
151.992
 20
706.42
 30
0.0
 40
0.305682
 41
0.305682
  0
VERTEX
  8
0
 10
176.055
 20
723.279
 30
0.0
 40
0.305682
 41
0.305682
  0
SEQEND
  8
0
  0
POLYLINE
8
0
 62
     0
 66
     1
 10
0
 20
0
 30
0.0
 40
0
 41
0
  0
VERTEX
  8
0
 10
124.736
 20
540.234
 30
0.0
 40
0
 41
0
  0
VERTEX
  8
0
 10
119.624
 20
499.253
 30
0.0
 40
0
 41
0
  0
SEQEND
  8
0
  0
POLYLINE
8
0
 62
     0
 66
     1
 10
0
 20
0
 30
0.0
 40
0
 41
0
  0
VERTEX
  8
0
 10
123.6
 20
537.296
 30
0.0
 40
0
 41
0
  0
VERTEX
  8
0
 10
124.736
 20
540.234
 30
0.0
 40
0
 41
0
  0
VERTEX
  8
0
 10
125.116
 20
537.107
 30
0.0
 40
0
 41
0
  0
SEQEND
  8
0
  0
POLYLINE
8
0
 62
     0
 66
     1
 10
0
 20
0
 30
0.0
 40
0
 41
0
  0
VERTEX
  8
0
 10
120.76
 20
502.192
 30
0.0
 40
0
 41
0
  0
VERTEX
  8
0
 10
119.623
 20
499.253
 30
0.0
 40
0
 41
0
  0
VERTEX
  8
0
 10
119.243
 20
502.381
 30
0.0
 40
0
 41
0
  0
SEQEND
  8
0
  0
TEXT
  8
0
 62
     0
 10
78.2698
 20
399.649
 30
0
 40
4.06557
  1
6-8 lb balsa throughout,
 50
90
  0
TEXT
  8
0
 62
     0
 10
82.3354
 20
399.649
 30
0
 40
4.06557
  1
except where noted
 50
90
  0
POLYLINE
8
0
 62
     0
 66
     1
 10
0
 20
0
 30
0.0
 70
     1
 40
0.305682
 41
0.305682
  0
VERTEX
  8
0
 10
137.893
 20
350.655
 30
0.0
 40
0.305682
 41
0.305682
  0
VERTEX
  8
0
 10
123.792
 20
395.408
 30
0.0
 40
0.305682
 41
0.305682
  0
VERTEX
  8
0
 10
137.893
 20
440.469
 30
0.0
 40
0.305682
 41
0.305682
  0
VERTEX
  8
0
 10
137.893
 20
350.655
 30
0.0
 40
0.305682
 41
0.305682
  0
SEQEND
  8
0
  0
TEXT
  8
0
 62
     0
 10
106.869
 20
460.893
 30
0
 40
3.19438
  1
grain
 50
90
  0
POLYLINE
8
0
 62
     0
 66
     1
 10
0
 20
0
 30
0.0
 40
0
 41
0
  0
VERTEX
  8
0
 10
144.413
 20
416.504
 30
0.0
 40
0
 41
0
  0
VERTEX
  8
0
 10
154.252
 20
406.571
 30
0.0
 40
0
 41
0
  0
SEQEND
  8
0
  0
POLYLINE
8
0
 62
     0
 66
     1
 10
0
 20
0
 30
0.0
 40
0
 41
0
  0
VERTEX
  8
0
 10
146.021
 20
413.795
 30
0.0
 40
0
 41
0
  0
VERTEX
  8
0
 10
144.413
 20
416.504
 30
0.0
 40
0
 41
0
  0
VERTEX
  8
0
 10
147.107
 20
414.87
 30
0.0
 40
0
 41
0
  0
SEQEND
  8
0
  0
POLYLINE
8
0
 62
     0
 66
     1
 10
0
 20
0
 30
0.0
 40
0
 41
0
  0
VERTEX
  8
0
 10
152.644
 20
409.28
 30
0.0
 40
0
 41
0
  0
VERTEX
  8
0
 10
154.252
 20
406.571
 30
0.0
 40
0
 41
0
  0
VERTEX
  8
0
 10
151.559
 20
408.205
 30
0.0
 40
0
 41
0
  0
SEQEND
  8
0
  0
TEXT
  8
0
 62
     0
 10
125.471
 20
434.486
 30
0
 40
3.19438
  1
hard balsa
 50
90
  0
POLYLINE
8
0
 62
     0
 66
     1
 10
0
 20
0
 30
0.0
 40
0.305682
 41
0.305682
  0
VERTEX
  8
0
 10
131.433
 20
395.54
 30
0.0
 40
0.305682
 41
0.305682
  0
VERTEX
  8
0
 10
130.838
 20
396.978
 30
0.0
 40
0.305682
 41
0.305682
  0
VERTEX
  8
0
 10
129.4
 20
397.573
 30
0.0
 40
0.305682
 41
0.305682
  0
VERTEX
  8
0
 10
127.962
 20
396.978
 30
0.0
 40
0.305682
 41
0.305682
  0
VERTEX
  8
0
 10
127.366
 20
395.54
 30
0.0
 40
0.305682
 41
0.305682
  0
VERTEX
  8
0
 10
127.962
 20
394.102
 30
0.0
 40
0.305682
 41
0.305682
  0
VERTEX
  8
0
 10
129.4
 20
393.506
 30
0.0
 40
0.305682
 41
0.305682
  0
VERTEX
  8
0
 10
130.838
 20
394.102
 30
0.0
 40
0.305682
 41
0.305682
  0
VERTEX
  8
0
 10
131.433
 20
395.54
 30
0.0
 40
0.305682
 41
0.305682
  0
SEQEND
  8
0
  0
POLYLINE
8
0
 62
     0
 66
     1
 10
0
 20
0
 30
0.0
 40
0
 41
0
  0
VERTEX
  8
0
 10
220.375
 20
418.096
 30
0.0
 40
0
 41
0
  0
VERTEX
  8
0
 10
220.375
 20
373.375
 30
0.0
 40
0
 41
0
  0
SEQEND
  8
0
  0
POLYLINE
8
0
 62
     0
 66
     1
 10
0
 20
0
 30
0.0
 40
0
 41
0
  0
VERTEX
  8
0
 10
219.611
 20
415.04
 30
0.0
 40
0
 41
0
  0
VERTEX
  8
0
 10
220.375
 20
418.096
 30
0.0
 40
0
 41
0
  0
VERTEX
  8
0
 10
221.139
 20
415.04
 30
0.0
 40
0
 41
0
  0
SEQEND
  8
0
  0
POLYLINE
8
0
 62
     0
 66
     1
 10
0
 20
0
 30
0.0
 40
0
 41
0
  0
VERTEX
  8
0
 10
221.139
 20
376.432
 30
0.0
 40
0
 41
0
  0
VERTEX
  8
0
 10
220.375
 20
373.375
 30
0.0
 40
0
 41
0
  0
VERTEX
  8
0
 10
219.611
 20
376.432
 30
0.0
 40
0
 41
0
  0
SEQEND
  8
0
  0
POLYLINE
8
0
 62
     0
 66
     1
 10
0
 20
0
 30
0.0
 40
0.305682
 41
0.305682
  0
VERTEX
  8
0
 10
211.077
 20
68.1096
 30
0.0
 40
0.305682
 41
0.305682
  0
VERTEX
  8
0
 10
224.641
 20
56.6914
 30
0.0
 40
0.305682
 41
0.305682
  0
SEQEND
  8
0
  0
POLYLINE
8
0
 62
     0
 66
     1
 10
0
 20
0
 30
0.0
 40
0.305682
 41
0.305682
  0
VERTEX
  8
0
 10
211
 20
67.9563
 30
0.0
 40
0.305682
 41
0.305682
  0
VERTEX
  8
0
 10
153.985
 20
67.8796
 30
0.0
 40
0.305682
 41
0.305682
  0
SEQEND
  8
0
  0
POLYLINE
8
0
 62
     0
 66
     1
 10
0
 20
0
 30
0.0
 40
0.305682
 41
0.305682
  0
VERTEX
  8
0
 10
211.076
 20
723.398
 30
0.0
 40
0.305682
 41
0.305682
  0
VERTEX
  8
0
 10
224.64
 20
734.472
 30
0.0
 40
0.305682
 41
0.305682
  0
SEQEND
  8
0
  0
POLYLINE
8
0
 62
     0
 66
     1
 10
0
 20
0
 30
0.0
 40
0.305682
 41
0.305682
  0
VERTEX
  8
0
 10
210.425
 20
402.653
 30
0.0
 40
0.305682
 41
0.305682
  0
VERTEX
  8
0
 10
211.038
 20
723.36
 30
0.0
 40
0.305682
 41
0.305682
  0
SEQEND
  8
0
  0
POLYLINE
8
0
 62
     0
 66
     1
 10
0
 20
0
 30
0.0
 40
0.305682
 41
0.305682
  0
VERTEX
  8
0
 10
211.038
 20
723.36
 30
0.0
 40
0.305682
 41
0.305682
  0
VERTEX
  8
0
 10
153.985
 20
723.283
 30
0.0
 40
0.305682
 41
0.305682
  0
SEQEND
  8
0
  0
POLYLINE
8
0
 62
     0
 66
     1
 10
0
 20
0
 30
0.0
 40
0.305682
 41
0.305682
  0
VERTEX
  8
0
 10
131.762
 20
670.254
 30
0.0
 40
0.305682
 41
0.305682
  0
VERTEX
  8
0
 10
131.856
 20
670.818
 30
0.0
 40
0.305682
 41
0.305682
  0
VERTEX
  8
0
 10
131.985
 20
671.592
 30
0.0
 40
0.305682
 41
0.305682
  0
VERTEX
  8
0
 10
132.198
 20
672.867
 30
0.0
 40
0.305682
 41
0.305682
  0
VERTEX
  8
0
 10
132.516
 20
674.769
 30
0.0
 40
0.305682
 41
0.305682
  0
VERTEX
  8
0
 10
132.959
 20
677.424
 30
0.0
 40
0.305682
 41
0.305682
  0
VERTEX
  8
0
 10
133.55
 20
680.957
 30
0.0
 40
0.305682
 41
0.305682
  0
VERTEX
  8
0
 10
134.324
 20
685.43
 30
0.0
 40
0.305682
 41
0.305682
  0
VERTEX
  8
0
 10
135.384
 20
690.656
 30
0.0
 40
0.305682
 41
0.305682
  0
VERTEX
  8
0
 10
136.848
 20
696.384
 30
0.0
 40
0.305682
 41
0.305682
  0
VERTEX
  8
0
 10
138.836
 20
702.363
 30
0.0
 40
0.305682
 41
0.305682
  0
VERTEX
  8
0
 10
141.464
 20
708.342
 30
0.0
 40
0.305682
 41
0.305682
  0
VERTEX
  8
0
 10
144.852
 20
714.069
 30
0.0
 40
0.305682
 41
0.305682
  0
VERTEX
  8
0
 10
149.118
 20
719.295
 30
0.0
 40
0.305682
 41
0.305682
  0
VERTEX
  8
0
 10
154.381
 20
723.769
 30
0.0
 40
0.305682
 41
0.305682
  0
VERTEX
  8
0
 10
160.688
 20
727.302
 30
0.0
 40
0.305682
 41
0.305682
  0
VERTEX
  8
0
 10
167.811
 20
729.957
 30
0.0
 40
0.305682
 41
0.305682
  0
VERTEX
  8
0
 10
175.449
 20
731.859
 30
0.0
 40
0.305682
 41
0.305682
  0
VERTEX
  8
0
 10
183.303
 20
733.134
 30
0.0
 40
0.305682
 41
0.305682
  0
VERTEX
  8
0
 10
191.073
 20
733.907
 30
0.0
 40
0.305682
 41
0.305682
  0
VERTEX
  8
0
 10
198.46
 20
734.305
 30
0.0
 40
0.305682
 41
0.305682
  0
VERTEX
  8
0
 10
205.164
 20
734.451
 30
0.0
 40
0.305682
 41
0.305682
  0
VERTEX
  8
0
 10
210.885
 20
734.472
 30
0.0
 40
0.305682
 41
0.305682
  0
VERTEX
  8
0
 10
215.4
 20
734.472
 30
0.0
 40
0.305682
 41
0.305682
  0
VERTEX
  8
0
 10
224.537
 20
734.472
 30
0.0
 40
0.305682
 41
0.305682
  0
VERTEX
  8
0
 10
224.564
 20
734.472
 30
0.0
 40
0.305682
 41
0.305682
  0
SEQEND
  8
0
  0
POLYLINE
8
0
 62
     0
 66
     1
 10
0
 20
0
 30
0.0
 40
0.305682
 41
0.305682
  0
VERTEX
  8
0
 10
131.762
 20
120.91
 30
0.0
 40
0.305682
 41
0.305682
  0
VERTEX
  8
0
 10
131.856
 20
120.345
 30
0.0
 40
0.305682
 41
0.305682
  0
VERTEX
  8
0
 10
131.985
 20
119.572
 30
0.0
 40
0.305682
 41
0.305682
  0
VERTEX
  8
0
 10
132.198
 20
118.297
 30
0.0
 40
0.305682
 41
0.305682
  0
VERTEX
  8
0
 10
132.516
 20
116.394
 30
0.0
 40
0.305682
 41
0.305682
  0
VERTEX
  8
0
 10
132.959
 20
113.74
 30
0.0
 40
0.305682
 41
0.305682
  0
VERTEX
  8
0
 10
133.55
 20
110.207
 30
0.0
 40
0.305682
 41
0.305682
  0
VERTEX
  8
0
 10
134.324
 20
105.733
 30
0.0
 40
0.305682
 41
0.305682
  0
VERTEX
  8
0
 10
135.384
 20
100.507
 30
0.0
 40
0.305682
 41
0.305682
  0
VERTEX
  8
0
 10
136.849
 20
94.7793
 30
0.0
 40
0.305682
 41
0.305682
  0
VERTEX
  8
0
 10
138.837
 20
88.8005
 30
0.0
 40
0.305682
 41
0.305682
  0
VERTEX
  8
0
 10
141.467
 20
82.8218
 30
0.0
 40
0.305682
 41
0.305682
  0
VERTEX
  8
0
 10
144.857
 20
77.094
 30
0.0
 40
0.305682
 41
0.305682
  0
VERTEX
  8
0
 10
149.125
 20
71.8679
 30
0.0
 40
0.305682
 41
0.305682
  0
VERTEX
  8
0
 10
154.391
 20
67.3943
 30
0.0
 40
0.305682
 41
0.305682
  0
VERTEX
  8
0
 10
160.702
 20
63.8616
 30
0.0
 40
0.305682
 41
0.305682
  0
VERTEX
  8
0
 10
167.83
 20
61.2068
 30
0.0
 40
0.305682
 41
0.305682
  0
VERTEX
  8
0
 10
175.473
 20
59.3044
 30
0.0
 40
0.305682
 41
0.305682
  0
VERTEX
  8
0
 10
183.332
 20
58.0293
 30
0.0
 40
0.305682
 41
0.305682
  0
VERTEX
  8
0
 10
191.108
 20
57.2559
 30
0.0
 40
0.305682
 41
0.305682
  0
VERTEX
  8
0
 10
198.5
 20
56.8586
 30
0.0
 40
0.305682
 41
0.305682
  0
VERTEX
  8
0
 10
205.208
 20
56.7124
 30
0.0
 40
0.305682
 41
0.305682
  0
VERTEX
  8
0
 10
210.933
 20
56.6914
 30
0.0
 40
0.305682
 41
0.305682
  0
VERTEX
  8
0
 10
215.451
 20
56.6914
 30
0.0
 40
0.305682
 41
0.305682
  0
VERTEX
  8
0
 10
224.594
 20
56.6914
 30
0.0
 40
0.305682
 41
0.305682
  0
VERTEX
  8
0
 10
224.621
 20
56.6914
 30
0.0
 40
0.305682
 41
0.305682
  0
SEQEND
  8
0
  0
TEXT
  8
0
 62
     0
 10
41.1206
 20
485.691
 30
0
 40
5.80796
  1
Bubble Dancer
 50
90
  0
TEXT
  8
0
 62
     0
 10
54.0354
 20
489.555
 30
0
 40
4.27955
  1
MD  24 Nov 01
 50
90
  0
POLYLINE
8
0
 62
     0
 66
     1
 10
0
 20
0
 30
0.0
 40
0
 41
0
  0
VERTEX
  8
0
 10
81.4939
 20
395.557
 30
0.0
 40
0
 41
0
  0
VERTEX
  8
0
 10
242.986
 20
395.557
 30
0.0
 40
0
 41
0
  0
SEQEND
  8
0
  0
TEXT
  8
0
 62
     0
 10
47.7502
 20
403.657
 30
0
 40
3.19438
  1
Design (never-exceed) Loads
 50
90
  0
TEXT
  8
0
 62
     0
 10
50.9446
 20
403.657
 30
0
 40
3.19438
  1
---------------------------
 50
90
  0
TEXT
  8
0
 62
     0
 10
54.1392
 20
403.657
 30
0
 40
3.19438
  1
stab load       7 lb @ 90 mph, CL=0.5
 50
90
  0
TEXT
  8
0
 62
     0
 10
57.3335
 20
403.657
 30
0
 40
3.19438
  1
root bend.mom.  19 lb-in
 50
90
  0
TEXT
  8
0
 62
     0
 10
60.5278
 20
403.657
 30
0
 40
3.19438
  1
root bend.Ixx   2.15e-3 in^4
 50
90
  0
TEXT
  8
0
 62
     0
 10
63.7222
 20
403.657
 30
0
 40
3.19438
  1
root stress     1100 psi     
 50
90
  0
TEXT
  8
0
 62
     0
 10
48.1343
 20
489.909
 30
0
 40
4.93676
  1
Horizontal Tail
 50
90
  0
TEXT
  8
0
 62
     0
 10
239.737
 20
732.908
 30
0
 40
4.27955
  1
inches
 50
90
  0
POLYLINE
8
0
 62
     0
 66
     1
 10
0
 20
0
 30
0.0
 40
0
 41
0
  0
VERTEX
  8
0
 10
237.499
 20
423.374
 30
0.0
 40
0
 41
0
  0
VERTEX
  8
0
 10
238.905
 20
423.374
 30
0.0
 40
0
 41
0
  0
SEQEND
  8
0
  0
POLYLINE
8
0
 62
     0
 66
     1
 10
0
 20
0
 30
0.0
 40
0
 41
0
  0
VERTEX
  8
0
 10
237.499
 20
450.886
 30
0.0
 40
0
 41
0
  0
VERTEX
  8
0
 10
238.905
 20
450.886
 30
0.0
 40
0
 41
0
  0
SEQEND
  8
0
  0
POLYLINE
8
0
 62
     0
 66
     1
 10
0
 20
0
 30
0.0
 40
0
 41
0
  0
VERTEX
  8
0
 10
237.499
 20
478.397
 30
0.0
 40
0
 41
0
  0
VERTEX
  8
0
 10
238.905
 20
478.397
 30
0.0
 40
0
 41
0
  0
SEQEND
  8
0
  0
POLYLINE
8
0
 62
     0
 66
     1
 10
0
 20
0
 30
0.0
 40
0
 41
0
  0
VERTEX
  8
0
 10
237.499
 20
505.908
 30
0.0
 40
0
 41
0
  0
VERTEX
  8
0
 10
238.905
 20
505.908
 30
0.0
 40
0
 41
0
  0
SEQEND
  8
0
  0
POLYLINE
8
0
 62
     0
 66
     1
 10
0
 20
0
 30
0.0
 40
0
 41
0
  0
VERTEX
  8
0
 10
237.499
 20
534.031
 30
0.0
 40
0
 41
0
  0
VERTEX
  8
0
 10
238.905
 20
534.031
 30
0.0
 40
0
 41
0
  0
SEQEND
  8
0
  0
POLYLINE
8
0
 62
     0
 66
     1
 10
0
 20
0
 30
0.0
 40
0
 41
0
  0
VERTEX
  8
0
 10
237.499
 20
561.542
 30
0.0
 40
0
 41
0
  0
VERTEX
  8
0
 10
238.905
 20
561.542
 30
0.0
 40
0
 41
0
  0
SEQEND
  8
0
  0
POLYLINE
8
0
 62
     0
 66
     1
 10
0
 20
0
 30
0.0
 40
0
 41
0
  0
VERTEX
  8
0
 10
237.499
 20
589.054
 30
0.0
 40
0
 41
0
  0
VERTEX
  8
0
 10
238.905
 20
589.054
 30
0.0
 40
0
 41
0
  0
SEQEND
  8
0
  0
POLYLINE
8
0
 62
     0
 66
     1
 10
0
 20
0
 30
0.0
 40
0
 41
0
  0
VERTEX
  8
0
 10
237.499
 20
616.565
 30
0.0
 40
0
 41
0
  0
VERTEX
  8
0
 10
238.905
 20
616.565
 30
0.0
 40
0
 41
0
  0
SEQEND
  8
0
  0
POLYLINE
8
0
 62
     0
 66
     1
 10
0
 20
0
 30
0.0
 40
0
 41
0
  0
VERTEX
  8
0
 10
237.499
 20
644.077
 30
0.0
 40
0
 41
0
  0
VERTEX
  8
0
 10
238.905
 20
644.077
 30
0.0
 40
0
 41
0
  0
SEQEND
  8
0
  0
POLYLINE
8
0
 62
     0
 66
     1
 10
0
 20
0
 30
0.0
 40
0
 41
0
  0
VERTEX
  8
0
 10
237.499
 20
672.199
 30
0.0
 40
0
 41
0
  0
VERTEX
  8
0
 10
238.905
 20
672.199
 30
0.0
 40
0
 41
0
  0
SEQEND
  8
0
  0
POLYLINE
8
0
 62
     0
 66
     1
 10
0
 20
0
 30
0.0
 40
0
 41
0
  0
VERTEX
  8
0
 10
237.499
 20
699.711
 30
0.0
 40
0
 41
0
  0
VERTEX
  8
0
 10
238.905
 20
699.711
 30
0.0
 40
0
 41
0
  0
SEQEND
  8
0
  0
POLYLINE
8
0
 62
     0
 66
     1
 10
0
 20
0
 30
0.0
 40
0
 41
0
  0
VERTEX
  8
0
 10
237.499
 20
727.222
 30
0.0
 40
0
 41
0
  0
VERTEX
  8
0
 10
238.905
 20
727.222
 30
0.0
 40
0
 41
0
  0
SEQEND
  8
0
  0
POLYLINE
8
0
 62
     0
 66
     1
 10
0
 20
0
 30
0.0
 40
0
 41
0
  0
VERTEX
  8
0
 10
238.202
 20
423.374
 30
0.0
 40
0
 41
0
  0
VERTEX
  8
0
 10
238.202
 20
727.222
 30
0.0
 40
0
 41
0
  0
SEQEND
  8
0
  0
POLYLINE
8
0
 62
     0
 66
     1
 10
0
 20
0
 30
0.0
 40
0
 41
0
  0
VERTEX
  8
0
 10
238.202
 20
367.74
 30
0.0
 40
0
 41
0
  0
VERTEX
  8
0
 10
239.608
 20
367.74
 30
0.0
 40
0
 41
0
  0
SEQEND
  8
0
  0
POLYLINE
8
0
 62
     0
 66
     1
 10
0
 20
0
 30
0.0
 40
0
 41
0
  0
VERTEX
  8
0
 10
238.202
 20
340.229
 30
0.0
 40
0
 41
0
  0
VERTEX
  8
0
 10
239.608
 20
340.229
 30
0.0
 40
0
 41
0
  0
SEQEND
  8
0
  0
POLYLINE
8
0
 62
     0
 66
     1
 10
0
 20
0
 30
0.0
 40
0
 41
0
  0
VERTEX
  8
0
 10
238.202
 20
312.718
 30
0.0
 40
0
 41
0
  0
VERTEX
  8
0
 10
239.608
 20
312.718
 30
0.0
 40
0
 41
0
  0
SEQEND
  8
0
  0
POLYLINE
8
0
 62
     0
 66
     1
 10
0
 20
0
 30
0.0
 40
0
 41
0
  0
VERTEX
  8
0
 10
238.202
 20
285.206
 30
0.0
 40
0
 41
0
  0
VERTEX
  8
0
 10
239.608
 20
285.206
 30
0.0
 40
0
 41
0
  0
SEQEND
  8
0
  0
POLYLINE
8
0
 62
     0
 66
     1
 10
0
 20
0
 30
0.0
 40
0
 41
0
  0
VERTEX
  8
0
 10
238.202
 20
257.083
 30
0.0
 40
0
 41
0
  0
VERTEX
  8
0
 10
239.608
 20
257.083
 30
0.0
 40
0
 41
0
  0
SEQEND
  8
0
  0
POLYLINE
8
0
 62
     0
 66
     1
 10
0
 20
0
 30
0.0
 40
0
 41
0
  0
VERTEX
  8
0
 10
238.202
 20
229.572
 30
0.0
 40
0
 41
0
  0
VERTEX
  8
0
 10
239.608
 20
229.572
 30
0.0
 40
0
 41
0
  0
SEQEND
  8
0
  0
POLYLINE
8
0
 62
     0
 66
     1
 10
0
 20
0
 30
0.0
 40
0
 41
0
  0
VERTEX
  8
0
 10
238.202
 20
202.061
 30
0.0
 40
0
 41
0
  0
VERTEX
  8
0
 10
239.608
 20
202.061
 30
0.0
 40
0
 41
0
  0
SEQEND
  8
0
  0
POLYLINE
8
0
 62
     0
 66
     1
 10
0
 20
0
 30
0.0
 40
0
 41
0
  0
VERTEX
  8
0
 10
238.202
 20
174.549
 30
0.0
 40
0
 41
0
  0
VERTEX
  8
0
 10
239.608
 20
174.549
 30
0.0
 40
0
 41
0
  0
SEQEND
  8
0
  0
POLYLINE
8
0
 62
     0
 66
     1
 10
0
 20
0
 30
0.0
 40
0
 41
0
  0
VERTEX
  8
0
 10
238.202
 20
147.038
 30
0.0
 40
0
 41
0
  0
VERTEX
  8
0
 10
239.608
 20
147.038
 30
0.0
 40
0
 41
0
  0
SEQEND
  8
0
  0
POLYLINE
8
0
 62
     0
 66
     1
 10
0
 20
0
 30
0.0
 40
0
 41
0
  0
VERTEX
  8
0
 10
238.202
 20
118.915
 30
0.0
 40
0
 41
0
  0
VERTEX
  8
0
 10
239.608
 20
118.915
 30
0.0
 40
0
 41
0
  0
SEQEND
  8
0
  0
POLYLINE
8
0
 62
     0
 66
     1
 10
0
 20
0
 30
0.0
 40
0
 41
0
  0
VERTEX
  8
0
 10
238.202
 20
91.4041
 30
0.0
 40
0
 41
0
  0
VERTEX
  8
0
 10
239.608
 20
91.4041
 30
0.0
 40
0
 41
0
  0
SEQEND
  8
0
  0
POLYLINE
8
0
 62
     0
 66
     1
 10
0
 20
0
 30
0.0
 40
0
 41
0
  0
VERTEX
  8
0
 10
238.202
 20
63.8926
 30
0.0
 40
0
 41
0
  0
VERTEX
  8
0
 10
239.608
 20
63.8926
 30
0.0
 40
0
 41
0
  0
SEQEND
  8
0
  0
POLYLINE
8
0
 62
     0
 66
     1
 10
0
 20
0
 30
0.0
 40
0
 41
0
  0
VERTEX
  8
0
 10
238.905
 20
367.74
 30
0.0
 40
0
 41
0
  0
VERTEX
  8
0
 10
238.905
 20
63.8926
 30
0.0
 40
0
 41
0
  0
SEQEND
  8
0
  0
POLYLINE
8
0
 62
     0
 66
     1
 10
0
 20
0
 30
0.0
 40
0
 41
0
  0
VERTEX
  8
0
 10
85.9724
 20
409.313
 30
0.0
 40
0
 41
0
  0
VERTEX
  8
0
 10
85.9724
 20
727.222
 30
0.0
 40
0
 41
0
  0
SEQEND
  8
0
  0
POLYLINE
8
0
 62
     0
 66
     1
 10
0
 20
0
 30
0.0
 40
0
 41
0
  0
VERTEX
  8
0
 10
85.9724
 20
381.802
 30
0.0
 40
0
 41
0
  0
VERTEX
  8
0
 10
85.9724
 20
63.8923
 30
0.0
 40
0
 41
0
  0
SEQEND
  8
0
  0
POLYLINE
8
0
 62
     0
 66
     1
 10
0
 20
0
 30
0.0
 40
0
 41
0
  0
VERTEX
  8
0
 10
238.202
 20
754.351
 30
0.0
 40
0
 41
0
  0
VERTEX
  8
0
 10
238.202
 20
755.727
 30
0.0
 40
0
 41
0
  0
SEQEND
  8
0
  0
POLYLINE
8
0
 62
     0
 66
     1
 10
0
 20
0
 30
0.0
 40
0
 41
0
  0
VERTEX
  8
0
 10
210.691
 20
754.351
 30
0.0
 40
0
 41
0
  0
VERTEX
  8
0
 10
210.691
 20
755.727
 30
0.0
 40
0
 41
0
  0
SEQEND
  8
0
  0
POLYLINE
8
0
 62
     0
 66
     1
 10
0
 20
0
 30
0.0
 40
0
 41
0
  0
VERTEX
  8
0
 10
183.179
 20
754.351
 30
0.0
 40
0
 41
0
  0
VERTEX
  8
0
 10
183.179
 20
755.727
 30
0.0
 40
0
 41
0
  0
SEQEND
  8
0
  0
POLYLINE
8
0
 62
     0
 66
     1
 10
0
 20
0
 30
0.0
 40
0
 41
0
  0
VERTEX
  8
0
 10
155.056
 20
754.351
 30
0.0
 40
0
 41
0
  0
VERTEX
  8
0
 10
155.056
 20
755.727
 30
0.0
 40
0
 41
0
  0
SEQEND
  8
0
  0
POLYLINE
8
0
 62
     0
 66
     1
 10
0
 20
0
 30
0.0
 40
0
 41
0
  0
VERTEX
  8
0
 10
127.545
 20
754.351
 30
0.0
 40
0
 41
0
  0
VERTEX
  8
0
 10
127.545
 20
755.727
 30
0.0
 40
0
 41
0
  0
SEQEND
  8
0
  0
POLYLINE
8
0
 62
     0
 66
     1
 10
0
 20
0
 30
0.0
 40
0
 41
0
  0
VERTEX
  8
0
 10
100.034
 20
754.351
 30
0.0
 40
0
 41
0
  0
VERTEX
  8
0
 10
100.034
 20
755.727
 30
0.0
 40
0
 41
0
  0
SEQEND
  8
0
  0
POLYLINE
8
0
 62
     0
 66
     1
 10
0
 20
0
 30
0.0
 40
0
 41
0
  0
VERTEX
  8
0
 10
238.202
 20
754.734
 30
0.0
 40
0
 41
0
  0
VERTEX
  8
0
 10
100.034
 20
754.734
 30
0.0
 40
0
 41
0
  0
SEQEND
  8
0
  0
POLYLINE
8
0
 62
     0
 66
     1
 10
0
 20
0
 30
0.0
 40
0
 41
0
  0
VERTEX
  8
0
 10
238.34
 20
36.1045
 30
0.0
 40
0
 41
0
  0
VERTEX
  8
0
 10
238.34
 20
37.4802
 30
0.0
 40
0
 41
0
  0
SEQEND
  8
0
  0
POLYLINE
8
0
 62
     0
 66
     1
 10
0
 20
0
 30
0.0
 40
0
 41
0
  0
VERTEX
  8
0
 10
210.829
 20
36.1045
 30
0.0
 40
0
 41
0
  0
VERTEX
  8
0
 10
210.829
 20
37.4802
 30
0.0
 40
0
 41
0
  0
SEQEND
  8
0
  0
POLYLINE
8
0
 62
     0
 66
     1
 10
0
 20
0
 30
0.0
 40
0
 41
0
  0
VERTEX
  8
0
 10
183.317
 20
36.1045
 30
0.0
 40
0
 41
0
  0
VERTEX
  8
0
 10
183.317
 20
37.4802
 30
0.0
 40
0
 41
0
  0
SEQEND
  8
0
  0
POLYLINE
8
0
 62
     0
 66
     1
 10
0
 20
0
 30
0.0
 40
0
 41
0
  0
VERTEX
  8
0
 10
155.195
 20
36.1045
 30
0.0
 40
0
 41
0
  0
VERTEX
  8
0
 10
155.195
 20
37.4802
 30
0.0
 40
0
 41
0
  0
SEQEND
  8
0
  0
POLYLINE
8
0
 62
     0
 66
     1
 10
0
 20
0
 30
0.0
 40
0
 41
0
  0
VERTEX
  8
0
 10
127.683
 20
36.1045
 30
0.0
 40
0
 41
0
  0
VERTEX
  8
0
 10
127.683
 20
37.4802
 30
0.0
 40
0
 41
0
  0
SEQEND
  8
0
  0
POLYLINE
8
0
 62
     0
 66
     1
 10
0
 20
0
 30
0.0
 40
0
 41
0
  0
VERTEX
  8
0
 10
100.172
 20
36.1045
 30
0.0
 40
0
 41
0
  0
VERTEX
  8
0
 10
100.172
 20
37.4802
 30
0.0
 40
0
 41
0
  0
SEQEND
  8
0
  0
POLYLINE
8
0
 62
     0
 66
     1
 10
0
 20
0
 30
0.0
 40
0
 41
0
  0
VERTEX
  8
0
 10
238.202
 20
36.7629
 30
0.0
 40
0
 41
0
  0
VERTEX
  8
0
 10
100.034
 20
36.7629
 30
0.0
 40
0
 41
0
  0
SEQEND
  8
0
  0
POLYLINE
8
0
 62
     0
 66
     1
 10
0
 20
0
 30
0.0
 40
0.305682
 41
0.305682
  0
VERTEX
  8
0
 10
142.829
 20
363.766
 30
0.0
 40
0.305682
 41
0.305682
  0
VERTEX
  8
0
 10
167.742
 20
388.832
 30
0.0
 40
0.305682
 41
0.305682
  0
SEQEND
  8
0
  0
POLYLINE
8
0
 62
     0
 66
     1
 10
0
 20
0
 30
0.0
 40
0.305682
 41
0.305682
  0
VERTEX
  8
0
 10
142.982
 20
427.042
 30
0.0
 40
0.305682
 41
0.305682
  0
VERTEX
  8
0
 10
167.742
 20
402.282
 30
0.0
 40
0.305682
 41
0.305682
  0
SEQEND
  8
0
  0
TEXT
  8
0
 62
     0
 10
91.8901
 20
468.229
 30
0
 40
3.19438
  1
soft balsa (4-6 lb)
 50
90
  0
POLYLINE
8
0
 62
     0
 66
     1
 10
0
 20
0
 30
0.0
 40
0
 41
0
  0
VERTEX
  8
0
 10
91.1689
 20
464.641
 30
0.0
 40
0
 41
0
  0
VERTEX
  8
0
 10
91.1689
 20
464.438
 30
0.0
 40
0
 41
0
  0
VERTEX
  8
0
 10
91.1689
 20
463.011
 30
0.0
 40
0
 41
0
  0
VERTEX
  8
0
 10
91.2388
 20
459.75
 30
0.0
 40
0
 41
0
  0
VERTEX
  8
0
 10
91.7292
 20
456.49
 30
0.0
 40
0
 41
0
  0
VERTEX
  8
0
 10
92.9265
 20
454.917
 30
0.0
 40
0
 41
0
  0
VERTEX
  8
0
 10
94.5823
 20
453.688
 30
0.0
 40
0
 41
0
  0
VERTEX
  8
0
 10
96.2954
 20
451.344
 30
0.0
 40
0
 41
0
  0
VERTEX
  8
0
 10
97.5881
 20
449
 30
0.0
 40
0
 41
0
  0
VERTEX
  8
0
 10
98.123
 20
447.975
 30
0.0
 40
0
 41
0
  0
VERTEX
  8
0
 10
98.1995
 20
447.829
 30
0.0
 40
0
 41
0
  0
SEQEND
  8
0
  0
TEXT
  8
0
 62
     0
 10
194.636
 20
311.961
 30
0
 40
3.19438
  1
1/4"
 50
90
  0
TEXT
  8
0
 62
     0
 10
196.48
 20
209.137
 30
0
 40
3.19438
  1
3/16"
 50
90
  0
TEXT
  8
0
 62
     0
 10
197.833
 20
114.969
 30
0
 40
3.19438
  1
1/8"
 50
90
  0
POLYLINE
8
0
 62
     0
 66
     1
 10
0
 20
0
 30
0.0
 40
0.305682
 41
0.305682
  0
VERTEX
  8
0
 10
137.785
 20
402.703
 30
0.0
 40
0.305682
 41
0.305682
  0
VERTEX
  8
0
 10
210.537
 20
402.703
 30
0.0
 40
0.305682
 41
0.305682
  0
VERTEX
  8
0
 10
216.269
 20
395.672
 30
0.0
 40
0.305682
 41
0.305682
  0
SEQEND
  8
0
  0
POLYLINE
8
0
 62
     0
 66
     1
 10
0
 20
0
 30
0.0
 40
0.305682
 41
0.305682
  0
VERTEX
  8
0
 10
137.785
 20
388.527
 30
0.0
 40
0.305682
 41
0.305682
  0
VERTEX
  8
0
 10
210.537
 20
388.527
 30
0.0
 40
0.305682
 41
0.305682
  0
VERTEX
  8
0
 10
216.269
 20
395.557
 30
0.0
 40
0.305682
 41
0.305682
  0
SEQEND
  8
0
  0
TEXT
  8
0
 62
     0
 10
167.699
 20
414.735
 30
0
 40
3.19438
  1
soft balsa
 50
90
  0
TEXT
  8
0
 62
     0
 10
170.894
 20
414.735
 30
0
 40
3.19438
  1
 (4-6 lb)
 50
90
  0
POLYLINE
8
0
 62
     0
 66
     1
 10
0
 20
0
 30
0.0
 40
0
 41
0
  0
VERTEX
  8
0
 10
169.041
 20
413.21
 30
0.0
 40
0
 41
0
  0
VERTEX
  8
0
 10
169.054
 20
412.599
 30
0.0
 40
0
 41
0
  0
VERTEX
  8
0
 10
168.936
 20
411.47
 30
0.0
 40
0
 41
0
  0
VERTEX
  8
0
 10
167.958
 20
410.905
 30
0.0
 40
0
 41
0
  0
VERTEX
  8
0
 10
165.545
 20
411.825
 30
0.0
 40
0
 41
0
  0
VERTEX
  8
0
 10
162.329
 20
412.917
 30
0.0
 40
0
 41
0
  0
VERTEX
  8
0
 10
159.211
 20
412.811
 30
0.0
 40
0
 41
0
  0
VERTEX
  8
0
 10
156.954
 20
412.141
 30
0.0
 40
0
 41
0
  0
VERTEX
  8
0
 10
156.029
 20
411.806
 30
0.0
 40
0
 41
0
  0
VERTEX
  8
0
 10
155.897
 20
411.759
 30
0.0
 40
0
 41
0
  0
SEQEND
  8
0
  0
TEXT
  8
0
 62
     0
 10
196.4
 20
492.989
 30
0
 40
3.19438
  1
33 deg
 50
90
  0
POLYLINE
8
0
 62
     7
 66
     1
 10
0
 20
0
 30
0.0
 70
     1
 40
0
 41
0
  0
VERTEX
  8
0
 10
137.976
 20
272.597
 30
0.0
 40
0
 41
0
  0
VERTEX
  8
0
 10
204.309
 20
315.66
 30
0.0
 40
0
 41
0
  0
VERTEX
  8
0
 10
217.415
 20
315.66
 30
0.0
 40
0
 41
0
  0
VERTEX
  8
0
 10
138.014
 20
264.343
 30
0.0
 40
0
 41
0
  0
VERTEX
  8
0
 10
137.976
 20
272.597
 30
0.0
 40
0
 41
0
  0
SEQEND
  8
0
  0
POLYLINE
8
0
 62
     0
 66
     1
 10
0
 20
0
 30
0.0
 70
     1
 40
0.305682
 41
0.305682
  0
VERTEX
  8
0
 10
137.976
 20
272.597
 30
0.0
 40
0.305682
 41
0.305682
  0
VERTEX
  8
0
 10
204.309
 20
315.66
 30
0.0
 40
0.305682
 41
0.305682
  0
VERTEX
  8
0
 10
217.415
 20
315.66
 30
0.0
 40
0.305682
 41
0.305682
  0
VERTEX
  8
0
 10
138.014
 20
264.343
 30
0.0
 40
0.305682
 41
0.305682
  0
VERTEX
  8
0
 10
137.976
 20
272.597
 30
0.0
 40
0.305682
 41
0.305682
  0
SEQEND
  8
0
  0
POLYLINE
8
0
 62
     7
 66
     1
 10
0
 20
0
 30
0.0
 70
     1
 40
0
 41
0
  0
VERTEX
  8
0
 10
138.014
 20
264.324
 30
0.0
 40
0
 41
0
  0
VERTEX
  8
0
 10
216.25
 20
213.486
 30
0.0
 40
0
 41
0
  0
VERTEX
  8
0
 10
206.544
 20
213.505
 30
0.0
 40
0
 41
0
  0
VERTEX
  8
0
 10
138.033
 20
258
 30
0.0
 40
0
 41
0
  0
VERTEX
  8
0
 10
138.014
 20
264.324
 30
0.0
 40
0
 41
0
  0
SEQEND
  8
0
  0
POLYLINE
8
0
 62
     0
 66
     1
 10
0
 20
0
 30
0.0
 70
     1
 40
0.305682
 41
0.305682
  0
VERTEX
  8
0
 10
138.014
 20
264.324
 30
0.0
 40
0.305682
 41
0.305682
  0
VERTEX
  8
0
 10
216.25
 20
213.486
 30
0.0
 40
0.305682
 41
0.305682
  0
VERTEX
  8
0
 10
206.544
 20
213.505
 30
0.0
 40
0.305682
 41
0.305682
  0
VERTEX
  8
0
 10
138.033
 20
258
 30
0.0
 40
0.305682
 41
0.305682
  0
VERTEX
  8
0
 10
138.014
 20
264.324
 30
0.0
 40
0.305682
 41
0.305682
  0
SEQEND
  8
0
  0
POLYLINE
8
0
 62
     7
 66
     1
 10
0
 20
0
 30
0.0
 70
     1
 40
0
 41
0
  0
VERTEX
  8
0
 10
141.109
 20
171.091
 30
0.0
 40
0
 41
0
  0
VERTEX
  8
0
 10
206.506
 20
213.504
 30
0.0
 40
0
 41
0
  0
VERTEX
  8
0
 10
216.192
 20
213.504
 30
0.0
 40
0
 41
0
  0
VERTEX
  8
0
 10
141.854
 20
165.149
 30
0.0
 40
0
 41
0
  0
VERTEX
  8
0
 10
141.109
 20
171.091
 30
0.0
 40
0
 41
0
  0
SEQEND
  8
0
  0
POLYLINE
8
0
 62
     0
 66
     1
 10
0
 20
0
 30
0.0
 70
     1
 40
0.305682
 41
0.305682
  0
VERTEX
  8
0
 10
141.109
 20
171.091
 30
0.0
 40
0.305682
 41
0.305682
  0
VERTEX
  8
0
 10
206.506
 20
213.504
 30
0.0
 40
0.305682
 41
0.305682
  0
VERTEX
  8
0
 10
216.192
 20
213.504
 30
0.0
 40
0.305682
 41
0.305682
  0
VERTEX
  8
0
 10
141.854
 20
165.149
 30
0.0
 40
0.305682
 41
0.305682
  0
VERTEX
  8
0
 10
141.109
 20
171.091
 30
0.0
 40
0.305682
 41
0.305682
  0
SEQEND
  8
0
  0
POLYLINE
8
0
 62
     7
 66
     1
 10
0
 20
0
 30
0.0
 70
     1
 40
0
 41
0
  0
VERTEX
  8
0
 10
141.854
 20
165.169
 30
0.0
 40
0
 41
0
  0
VERTEX
  8
0
 10
214.626
 20
117.807
 30
0.0
 40
0
 41
0
  0
VERTEX
  8
0
 10
208.111
 20
117.769
 30
0.0
 40
0
 41
0
  0
VERTEX
  8
0
 10
142.428
 20
160.507
 30
0.0
 40
0
 41
0
  0
VERTEX
  8
0
 10
141.854
 20
165.169
 30
0.0
 40
0
 41
0
  0
SEQEND
  8
0
  0
POLYLINE
8
0
 62
     0
 66
     1
 10
0
 20
0
 30
0.0
 70
     1
 40
0.305682
 41
0.305682
  0
VERTEX
  8
0
 10
141.854
 20
165.169
 30
0.0
 40
0.305682
 41
0.305682
  0
VERTEX
  8
0
 10
214.626
 20
117.807
 30
0.0
 40
0.305682
 41
0.305682
  0
VERTEX
  8
0
 10
208.111
 20
117.769
 30
0.0
 40
0.305682
 41
0.305682
  0
VERTEX
  8
0
 10
142.428
 20
160.507
 30
0.0
 40
0.305682
 41
0.305682
  0
VERTEX
  8
0
 10
141.854
 20
165.169
 30
0.0
 40
0.305682
 41
0.305682
  0
SEQEND
  8
0
  0
POLYLINE
8
0
 62
     7
 66
     1
 10
0
 20
0
 30
0.0
 70
     1
 40
0
 41
0
  0
VERTEX
  8
0
 10
159.679
 20
76.6736
 30
0.0
 40
0
 41
0
  0
VERTEX
  8
0
 10
208.092
 20
117.807
 30
0.0
 40
0
 41
0
  0
VERTEX
  8
0
 10
214.588
 20
117.807
 30
0.0
 40
0
 41
0
  0
VERTEX
  8
0
 10
161.819
 20
74.0178
 30
0.0
 40
0
 41
0
  0
VERTEX
  8
0
 10
159.679
 20
76.6736
 30
0.0
 40
0
 41
0
  0
SEQEND
  8
0
  0
POLYLINE
8
0
 62
     0
 66
     1
 10
0
 20
0
 30
0.0
 70
     1
 40
0.305682
 41
0.305682
  0
VERTEX
  8
0
 10
159.679
 20
76.6736
 30
0.0
 40
0.305682
 41
0.305682
  0
VERTEX
  8
0
 10
208.092
 20
117.807
 30
0.0
 40
0.305682
 41
0.305682
  0
VERTEX
  8
0
 10
214.588
 20
117.807
 30
0.0
 40
0.305682
 41
0.305682
  0
VERTEX
  8
0
 10
161.819
 20
74.0178
 30
0.0
 40
0.305682
 41
0.305682
  0
VERTEX
  8
0
 10
159.679
 20
76.6736
 30
0.0
 40
0.305682
 41
0.305682
  0
SEQEND
  8
0
  0
POLYLINE
8
0
 62
     7
 66
     1
 10
0
 20
0
 30
0.0
 70
     1
 40
0
 41
0
  0
VERTEX
  8
0
 10
138.053
 20
367.129
 30
0.0
 40
0
 41
0
  0
VERTEX
  8
0
 10
217.339
 20
315.698
 30
0.0
 40
0
 41
0
  0
VERTEX
  8
0
 10
204.347
 20
315.66
 30
0.0
 40
0
 41
0
  0
VERTEX
  8
0
 10
138.053
 20
358.57
 30
0.0
 40
0
 41
0
  0
VERTEX
  8
0
 10
138.053
 20
367.129
 30
0.0
 40
0
 41
0
  0
SEQEND
  8
0
  0
POLYLINE
8
0
 62
     0
 66
     1
 10
0
 20
0
 30
0.0
 70
     1
 40
0.305682
 41
0.305682
  0
VERTEX
  8
0
 10
138.053
 20
367.129
 30
0.0
 40
0.305682
 41
0.305682
  0
VERTEX
  8
0
 10
217.339
 20
315.698
 30
0.0
 40
0.305682
 41
0.305682
  0
VERTEX
  8
0
 10
204.347
 20
315.66
 30
0.0
 40
0.305682
 41
0.305682
  0
VERTEX
  8
0
 10
138.053
 20
358.57
 30
0.0
 40
0.305682
 41
0.305682
  0
VERTEX
  8
0
 10
138.053
 20
367.129
 30
0.0
 40
0.305682
 41
0.305682
  0
SEQEND
  8
0
  0
POLYLINE
8
0
 62
     7
 66
     1
 10
0
 20
0
 30
0.0
 70
     1
 40
0
 41
0
  0
VERTEX
  8
0
 10
89.6138
 20
323.297
 30
0.0
 40
0
 41
0
  0
VERTEX
  8
0
 10
89.6138
 20
335.558
 30
0.0
 40
0
 41
0
  0
VERTEX
  8
0
 10
237.362
 20
335.558
 30
0.0
 40
0
 41
0
  0
VERTEX
  8
0
 10
237.362
 20
323.297
 30
0.0
 40
0
 41
0
  0
VERTEX
  8
0
 10
89.6138
 20
323.297
 30
0.0
 40
0
 41
0
  0
SEQEND
  8
0
  0
POLYLINE
8
0
 62
     0
 66
     1
 10
0
 20
0
 30
0.0
 40
0
 41
0
  0
VERTEX
  8
0
 10
235.639
 20
330.186
 30
0.0
 40
0
 41
0
  0
VERTEX
  8
0
 10
235.045
 20
330.202
 30
0.0
 40
0
 41
0
  0
VERTEX
  8
0
 10
231.774
 20
330.296
 30
0.0
 40
0
 41
0
  0
VERTEX
  8
0
 10
226.719
 20
330.454
 30
0.0
 40
0
 41
0
  0
VERTEX
  8
0
 10
221.366
 20
330.623
 30
0.0
 40
0
 41
0
  0
VERTEX
  8
0
 10
216.014
 20
330.793
 30
0.0
 40
0
 41
0
  0
VERTEX
  8
0
 10
210.661
 20
330.96
 30
0.0
 40
0
 41
0
  0
VERTEX
  8
0
 10
205.309
 20
331.12
 30
0.0
 40
0
 41
0
  0
VERTEX
  8
0
 10
199.957
 20
331.285
 30
0.0
 40
0
 41
0
  0
VERTEX
  8
0
 10
194.604
 20
331.445
 30
0.0
 40
0
 41
0
  0
VERTEX
  8
0
 10
189.252
 20
331.607
 30
0.0
 40
0
 41
0
  0
VERTEX
  8
0
 10
183.899
 20
331.755
 30
0.0
 40
0
 41
0
  0
VERTEX
  8
0
 10
178.549
 20
331.906
 30
0.0
 40
0
 41
0
  0
VERTEX
  8
0
 10
173.206
 20
332.05
 30
0.0
 40
0
 41
0
  0
VERTEX
  8
0
 10
167.856
 20
332.191
 30
0.0
 40
0
 41
0
  0
VERTEX
  8
0
 10
162.506
 20
332.33
 30
0.0
 40
0
 41
0
  0
VERTEX
  8
0
 10
157.165
 20
332.457
 30
0.0
 40
0
 41
0
  0
VERTEX
  8
0
 10
151.826
 20
332.572
 30
0.0
 40
0
 41
0
  0
VERTEX
  8
0
 10
146.485
 20
332.68
 30
0.0
 40
0
 41
0
  0
VERTEX
  8
0
 10
141.14
 20
332.77
 30
0.0
 40
0
 41
0
  0
VERTEX
  8
0
 10
135.811
 20
332.85
 30
0.0
 40
0
 41
0
  0
VERTEX
  8
0
 10
130.488
 20
332.906
 30
0.0
 40
0
 41
0
  0
VERTEX
  8
0
 10
125.182
 20
332.932
 30
0.0
 40
0
 41
0
  0
VERTEX
  8
0
 10
119.915
 20
332.911
 30
0.0
 40
0
 41
0
  0
VERTEX
  8
0
 10
114.712
 20
332.808
 30
0.0
 40
0
 41
0
  0
VERTEX
  8
0
 10
109.643
 20
332.577
 30
0.0
 40
0
 41
0
  0
VERTEX
  8
0
 10
104.918
 20
332.134
 30
0.0
 40
0
 41
0
  0
VERTEX
  8
0
 10
101.163
 20
331.485
 30
0.0
 40
0
 41
0
  0
VERTEX
  8
0
 10
98.959
 20
330.809
 30
0.0
 40
0
 41
0
  0
VERTEX
  8
0
 10
97.8941
 20
330.202
 30
0.0
 40
0
 41
0
  0
VERTEX
  8
0
 10
97.4492
 20
329.623
 30
0.0
 40
0
 41
0
  0
VERTEX
  8
0
 10
97.4561
 20
329.054
 30
0.0
 40
0
 41
0
  0
VERTEX
  8
0
 10
97.8962
 20
328.475
 30
0.0
 40
0
 41
0
  0
VERTEX
  8
0
 10
98.959
 20
327.867
 30
0.0
 40
0
 41
0
  0
VERTEX
  8
0
 10
101.165
 20
327.192
 30
0.0
 40
0
 41
0
  0
VERTEX
  8
0
 10
104.927
 20
326.542
 30
0.0
 40
0
 41
0
  0
VERTEX
  8
0
 10
109.645
 20
326.1
 30
0.0
 40
0
 41
0
  0
VERTEX
  8
0
 10
114.712
 20
325.869
 30
0.0
 40
0
 41
0
  0
VERTEX
  8
0
 10
119.917
 20
325.766
 30
0.0
 40
0
 41
0
  0
VERTEX
  8
0
 10
125.191
 20
325.745
 30
0.0
 40
0
 41
0
  0
VERTEX
  8
0
 10
130.49
 20
325.771
 30
0.0
 40
0
 41
0
  0
VERTEX
  8
0
 10
135.813
 20
325.827
 30
0.0
 40
0
 41
0
  0
VERTEX
  8
0
 10
141.149
 20
325.907
 30
0.0
 40
0
 41
0
  0
VERTEX
  8
0
 10
146.488
 20
325.996
 30
0.0
 40
0
 41
0
  0
VERTEX
  8
0
 10
151.826
 20
326.105
 30
0.0
 40
0
 41
0
  0
VERTEX
  8
0
 10
157.167
 20
326.22
 30
0.0
 40
0
 41
0
  0
VERTEX
  8
0
 10
162.515
 20
326.347
 30
0.0
 40
0
 41
0
  0
VERTEX
  8
0
 10
167.858
 20
326.486
 30
0.0
 40
0
 41
0
  0
VERTEX
  8
0
 10
173.208
 20
326.627
 30
0.0
 40
0
 41
0
  0
VERTEX
  8
0
 10
178.558
 20
326.771
 30
0.0
 40
0
 41
0
  0
VERTEX
  8
0
 10
183.902
 20
326.921
 30
0.0
 40
0
 41
0
  0
VERTEX
  8
0
 10
189.252
 20
327.07
 30
0.0
 40
0
 41
0
  0
VERTEX
  8
0
 10
194.604
 20
327.232
 30
0.0
 40
0
 41
0
  0
VERTEX
  8
0
 10
199.957
 20
327.392
 30
0.0
 40
0
 41
0
  0
VERTEX
  8
0
 10
205.309
 20
327.557
 30
0.0
 40
0
 41
0
  0
VERTEX
  8
0
 10
210.661
 20
327.717
 30
0.0
 40
0
 41
0
  0
VERTEX
  8
0
 10
216.014
 20
327.884
 30
0.0
 40
0
 41
0
  0
VERTEX
  8
0
 10
221.366
 20
328.053
 30
0.0
 40
0
 41
0
  0
VERTEX
  8
0
 10
226.719
 20
328.223
 30
0.0
 40
0
 41
0
  0
VERTEX
  8
0
 10
231.774
 20
328.381
 30
0.0
 40
0
 41
0
  0
VERTEX
  8
0
 10
235.045
 20
328.475
 30
0.0
 40
0
 41
0
  0
VERTEX
  8
0
 10
235.639
 20
328.491
 30
0.0
 40
0
 41
0
  0
SEQEND
  8
0
  0
POLYLINE
8
0
 62
     254
 66
     1
 10
0
 20
0
 30
0.0
 70
     1
 40
0
 41
0
  0
VERTEX
  8
0
 10
235.676
 20
330.156
 30
0.0
 40
0
 41
0
  0
VERTEX
  8
0
 10
235.676
 20
328.508
 30
0.0
 40
0
 41
0
  0
VERTEX
  8
0
 10
210.54
 20
327.741
 30
0.0
 40
0
 41
0
  0
VERTEX
  8
0
 10
210.521
 20
330.922
 30
0.0
 40
0
 41
0
  0
VERTEX
  8
0
 10
235.676
 20
330.156
 30
0.0
 40
0
 41
0
  0
SEQEND
  8
0
  0
POLYLINE
8
0
 62
     0
 66
     1
 10
0
 20
0
 30
0.0
 70
     1
 40
0
 41
0
  0
VERTEX
  8
0
 10
235.676
 20
330.156
 30
0.0
 40
0
 41
0
  0
VERTEX
  8
0
 10
235.676
 20
328.508
 30
0.0
 40
0
 41
0
  0
VERTEX
  8
0
 10
210.54
 20
327.741
 30
0.0
 40
0
 41
0
  0
VERTEX
  8
0
 10
210.521
 20
330.922
 30
0.0
 40
0
 41
0
  0
VERTEX
  8
0
 10
235.676
 20
330.156
 30
0.0
 40
0
 41
0
  0
SEQEND
  8
0
  0
POLYLINE
8
0
 62
     254
 66
     1
 10
0
 20
0
 30
0.0
 70
     1
 40
0
 41
0
  0
VERTEX
  8
0
 10
138.026
 20
325.864
 30
0.0
 40
0
 41
0
  0
VERTEX
  8
0
 10
130.382
 20
325.788
 30
0.0
 40
0
 41
0
  0
VERTEX
  8
0
 10
123.638
 20
325.768
 30
0.0
 40
0
 41
0
  0
VERTEX
  8
0
 10
117.316
 20
325.826
 30
0.0
 40
0
 41
0
  0
VERTEX
  8
0
 10
113.178
 20
325.941
 30
0.0
 40
0
 41
0
  0
VERTEX
  8
0
 10
109.691
 20
326.094
 30
0.0
 40
0
 41
0
  0
VERTEX
  8
0
 10
106.55
 20
326.324
 30
0.0
 40
0
 41
0
  0
VERTEX
  8
0
 10
104.595
 20
326.554
 30
0.0
 40
0
 41
0
  0
VERTEX
  8
0
 10
102.756
 20
326.899
 30
0.0
 40
0
 41
0
  0
VERTEX
  8
0
 10
100.955
 20
327.243
 30
0.0
 40
0
 41
0
  0
VERTEX
  8
0
 10
99.1545
 20
327.78
 30
0.0
 40
0
 41
0
  0
VERTEX
  8
0
 10
98.3306
 20
328.201
 30
0.0
 40
0
 41
0
  0
VERTEX
  8
0
 10
97.8325
 20
328.546
 30
0.0
 40
0
 41
0
  0
VERTEX
  8
0
 10
97.5068
 20
328.987
 30
0.0
 40
0
 41
0
  0
VERTEX
  8
0
 10
97.3918
 20
329.351
 30
0.0
 40
0
 41
0
  0
VERTEX
  8
0
 10
97.4878
 20
329.677
 30
0.0
 40
0
 41
0
  0
VERTEX
  8
0
 10
97.7942
 20
330.098
 30
0.0
 40
0
 41
0
  0
VERTEX
  8
0
 10
98.3306
 20
330.462
 30
0.0
 40
0
 41
0
  0
VERTEX
  8
0
 10
99.1545
 20
330.884
 30
0.0
 40
0
 41
0
  0
VERTEX
  8
0
 10
101.032
 20
331.42
 30
0.0
 40
0
 41
0
  0
VERTEX
  8
0
 10
102.718
 20
331.765
 30
0.0
 40
0
 41
0
  0
VERTEX
  8
0
 10
104.404
 20
332.033
 30
0.0
 40
0
 41
0
  0
VERTEX
  8
0
 10
106.281
 20
332.301
 30
0.0
 40
0
 41
0
  0
VERTEX
  8
0
 10
109.691
 20
332.57
 30
0.0
 40
0
 41
0
  0
VERTEX
  8
0
 10
113.217
 20
332.761
 30
0.0
 40
0
 41
0
  0
VERTEX
  8
0
 10
117.508
 20
332.876
 30
0.0
 40
0
 41
0
  0
VERTEX
  8
0
 10
123.772
 20
332.934
 30
0.0
 40
0
 41
0
  0
VERTEX
  8
0
 10
130.42
 20
332.876
 30
0.0
 40
0
 41
0
  0
VERTEX
  8
0
 10
138.007
 20
332.799
 30
0.0
 40
0
 41
0
  0
VERTEX
  8
0
 10
138.026
 20
325.864
 30
0.0
 40
0
 41
0
  0
SEQEND
  8
0
  0
POLYLINE
8
0
 62
     0
 66
     1
 10
0
 20
0
 30
0.0
 70
     1
 40
0
 41
0
  0
VERTEX
  8
0
 10
138.026
 20
325.864
 30
0.0
 40
0
 41
0
  0
VERTEX
  8
0
 10
130.382
 20
325.788
 30
0.0
 40
0
 41
0
  0
VERTEX
  8
0
 10
123.638
 20
325.768
 30
0.0
 40
0
 41
0
  0
VERTEX
  8
0
 10
117.316
 20
325.826
 30
0.0
 40
0
 41
0
  0
VERTEX
  8
0
 10
113.178
 20
325.941
 30
0.0
 40
0
 41
0
  0
VERTEX
  8
0
 10
109.691
 20
326.094
 30
0.0
 40
0
 41
0
  0
VERTEX
  8
0
 10
106.55
 20
326.324
 30
0.0
 40
0
 41
0
  0
VERTEX
  8
0
 10
104.595
 20
326.554
 30
0.0
 40
0
 41
0
  0
VERTEX
  8
0
 10
102.756
 20
326.899
 30
0.0
 40
0
 41
0
  0
VERTEX
  8
0
 10
100.955
 20
327.243
 30
0.0
 40
0
 41
0
  0
VERTEX
  8
0
 10
99.1545
 20
327.78
 30
0.0
 40
0
 41
0
  0
VERTEX
  8
0
 10
98.3306
 20
328.201
 30
0.0
 40
0
 41
0
  0
VERTEX
  8
0
 10
97.8325
 20
328.546
 30
0.0
 40
0
 41
0
  0
VERTEX
  8
0
 10
97.5068
 20
328.987
 30
0.0
 40
0
 41
0
  0
VERTEX
  8
0
 10
97.3918
 20
329.351
 30
0.0
 40
0
 41
0
  0
VERTEX
  8
0
 10
97.4878
 20
329.677
 30
0.0
 40
0
 41
0
  0
VERTEX
  8
0
 10
97.7942
 20
330.098
 30
0.0
 40
0
 41
0
  0
VERTEX
  8
0
 10
98.3306
 20
330.462
 30
0.0
 40
0
 41
0
  0
VERTEX
  8
0
 10
99.1545
 20
330.884
 30
0.0
 40
0
 41
0
  0
VERTEX
  8
0
 10
101.032
 20
331.42
 30
0.0
 40
0
 41
0
  0
VERTEX
  8
0
 10
102.718
 20
331.765
 30
0.0
 40
0
 41
0
  0
VERTEX
  8
0
 10
104.404
 20
332.033
 30
0.0
 40
0
 41
0
  0
VERTEX
  8
0
 10
106.281
 20
332.301
 30
0.0
 40
0
 41
0
  0
VERTEX
  8
0
 10
109.691
 20
332.57
 30
0.0
 40
0
 41
0
  0
VERTEX
  8
0
 10
113.217
 20
332.761
 30
0.0
 40
0
 41
0
  0
VERTEX
  8
0
 10
117.508
 20
332.876
 30
0.0
 40
0
 41
0
  0
VERTEX
  8
0
 10
123.772
 20
332.934
 30
0.0
 40
0
 41
0
  0
VERTEX
  8
0
 10
130.42
 20
332.876
 30
0.0
 40
0
 41
0
  0
VERTEX
  8
0
 10
138.007
 20
332.799
 30
0.0
 40
0
 41
0
  0
VERTEX
  8
0
 10
138.026
 20
325.864
 30
0.0
 40
0
 41
0
  0
SEQEND
  8
0
  0
POLYLINE
8
0
 62
     7
 66
     1
 10
0
 20
0
 30
0.0
 70
     1
 40
0
 41
0
  0
VERTEX
  8
0
 10
137.961
 20
519.015
 30
0.0
 40
0
 41
0
  0
VERTEX
  8
0
 10
204.294
 20
475.952
 30
0.0
 40
0
 41
0
  0
VERTEX
  8
0
 10
217.4
 20
475.952
 30
0.0
 40
0
 41
0
  0
VERTEX
  8
0
 10
138
 20
527.268
 30
0.0
 40
0
 41
0
  0
VERTEX
  8
0
 10
137.961
 20
519.015
 30
0.0
 40
0
 41
0
  0
SEQEND
  8
0
  0
POLYLINE
8
0
 62
     0
 66
     1
 10
0
 20
0
 30
0.0
 70
     1
 40
0.305682
 41
0.305682
  0
VERTEX
  8
0
 10
137.961
 20
519.015
 30
0.0
 40
0.305682
 41
0.305682
  0
VERTEX
  8
0
 10
204.294
 20
475.952
 30
0.0
 40
0.305682
 41
0.305682
  0
VERTEX
  8
0
 10
217.4
 20
475.952
 30
0.0
 40
0.305682
 41
0.305682
  0
VERTEX
  8
0
 10
138
 20
527.268
 30
0.0
 40
0.305682
 41
0.305682
  0
VERTEX
  8
0
 10
137.961
 20
519.015
 30
0.0
 40
0.305682
 41
0.305682
  0
SEQEND
  8
0
  0
POLYLINE
8
0
 62
     7
 66
     1
 10
0
 20
0
 30
0.0
 70
     1
 40
0
 41
0
  0
VERTEX
  8
0
 10
138
 20
527.287
 30
0.0
 40
0
 41
0
  0
VERTEX
  8
0
 10
216.235
 20
578.126
 30
0.0
 40
0
 41
0
  0
VERTEX
  8
0
 10
206.53
 20
578.107
 30
0.0
 40
0
 41
0
  0
VERTEX
  8
0
 10
138.019
 20
533.611
 30
0.0
 40
0
 41
0
  0
VERTEX
  8
0
 10
138
 20
527.287
 30
0.0
 40
0
 41
0
  0
SEQEND
  8
0
  0
POLYLINE
8
0
 62
     0
 66
     1
 10
0
 20
0
 30
0.0
 70
     1
 40
0.305682
 41
0.305682
  0
VERTEX
  8
0
 10
138
 20
527.287
 30
0.0
 40
0.305682
 41
0.305682
  0
VERTEX
  8
0
 10
216.235
 20
578.126
 30
0.0
 40
0.305682
 41
0.305682
  0
VERTEX
  8
0
 10
206.53
 20
578.107
 30
0.0
 40
0.305682
 41
0.305682
  0
VERTEX
  8
0
 10
138.019
 20
533.611
 30
0.0
 40
0.305682
 41
0.305682
  0
VERTEX
  8
0
 10
138
 20
527.287
 30
0.0
 40
0.305682
 41
0.305682
  0
SEQEND
  8
0
  0
POLYLINE
8
0
 62
     7
 66
     1
 10
0
 20
0
 30
0.0
 70
     1
 40
0
 41
0
  0
VERTEX
  8
0
 10
141.15
 20
620.519
 30
0.0
 40
0
 41
0
  0
VERTEX
  8
0
 10
206.547
 20
578.105
 30
0.0
 40
0
 41
0
  0
VERTEX
  8
0
 10
216.233
 20
578.105
 30
0.0
 40
0
 41
0
  0
VERTEX
  8
0
 10
141.895
 20
626.46
 30
0.0
 40
0
 41
0
  0
VERTEX
  8
0
 10
141.15
 20
620.519
 30
0.0
 40
0
 41
0
  0
SEQEND
  8
0
  0
POLYLINE
8
0
 62
     0
 66
     1
 10
0
 20
0
 30
0.0
 70
     1
 40
0.305682
 41
0.305682
  0
VERTEX
  8
0
 10
141.15
 20
620.519
 30
0.0
 40
0.305682
 41
0.305682
  0
VERTEX
  8
0
 10
206.547
 20
578.105
 30
0.0
 40
0.305682
 41
0.305682
  0
VERTEX
  8
0
 10
216.233
 20
578.105
 30
0.0
 40
0.305682
 41
0.305682
  0
VERTEX
  8
0
 10
141.895
 20
626.46
 30
0.0
 40
0.305682
 41
0.305682
  0
VERTEX
  8
0
 10
141.15
 20
620.519
 30
0.0
 40
0.305682
 41
0.305682
  0
SEQEND
  8
0
  0
POLYLINE
8
0
 62
     7
 66
     1
 10
0
 20
0
 30
0.0
 70
     1
 40
0
 41
0
  0
VERTEX
  8
0
 10
159.665
 20
714.938
 30
0.0
 40
0
 41
0
  0
VERTEX
  8
0
 10
208.077
 20
673.804
 30
0.0
 40
0
 41
0
  0
VERTEX
  8
0
 10
214.573
 20
673.804
 30
0.0
 40
0
 41
0
  0
VERTEX
  8
0
 10
161.805
 20
717.594
 30
0.0
 40
0
 41
0
  0
VERTEX
  8
0
 10
159.665
 20
714.938
 30
0.0
 40
0
 41
0
  0
SEQEND
  8
0
  0
POLYLINE
8
0
 62
     0
 66
     1
 10
0
 20
0
 30
0.0
 70
     1
 40
0.305682
 41
0.305682
  0
VERTEX
  8
0
 10
159.665
 20
714.938
 30
0.0
 40
0.305682
 41
0.305682
  0
VERTEX
  8
0
 10
208.077
 20
673.804
 30
0.0
 40
0.305682
 41
0.305682
  0
VERTEX
  8
0
 10
214.573
 20
673.804
 30
0.0
 40
0.305682
 41
0.305682
  0
VERTEX
  8
0
 10
161.805
 20
717.594
 30
0.0
 40
0.305682
 41
0.305682
  0
VERTEX
  8
0
 10
159.665
 20
714.938
 30
0.0
 40
0.305682
 41
0.305682
  0
SEQEND
  8
0
  0
POLYLINE
8
0
 62
     7
 66
     1
 10
0
 20
0
 30
0.0
 70
     1
 40
0
 41
0
  0
VERTEX
  8
0
 10
138.038
 20
424.482
 30
0.0
 40
0
 41
0
  0
VERTEX
  8
0
 10
217.324
 20
475.913
 30
0.0
 40
0
 41
0
  0
VERTEX
  8
0
 10
204.333
 20
475.951
 30
0.0
 40
0
 41
0
  0
VERTEX
  8
0
 10
138.038
 20
433.042
 30
0.0
 40
0
 41
0
  0
VERTEX
  8
0
 10
138.038
 20
424.482
 30
0.0
 40
0
 41
0
  0
SEQEND
  8
0
  0
POLYLINE
8
0
 62
     0
 66
     1
 10
0
 20
0
 30
0.0
 70
     1
 40
0.305682
 41
0.305682
  0
VERTEX
  8
0
 10
138.038
 20
424.482
 30
0.0
 40
0.305682
 41
0.305682
  0
VERTEX
  8
0
 10
217.324
 20
475.913
 30
0.0
 40
0.305682
 41
0.305682
  0
VERTEX
  8
0
 10
204.333
 20
475.951
 30
0.0
 40
0.305682
 41
0.305682
  0
VERTEX
  8
0
 10
138.038
 20
433.042
 30
0.0
 40
0.305682
 41
0.305682
  0
VERTEX
  8
0
 10
138.038
 20
424.482
 30
0.0
 40
0.305682
 41
0.305682
  0
SEQEND
  8
0
  0
POLYLINE
8
0
 62
     7
 66
     1
 10
0
 20
0
 30
0.0
 70
     1
 40
0
 41
0
  0
VERTEX
  8
0
 10
120.842
 20
132.565
 30
0.0
 40
0
 41
0
  0
VERTEX
  8
0
 10
120.842
 20
143.6
 30
0.0
 40
0
 41
0
  0
VERTEX
  8
0
 10
233.032
 20
143.6
 30
0.0
 40
0
 41
0
  0
VERTEX
  8
0
 10
233.032
 20
132.565
 30
0.0
 40
0
 41
0
  0
VERTEX
  8
0
 10
120.842
 20
132.565
 30
0.0
 40
0
 41
0
  0
SEQEND
  8
0
  0
POLYLINE
8
0
 62
     254
 66
     1
 10
0
 20
0
 30
0.0
 70
     1
 40
0
 41
0
  0
VERTEX
  8
0
 10
145.353
 20
135.859
 30
0.0
 40
0
 41
0
  0
VERTEX
  8
0
 10
143.792
 20
135.859
 30
0.0
 40
0
 41
0
  0
VERTEX
  8
0
 10
141.785
 20
135.859
 30
0.0
 40
0
 41
0
  0
VERTEX
  8
0
 10
139.852
 20
135.933
 30
0.0
 40
0
 41
0
  0
VERTEX
  8
0
 10
137.659
 20
136.008
 30
0.0
 40
0
 41
0
  0
VERTEX
  8
0
 10
135.615
 20
136.156
 30
0.0
 40
0
 41
0
  0
VERTEX
  8
0
 10
133.496
 20
136.342
 30
0.0
 40
0
 41
0
  0
VERTEX
  8
0
 10
131.898
 20
136.639
 30
0.0
 40
0
 41
0
  0
VERTEX
  8
0
 10
130.597
 20
136.974
 30
0.0
 40
0
 41
0
  0
VERTEX
  8
0
 10
129.668
 20
137.42
 30
0.0
 40
0
 41
0
  0
VERTEX
  8
0
 10
129.222
 20
137.829
 30
0.0
 40
0
 41
0
  0
VERTEX
  8
0
 10
129.073
 20
138.163
 30
0.0
 40
0
 41
0
  0
VERTEX
  8
0
 10
129.073
 20
138.461
 30
0.0
 40
0
 41
0
  0
VERTEX
  8
0
 10
129.222
 20
138.758
 30
0.0
 40
0
 41
0
  0
VERTEX
  8
0
 10
129.557
 20
139.055
 30
0.0
 40
0
 41
0
  0
VERTEX
  8
0
 10
130.077
 20
139.39
 30
0.0
 40
0
 41
0
  0
VERTEX
  8
0
 10
130.635
 20
139.65
 30
0.0
 40
0
 41
0
  0
VERTEX
  8
0
 10
131.898
 20
139.947
 30
0.0
 40
0
 41
0
  0
VERTEX
  8
0
 10
133.236
 20
140.208
 30
0.0
 40
0
 41
0
  0
VERTEX
  8
0
 10
135.429
 20
140.468
 30
0.0
 40
0
 41
0
  0
VERTEX
  8
0
 10
137.957
 20
140.653
 30
0.0
 40
0
 41
0
  0
VERTEX
  8
0
 10
141.153
 20
140.728
 30
0.0
 40
0
 41
0
  0
VERTEX
  8
0
 10
145.204
 20
140.728
 30
0.0
 40
0
 41
0
  0
VERTEX
  8
0
 10
145.353
 20
135.859
 30
0.0
 40
0
 41
0
  0
SEQEND
  8
0
  0
POLYLINE
8
0
 62
     0
 66
     1
 10
0
 20
0
 30
0.0
 70
     1
 40
0
 41
0
  0
VERTEX
  8
0
 10
145.353
 20
135.859
 30
0.0
 40
0
 41
0
  0
VERTEX
  8
0
 10
143.792
 20
135.859
 30
0.0
 40
0
 41
0
  0
VERTEX
  8
0
 10
141.785
 20
135.859
 30
0.0
 40
0
 41
0
  0
VERTEX
  8
0
 10
139.852
 20
135.933
 30
0.0
 40
0
 41
0
  0
VERTEX
  8
0
 10
137.659
 20
136.008
 30
0.0
 40
0
 41
0
  0
VERTEX
  8
0
 10
135.615
 20
136.156
 30
0.0
 40
0
 41
0
  0
VERTEX
  8
0
 10
133.496
 20
136.342
 30
0.0
 40
0
 41
0
  0
VERTEX
  8
0
 10
131.898
 20
136.639
 30
0.0
 40
0
 41
0
  0
VERTEX
  8
0
 10
130.597
 20
136.974
 30
0.0
 40
0
 41
0
  0
VERTEX
  8
0
 10
129.668
 20
137.42
 30
0.0
 40
0
 41
0
  0
VERTEX
  8
0
 10
129.222
 20
137.829
 30
0.0
 40
0
 41
0
  0
VERTEX
  8
0
 10
129.073
 20
138.163
 30
0.0
 40
0
 41
0
  0
VERTEX
  8
0
 10
129.073
 20
138.461
 30
0.0
 40
0
 41
0
  0
VERTEX
  8
0
 10
129.222
 20
138.758
 30
0.0
 40
0
 41
0
  0
VERTEX
  8
0
 10
129.557
 20
139.055
 30
0.0
 40
0
 41
0
  0
VERTEX
  8
0
 10
130.077
 20
139.39
 30
0.0
 40
0
 41
0
  0
VERTEX
  8
0
 10
130.635
 20
139.65
 30
0.0
 40
0
 41
0
  0
VERTEX
  8
0
 10
131.898
 20
139.947
 30
0.0
 40
0
 41
0
  0
VERTEX
  8
0
 10
133.236
 20
140.208
 30
0.0
 40
0
 41
0
  0
VERTEX
  8
0
 10
135.429
 20
140.468
 30
0.0
 40
0
 41
0
  0
VERTEX
  8
0
 10
137.957
 20
140.653
 30
0.0
 40
0
 41
0
  0
VERTEX
  8
0
 10
141.153
 20
140.728
 30
0.0
 40
0
 41
0
  0
VERTEX
  8
0
 10
145.204
 20
140.728
 30
0.0
 40
0
 41
0
  0
VERTEX
  8
0
 10
145.353
 20
135.859
 30
0.0
 40
0
 41
0
  0
SEQEND
  8
0
  0
POLYLINE
8
0
 62
     0
 66
     1
 10
0
 20
0
 30
0.0
 40
0
 41
0
  0
VERTEX
  8
0
 10
227.593
 20
139.173
 30
0.0
 40
0
 41
0
  0
VERTEX
  8
0
 10
227.158
 20
139.182
 30
0.0
 40
0
 41
0
  0
VERTEX
  8
0
 10
224.764
 20
139.226
 30
0.0
 40
0
 41
0
  0
VERTEX
  8
0
 10
221.065
 20
139.293
 30
0.0
 40
0
 41
0
  0
VERTEX
  8
0
 10
217.143
 20
139.372
 30
0.0
 40
0
 41
0
  0
VERTEX
  8
0
 10
213.221
 20
139.458
 30
0.0
 40
0
 41
0
  0
VERTEX
  8
0
 10
209.303
 20
139.54
 30
0.0
 40
0
 41
0
  0
VERTEX
  8
0
 10
205.381
 20
139.625
 30
0.0
 40
0
 41
0
  0
VERTEX
  8
0
 10
201.457
 20
139.708
 30
0.0
 40
0
 41
0
  0
VERTEX
  8
0
 10
197.533
 20
139.794
 30
0.0
 40
0
 41
0
  0
VERTEX
  8
0
 10
193.609
 20
139.883
 30
0.0
 40
0
 41
0
  0
VERTEX
  8
0
 10
189.686
 20
139.972
 30
0.0
 40
0
 41
0
  0
VERTEX
  8
0
 10
185.762
 20
140.061
 30
0.0
 40
0
 41
0
  0
VERTEX
  8
0
 10
181.838
 20
140.148
 30
0.0
 40
0
 41
0
  0
VERTEX
  8
0
 10
177.914
 20
140.23
 30
0.0
 40
0
 41
0
  0
VERTEX
  8
0
 10
173.992
 20
140.315
 30
0.0
 40
0
 41
0
  0
VERTEX
  8
0
 10
170.076
 20
140.396
 30
0.0
 40
0
 41
0
  0
VERTEX
  8
0
 10
166.162
 20
140.475
 30
0.0
 40
0
 41
0
  0
VERTEX
  8
0
 10
162.246
 20
140.55
 30
0.0
 40
0
 41
0
  0
VERTEX
  8
0
 10
158.327
 20
140.615
 30
0.0
 40
0
 41
0
  0
VERTEX
  8
0
 10
154.42
 20
140.678
 30
0.0
 40
0
 41
0
  0
VERTEX
  8
0
 10
150.519
 20
140.728
 30
0.0
 40
0
 41
0
  0
VERTEX
  8
0
 10
146.636
 20
140.757
 30
0.0
 40
0
 41
0
  0
VERTEX
  8
0
 10
142.793
 20
140.761
 30
0.0
 40
0
 41
0
  0
VERTEX
  8
0
 10
139.064
 20
140.7
 30
0.0
 40
0
 41
0
  0
VERTEX
  8
0
 10
135.622
 20
140.512
 30
0.0
 40
0
 41
0
  0
VERTEX
  8
0
 10
132.771
 20
140.163
 30
0.0
 40
0
 41
0
  0
VERTEX
  8
0
 10
130.881
 20
139.722
 30
0.0
 40
0
 41
0
  0
VERTEX
  8
0
 10
129.854
 20
139.297
 30
0.0
 40
0
 41
0
  0
VERTEX
  8
0
 10
129.315
 20
138.899
 30
0.0
 40
0
 41
0
  0
VERTEX
  8
0
 10
129.072
 20
138.508
 30
0.0
 40
0
 41
0
  0
VERTEX
  8
0
 10
129.072
 20
138.104
 30
0.0
 40
0
 41
0
  0
VERTEX
  8
0
 10
129.315
 20
137.713
 30
0.0
 40
0
 41
0
  0
VERTEX
  8
0
 10
129.854
 20
137.315
 30
0.0
 40
0
 41
0
  0
VERTEX
  8
0
 10
130.881
 20
136.89
 30
0.0
 40
0
 41
0
  0
VERTEX
  8
0
 10
132.771
 20
136.449
 30
0.0
 40
0
 41
0
  0
VERTEX
  8
0
 10
135.622
 20
136.099
 30
0.0
 40
0
 41
0
  0
VERTEX
  8
0
 10
139.064
 20
135.912
 30
0.0
 40
0
 41
0
  0
VERTEX
  8
0
 10
142.793
 20
135.851
 30
0.0
 40
0
 41
0
  0
VERTEX
  8
0
 10
146.636
 20
135.854
 30
0.0
 40
0
 41
0
  0
VERTEX
  8
0
 10
150.519
 20
135.884
 30
0.0
 40
0
 41
0
  0
VERTEX
  8
0
 10
154.42
 20
135.933
 30
0.0
 40
0
 41
0
  0
VERTEX
  8
0
 10
158.327
 20
135.999
 30
0.0
 40
0
 41
0
  0
VERTEX
  8
0
 10
162.246
 20
136.068
 30
0.0
 40
0
 41
0
  0
VERTEX
  8
0
 10
166.162
 20
136.139
 30
0.0
 40
0
 41
0
  0
VERTEX
  8
0
 10
170.076
 20
136.216
 30
0.0
 40
0
 41
0
  0
VERTEX
  8
0
 10
173.992
 20
136.296
 30
0.0
 40
0
 41
0
  0
VERTEX
  8
0
 10
177.914
 20
136.382
 30
0.0
 40
0
 41
0
  0
VERTEX
  8
0
 10
181.838
 20
136.464
 30
0.0
 40
0
 41
0
  0
VERTEX
  8
0
 10
185.762
 20
136.551
 30
0.0
 40
0
 41
0
  0
VERTEX
  8
0
 10
189.686
 20
136.64
 30
0.0
 40
0
 41
0
  0
VERTEX
  8
0
 10
193.609
 20
136.729
 30
0.0
 40
0
 41
0
  0
VERTEX
  8
0
 10
197.533
 20
136.817
 30
0.0
 40
0
 41
0
  0
VERTEX
  8
0
 10
201.457
 20
136.904
 30
0.0
 40
0
 41
0
  0
VERTEX
  8
0
 10
205.381
 20
136.987
 30
0.0
 40
0
 41
0
  0
VERTEX
  8
0
 10
209.303
 20
137.074
 30
0.0
 40
0
 41
0
  0
VERTEX
  8
0
 10
213.221
 20
137.161
 30
0.0
 40
0
 41
0
  0
VERTEX
  8
0
 10
217.143
 20
137.241
 30
0.0
 40
0
 41
0
  0
VERTEX
  8
0
 10
221.065
 20
137.32
 30
0.0
 40
0
 41
0
  0
VERTEX
  8
0
 10
224.764
 20
137.392
 30
0.0
 40
0
 41
0
  0
VERTEX
  8
0
 10
227.158
 20
137.432
 30
0.0
 40
0
 41
0
  0
VERTEX
  8
0
 10
227.593
 20
137.438
 30
0.0
 40
0
 41
0
  0
SEQEND
  8
0
  0
POLYLINE
8
0
 62
     254
 66
     1
 10
0
 20
0
 30
0.0
 70
     1
 40
0
 41
0
  0
VERTEX
  8
0
 10
227.863
 20
139.167
 30
0.0
 40
0
 41
0
  0
VERTEX
  8
0
 10
227.9
 20
137.457
 30
0.0
 40
0
 41
0
  0
VERTEX
  8
0
 10
210.803
 20
137.16
 30
0.0
 40
0
 41
0
  0
VERTEX
  8
0
 10
210.803
 20
139.464
 30
0.0
 40
0
 41
0
  0
VERTEX
  8
0
 10
227.863
 20
139.167
 30
0.0
 40
0
 41
0
  0
SEQEND
  8
0
  0
POLYLINE
8
0
 62
     0
 66
     1
 10
0
 20
0
 30
0.0
 70
     1
 40
0
 41
0
  0
VERTEX
  8
0
 10
227.863
 20
139.167
 30
0.0
 40
0
 41
0
  0
VERTEX
  8
0
 10
227.9
 20
137.457
 30
0.0
 40
0
 41
0
  0
VERTEX
  8
0
 10
210.803
 20
137.16
 30
0.0
 40
0
 41
0
  0
VERTEX
  8
0
 10
210.803
 20
139.464
 30
0.0
 40
0
 41
0
  0
VERTEX
  8
0
 10
227.863
 20
139.167
 30
0.0
 40
0
 41
0
  0
SEQEND
  8
0
  0
POLYLINE
8
0
 62
     0
 66
     1
 10
0
 20
0
 30
0.0
 40
0
 41
0
  0
VERTEX
  8
0
 10
148.637
 20
395.443
 30
0.0
 40
0
 41
0
  0
VERTEX
  8
0
 10
148.044
 20
409.093
 30
0.0
 40
0
 41
0
  0
VERTEX
  8
0
 10
145.733
 20
421.196
 30
0.0
 40
0
 41
0
  0
VERTEX
  8
0
 10
143.669
 20
426.217
 30
0.0
 40
0
 41
0
  0
VERTEX
  8
0
 10
141.141
 20
430.294
 30
0.0
 40
0
 41
0
  0
VERTEX
  8
0
 10
138.375
 20
433.229
 30
0.0
 40
0
 41
0
  0
VERTEX
  8
0
 10
135.594
 20
434.825
 30
0.0
 40
0
 41
0
  0
VERTEX
  8
0
 10
132.944
 20
434.913
 30
0.0
 40
0
 41
0
  0
VERTEX
  8
0
 10
130.251
 20
433.449
 30
0.0
 40
0
 41
0
  0
VERTEX
  8
0
 10
127.262
 20
430.419
 30
0.0
 40
0
 41
0
  0
VERTEX
  8
0
 10
123.724
 20
425.807
 30
0.0
 40
0
 41
0
  0
VERTEX
  8
0
 10
119.576
 20
419.68
 30
0.0
 40
0
 41
0
  0
VERTEX
  8
0
 10
115.534
 20
412.418
 30
0.0
 40
0
 41
0
  0
VERTEX
  8
0
 10
112.504
 20
404.482
 30
0.0
 40
0
 41
0
  0
VERTEX
  8
0
 10
111.395
 20
396.334
 30
0.0
 40
0
 41
0
  0
VERTEX
  8
0
 10
112.802
 20
388.398
 30
0.0
 40
0
 41
0
  0
VERTEX
  8
0
 10
116.082
 20
380.951
 30
0.0
 40
0
 41
0
  0
VERTEX
  8
0
 10
120.278
 20
374.236
 30
0.0
 40
0
 41
0
  0
VERTEX
  8
0
 10
124.437
 20
368.492
 30
0.0
 40
0
 41
0
  0
VERTEX
  8
0
 10
127.819
 20
363.933
 30
0.0
 40
0
 41
0
  0
VERTEX
  8
0
 10
130.551
 20
360.662
 30
0.0
 40
0
 41
0
  0
VERTEX
  8
0
 10
132.977
 20
358.752
 30
0.0
 40
0
 41
0
  0
VERTEX
  8
0
 10
135.442
 20
358.277
 30
0.0
 40
0
 41
0
  0
VERTEX
  8
0
 10
138.183
 20
359.275
 30
0.0
 40
0
 41
0
  0
VERTEX
  8
0
 10
141.02
 20
361.639
 30
0.0
 40
0
 41
0
  0
VERTEX
  8
0
 10
143.666
 20
365.227
 30
0.0
 40
0
 41
0
  0
VERTEX
  8
0
 10
145.835
 20
369.893
 30
0.0
 40
0
 41
0
  0
VERTEX
  8
0
 10
148.172
 20
381.76
 30
0.0
 40
0
 41
0
  0
VERTEX
  8
0
 10
148.637
 20
395.443
 30
0.0
 40
0
 41
0
  0
SEQEND
  8
0
  0
POLYLINE
8
0
 62
     7
 66
     1
 10
0
 20
0
 30
0.0
 70
     1
 40
0
 41
0
  0
VERTEX
  8
0
 10
141.853
 20
626.397
 30
0.0
 40
0
 41
0
  0
VERTEX
  8
0
 10
214.624
 20
673.759
 30
0.0
 40
0
 41
0
  0
VERTEX
  8
0
 10
208.109
 20
673.797
 30
0.0
 40
0
 41
0
  0
VERTEX
  8
0
 10
142.426
 20
631.059
 30
0.0
 40
0
 41
0
  0
VERTEX
  8
0
 10
141.853
 20
626.397
 30
0.0
 40
0
 41
0
  0
SEQEND
  8
0
  0
POLYLINE
8
0
 62
     0
 66
     1
 10
0
 20
0
 30
0.0
 70
     1
 40
0.305682
 41
0.305682
  0
VERTEX
  8
0
 10
141.853
 20
626.397
 30
0.0
 40
0.305682
 41
0.305682
  0
VERTEX
  8
0
 10
214.624
 20
673.759
 30
0.0
 40
0.305682
 41
0.305682
  0
VERTEX
  8
0
 10
208.109
 20
673.797
 30
0.0
 40
0.305682
 41
0.305682
  0
VERTEX
  8
0
 10
142.426
 20
631.059
 30
0.0
 40
0.305682
 41
0.305682
  0
VERTEX
  8
0
 10
141.853
 20
626.397
 30
0.0
 40
0.305682
 41
0.305682
  0
SEQEND
  8
0
  0
TEXT
  8
0
 62
     0
 10
123.553
 20
73.7019
 30
0
 40
3.19438
  1
taper to 0.15" thick
 50
90
  0
POLYLINE
8
0
 62
     0
 66
     1
 10
0
 20
0
 30
0.0
 40
0
 41
0
  0
VERTEX
  8
0
 10
122.654
 20
69.9678
 30
0.0
 40
0
 41
0
  0
VERTEX
  8
0
 10
122.654
 20
67.8279
 30
0.0
 40
0
 41
0
  0
VERTEX
  8
0
 10
122.677
 20
65.9136
 30
0.0
 40
0
 41
0
  0
VERTEX
  8
0
 10
122.833
 20
63.7458
 30
0.0
 40
0
 41
0
  0
VERTEX
  8
0
 10
123.256
 20
61.8745
 30
0.0
 40
0
 41
0
  0
VERTEX
  8
0
 10
124.081
 20
60.8481
 30
0.0
 40
0
 41
0
  0
VERTEX
  8
0
 10
125.413
 20
61.0554
 30
0.0
 40
0
 41
0
  0
VERTEX
  8
0
 10
127.252
 20
62.2366
 30
0.0
 40
0
 41
0
  0
VERTEX
  8
0
 10
129.569
 20
63.9722
 30
0.0
 40
0
 41
0
  0
VERTEX
  8
0
 10
132.334
 20
65.8411
 30
0.0
 40
0
 41
0
  0
VERTEX
  8
0
 10
135.467
 20
67.4929
 30
0.0
 40
0
 41
0
  0
VERTEX
  8
0
 10
138.677
 20
68.8533
 30
0.0
 40
0
 41
0
  0
VERTEX
  8
0
 10
141.619
 20
69.9177
 30
0.0
 40
0
 41
0
  0
VERTEX
  8
0
 10
143.95
 20
70.6809
 30
0.0
 40
0
 41
0
  0
VERTEX
  8
0
 10
145.423
 20
71.1523
 30
0.0
 40
0
 41
0
  0
VERTEX
  8
0
 10
146.179
 20
71.3943
 30
0.0
 40
0
 41
0
  0
VERTEX
  8
0
 10
146.497
 20
71.4961
 30
0.0
 40
0
 41
0
  0
SEQEND
  8
0
  0
TEXT
  8
0
 62
     0
 10
228.261
 20
345.739
 30
0
 40
3.19438
  1
16:1 TE wedge taper
 50
90
  0
POLYLINE
8
0
 62
     0
 66
     1
 10
0
 20
0
 30
0.0
 40
0
 41
0
  0
VERTEX
  8
0
 10
227.503
 20
343.248
 30
0.0
 40
0
 41
0
  0
VERTEX
  8
0
 10
227.503
 20
342.585
 30
0.0
 40
0
 41
0
  0
VERTEX
  8
0
 10
227.382
 20
341.312
 30
0.0
 40
0
 41
0
  0
VERTEX
  8
0
 10
226.535
 20
340.344
 30
0.0
 40
0
 41
0
  0
VERTEX
  8
0
 10
225.654
 20
340.305
 30
0.0
 40
0
 41
0
  0
VERTEX
  8
0
 10
224.567
 20
340.382
 30
0.0
 40
0
 41
0
  0
VERTEX
  8
0
 10
223.433
 20
340.286
 30
0.0
 40
0
 41
0
  0
VERTEX
  8
0
 10
222.408
 20
339.732
 30
0.0
 40
0
 41
0
  0
VERTEX
  8
0
 10
221.618
 20
338.537
 30
0.0
 40
0
 41
0
  0
VERTEX
  8
0
 10
221.052
 20
336.93
 30
0.0
 40
0
 41
0
  0
VERTEX
  8
0
 10
220.667
 20
335.247
 30
0.0
 40
0
 41
0
  0
VERTEX
  8
0
 10
220.421
 20
333.822
 30
0.0
 40
0
 41
0
  0
VERTEX
  8
0
 10
220.198
 20
332.44
 30
0.0
 40
0
 41
0
  0
VERTEX
  8
0
 10
220.167
 20
332.243
 30
0.0
 40
0
 41
0
  0
SEQEND
  8
0
  0
POLYLINE
8
0
 62
     7
 66
     1
 10
0
 20
0
 30
0.0
 40
0
 41
0
  0
VERTEX
  8
0
 10
221.407
 20
335.139
 30
0.0
 40
0
 41
0
  0
VERTEX
  8
0
 10
220.167
 20
332.243
 30
0.0
 40
0
 41
0
  0
VERTEX
  8
0
 10
219.899
 20
335.382
 30
0.0
 40
0
 41
0
  0
SEQEND
  8
0
  0
POLYLINE
8
0
 62
     0
 66
     1
 10
0
 20
0
 30
0.0
 40
0
 41
0
  0
VERTEX
  8
0
 10
221.407
 20
335.139
 30
0.0
 40
0
 41
0
  0
VERTEX
  8
0
 10
220.167
 20
332.243
 30
0.0
 40
0
 41
0
  0
VERTEX
  8
0
 10
219.899
 20
335.382
 30
0.0
 40
0
 41
0
  0
SEQEND
  8
0
  0
POLYLINE
8
0
 62
     0
 66
     1
 10
0
 20
0
 30
0.0
 40
0
 41
0
  0
VERTEX
  8
0
 10
138.014
 20
276.991
 30
0.0
 40
0
 41
0
  0
VERTEX
  8
0
 10
138.065
 20
276.8
 30
0.0
 40
0
 41
0
  0
VERTEX
  8
0
 10
138.345
 20
275.844
 30
0.0
 40
0
 41
0
  0
VERTEX
  8
0
 10
138.855
 20
274.813
 30
0.0
 40
0
 41
0
  0
VERTEX
  8
0
 10
139.823
 20
274.405
 30
0.0
 40
0
 41
0
  0
VERTEX
  8
0
 10
141.097
 20
274.686
 30
0.0
 40
0
 41
0
  0
VERTEX
  8
0
 10
141.377
 20
274.775
 30
0.0
 40
0
 41
0
  0
SEQEND
  8
0
  0
POLYLINE
8
0
 62
     0
 66
     1
 10
0
 20
0
 30
0.0
 40
0
 41
0
  0
VERTEX
  8
0
 10
141.759
 20
266.827
 30
0.0
 40
0
 41
0
  0
VERTEX
  8
0
 10
141.53
 20
266.61
 30
0.0
 40
0
 41
0
  0
VERTEX
  8
0
 10
140.587
 20
265.4
 30
0.0
 40
0
 41
0
  0
VERTEX
  8
0
 10
140.511
 20
263.566
 30
0.0
 40
0
 41
0
  0
VERTEX
  8
0
 10
141.504
 20
262.254
 30
0.0
 40
0
 41
0
  0
VERTEX
  8
0
 10
141.759
 20
262.012
 30
0.0
 40
0
 41
0
  0
SEQEND
  8
0
  0
POLYLINE
8
0
 62
     0
 66
     1
 10
0
 20
0
 30
0.0
 40
0
 41
0
  0
VERTEX
  8
0
 10
138.033
 20
254.122
 30
0.0
 40
0
 41
0
  0
VERTEX
  8
0
 10
138.081
 20
254.364
 30
0.0
 40
0
 41
0
  0
VERTEX
  8
0
 10
138.451
 20
255.456
 30
0.0
 40
0
 41
0
  0
VERTEX
  8
0
 10
139.492
 20
256.15
 30
0.0
 40
0
 41
0
  0
VERTEX
  8
0
 10
140.791
 20
256.096
 30
0.0
 40
0
 41
0
  0
VERTEX
  8
0
 10
141.071
 20
256.052
 30
0.0
 40
0
 41
0
  0
SEQEND
  8
0
  0
POLYLINE
8
0
 62
     7
 66
     1
 10
0
 20
0
 30
0.0
 70
     1
 40
0
 41
0
  0
VERTEX
  8
0
 10
153.551
 20
268.584
 30
0.0
 40
0
 41
0
  0
VERTEX
  8
0
 10
153.551
 20
292.428
 30
0.0
 40
0
 41
0
  0
VERTEX
  8
0
 10
163.088
 20
292.428
 30
0.0
 40
0
 41
0
  0
VERTEX
  8
0
 10
163.088
 20
268.584
 30
0.0
 40
0
 41
0
  0
VERTEX
  8
0
 10
153.551
 20
268.584
 30
0.0
 40
0
 41
0
  0
SEQEND
  8
0
  0
TEXT
  8
0
 62
     0
 10
223.719
 20
428.229
 30
0
 40
3.19438
  1
1/8" sheet
 50
90
  0
TEXT
  8
0
 62
     0
 10
226.913
 20
428.229
 30
0
 40
3.19438
  1
C-grain for chordwise stiffness
 50
90
  0
POLYLINE
8
0
 62
     0
 66
     1
 10
0
 20
0
 30
0.0
 40
0
 41
0
  0
VERTEX
  8
0
 10
158.19
 20
268.584
 30
0.0
 40
0
 41
0
  0
VERTEX
  8
0
 10
158.183
 20
268.438
 30
0.0
 40
0
 41
0
  0
VERTEX
  8
0
 10
158.139
 20
267.413
 30
0.0
 40
0
 41
0
  0
VERTEX
  8
0
 10
158.073
 20
266.369
 30
0.0
 40
0
 41
0
  0
VERTEX
  8
0
 10
157.877
 20
265.216
 30
0.0
 40
0
 41
0
  0
VERTEX
  8
0
 10
157.444
 20
264.282
 30
0.0
 40
0
 41
0
  0
VERTEX
  8
0
 10
156.661
 20
263.897
 30
0.0
 40
0
 41
0
  0
VERTEX
  8
0
 10
155.458
 20
264.273
 30
0.0
 40
0
 41
0
  0
VERTEX
  8
0
 10
153.917
 20
265.146
 30
0.0
 40
0
 41
0
  0
VERTEX
  8
0
 10
152.155
 20
266.133
 30
0.0
 40
0
 41
0
  0
VERTEX
  8
0
 10
150.293
 20
266.852
 30
0.0
 40
0
 41
0
  0
VERTEX
  8
0
 10
148.448
 20
267.022
 30
0.0
 40
0
 41
0
  0
VERTEX
  8
0
 10
146.733
 20
266.757
 30
0.0
 40
0
 41
0
  0
VERTEX
  8
0
 10
145.256
 20
266.272
 30
0.0
 40
0
 41
0
  0
VERTEX
  8
0
 10
144.128
 20
265.782
 30
0.0
 40
0
 41
0
  0
VERTEX
  8
0
 10
143.058
 20
265.292
 30
0.0
 40
0
 41
0
  0
VERTEX
  8
0
 10
142.906
 20
265.222
 30
0.0
 40
0
 41
0
  0
SEQEND
  8
0
  0
TEXT
  8
0
 62
     0
 10
157.964
 20
270.579
 30
0
 40
3.19438
  1
use generous glue fillets
 50
90
  0
TEXT
  8
0
 62
     0
 10
161.158
 20
270.579
 30
0
 40
3.19438
  1
for all rib-LE joints
 50
90
  0
TEXT
  8
0
 62
     0
 10
117.774
 20
251.965
 30
0
 40
3.19438
  1
1/4" sheet
 50
90
  0
TEXT
  8
0
 62
     0
 10
120.969
 20
251.965
 30
0
 40
3.19438
  1
C-grain gives stronger
 50
90
  0
TEXT
  8
0
 62
     0
 10
124.163
 20
251.965
 30
0
 40
3.19438
  1
rib-LE joints
 50
90
  0
TEXT
  8
0
 62
     0
 10
231.363
 20
246.077
 30
0
 40
3.19437
  1
1/16" TE thickness everywhere
 50
88.7069
  0
TEXT
  8
0
 62
     0
 10
69.5208
 20
298.626
 30
0
 40
4.27955
  1
LE tangent-slope
 50
90
  0
TEXT
  8
0
 62
     0
 10
73.8003
 20
298.626
 30
0
 40
4.27955
  1
shaping data
 50
90
  0
TEXT
  8
0
 62
     0
 10
56.4321
 20
340.688
 30
0
 40
3.3625
  1
HT21  5.0%t
 50
90
  0
TEXT
  8
0
 62
     0
 10
108.506
 20
344.92
 30
0
 40
3.19438
  1
6-32 Nylon bolt
 50
90
  0
POLYLINE
8
0
 62
     0
 66
     1
 10
0
 20
0
 30
0.0
 40
0
 41
0
  0
VERTEX
  8
0
 10
107.752
 20
373.892
 30
0.0
 40
0
 41
0
  0
VERTEX
  8
0
 10
107.758
 20
374.031
 30
0.0
 40
0
 41
0
  0
VERTEX
  8
0
 10
107.803
 20
375.006
 30
0.0
 40
0
 41
0
  0
VERTEX
  8
0
 10
107.873
 20
376.004
 30
0.0
 40
0
 41
0
  0
VERTEX
  8
0
 10
108.097
 20
377.132
 30
0.0
 40
0
 41
0
  0
VERTEX
  8
0
 10
108.608
 20
378.105
 30
0.0
 40
0
 41
0
  0
VERTEX
  8
0
 10
109.542
 20
378.636
 30
0.0
 40
0
 41
0
  0
VERTEX
  8
0
 10
110.976
 20
378.555
 30
0.0
 40
0
 41
0
  0
VERTEX
  8
0
 10
112.768
 20
378.148
 30
0.0
 40
0
 41
0
  0
VERTEX
  8
0
 10
114.719
 20
377.823
 30
0.0
 40
0
 41
0
  0
VERTEX
  8
0
 10
116.63
 20
377.98
 30
0.0
 40
0
 41
0
  0
VERTEX
  8
0
 10
118.331
 20
378.898
 30
0.0
 40
0
 41
0
  0
VERTEX
  8
0
 10
119.768
 20
380.338
 30
0.0
 40
0
 41
0
  0
VERTEX
  8
0
 10
120.918
 20
381.933
 30
0.0
 40
0
 41
0
  0
VERTEX
  8
0
 10
121.756
 20
383.317
 30
0.0
 40
0
 41
0
  0
VERTEX
  8
0
 10
122.542
 20
384.666
 30
0.0
 40
0
 41
0
  0
VERTEX
  8
0
 10
122.654
 20
384.858
 30
0.0
 40
0
 41
0
  0
SEQEND
  8
0
  0
POLYLINE
8
0
 62
     7
 66
     1
 10
0
 20
0
 30
0.0
 40
0
 41
0
  0
VERTEX
  8
0
 10
120.455
 20
382.602
 30
0.0
 40
0
 41
0
  0
VERTEX
  8
0
 10
122.654
 20
384.858
 30
0.0
 40
0
 41
0
  0
VERTEX
  8
0
 10
121.775
 20
381.833
 30
0.0
 40
0
 41
0
  0
SEQEND
  8
0
  0
POLYLINE
8
0
 62
     0
 66
     1
 10
0
 20
0
 30
0.0
 40
0
 41
0
  0
VERTEX
  8
0
 10
120.455
 20
382.602
 30
0.0
 40
0
 41
0
  0
VERTEX
  8
0
 10
122.654
 20
384.858
 30
0.0
 40
0
 41
0
  0
VERTEX
  8
0
 10
121.775
 20
381.833
 30
0.0
 40
0
 41
0
  0
SEQEND
  8
0
  0
POLYLINE
8
0
 62
     0
 66
     1
 10
0
 20
0
 30
0.0
 70
     1
 40
0
 41
0
  0
VERTEX
  8
0
 10
123.979
 20
387.304
 30
0.0
 40
0
 41
0
  0
VERTEX
  8
0
 10
123.979
 20
403.887
 30
0.0
 40
0
 41
0
  0
VERTEX
  8
0
 10
135.06
 20
403.887
 30
0.0
 40
0
 41
0
  0
VERTEX
  8
0
 10
135.06
 20
387.304
 30
0.0
 40
0
 41
0
  0
VERTEX
  8
0
 10
123.979
 20
387.304
 30
0.0
 40
0
 41
0
  0
SEQEND
  8
0
  0
POLYLINE
8
0
 62
     0
 66
     1
 10
0
 20
0
 30
0.0
 40
0
 41
0
  0
VERTEX
  8
0
 10
135.951
 20
448.135
 30
0.0
 40
0
 41
0
  0
VERTEX
  8
0
 10
135.951
 20
343.133
 30
0.0
 40
0
 41
0
  0
SEQEND
  8
0
  0
POLYLINE
8
0
 62
     0
 66
     1
 10
0
 20
0
 30
0.0
 40
0
 41
0
  0
VERTEX
  8
0
 10
124.335
 20
433.156
 30
0.0
 40
0
 41
0
  0
VERTEX
  8
0
 10
124.341
 20
432.94
 30
0.0
 40
0
 41
0
  0
VERTEX
  8
0
 10
124.386
 20
431.424
 30
0.0
 40
0
 41
0
  0
VERTEX
  8
0
 10
124.444
 20
429.862
 30
0.0
 40
0
 41
0
  0
VERTEX
  8
0
 10
124.583
 20
428.023
 30
0.0
 40
0
 41
0
  0
VERTEX
  8
0
 10
124.866
 20
426.28
 30
0.0
 40
0
 41
0
  0
VERTEX
  8
0
 10
125.354
 20
425.005
 30
0.0
 40
0
 41
0
  0
VERTEX
  8
0
 10
126.086
 20
424.437
 30
0.0
 40
0
 41
0
  0
VERTEX
  8
0
 10
128.048
 20
424.113
 30
0.0
 40
0
 41
0
  0
VERTEX
  8
0
 10
129.124
 20
423.502
 30
0.0
 40
0
 41
0
  0
VERTEX
  8
0
 10
130.166
 20
422.157
 30
0.0
 40
0
 41
0
  0
VERTEX
  8
0
 10
131.117
 20
420.33
 30
0.0
 40
0
 41
0
  0
VERTEX
  8
0
 10
131.925
 20
418.408
 30
0.0
 40
0
 41
0
  0
VERTEX
  8
0
 10
132.538
 20
416.777
 30
0.0
 40
0
 41
0
  0
VERTEX
  8
0
 10
133.117
 20
415.194
 30
0.0
 40
0
 41
0
  0
VERTEX
  8
0
 10
133.2
 20
414.968
 30
0.0
 40
0
 41
0
  0
SEQEND
  8
0
  0
TEXT
  8
0
 62
     0
 10
144.577
 20
450.687
 30
0
 40
3.19438
  1
hinge axis
 50
90
  0
POLYLINE
8
0
 62
     0
 66
     1
 10
0
 20
0
 30
0.0
 40
0
 41
0
  0
VERTEX
  8
0
 10
143.593
 20
448.746
 30
0.0
 40
0
 41
0
  0
VERTEX
  8
0
 10
143.568
 20
447.854
 30
0.0
 40
0
 41
0
  0
VERTEX
  8
0
 10
143.45
 20
446.164
 30
0.0
 40
0
 41
0
  0
VERTEX
  8
0
 10
142.931
 20
445.027
 30
0.0
 40
0
 41
0
  0
VERTEX
  8
0
 10
141.756
 20
445.667
 30
0.0
 40
0
 41
0
  0
VERTEX
  8
0
 10
140.103
 20
446.632
 30
0.0
 40
0
 41
0
  0
VERTEX
  8
0
 10
138.31
 20
446.361
 30
0.0
 40
0
 41
0
  0
VERTEX
  8
0
 10
136.919
 20
445.536
 30
0.0
 40
0
 41
0
  0
VERTEX
  8
0
 10
136.339
 20
445.135
 30
0.0
 40
0
 41
0
  0
VERTEX
  8
0
 10
136.257
 20
445.078
 30
0.0
 40
0
 41
0
  0
SEQEND
  8
0
  0
POLYLINE
8
0
 62
     0
 66
     1
 10
0
 20
0
 30
0.0
 40
0
 41
0
  0
VERTEX
  8
0
 10
123.265
 20
360.098
 30
0.0
 40
0
 41
0
  0
VERTEX
  8
0
 10
123.265
 20
360.786
 30
0.0
 40
0
 41
0
  0
VERTEX
  8
0
 10
123.329
 20
362.133
 30
0.0
 40
0
 41
0
  0
VERTEX
  8
0
 10
123.775
 20
363.308
 30
0.0
 40
0
 41
0
  0
VERTEX
  8
0
 10
124.806
 20
363.499
 30
0.0
 40
0
 41
0
  0
VERTEX
  8
0
 10
125.914
 20
363.461
 30
0.0
 40
0
 41
0
  0
VERTEX
  8
0
 10
126.564
 20
364.024
 30
0.0
 40
0
 41
0
  0
VERTEX
  8
0
 10
126.832
 20
364.76
 30
0.0
 40
0
 41
0
  0
VERTEX
  8
0
 10
126.933
 20
365.142
 30
0.0
 40
0
 41
0
  0
SEQEND
  8
0
  0
TEXT
  8
0
 62
     0
 10
124.096
 20
338.196
 30
0
 40
3.19438
  1
0.75oz glass
 50
90
  0
TEXT
  8
0
 62
     0
 10
127.291
 20
338.196
 30
0
 40
3.19438
  1
top & bottom
 50
90
  0
TEXT
  8
0
 62
     0
 10
106.52
 20
407.432
 30
0
 40
3.19438
  1
1/64" ply on top
 50
90
  0
POLYLINE
8
0
 62
     0
 66
     1
 10
0
 20
0
 30
0.0
 40
0
 41
0
  0
VERTEX
  8
0
 10
105.23
 20
404.881
 30
0.0
 40
0
 41
0
  0
VERTEX
  8
0
 10
105.255
 20
403.938
 30
0.0
 40
0
 41
0
  0
VERTEX
  8
0
 10
105.315
 20
403.111
 30
0.0
 40
0
 41
0
  0
VERTEX
  8
0
 10
105.602
 20
402.266
 30
0.0
 40
0
 41
0
  0
VERTEX
  8
0
 10
106.333
 20
401.742
 30
0.0
 40
0
 41
0
  0
VERTEX
  8
0
 10
107.726
 20
401.875
 30
0.0
 40
0
 41
0
  0
VERTEX
  8
0
 10
109.899
 20
402.863
 30
0.0
 40
0
 41
0
  0
VERTEX
  8
0
 10
112.579
 20
404.352
 30
0.0
 40
0
 41
0
  0
VERTEX
  8
0
 10
115.392
 20
405.851
 30
0.0
 40
0
 41
0
  0
VERTEX
  8
0
 10
117.967
 20
406.867
 30
0.0
 40
0
 41
0
  0
VERTEX
  8
0
 10
120.006
 20
407.046
 30
0.0
 40
0
 41
0
  0
VERTEX
  8
0
 10
121.517
 20
406.578
 30
0.0
 40
0
 41
0
  0
VERTEX
  8
0
 10
122.584
 20
405.789
 30
0.0
 40
0
 41
0
  0
VERTEX
  8
0
 10
123.291
 20
405.008
 30
0.0
 40
0
 41
0
  0
VERTEX
  8
0
 10
123.937
 20
404.228
 30
0.0
 40
0
 41
0
  0
VERTEX
  8
0
 10
124.029
 20
404.116
 30
0.0
 40
0
 41
0
  0
SEQEND
  8
0
  0
POLYLINE
8
0
 62
     8
 66
     1
 10
0
 20
0
 30
0.0
 70
     1
 40
0
 41
0
  0
VERTEX
  8
0
 10
134.748
 20
332.95
 30
0.0
 40
0
 41
0
  0
VERTEX
  8
0
 10
131.977
 20
333.5
 30
0.0
 40
0
 41
0
  0
VERTEX
  8
0
 10
126.456
 20
333.5
 30
0.0
 40
0
 41
0
  0
VERTEX
  8
0
 10
123.686
 20
332.95
 30
0.0
 40
0
 41
0
  0
VERTEX
  8
0
 10
134.748
 20
332.95
 30
0.0
 40
0
 41
0
  0
SEQEND
  8
0
  0
POLYLINE
8
0
 62
     0
 66
     1
 10
0
 20
0
 30
0.0
 70
     1
 40
0
 41
0
  0
VERTEX
  8
0
 10
134.748
 20
332.95
 30
0.0
 40
0
 41
0
  0
VERTEX
  8
0
 10
131.977
 20
333.5
 30
0.0
 40
0
 41
0
  0
VERTEX
  8
0
 10
126.456
 20
333.5
 30
0.0
 40
0
 41
0
  0
VERTEX
  8
0
 10
123.686
 20
332.95
 30
0.0
 40
0
 41
0
  0
VERTEX
  8
0
 10
134.748
 20
332.95
 30
0.0
 40
0
 41
0
  0
SEQEND
  8
0
  0
ENDSEC
  0
EOF
