  0
SECTION
  2
HEADER
  9
$ACADVER
  1
AC1009
  9
$EXTMIN
 10
0.0
 20
0.0
 30
0.0
  9
$EXTMAX
 10
1000.0
 20
1000.0
 30
0.0
  9
$FILLMODE
 70
 0
  9
$SPLFRAME
 70
 1
  0
ENDSEC
  0
SECTION
  2
TABLES
  0
TABLE
  2
LAYER
 70
   255
  0
LAYER
  2
0
 70
     0
 62
     7
  6
CONTINUOUS
  0
ENDTAB
  0
ENDSEC
  0
SECTION
  2
ENTITIES
  0
POLYLINE
8
0
 62
     0
 66
     1
 10
0
 20
0
 30
0.0
 40
0.796472
 41
0.796472
  0
VERTEX
  8
0
 10
243.919
 20
430.294
 30
0.0
 40
0.796472
 41
0.796472
  0
VERTEX
  8
0
 10
215.246
 20
399.829
 30
0.0
 40
0.796472
 41
0.796472
  0
SEQEND
  8
0
  0
POLYLINE
8
0
 62
     0
 66
     1
 10
0
 20
0
 30
0.0
 40
0.796472
 41
0.796472
  0
VERTEX
  8
0
 10
243.521
 20
383.501
 30
0.0
 40
0.796472
 41
0.796472
  0
VERTEX
  8
0
 10
252.481
 20
383.501
 30
0.0
 40
0.796472
 41
0.796472
  0
VERTEX
  8
0
 10
252.481
 20
365.382
 30
0.0
 40
0.796472
 41
0.796472
  0
VERTEX
  8
0
 10
243.72
 20
365.382
 30
0.0
 40
0.796472
 41
0.796472
  0
SEQEND
  8
0
  0
POLYLINE
8
0
 62
     0
 66
     1
 10
0
 20
0
 30
0.0
 40
0.796472
 41
0.796472
  0
VERTEX
  8
0
 10
178.21
 20
1031.83
 30
0.0
 40
0.796472
 41
0.796472
  0
VERTEX
  8
0
 10
80.344
 20
390.072
 30
0.0
 40
0.796472
 41
0.796472
  0
SEQEND
  8
0
  0
POLYLINE
8
0
 62
     0
 66
     1
 10
0
 20
0
 30
0.0
 40
0.796472
 41
0.796472
  0
VERTEX
  8
0
 10
478.679
 20
204.892
 30
0.0
 40
0.796472
 41
0.796472
  0
VERTEX
  8
0
 10
292.006
 20
149.239
 30
0.0
 40
0.796472
 41
0.796472
  0
SEQEND
  8
0
  0
POLYLINE
8
0
 62
     0
 66
     1
 10
0
 20
0
 30
0.0
 40
0.796472
 41
0.796472
  0
VERTEX
  8
0
 10
519.698
 20
373.545
 30
0.0
 40
0.796472
 41
0.796472
  0
VERTEX
  8
0
 10
478.679
 20
205.291
 30
0.0
 40
0.796472
 41
0.796472
  0
SEQEND
  8
0
  0
POLYLINE
8
0
 62
     0
 66
     1
 10
0
 20
0
 30
0.0
 40
0.796472
 41
0.796472
  0
VERTEX
  8
0
 10
296.984
 20
329.938
 30
0.0
 40
0.796472
 41
0.796472
  0
VERTEX
  8
0
 10
327.648
 20
348.257
 30
0.0
 40
0.796472
 41
0.796472
  0
SEQEND
  8
0
  0
POLYLINE
8
0
 62
     0
 66
     1
 10
0
 20
0
 30
0.0
 40
0.796472
 41
0.796472
  0
VERTEX
  8
0
 10
519.598
 20
373.705
 30
0.0
 40
0.796472
 41
0.796472
  0
VERTEX
  8
0
 10
389.375
 20
1100.29
 30
0.0
 40
0.796472
 41
0.796472
  0
SEQEND
  8
0
  0
POLYLINE
8
0
 62
     0
 66
     1
 10
0
 20
0
 30
0.0
 40
0.796472
 41
0.796472
  0
VERTEX
  8
0
 10
516.776
 20
168.292
 30
0.0
 40
0.796472
 41
0.796472
  0
VERTEX
  8
0
 10
584.864
 20
373.554
 30
0.0
 40
0.796472
 41
0.796472
  0
VERTEX
  8
0
 10
414.544
 20
1130.71
 30
0.0
 40
0.796472
 41
0.796472
  0
SEQEND
  8
0
  0
POLYLINE
8
0
 62
     0
 66
     1
 10
0
 20
0
 30
0.0
 40
0.796472
 41
0.796472
  0
VERTEX
  8
0
 10
269.683
 20
1130.31
 30
0.0
 40
0.796472
 41
0.796472
  0
VERTEX
  8
0
 10
269.683
 20
122.277
 30
0.0
 40
0.796472
 41
0.796472
  0
SEQEND
  8
0
  0
POLYLINE
8
0
 62
     0
 66
     1
 10
0
 20
0
 30
0.0
 40
0.796472
 41
0.796472
  0
VERTEX
  8
0
 10
271.78
 20
1130.51
 30
0.0
 40
0.796472
 41
0.796472
  0
VERTEX
  8
0
 10
271.78
 20
122.277
 30
0.0
 40
0.796472
 41
0.796472
  0
SEQEND
  8
0
  0
POLYLINE
8
0
 62
     0
 66
     1
 10
0
 20
0
 30
0.0
 40
0.796472
 41
0.796472
  0
VERTEX
  8
0
 10
38.4111
 20
1110.18
 30
0.0
 40
0.796472
 41
0.796472
  0
VERTEX
  8
0
 10
38.4812
 20
1112.62
 30
0.0
 40
0.796472
 41
0.796472
  0
VERTEX
  8
0
 10
38.5503
 20
1114.85
 30
0.0
 40
0.796472
 41
0.796472
  0
VERTEX
  8
0
 10
38.8513
 20
1120.65
 30
0.0
 40
0.796472
 41
0.796472
  0
VERTEX
  8
0
 10
39.1252
 20
1123.51
 30
0.0
 40
0.796472
 41
0.796472
  0
VERTEX
  8
0
 10
40.0161
 20
1127.89
 30
0.0
 40
0.796472
 41
0.796472
  0
VERTEX
  8
0
 10
41.4636
 20
1130.48
 30
0.0
 40
0.796472
 41
0.796472
  0
VERTEX
  8
0
 10
43.457
 20
1131.42
 30
0.0
 40
0.796472
 41
0.796472
  0
VERTEX
  8
0
 10
45.4822
 20
1130.7
 30
0.0
 40
0.796472
 41
0.796472
  0
VERTEX
  8
0
 10
47.0117
 20
1128.25
 30
0.0
 40
0.796472
 41
0.796472
  0
VERTEX
  8
0
 10
47.9744
 20
1123.83
 30
0.0
 40
0.796472
 41
0.796472
  0
VERTEX
  8
0
 10
48.2598
 20
1120.87
 30
0.0
 40
0.796472
 41
0.796472
  0
VERTEX
  8
0
 10
48.4417
 20
1117.74
 30
0.0
 40
0.796472
 41
0.796472
  0
VERTEX
  8
0
 10
48.5474
 20
1114.81
 30
0.0
 40
0.796472
 41
0.796472
  0
VERTEX
  8
0
 10
48.6045
 20
1112.46
 30
0.0
 40
0.796472
 41
0.796472
  0
VERTEX
  8
0
 10
48.6536
 20
1110.21
 30
0.0
 40
0.796472
 41
0.796472
  0
VERTEX
  8
0
 10
48.6606
 20
1109.89
 30
0.0
 40
0.796472
 41
0.796472
  0
SEQEND
  8
0
  0
POLYLINE
8
0
 62
     0
 66
     1
 10
0
 20
0
 30
0.0
 40
0.796472
 41
0.796472
  0
VERTEX
  8
0
 10
35.2012
 20
135.719
 30
0.0
 40
0.796472
 41
0.796472
  0
VERTEX
  8
0
 10
35.2246
 20
134.463
 30
0.0
 40
0.796472
 41
0.796472
  0
VERTEX
  8
0
 10
35.3306
 20
131.83
 30
0.0
 40
0.796472
 41
0.796472
  0
VERTEX
  8
0
 10
35.7925
 20
128.473
 30
0.0
 40
0.796472
 41
0.796472
  0
VERTEX
  8
0
 10
36.8657
 20
125.438
 30
0.0
 40
0.796472
 41
0.796472
  0
VERTEX
  8
0
 10
38.5461
 20
123.314
 30
0.0
 40
0.796472
 41
0.796472
  0
VERTEX
  8
0
 10
40.731
 20
122.386
 30
0.0
 40
0.796472
 41
0.796472
  0
VERTEX
  8
0
 10
43.1902
 20
122.175
 30
0.0
 40
0.796472
 41
0.796472
  0
VERTEX
  8
0
 10
45.6753
 20
122.239
 30
0.0
 40
0.796472
 41
0.796472
  0
VERTEX
  8
0
 10
47.9976
 20
123.04
 30
0.0
 40
0.796472
 41
0.796472
  0
VERTEX
  8
0
 10
49.9644
 20
125.09
 30
0.0
 40
0.796472
 41
0.796472
  0
VERTEX
  8
0
 10
51.3191
 20
128.206
 30
0.0
 40
0.796472
 41
0.796472
  0
VERTEX
  8
0
 10
51.9033
 20
131.858
 30
0.0
 40
0.796472
 41
0.796472
  0
VERTEX
  8
0
 10
52.0269
 20
134.804
 30
0.0
 40
0.796472
 41
0.796472
  0
VERTEX
  8
0
 10
52.0474
 20
136.041
 30
0.0
 40
0.796472
 41
0.796472
  0
VERTEX
  8
0
 10
52.0503
 20
136.218
 30
0.0
 40
0.796472
 41
0.796472
  0
SEQEND
  8
0
  0
POLYLINE
8
0
 62
     0
 66
     1
 10
0
 20
0
 30
0.0
 40
0.796472
 41
0.796472
  0
VERTEX
  8
0
 10
31.7004
 20
368.712
 30
0.0
 40
0.796472
 41
0.796472
  0
VERTEX
  8
0
 10
35.1543
 20
135.896
 30
0.0
 40
0.796472
 41
0.796472
  0
SEQEND
  8
0
  0
POLYLINE
8
0
 62
     0
 66
     1
 10
0
 20
0
 30
0.0
 40
0.796472
 41
0.796472
  0
VERTEX
  8
0
 10
55.5037
 20
369.91
 30
0.0
 40
0.796472
 41
0.796472
  0
VERTEX
  8
0
 10
52.0498
 20
136.296
 30
0.0
 40
0.796472
 41
0.796472
  0
SEQEND
  8
0
  0
POLYLINE
8
0
 62
     0
 66
     1
 10
0
 20
0
 30
0.0
 40
0.796472
 41
0.796472
  0
VERTEX
  8
0
 10
55.5034
 20
377.8
 30
0.0
 40
0.796472
 41
0.796472
  0
VERTEX
  8
0
 10
48.7827
 20
1109.89
 30
0.0
 40
0.796472
 41
0.796472
  0
SEQEND
  8
0
  0
POLYLINE
8
0
 62
     0
 66
     1
 10
0
 20
0
 30
0.0
 40
0.796472
 41
0.796472
  0
VERTEX
  8
0
 10
31.6069
 20
377.7
 30
0.0
 40
0.796472
 41
0.796472
  0
VERTEX
  8
0
 10
38.3279
 20
1110.29
 30
0.0
 40
0.796472
 41
0.796472
  0
SEQEND
  8
0
  0
TEXT
  8
0
 62
     0
 10
537.6
 20
300.23
 30
0
 40
8.7612
  1
1/8" sheet
 50
76.5726
  0
POLYLINE
8
0
 62
     0
 66
     1
 10
0
 20
0
 30
0.0
 40
0
 41
0
  0
VERTEX
  8
0
 10
575.849
 20
575.849
 30
0.0
 40
0
 41
0
  0
VERTEX
  8
0
 10
575.849
 20
1007.54
 30
0.0
 40
0
 41
0
  0
SEQEND
  8
0
  0
POLYLINE
8
0
 62
     0
 66
     1
 10
0
 20
0
 30
0.0
 40
0
 41
0
  0
VERTEX
  8
0
 10
574.057
 20
576.646
 30
0.0
 40
0
 41
0
  0
VERTEX
  8
0
 10
577.641
 20
576.646
 30
0.0
 40
0
 41
0
  0
SEQEND
  8
0
  0
POLYLINE
8
0
 62
     0
 66
     1
 10
0
 20
0
 30
0.0
 40
0
 41
0
  0
VERTEX
  8
0
 10
574.057
 20
648.328
 30
0.0
 40
0
 41
0
  0
VERTEX
  8
0
 10
577.641
 20
648.328
 30
0.0
 40
0
 41
0
  0
SEQEND
  8
0
  0
POLYLINE
8
0
 62
     0
 66
     1
 10
0
 20
0
 30
0.0
 40
0
 41
0
  0
VERTEX
  8
0
 10
574.057
 20
720.011
 30
0.0
 40
0
 41
0
  0
VERTEX
  8
0
 10
577.641
 20
720.011
 30
0.0
 40
0
 41
0
  0
SEQEND
  8
0
  0
POLYLINE
8
0
 62
     0
 66
     1
 10
0
 20
0
 30
0.0
 40
0
 41
0
  0
VERTEX
  8
0
 10
574.057
 20
791.693
 30
0.0
 40
0
 41
0
  0
VERTEX
  8
0
 10
577.641
 20
791.693
 30
0.0
 40
0
 41
0
  0
SEQEND
  8
0
  0
POLYLINE
8
0
 62
     0
 66
     1
 10
0
 20
0
 30
0.0
 40
0
 41
0
  0
VERTEX
  8
0
 10
574.057
 20
863.376
 30
0.0
 40
0
 41
0
  0
VERTEX
  8
0
 10
577.641
 20
863.376
 30
0.0
 40
0
 41
0
  0
SEQEND
  8
0
  0
POLYLINE
8
0
 62
     0
 66
     1
 10
0
 20
0
 30
0.0
 40
0
 41
0
  0
VERTEX
  8
0
 10
574.057
 20
936.651
 30
0.0
 40
0
 41
0
  0
VERTEX
  8
0
 10
577.641
 20
936.651
 30
0.0
 40
0
 41
0
  0
SEQEND
  8
0
  0
POLYLINE
8
0
 62
     0
 66
     1
 10
0
 20
0
 30
0.0
 40
0
 41
0
  0
VERTEX
  8
0
 10
574.057
 20
1008.33
 30
0.0
 40
0
 41
0
  0
VERTEX
  8
0
 10
577.641
 20
1008.33
 30
0.0
 40
0
 41
0
  0
SEQEND
  8
0
  0
TEXT
  8
0
 62
     0
 10
580.647
 20
1017.89
 30
0
 40
11.1506
  1
inches
 50
90
  0
POLYLINE
8
0
 62
     0
 66
     1
 10
0
 20
0
 30
0.0
 40
0
 41
0
  0
VERTEX
  8
0
 10
72.3203
 20
74.2712
 30
0.0
 40
0
 41
0
  0
VERTEX
  8
0
 10
72.3203
 20
70.687
 30
0.0
 40
0
 41
0
  0
SEQEND
  8
0
  0
POLYLINE
8
0
 62
     0
 66
     1
 10
0
 20
0
 30
0.0
 40
0
 41
0
  0
VERTEX
  8
0
 10
144.003
 20
74.2712
 30
0.0
 40
0
 41
0
  0
VERTEX
  8
0
 10
144.003
 20
70.687
 30
0.0
 40
0
 41
0
  0
SEQEND
  8
0
  0
POLYLINE
8
0
 62
     0
 66
     1
 10
0
 20
0
 30
0.0
 40
0
 41
0
  0
VERTEX
  8
0
 10
215.685
 20
74.2712
 30
0.0
 40
0
 41
0
  0
VERTEX
  8
0
 10
215.685
 20
70.687
 30
0.0
 40
0
 41
0
  0
SEQEND
  8
0
  0
POLYLINE
8
0
 62
     0
 66
     1
 10
0
 20
0
 30
0.0
 40
0
 41
0
  0
VERTEX
  8
0
 10
287.368
 20
74.2712
 30
0.0
 40
0
 41
0
  0
VERTEX
  8
0
 10
287.368
 20
70.687
 30
0.0
 40
0
 41
0
  0
SEQEND
  8
0
  0
POLYLINE
8
0
 62
     0
 66
     1
 10
0
 20
0
 30
0.0
 40
0
 41
0
  0
VERTEX
  8
0
 10
359.05
 20
74.2712
 30
0.0
 40
0
 41
0
  0
VERTEX
  8
0
 10
359.05
 20
70.687
 30
0.0
 40
0
 41
0
  0
SEQEND
  8
0
  0
POLYLINE
8
0
 62
     0
 66
     1
 10
0
 20
0
 30
0.0
 40
0
 41
0
  0
VERTEX
  8
0
 10
432.326
 20
74.2712
 30
0.0
 40
0
 41
0
  0
VERTEX
  8
0
 10
432.326
 20
70.687
 30
0.0
 40
0
 41
0
  0
SEQEND
  8
0
  0
POLYLINE
8
0
 62
     0
 66
     1
 10
0
 20
0
 30
0.0
 40
0
 41
0
  0
VERTEX
  8
0
 10
504.008
 20
74.2712
 30
0.0
 40
0
 41
0
  0
VERTEX
  8
0
 10
504.008
 20
70.687
 30
0.0
 40
0
 41
0
  0
SEQEND
  8
0
  0
POLYLINE
8
0
 62
     0
 66
     1
 10
0
 20
0
 30
0.0
 40
0
 41
0
  0
VERTEX
  8
0
 10
71.4834
 20
72.479
 30
0.0
 40
0
 41
0
  0
VERTEX
  8
0
 10
576.048
 20
72.0808
 30
0.0
 40
0
 41
0
  0
SEQEND
  8
0
  0
POLYLINE
8
0
 62
     0
 66
     1
 10
0
 20
0
 30
0.0
 40
0
 41
0
  0
VERTEX
  8
0
 10
576.048
 20
73.7781
 30
0.0
 40
0
 41
0
  0
VERTEX
  8
0
 10
576.048
 20
70.1841
 30
0.0
 40
0
 41
0
  0
SEQEND
  8
0
  0
POLYLINE
8
0
 62
     0
 66
     1
 10
0
 20
0
 30
0.0
 40
0.796472
 41
0.796472
  0
VERTEX
  8
0
 10
584.809
 20
373.505
 30
0.0
 40
0.796472
 41
0.796472
  0
VERTEX
  8
0
 10
519.598
 20
373.505
 30
0.0
 40
0.796472
 41
0.796472
  0
SEQEND
  8
0
  0
POLYLINE
8
0
 62
     0
 66
     1
 10
0
 20
0
 30
0.0
 40
0.796472
 41
0.796472
  0
VERTEX
  8
0
 10
414.265
 20
1131.35
 30
0.0
 40
0.796472
 41
0.796472
  0
VERTEX
  8
0
 10
389.574
 20
1100.29
 30
0.0
 40
0.796472
 41
0.796472
  0
SEQEND
  8
0
  0
TEXT
  8
0
 62
     0
 10
368.819
 20
1209.04
 30
0
 40
10.5931
  1
6-8 lb balsa throughout,
 50
0
  0
TEXT
  8
0
 62
     0
 10
368.819
 20
1198.44
 30
0
 40
10.5931
  1
unless noted otherwise
 50
0
  0
TEXT
  8
0
 62
     0
 10
454.409
 20
1014.12
 30
0
 40
8.32313
  1
16:1 TE wedge angle
 50
0
  0
TEXT
  8
0
 62
     0
 10
327.847
 20
853.465
 30
0
 40
8.76119
  1
generous glue fillets
 50
0
  0
TEXT
  8
0
 62
     0
 10
371.068
 20
154.149
 30
0
 40
8.76119
  1
1/4" sheet
 50
16.4732
  0
POLYLINE
8
0
 62
     0
 66
     1
 10
0
 20
0
 30
0.0
 40
0
 41
0
  0
VERTEX
  8
0
 10
324.562
 20
854.873
 30
0.0
 40
0
 41
0
  0
VERTEX
  8
0
 10
324.423
 20
854.873
 30
0.0
 40
0
 41
0
  0
VERTEX
  8
0
 10
323.45
 20
854.873
 30
0.0
 40
0
 41
0
  0
VERTEX
  8
0
 10
321.237
 20
854.707
 30
0.0
 40
0
 41
0
  0
VERTEX
  8
0
 10
319.086
 20
853.546
 30
0.0
 40
0
 41
0
  0
VERTEX
  8
0
 10
318.473
 20
852.34
 30
0.0
 40
0
 41
0
  0
VERTEX
  8
0
 10
317.914
 20
850.872
 30
0.0
 40
0
 41
0
  0
VERTEX
  8
0
 10
317.016
 20
849.376
 30
0.0
 40
0
 41
0
  0
VERTEX
  8
0
 10
315.386
 20
848.086
 30
0.0
 40
0
 41
0
  0
VERTEX
  8
0
 10
312.787
 20
847.184
 30
0.0
 40
0
 41
0
  0
VERTEX
  8
0
 10
309.618
 20
846.627
 30
0.0
 40
0
 41
0
  0
VERTEX
  8
0
 10
306.433
 20
846.318
 30
0.0
 40
0
 41
0
  0
VERTEX
  8
0
 10
303.787
 20
846.162
 30
0.0
 40
0
 41
0
  0
VERTEX
  8
0
 10
302.099
 20
846.075
 30
0.0
 40
0
 41
0
  0
VERTEX
  8
0
 10
300.912
 20
846.015
 30
0.0
 40
0
 41
0
  0
VERTEX
  8
0
 10
300.867
 20
846.012
 30
0.0
 40
0
 41
0
  0
SEQEND
  8
0
  0
POLYLINE
8
0
 62
     7
 66
     1
 10
0
 20
0
 30
0.0
 40
0
 41
0
  0
VERTEX
  8
0
 10
308.923
 20
844.431
 30
0.0
 40
0
 41
0
  0
VERTEX
  8
0
 10
300.867
 20
846.012
 30
0.0
 40
0
 41
0
  0
VERTEX
  8
0
 10
308.72
 20
848.408
 30
0.0
 40
0
 41
0
  0
SEQEND
  8
0
  0
POLYLINE
8
0
 62
     0
 66
     1
 10
0
 20
0
 30
0.0
 40
0
 41
0
  0
VERTEX
  8
0
 10
308.923
 20
844.431
 30
0.0
 40
0
 41
0
  0
VERTEX
  8
0
 10
300.867
 20
846.012
 30
0.0
 40
0
 41
0
  0
VERTEX
  8
0
 10
308.72
 20
848.408
 30
0.0
 40
0
 41
0
  0
SEQEND
  8
0
  0
TEXT
  8
0
 62
     0
 10
354.031
 20
756.295
 30
0
 40
8.76119
  1
3/16" sheet
 50
0
  0
TEXT
  8
0
 62
     0
 10
317.692
 20
1018.73
 30
0
 40
8.76119
  1
1/8" sheet
 50
0
  0
TEXT
  8
0
 62
     0
 10
317.533
 20
1375.29
 30
0
 40
8.32313
  1
Design (never-exceed) Loads
 50
360
  0
TEXT
  8
0
 62
     0
 10
317.533
 20
1366.97
 30
0
 40
8.32313
  1
---------------------------
 50
360
  0
TEXT
  8
0
 62
     0
 10
317.533
 20
1358.64
 30
0
 40
8.32313
  1
vert. tail load  10 lb @ 90 mph, CL=1.0
 50
360
  0
TEXT
  8
0
 62
     0
 10
317.533
 20
1350.32
 30
0
 40
8.32313
  1
root bend.mom.   33 lb-in
 50
360
  0
TEXT
  8
0
 62
     0
 10
317.533
 20
1342
 30
0
 40
8.32313
  1
root bend.Ixx    6.4e-3 in^4
 50
360
  0
TEXT
  8
0
 62
     0
 10
317.533
 20
1333.67
 30
0
 40
8.32313
  1
root stress      900 psi
 50
360
  0
TEXT
  8
0
 62
     0
 10
317.533
 20
1325.35
 30
0
 40
8.32313
  1
hinge mom.       4 lb-in
 50
360
  0
TEXT
  8
0
 62
     0
 10
317.533
 20
1317.03
 30
0
 40
8.32313
  1
rib stress       250 psi 
 50
360
  0
TEXT
  8
0
 62
     0
 10
317.533
 20
1300.38
 30
0
 40
8.32313
  1
hinge mom.       10 lb-in  (ground strike, est.)
 50
360
  0
TEXT
  8
0
 62
     0
 10
317.533
 20
1292.06
 30
0
 40
8.32313
  1
rib stress      500 psi           
 50
360
  0
POLYLINE
8
0
 62
     0
 66
     1
 10
0
 20
0
 30
0.0
 40
0.796472
 41
0.796472
  0
VERTEX
  8
0
 10
298.617
 20
417.112
 30
0.0
 40
0.796472
 41
0.796472
  0
VERTEX
  8
0
 10
328.485
 20
398.394
 30
0.0
 40
0.796472
 41
0.796472
  0
SEQEND
  8
0
  0
TEXT
  8
0
 62
     0
 10
391.306
 20
401.268
 30
0
 40
8.76119
  1
1/4" medium-hard sheet
 50
0
  0
TEXT
  8
0
 62
     0
 10
35.8689
 20
1370.26
 30
0
 40
15.133
  1
Bubble Dancer
 50
360
  0
TEXT
  8
0
 62
     0
 10
46.8601
 20
1351.98
 30
0
 40
12.863
  1
Vertical Tail
 50
360
  0
POLYLINE
8
0
 62
     0
 66
     1
 10
0
 20
0
 30
0.0
 40
0.796472
 41
0.796472
  0
VERTEX
  8
0
 10
244.019
 20
359.766
 30
0.0
 40
0.796472
 41
0.796472
  0
VERTEX
  8
0
 10
251.784
 20
143.922
 30
0.0
 40
0.796472
 41
0.796472
  0
SEQEND
  8
0
  0
POLYLINE
8
0
 62
     0
 66
     1
 10
0
 20
0
 30
0.0
 40
0.796472
 41
0.796472
  0
VERTEX
  8
0
 10
251.585
 20
144.121
 30
0.0
 40
0.796472
 41
0.796472
  0
VERTEX
  8
0
 10
269.506
 20
122.218
 30
0.0
 40
0.796472
 41
0.796472
  0
SEQEND
  8
0
  0
POLYLINE
8
0
 62
     0
 66
     1
 10
0
 20
0
 30
0.0
 40
0.796472
 41
0.796472
  0
VERTEX
  8
0
 10
167.16
 20
181.356
 30
0.0
 40
0.796472
 41
0.796472
  0
VERTEX
  8
0
 10
199.019
 20
147.904
 30
0.0
 40
0.796472
 41
0.796472
  0
SEQEND
  8
0
  0
POLYLINE
8
0
 62
     0
 66
     1
 10
0
 20
0
 30
0.0
 40
0.796472
 41
0.796472
  0
VERTEX
  8
0
 10
93.4858
 20
309.588
 30
0.0
 40
0.796472
 41
0.796472
  0
VERTEX
  8
0
 10
93.5583
 20
309.327
 30
0.0
 40
0.796472
 41
0.796472
  0
VERTEX
  8
0
 10
93.7307
 20
308.706
 30
0.0
 40
0.796472
 41
0.796472
  0
VERTEX
  8
0
 10
94.0664
 20
307.498
 30
0.0
 40
0.796472
 41
0.796472
  0
VERTEX
  8
0
 10
94.6201
 20
305.505
 30
0.0
 40
0.796472
 41
0.796472
  0
VERTEX
  8
0
 10
95.4458
 20
302.532
 30
0.0
 40
0.796472
 41
0.796472
  0
VERTEX
  8
0
 10
96.5984
 20
298.383
 30
0.0
 40
0.796472
 41
0.796472
  0
VERTEX
  8
0
 10
98.1321
 20
292.862
 30
0.0
 40
0.796472
 41
0.796472
  0
VERTEX
  8
0
 10
100.08
 20
285.859
 30
0.0
 40
0.796472
 41
0.796472
  0
VERTEX
  8
0
 10
102.389
 20
277.603
 30
0.0
 40
0.796472
 41
0.796472
  0
VERTEX
  8
0
 10
104.986
 20
268.41
 30
0.0
 40
0.796472
 41
0.796472
  0
VERTEX
  8
0
 10
107.797
 20
258.597
 30
0.0
 40
0.796472
 41
0.796472
  0
VERTEX
  8
0
 10
110.749
 20
248.479
 30
0.0
 40
0.796472
 41
0.796472
  0
VERTEX
  8
0
 10
113.766
 20
238.373
 30
0.0
 40
0.796472
 41
0.796472
  0
VERTEX
  8
0
 10
116.775
 20
228.592
 30
0.0
 40
0.796472
 41
0.796472
  0
VERTEX
  8
0
 10
119.703
 20
219.454
 30
0.0
 40
0.796472
 41
0.796472
  0
VERTEX
  8
0
 10
125.132
 20
203.842
 30
0.0
 40
0.796472
 41
0.796472
  0
VERTEX
  8
0
 10
130.032
 20
191.428
 30
0.0
 40
0.796472
 41
0.796472
  0
VERTEX
  8
0
 10
134.497
 20
181.578
 30
0.0
 40
0.796472
 41
0.796472
  0
VERTEX
  8
0
 10
138.619
 20
173.657
 30
0.0
 40
0.796472
 41
0.796472
  0
VERTEX
  8
0
 10
146.211
 20
161.569
 30
0.0
 40
0.796472
 41
0.796472
  0
VERTEX
  8
0
 10
153.553
 20
152.617
 30
0.0
 40
0.796472
 41
0.796472
  0
VERTEX
  8
0
 10
161.418
 20
145.108
 30
0.0
 40
0.796472
 41
0.796472
  0
VERTEX
  8
0
 10
170.677
 20
138.745
 30
0.0
 40
0.796472
 41
0.796472
  0
VERTEX
  8
0
 10
181.994
 20
133.56
 30
0.0
 40
0.796472
 41
0.796472
  0
VERTEX
  8
0
 10
195.103
 20
129.519
 30
0.0
 40
0.796472
 41
0.796472
  0
VERTEX
  8
0
 10
209.215
 20
126.557
 30
0.0
 40
0.796472
 41
0.796472
  0
VERTEX
  8
0
 10
222.382
 20
124.541
 30
0.0
 40
0.796472
 41
0.796472
  0
VERTEX
  8
0
 10
232.636
 20
123.313
 30
0.0
 40
0.796472
 41
0.796472
  0
VERTEX
  8
0
 10
239.108
 20
122.683
 30
0.0
 40
0.796472
 41
0.796472
  0
VERTEX
  8
0
 10
240.796
 20
122.529
 30
0.0
 40
0.796472
 41
0.796472
  0
VERTEX
  8
0
 10
241.663
 20
122.45
 30
0.0
 40
0.796472
 41
0.796472
  0
VERTEX
  8
0
 10
242.028
 20
122.417
 30
0.0
 40
0.796472
 41
0.796472
  0
SEQEND
  8
0
  0
POLYLINE
8
0
 62
     0
 66
     1
 10
0
 20
0
 30
0.0
 40
0.796472
 41
0.796472
  0
VERTEX
  8
0
 10
389.375
 20
1100.49
 30
0.0
 40
0.796472
 41
0.796472
  0
VERTEX
  8
0
 10
285.436
 20
1113.23
 30
0.0
 40
0.796472
 41
0.796472
  0
SEQEND
  8
0
  0
POLYLINE
8
0
 62
     0
 66
     1
 10
0
 20
0
 30
0.0
 40
0.796472
 41
0.796472
  0
VERTEX
  8
0
 10
285.436
 20
1113.03
 30
0.0
 40
0.796472
 41
0.796472
  0
VERTEX
  8
0
 10
271.896
 20
1130.55
 30
0.0
 40
0.796472
 41
0.796472
  0
SEQEND
  8
0
  0
POLYLINE
8
0
 62
     0
 66
     1
 10
0
 20
0
 30
0.0
 40
0.796472
 41
0.796472
  0
VERTEX
  8
0
 10
227.99
 20
145.614
 30
0.0
 40
0.796472
 41
0.796472
  0
VERTEX
  8
0
 10
250.689
 20
168.314
 30
0.0
 40
0.796472
 41
0.796472
  0
SEQEND
  8
0
  0
POLYLINE
8
0
 62
     0
 66
     1
 10
0
 20
0
 30
0.0
 40
0.796472
 41
0.796472
  0
VERTEX
  8
0
 10
171.64
 20
150.393
 30
0.0
 40
0.796472
 41
0.796472
  0
VERTEX
  8
0
 10
251.685
 20
143.623
 30
0.0
 40
0.796472
 41
0.796472
  0
SEQEND
  8
0
  0
POLYLINE
8
0
 62
     0
 66
     1
 10
0
 20
0
 30
0.0
 40
0.796472
 41
0.796472
  0
VERTEX
  8
0
 10
143.962
 20
361.458
 30
0.0
 40
0.796472
 41
0.796472
  0
VERTEX
  8
0
 10
171.042
 20
150.99
 30
0.0
 40
0.796472
 41
0.796472
  0
SEQEND
  8
0
  0
POLYLINE
8
0
 62
     0
 66
     1
 10
0
 20
0
 30
0.0
 40
0.796472
 41
0.796472
  0
VERTEX
  8
0
 10
170.843
 20
150.592
 30
0.0
 40
0.796472
 41
0.796472
  0
VERTEX
  8
0
 10
167.259
 20
145.216
 30
0.0
 40
0.796472
 41
0.796472
  0
SEQEND
  8
0
  0
POLYLINE
8
0
 62
     7
 66
     1
 10
0
 20
0
 30
0.0
 40
0
 41
0
  0
VERTEX
  8
0
 10
160.887
 20
103.003
 30
0.0
 40
0
 41
0
  0
VERTEX
  8
0
 10
160.584
 20
102.987
 30
0.0
 40
0
 41
0
  0
VERTEX
  8
0
 10
158.464
 20
102.87
 30
0.0
 40
0
 41
0
  0
VERTEX
  8
0
 10
156.333
 20
102.793
 30
0.0
 40
0
 41
0
  0
VERTEX
  8
0
 10
154.129
 20
102.949
 30
0.0
 40
0
 41
0
  0
VERTEX
  8
0
 10
152.691
 20
103.622
 30
0.0
 40
0
 41
0
  0
VERTEX
  8
0
 10
152.856
 20
105.094
 30
0.0
 40
0
 41
0
  0
VERTEX
  8
0
 10
155.16
 20
107.556
 30
0.0
 40
0
 41
0
  0
VERTEX
  8
0
 10
158.941
 20
110.823
 30
0.0
 40
0
 41
0
  0
VERTEX
  8
0
 10
163.24
 20
114.619
 30
0.0
 40
0
 41
0
  0
VERTEX
  8
0
 10
167.093
 20
118.667
 30
0.0
 40
0
 41
0
  0
VERTEX
  8
0
 10
169.753
 20
122.696
 30
0.0
 40
0
 41
0
  0
VERTEX
  8
0
 10
171.328
 20
126.454
 30
0.0
 40
0
 41
0
  0
VERTEX
  8
0
 10
172.138
 20
129.695
 30
0.0
 40
0
 41
0
  0
VERTEX
  8
0
 10
172.502
 20
132.174
 30
0.0
 40
0
 41
0
  0
VERTEX
  8
0
 10
172.694
 20
133.728
 30
0.0
 40
0
 41
0
  0
VERTEX
  8
0
 10
172.793
 20
134.526
 30
0.0
 40
0
 41
0
  0
VERTEX
  8
0
 10
172.834
 20
134.862
 30
0.0
 40
0
 41
0
  0
SEQEND
  8
0
  0
POLYLINE
8
0
 62
     0
 66
     1
 10
0
 20
0
 30
0.0
 40
0
 41
0
  0
VERTEX
  8
0
 10
160.887
 20
103.003
 30
0.0
 40
0
 41
0
  0
VERTEX
  8
0
 10
160.584
 20
102.987
 30
0.0
 40
0
 41
0
  0
VERTEX
  8
0
 10
158.464
 20
102.87
 30
0.0
 40
0
 41
0
  0
VERTEX
  8
0
 10
156.333
 20
102.793
 30
0.0
 40
0
 41
0
  0
VERTEX
  8
0
 10
154.129
 20
102.949
 30
0.0
 40
0
 41
0
  0
VERTEX
  8
0
 10
152.691
 20
103.622
 30
0.0
 40
0
 41
0
  0
VERTEX
  8
0
 10
152.856
 20
105.094
 30
0.0
 40
0
 41
0
  0
VERTEX
  8
0
 10
155.16
 20
107.556
 30
0.0
 40
0
 41
0
  0
VERTEX
  8
0
 10
158.941
 20
110.823
 30
0.0
 40
0
 41
0
  0
VERTEX
  8
0
 10
163.24
 20
114.619
 30
0.0
 40
0
 41
0
  0
VERTEX
  8
0
 10
167.093
 20
118.667
 30
0.0
 40
0
 41
0
  0
VERTEX
  8
0
 10
169.753
 20
122.696
 30
0.0
 40
0
 41
0
  0
VERTEX
  8
0
 10
171.328
 20
126.454
 30
0.0
 40
0
 41
0
  0
VERTEX
  8
0
 10
172.138
 20
129.695
 30
0.0
 40
0
 41
0
  0
VERTEX
  8
0
 10
172.502
 20
132.174
 30
0.0
 40
0
 41
0
  0
VERTEX
  8
0
 10
172.694
 20
133.728
 30
0.0
 40
0
 41
0
  0
VERTEX
  8
0
 10
172.793
 20
134.526
 30
0.0
 40
0
 41
0
  0
VERTEX
  8
0
 10
172.834
 20
134.862
 30
0.0
 40
0
 41
0
  0
SEQEND
  8
0
  0
POLYLINE
8
0
 62
     0
 66
     1
 10
0
 20
0
 30
0.0
 40
0.796472
 41
0.796472
  0
VERTEX
  8
0
 10
286.331
 20
1096.6
 30
0.0
 40
0.796472
 41
0.796472
  0
VERTEX
  8
0
 10
301.663
 20
1110.93
 30
0.0
 40
0.796472
 41
0.796472
  0
SEQEND
  8
0
  0
POLYLINE
8
0
 62
     0
 66
     1
 10
0
 20
0
 30
0.0
 40
0
 41
0
  0
VERTEX
  8
0
 10
179.632
 20
1270.89
 30
0.0
 40
0
 41
0
  0
VERTEX
  8
0
 10
187.269
 20
1254.52
 30
0.0
 40
0
 41
0
  0
SEQEND
  8
0
  0
POLYLINE
8
0
 62
     0
 66
     1
 10
0
 20
0
 30
0.0
 40
0
 41
0
  0
VERTEX
  8
0
 10
192.686
 20
1272.42
 30
0.0
 40
0
 41
0
  0
VERTEX
  8
0
 10
192.686
 20
1254.35
 30
0.0
 40
0
 41
0
  0
SEQEND
  8
0
  0
POLYLINE
8
0
 62
     254
 66
     1
 10
0
 20
0
 30
0.0
 70
     1
 40
0
 41
0
  0
VERTEX
  8
0
 10
167.617
 20
1228.72
 30
0.0
 40
0
 41
0
  0
VERTEX
  8
0
 10
187.33
 20
1229.17
 30
0.0
 40
0
 41
0
  0
VERTEX
  8
0
 10
192.109
 20
1239.48
 30
0.0
 40
0
 41
0
  0
VERTEX
  8
0
 10
192.109
 20
1243.66
 30
0.0
 40
0
 41
0
  0
VERTEX
  8
0
 10
187.479
 20
1253.86
 30
0.0
 40
0
 41
0
  0
VERTEX
  8
0
 10
167.617
 20
1254.26
 30
0.0
 40
0
 41
0
  0
VERTEX
  8
0
 10
167.617
 20
1228.72
 30
0.0
 40
0
 41
0
  0
SEQEND
  8
0
  0
POLYLINE
8
0
 62
     0
 66
     1
 10
0
 20
0
 30
0.0
 70
     1
 40
0
 41
0
  0
VERTEX
  8
0
 10
167.617
 20
1228.72
 30
0.0
 40
0
 41
0
  0
VERTEX
  8
0
 10
187.33
 20
1229.17
 30
0.0
 40
0
 41
0
  0
VERTEX
  8
0
 10
192.109
 20
1239.48
 30
0.0
 40
0
 41
0
  0
VERTEX
  8
0
 10
192.109
 20
1243.66
 30
0.0
 40
0
 41
0
  0
VERTEX
  8
0
 10
187.479
 20
1253.86
 30
0.0
 40
0
 41
0
  0
VERTEX
  8
0
 10
167.617
 20
1254.26
 30
0.0
 40
0
 41
0
  0
VERTEX
  8
0
 10
167.617
 20
1228.72
 30
0.0
 40
0
 41
0
  0
SEQEND
  8
0
  0
POLYLINE
8
0
 62
     254
 66
     1
 10
0
 20
0
 30
0.0
 70
     1
 40
0
 41
0
  0
VERTEX
  8
0
 10
242.417
 20
1229.97
 30
0.0
 40
0
 41
0
  0
VERTEX
  8
0
 10
222.405
 20
1229.47
 30
0.0
 40
0
 41
0
  0
VERTEX
  8
0
 10
216.979
 20
1239.38
 30
0.0
 40
0
 41
0
  0
VERTEX
  8
0
 10
217.079
 20
1243.86
 30
0.0
 40
0
 41
0
  0
VERTEX
  8
0
 10
222.256
 20
1253.56
 30
0.0
 40
0
 41
0
  0
VERTEX
  8
0
 10
242.417
 20
1253.02
 30
0.0
 40
0
 41
0
  0
VERTEX
  8
0
 10
242.417
 20
1229.97
 30
0.0
 40
0
 41
0
  0
SEQEND
  8
0
  0
POLYLINE
8
0
 62
     0
 66
     1
 10
0
 20
0
 30
0.0
 70
     1
 40
0
 41
0
  0
VERTEX
  8
0
 10
242.417
 20
1229.97
 30
0.0
 40
0
 41
0
  0
VERTEX
  8
0
 10
222.405
 20
1229.47
 30
0.0
 40
0
 41
0
  0
VERTEX
  8
0
 10
216.979
 20
1239.38
 30
0.0
 40
0
 41
0
  0
VERTEX
  8
0
 10
217.079
 20
1243.86
 30
0.0
 40
0
 41
0
  0
VERTEX
  8
0
 10
222.256
 20
1253.56
 30
0.0
 40
0
 41
0
  0
VERTEX
  8
0
 10
242.417
 20
1253.02
 30
0.0
 40
0
 41
0
  0
VERTEX
  8
0
 10
242.417
 20
1229.97
 30
0.0
 40
0
 41
0
  0
SEQEND
  8
0
  0
POLYLINE
8
0
 62
     0
 66
     1
 10
0
 20
0
 30
0.0
 40
0
 41
0
  0
VERTEX
  8
0
 10
187.37
 20
1254.9
 30
0.0
 40
0
 41
0
  0
VERTEX
  8
0
 10
133.409
 20
1254.9
 30
0.0
 40
0
 41
0
  0
VERTEX
  8
0
 10
133.409
 20
1228.02
 30
0.0
 40
0
 41
0
  0
VERTEX
  8
0
 10
187.37
 20
1228.02
 30
0.0
 40
0
 41
0
  0
SEQEND
  8
0
  0
POLYLINE
8
0
 62
     0
 66
     1
 10
0
 20
0
 30
0.0
 40
0
 41
0
  0
VERTEX
  8
0
 10
223.41
 20
1254.9
 30
0.0
 40
0
 41
0
  0
VERTEX
  8
0
 10
277.371
 20
1254.9
 30
0.0
 40
0
 41
0
  0
VERTEX
  8
0
 10
277.371
 20
1228.02
 30
0.0
 40
0
 41
0
  0
VERTEX
  8
0
 10
223.41
 20
1228.02
 30
0.0
 40
0
 41
0
  0
SEQEND
  8
0
  0
TEXT
  8
0
 62
     0
 10
144.923
 20
1285.31
 30
0
 40
8.32313
  1
25 deg (2:1)
 50
0
  0
TEXT
  8
0
 62
     0
 10
144.923
 20
1276.99
 30
0
 40
8.32313
  1
  bevels
 50
0
  0
POLYLINE
8
0
 62
     0
 66
     1
 10
0
 20
0
 30
0.0
 40
0
 41
0
  0
VERTEX
  8
0
 10
195.37
 20
1243.69
 30
0.0
 40
0
 41
0
  0
VERTEX
  8
0
 10
204.331
 20
1243.69
 30
0.0
 40
0
 41
0
  0
SEQEND
  8
0
  0
POLYLINE
8
0
 62
     0
 66
     1
 10
0
 20
0
 30
0.0
 40
0
 41
0
  0
VERTEX
  8
0
 10
195.37
 20
1239.31
 30
0.0
 40
0
 41
0
  0
VERTEX
  8
0
 10
204.331
 20
1239.31
 30
0.0
 40
0
 41
0
  0
SEQEND
  8
0
  0
POLYLINE
8
0
 62
     0
 66
     1
 10
0
 20
0
 30
0.0
 70
     1
 40
0
 41
0
  0
VERTEX
  8
0
 10
201.201
 20
1248
 30
0.0
 40
0
 41
0
  0
VERTEX
  8
0
 10
200.305
 20
1244.39
 30
0.0
 40
0
 41
0
  0
VERTEX
  8
0
 10
199.409
 20
1248
 30
0.0
 40
0
 41
0
  0
VERTEX
  8
0
 10
201.201
 20
1248
 30
0.0
 40
0
 41
0
  0
SEQEND
  8
0
  0
POLYLINE
8
0
 62
     0
 66
     1
 10
0
 20
0
 30
0.0
 70
     1
 40
0
 41
0
  0
VERTEX
  8
0
 10
201.201
 20
1248
 30
0.0
 40
0
 41
0
  0
VERTEX
  8
0
 10
200.305
 20
1244.39
 30
0.0
 40
0
 41
0
  0
VERTEX
  8
0
 10
199.409
 20
1248
 30
0.0
 40
0
 41
0
  0
VERTEX
  8
0
 10
201.201
 20
1248
 30
0.0
 40
0
 41
0
  0
SEQEND
  8
0
  0
POLYLINE
8
0
 62
     0
 66
     1
 10
0
 20
0
 30
0.0
 40
0
 41
0
  0
VERTEX
  8
0
 10
200.305
 20
1247.28
 30
0.0
 40
0
 41
0
  0
VERTEX
  8
0
 10
200.305
 20
1254.46
 30
0.0
 40
0
 41
0
  0
SEQEND
  8
0
  0
TEXT
  8
0
 62
     0
 10
191.153
 20
1211.68
 30
0
 40
8.76119
  1
1/16"
 50
0
  0
POLYLINE
8
0
 62
     0
 66
     1
 10
0
 20
0
 30
0.0
 70
     1
 40
0
 41
0
  0
VERTEX
  8
0
 10
199.509
 20
1234.83
 30
0.0
 40
0
 41
0
  0
VERTEX
  8
0
 10
200.405
 20
1238.43
 30
0.0
 40
0
 41
0
  0
VERTEX
  8
0
 10
201.301
 20
1234.83
 30
0.0
 40
0
 41
0
  0
VERTEX
  8
0
 10
199.509
 20
1234.83
 30
0.0
 40
0
 41
0
  0
SEQEND
  8
0
  0
POLYLINE
8
0
 62
     0
 66
     1
 10
0
 20
0
 30
0.0
 70
     1
 40
0
 41
0
  0
VERTEX
  8
0
 10
199.509
 20
1234.83
 30
0.0
 40
0
 41
0
  0
VERTEX
  8
0
 10
200.405
 20
1238.43
 30
0.0
 40
0
 41
0
  0
VERTEX
  8
0
 10
201.301
 20
1234.83
 30
0.0
 40
0
 41
0
  0
VERTEX
  8
0
 10
199.509
 20
1234.83
 30
0.0
 40
0
 41
0
  0
SEQEND
  8
0
  0
POLYLINE
8
0
 62
     0
 66
     1
 10
0
 20
0
 30
0.0
 40
0
 41
0
  0
VERTEX
  8
0
 10
200.412
 20
1235.59
 30
0.0
 40
0
 41
0
  0
VERTEX
  8
0
 10
200.412
 20
1221.65
 30
0.0
 40
0
 41
0
  0
SEQEND
  8
0
  0
POLYLINE
8
0
 62
     7
 66
     1
 10
0
 20
0
 30
0.0
 70
     1
 40
0
 41
0
  0
VERTEX
  8
0
 10
156.507
 20
516.272
 30
0.0
 40
0
 41
0
  0
VERTEX
  8
0
 10
245.811
 20
516.272
 30
0.0
 40
0
 41
0
  0
VERTEX
  8
0
 10
245.612
 20
502.832
 30
0.0
 40
0
 41
0
  0
VERTEX
  8
0
 10
155.113
 20
502.832
 30
0.0
 40
0
 41
0
  0
VERTEX
  8
0
 10
156.507
 20
516.272
 30
0.0
 40
0
 41
0
  0
SEQEND
  8
0
  0
POLYLINE
8
0
 62
     0
 66
     1
 10
0
 20
0
 30
0.0
 70
     1
 40
0.796472
 41
0.796472
  0
VERTEX
  8
0
 10
156.507
 20
516.272
 30
0.0
 40
0.796472
 41
0.796472
  0
VERTEX
  8
0
 10
245.811
 20
516.272
 30
0.0
 40
0.796472
 41
0.796472
  0
VERTEX
  8
0
 10
245.612
 20
502.832
 30
0.0
 40
0.796472
 41
0.796472
  0
VERTEX
  8
0
 10
155.113
 20
502.832
 30
0.0
 40
0.796472
 41
0.796472
  0
VERTEX
  8
0
 10
156.507
 20
516.272
 30
0.0
 40
0.796472
 41
0.796472
  0
SEQEND
  8
0
  0
POLYLINE
8
0
 62
     7
 66
     1
 10
0
 20
0
 30
0.0
 70
     1
 40
0
 41
0
  0
VERTEX
  8
0
 10
167.558
 20
632.358
 30
0.0
 40
0
 41
0
  0
VERTEX
  8
0
 10
247.603
 20
632.358
 30
0.0
 40
0
 41
0
  0
VERTEX
  8
0
 10
247.503
 20
618.619
 30
0.0
 40
0
 41
0
  0
VERTEX
  8
0
 10
166.562
 20
618.619
 30
0.0
 40
0
 41
0
  0
VERTEX
  8
0
 10
167.558
 20
632.358
 30
0.0
 40
0
 41
0
  0
SEQEND
  8
0
  0
POLYLINE
8
0
 62
     0
 66
     1
 10
0
 20
0
 30
0.0
 70
     1
 40
0.796472
 41
0.796472
  0
VERTEX
  8
0
 10
167.558
 20
632.358
 30
0.0
 40
0.796472
 41
0.796472
  0
VERTEX
  8
0
 10
247.603
 20
632.358
 30
0.0
 40
0.796472
 41
0.796472
  0
VERTEX
  8
0
 10
247.503
 20
618.619
 30
0.0
 40
0.796472
 41
0.796472
  0
VERTEX
  8
0
 10
166.562
 20
618.619
 30
0.0
 40
0.796472
 41
0.796472
  0
VERTEX
  8
0
 10
167.558
 20
632.358
 30
0.0
 40
0.796472
 41
0.796472
  0
SEQEND
  8
0
  0
POLYLINE
8
0
 62
     7
 66
     1
 10
0
 20
0
 30
0.0
 70
     1
 40
0
 41
0
  0
VERTEX
  8
0
 10
178.808
 20
747.15
 30
0.0
 40
0
 41
0
  0
VERTEX
  8
0
 10
249.694
 20
747.15
 30
0.0
 40
0
 41
0
  0
VERTEX
  8
0
 10
249.594
 20
737.99
 30
0.0
 40
0
 41
0
  0
VERTEX
  8
0
 10
177.912
 20
737.99
 30
0.0
 40
0
 41
0
  0
VERTEX
  8
0
 10
178.808
 20
747.15
 30
0.0
 40
0
 41
0
  0
SEQEND
  8
0
  0
POLYLINE
8
0
 62
     0
 66
     1
 10
0
 20
0
 30
0.0
 70
     1
 40
0.796472
 41
0.796472
  0
VERTEX
  8
0
 10
178.808
 20
747.15
 30
0.0
 40
0.796472
 41
0.796472
  0
VERTEX
  8
0
 10
249.694
 20
747.15
 30
0.0
 40
0.796472
 41
0.796472
  0
VERTEX
  8
0
 10
249.594
 20
737.99
 30
0.0
 40
0.796472
 41
0.796472
  0
VERTEX
  8
0
 10
177.912
 20
737.99
 30
0.0
 40
0.796472
 41
0.796472
  0
VERTEX
  8
0
 10
178.808
 20
747.15
 30
0.0
 40
0.796472
 41
0.796472
  0
SEQEND
  8
0
  0
POLYLINE
8
0
 62
     7
 66
     1
 10
0
 20
0
 30
0.0
 70
     1
 40
0
 41
0
  0
VERTEX
  8
0
 10
188.764
 20
850.692
 30
0.0
 40
0
 41
0
  0
VERTEX
  8
0
 10
251.386
 20
850.692
 30
0.0
 40
0
 41
0
  0
VERTEX
  8
0
 10
251.287
 20
841.532
 30
0.0
 40
0
 41
0
  0
VERTEX
  8
0
 10
187.967
 20
841.532
 30
0.0
 40
0
 41
0
  0
VERTEX
  8
0
 10
188.764
 20
850.692
 30
0.0
 40
0
 41
0
  0
SEQEND
  8
0
  0
POLYLINE
8
0
 62
     0
 66
     1
 10
0
 20
0
 30
0.0
 70
     1
 40
0.796472
 41
0.796472
  0
VERTEX
  8
0
 10
188.764
 20
850.692
 30
0.0
 40
0.796472
 41
0.796472
  0
VERTEX
  8
0
 10
251.386
 20
850.692
 30
0.0
 40
0.796472
 41
0.796472
  0
VERTEX
  8
0
 10
251.287
 20
841.532
 30
0.0
 40
0.796472
 41
0.796472
  0
VERTEX
  8
0
 10
187.967
 20
841.532
 30
0.0
 40
0.796472
 41
0.796472
  0
VERTEX
  8
0
 10
188.764
 20
850.692
 30
0.0
 40
0.796472
 41
0.796472
  0
SEQEND
  8
0
  0
POLYLINE
8
0
 62
     7
 66
     1
 10
0
 20
0
 30
0.0
 70
     1
 40
0
 41
0
  0
VERTEX
  8
0
 10
197.326
 20
939
 30
0.0
 40
0
 41
0
  0
VERTEX
  8
0
 10
252.78
 20
939
 30
0.0
 40
0
 41
0
  0
VERTEX
  8
0
 10
252.78
 20
933.027
 30
0.0
 40
0
 41
0
  0
VERTEX
  8
0
 10
196.728
 20
933.027
 30
0.0
 40
0
 41
0
  0
VERTEX
  8
0
 10
197.326
 20
939
 30
0.0
 40
0
 41
0
  0
SEQEND
  8
0
  0
POLYLINE
8
0
 62
     0
 66
     1
 10
0
 20
0
 30
0.0
 70
     1
 40
0.796472
 41
0.796472
  0
VERTEX
  8
0
 10
197.326
 20
939
 30
0.0
 40
0.796472
 41
0.796472
  0
VERTEX
  8
0
 10
252.78
 20
939
 30
0.0
 40
0.796472
 41
0.796472
  0
VERTEX
  8
0
 10
252.78
 20
933.027
 30
0.0
 40
0.796472
 41
0.796472
  0
VERTEX
  8
0
 10
196.728
 20
933.027
 30
0.0
 40
0.796472
 41
0.796472
  0
VERTEX
  8
0
 10
197.326
 20
939
 30
0.0
 40
0.796472
 41
0.796472
  0
SEQEND
  8
0
  0
POLYLINE
8
0
 62
     7
 66
     1
 10
0
 20
0
 30
0.0
 70
     1
 40
0
 41
0
  0
VERTEX
  8
0
 10
205.589
 20
1023.82
 30
0.0
 40
0
 41
0
  0
VERTEX
  8
0
 10
254.273
 20
1023.82
 30
0.0
 40
0
 41
0
  0
VERTEX
  8
0
 10
254.074
 20
1017.65
 30
0.0
 40
0
 41
0
  0
VERTEX
  8
0
 10
204.892
 20
1017.65
 30
0.0
 40
0
 41
0
  0
VERTEX
  8
0
 10
205.589
 20
1023.82
 30
0.0
 40
0
 41
0
  0
SEQEND
  8
0
  0
POLYLINE
8
0
 62
     0
 66
     1
 10
0
 20
0
 30
0.0
 70
     1
 40
0.796472
 41
0.796472
  0
VERTEX
  8
0
 10
205.589
 20
1023.82
 30
0.0
 40
0.796472
 41
0.796472
  0
VERTEX
  8
0
 10
254.273
 20
1023.82
 30
0.0
 40
0.796472
 41
0.796472
  0
VERTEX
  8
0
 10
254.074
 20
1017.65
 30
0.0
 40
0.796472
 41
0.796472
  0
VERTEX
  8
0
 10
204.892
 20
1017.65
 30
0.0
 40
0.796472
 41
0.796472
  0
VERTEX
  8
0
 10
205.589
 20
1023.82
 30
0.0
 40
0.796472
 41
0.796472
  0
SEQEND
  8
0
  0
POLYLINE
8
0
 62
     0
 66
     1
 10
0
 20
0
 30
0.0
 40
0.796472
 41
0.796472
  0
VERTEX
  8
0
 10
81.3394
 20
390.304
 30
0.0
 40
0.796472
 41
0.796472
  0
VERTEX
  8
0
 10
81.8372
 20
390.219
 30
0.0
 40
0.796472
 41
0.796472
  0
VERTEX
  8
0
 10
83.0442
 20
390.01
 30
0.0
 40
0.796472
 41
0.796472
  0
VERTEX
  8
0
 10
85.5208
 20
389.561
 30
0.0
 40
0.796472
 41
0.796472
  0
VERTEX
  8
0
 10
89.5779
 20
388.788
 30
0.0
 40
0.796472
 41
0.796472
  0
VERTEX
  8
0
 10
94.6802
 20
387.713
 30
0.0
 40
0.796472
 41
0.796472
  0
VERTEX
  8
0
 10
100.334
 20
386.436
 30
0.0
 40
0.796472
 41
0.796472
  0
VERTEX
  8
0
 10
107.059
 20
385.271
 30
0.0
 40
0.796472
 41
0.796472
  0
VERTEX
  8
0
 10
115.334
 20
384.494
 30
0.0
 40
0.796472
 41
0.796472
  0
VERTEX
  8
0
 10
124.482
 20
384.028
 30
0.0
 40
0.796472
 41
0.796472
  0
VERTEX
  8
0
 10
129.052
 20
383.863
 30
0.0
 40
0.796472
 41
0.796472
  0
VERTEX
  8
0
 10
136.998
 20
383.631
 30
0.0
 40
0.796472
 41
0.796472
  0
VERTEX
  8
0
 10
139.814
 20
383.561
 30
0.0
 40
0.796472
 41
0.796472
  0
VERTEX
  8
0
 10
141.579
 20
383.518
 30
0.0
 40
0.796472
 41
0.796472
  0
VERTEX
  8
0
 10
142.485
 20
383.496
 30
0.0
 40
0.796472
 41
0.796472
  0
VERTEX
  8
0
 10
142.819
 20
383.488
 30
0.0
 40
0.796472
 41
0.796472
  0
VERTEX
  8
0
 10
142.867
 20
383.486
 30
0.0
 40
0.796472
 41
0.796472
  0
SEQEND
  8
0
  0
POLYLINE
8
0
 62
     0
 66
     1
 10
0
 20
0
 30
0.0
 40
0
 41
0
  0
VERTEX
  8
0
 10
100.774
 20
419.565
 30
0.0
 40
0
 41
0
  0
VERTEX
  8
0
 10
96.5674
 20
418.688
 30
0.0
 40
0
 41
0
  0
VERTEX
  8
0
 10
93.1086
 20
417.31
 30
0.0
 40
0
 41
0
  0
VERTEX
  8
0
 10
90.2942
 20
415.332
 30
0.0
 40
0
 41
0
  0
VERTEX
  8
0
 10
88.02
 20
412.655
 30
0.0
 40
0
 41
0
  0
VERTEX
  8
0
 10
84.6785
 20
405.101
 30
0.0
 40
0
 41
0
  0
VERTEX
  8
0
 10
82.2556
 20
395.355
 30
0.0
 40
0
 41
0
  0
VERTEX
  8
0
 10
80.2581
 20
384.438
 30
0.0
 40
0
 41
0
  0
VERTEX
  8
0
 10
79.5376
 20
373.417
 30
0.0
 40
0
 41
0
  0
VERTEX
  8
0
 10
80.8555
 20
363.017
 30
0.0
 40
0
 41
0
  0
VERTEX
  8
0
 10
83.2712
 20
352.547
 30
0.0
 40
0
 41
0
  0
VERTEX
  8
0
 10
85.8809
 20
341.642
 30
0.0
 40
0
 41
0
  0
VERTEX
  8
0
 10
89.6331
 20
332.65
 30
0.0
 40
0
 41
0
  0
VERTEX
  8
0
 10
92.3486
 20
329.714
 30
0.0
 40
0
 41
0
  0
VERTEX
  8
0
 10
95.6997
 20
327.774
 30
0.0
 40
0
 41
0
  0
VERTEX
  8
0
 10
99.6838
 20
326.591
 30
0.0
 40
0
 41
0
  0
VERTEX
  8
0
 10
104.298
 20
325.925
 30
0.0
 40
0
 41
0
  0
VERTEX
  8
0
 10
114.923
 20
325.548
 30
0.0
 40
0
 41
0
  0
VERTEX
  8
0
 10
125.146
 20
326.528
 30
0.0
 40
0
 41
0
  0
VERTEX
  8
0
 10
129.291
 20
327.653
 30
0.0
 40
0
 41
0
  0
VERTEX
  8
0
 10
132.814
 20
329.514
 30
0.0
 40
0
 41
0
  0
VERTEX
  8
0
 10
135.923
 20
332.443
 30
0.0
 40
0
 41
0
  0
VERTEX
  8
0
 10
138.825
 20
336.778
 30
0.0
 40
0
 41
0
  0
VERTEX
  8
0
 10
141.661
 20
342.671
 30
0.0
 40
0
 41
0
  0
VERTEX
  8
0
 10
144.309
 20
349.555
 30
0.0
 40
0
 41
0
  0
VERTEX
  8
0
 10
146.583
 20
356.683
 30
0.0
 40
0
 41
0
  0
VERTEX
  8
0
 10
148.293
 20
363.307
 30
0.0
 40
0
 41
0
  0
VERTEX
  8
0
 10
149.284
 20
368.905
 30
0.0
 40
0
 41
0
  0
VERTEX
  8
0
 10
149.529
 20
373.864
 30
0.0
 40
0
 41
0
  0
VERTEX
  8
0
 10
149.028
 20
378.797
 30
0.0
 40
0
 41
0
  0
VERTEX
  8
0
 10
147.785
 20
384.317
 30
0.0
 40
0
 41
0
  0
VERTEX
  8
0
 10
145.83
 20
390.811
 30
0.0
 40
0
 41
0
  0
VERTEX
  8
0
 10
143.301
 20
397.761
 30
0.0
 40
0
 41
0
  0
VERTEX
  8
0
 10
140.363
 20
404.424
 30
0.0
 40
0
 41
0
  0
VERTEX
  8
0
 10
137.182
 20
410.057
 30
0.0
 40
0
 41
0
  0
VERTEX
  8
0
 10
133.868
 20
414.102
 30
0.0
 40
0
 41
0
  0
VERTEX
  8
0
 10
130.313
 20
416.742
 30
0.0
 40
0
 41
0
  0
VERTEX
  8
0
 10
126.354
 20
418.347
 30
0.0
 40
0
 41
0
  0
VERTEX
  8
0
 10
121.83
 20
419.287
 30
0.0
 40
0
 41
0
  0
VERTEX
  8
0
 10
111.178
 20
420.122
 30
0.0
 40
0
 41
0
  0
VERTEX
  8
0
 10
100.774
 20
419.565
 30
0.0
 40
0
 41
0
  0
SEQEND
  8
0
  0
POLYLINE
8
0
 62
     0
 66
     1
 10
0
 20
0
 30
0.0
 40
0
 41
0
  0
VERTEX
  8
0
 10
320.281
 20
267.474
 30
0.0
 40
0
 41
0
  0
VERTEX
  8
0
 10
319.866
 20
267.491
 30
0.0
 40
0
 41
0
  0
VERTEX
  8
0
 10
318.881
 20
267.531
 30
0.0
 40
0
 41
0
  0
VERTEX
  8
0
 10
316.963
 20
267.607
 30
0.0
 40
0
 41
0
  0
VERTEX
  8
0
 10
315.583
 20
267.675
 30
0.0
 40
0
 41
0
  0
VERTEX
  8
0
 10
314.013
 20
267.821
 30
0.0
 40
0
 41
0
  0
VERTEX
  8
0
 10
312.375
 20
268.114
 30
0.0
 40
0
 41
0
  0
VERTEX
  8
0
 10
310.79
 20
268.619
 30
0.0
 40
0
 41
0
  0
VERTEX
  8
0
 10
309.379
 20
269.405
 30
0.0
 40
0
 41
0
  0
VERTEX
  8
0
 10
308.263
 20
270.538
 30
0.0
 40
0
 41
0
  0
VERTEX
  8
0
 10
307.565
 20
272.085
 30
0.0
 40
0
 41
0
  0
VERTEX
  8
0
 10
307.405
 20
274.112
 30
0.0
 40
0
 41
0
  0
VERTEX
  8
0
 10
308.817
 20
279.706
 30
0.0
 40
0
 41
0
  0
VERTEX
  8
0
 10
311.636
 20
287.005
 30
0.0
 40
0
 41
0
  0
VERTEX
  8
0
 10
314.629
 20
295.523
 30
0.0
 40
0
 41
0
  0
VERTEX
  8
0
 10
316.564
 20
304.776
 30
0.0
 40
0
 41
0
  0
VERTEX
  8
0
 10
316.548
 20
314.244
 30
0.0
 40
0
 41
0
  0
VERTEX
  8
0
 10
315.038
 20
323.277
 30
0.0
 40
0
 41
0
  0
VERTEX
  8
0
 10
312.831
 20
331.19
 30
0.0
 40
0
 41
0
  0
VERTEX
  8
0
 10
310.724
 20
337.299
 30
0.0
 40
0
 41
0
  0
VERTEX
  8
0
 10
309.342
 20
341.136
 30
0.0
 40
0
 41
0
  0
VERTEX
  8
0
 10
308.633
 20
343.106
 30
0.0
 40
0
 41
0
  0
VERTEX
  8
0
 10
308.371
 20
343.832
 30
0.0
 40
0
 41
0
  0
VERTEX
  8
0
 10
308.334
 20
343.936
 30
0.0
 40
0
 41
0
  0
SEQEND
  8
0
  0
POLYLINE
8
0
 62
     7
 66
     1
 10
0
 20
0
 30
0.0
 40
0
 41
0
  0
VERTEX
  8
0
 10
309.158
 20
335.768
 30
0.0
 40
0
 41
0
  0
VERTEX
  8
0
 10
308.334
 20
343.936
 30
0.0
 40
0
 41
0
  0
VERTEX
  8
0
 10
312.905
 20
337.116
 30
0.0
 40
0
 41
0
  0
SEQEND
  8
0
  0
POLYLINE
8
0
 62
     0
 66
     1
 10
0
 20
0
 30
0.0
 40
0
 41
0
  0
VERTEX
  8
0
 10
309.158
 20
335.768
 30
0.0
 40
0
 41
0
  0
VERTEX
  8
0
 10
308.334
 20
343.936
 30
0.0
 40
0
 41
0
  0
VERTEX
  8
0
 10
312.905
 20
337.116
 30
0.0
 40
0
 41
0
  0
SEQEND
  8
0
  0
POLYLINE
8
0
 62
     7
 66
     1
 10
0
 20
0
 30
0.0
 70
     1
 40
0
 41
0
  0
VERTEX
  8
0
 10
327.449
 20
373.604
 30
0.0
 40
0
 41
0
  0
VERTEX
  8
0
 10
338.202
 20
382.465
 30
0.0
 40
0
 41
0
  0
VERTEX
  8
0
 10
518.005
 20
382.465
 30
0.0
 40
0
 41
0
  0
VERTEX
  8
0
 10
531.247
 20
373.505
 30
0.0
 40
0
 41
0
  0
VERTEX
  8
0
 10
517.308
 20
364.544
 30
0.0
 40
0
 41
0
  0
VERTEX
  8
0
 10
336.708
 20
364.445
 30
0.0
 40
0
 41
0
  0
VERTEX
  8
0
 10
327.449
 20
373.604
 30
0.0
 40
0
 41
0
  0
SEQEND
  8
0
  0
POLYLINE
8
0
 62
     0
 66
     1
 10
0
 20
0
 30
0.0
 70
     1
 40
0.796472
 41
0.796472
  0
VERTEX
  8
0
 10
327.449
 20
373.604
 30
0.0
 40
0.796472
 41
0.796472
  0
VERTEX
  8
0
 10
338.202
 20
382.465
 30
0.0
 40
0.796472
 41
0.796472
  0
VERTEX
  8
0
 10
518.005
 20
382.465
 30
0.0
 40
0.796472
 41
0.796472
  0
VERTEX
  8
0
 10
531.247
 20
373.505
 30
0.0
 40
0.796472
 41
0.796472
  0
VERTEX
  8
0
 10
517.308
 20
364.544
 30
0.0
 40
0.796472
 41
0.796472
  0
VERTEX
  8
0
 10
336.708
 20
364.445
 30
0.0
 40
0.796472
 41
0.796472
  0
VERTEX
  8
0
 10
327.449
 20
373.604
 30
0.0
 40
0.796472
 41
0.796472
  0
SEQEND
  8
0
  0
POLYLINE
8
0
 62
     0
 66
     1
 10
0
 20
0
 30
0.0
 40
0
 41
0
  0
VERTEX
  8
0
 10
449.31
 20
1016.95
 30
0.0
 40
0
 41
0
  0
VERTEX
  8
0
 10
448.729
 20
1016.94
 30
0.0
 40
0
 41
0
  0
VERTEX
  8
0
 10
447.35
 20
1016.9
 30
0.0
 40
0
 41
0
  0
VERTEX
  8
0
 10
444.664
 20
1016.82
 30
0.0
 40
0
 41
0
  0
VERTEX
  8
0
 10
440.492
 20
1016.66
 30
0.0
 40
0
 41
0
  0
VERTEX
  8
0
 10
435.687
 20
1016.21
 30
0.0
 40
0
 41
0
  0
VERTEX
  8
0
 10
431.354
 20
1015.24
 30
0.0
 40
0
 41
0
  0
VERTEX
  8
0
 10
428.602
 20
1013.5
 30
0.0
 40
0
 41
0
  0
VERTEX
  8
0
 10
428.187
 20
1010.84
 30
0.0
 40
0
 41
0
  0
VERTEX
  8
0
 10
429.464
 20
1007.31
 30
0.0
 40
0
 41
0
  0
VERTEX
  8
0
 10
431.439
 20
1003.07
 30
0.0
 40
0
 41
0
  0
VERTEX
  8
0
 10
433.115
 20
998.237
 30
0.0
 40
0
 41
0
  0
VERTEX
  8
0
 10
433.731
 20
993.017
 30
0.0
 40
0
 41
0
  0
VERTEX
  8
0
 10
433.463
 20
987.833
 30
0.0
 40
0
 41
0
  0
VERTEX
  8
0
 10
432.723
 20
983.173
 30
0.0
 40
0
 41
0
  0
VERTEX
  8
0
 10
431.92
 20
979.52
 30
0.0
 40
0
 41
0
  0
VERTEX
  8
0
 10
431.383
 20
977.218
 30
0.0
 40
0
 41
0
  0
VERTEX
  8
0
 10
431.005
 20
975.6
 30
0.0
 40
0
 41
0
  0
VERTEX
  8
0
 10
430.991
 20
975.538
 30
0.0
 40
0
 41
0
  0
SEQEND
  8
0
  0
POLYLINE
8
0
 62
     7
 66
     1
 10
0
 20
0
 30
0.0
 40
0
 41
0
  0
VERTEX
  8
0
 10
192.248
 20
1241.96
 30
0.0
 40
0
 41
0
  0
VERTEX
  8
0
 10
172.635
 20
1241.56
 30
0.0
 40
0
 41
0
  0
VERTEX
  8
0
 10
192.248
 20
1241.16
 30
0.0
 40
0
 41
0
  0
SEQEND
  8
0
  0
POLYLINE
8
0
 62
     0
 66
     1
 10
0
 20
0
 30
0.0
 40
0
 41
0
  0
VERTEX
  8
0
 10
192.248
 20
1241.96
 30
0.0
 40
0
 41
0
  0
VERTEX
  8
0
 10
172.635
 20
1241.56
 30
0.0
 40
0
 41
0
  0
VERTEX
  8
0
 10
192.248
 20
1241.16
 30
0.0
 40
0
 41
0
  0
SEQEND
  8
0
  0
POLYLINE
8
0
 62
     7
 66
     1
 10
0
 20
0
 30
0.0
 40
0
 41
0
  0
VERTEX
  8
0
 10
217.039
 20
1241.26
 30
0.0
 40
0
 41
0
  0
VERTEX
  8
0
 10
236.652
 20
1241.66
 30
0.0
 40
0
 41
0
  0
VERTEX
  8
0
 10
217.039
 20
1242.05
 30
0.0
 40
0
 41
0
  0
SEQEND
  8
0
  0
POLYLINE
8
0
 62
     0
 66
     1
 10
0
 20
0
 30
0.0
 40
0
 41
0
  0
VERTEX
  8
0
 10
217.039
 20
1241.26
 30
0.0
 40
0
 41
0
  0
VERTEX
  8
0
 10
236.652
 20
1241.66
 30
0.0
 40
0
 41
0
  0
VERTEX
  8
0
 10
217.039
 20
1242.05
 30
0.0
 40
0
 41
0
  0
SEQEND
  8
0
  0
POLYLINE
8
0
 62
     0
 66
     1
 10
0
 20
0
 30
0.0
 40
0
 41
0
  0
VERTEX
  8
0
 10
269.705
 20
1131.75
 30
0.0
 40
0
 41
0
  0
VERTEX
  8
0
 10
269.705
 20
1142.9
 30
0.0
 40
0
 41
0
  0
SEQEND
  8
0
  0
POLYLINE
8
0
 62
     0
 66
     1
 10
0
 20
0
 30
0.0
 40
0
 41
0
  0
VERTEX
  8
0
 10
271.796
 20
1131.75
 30
0.0
 40
0
 41
0
  0
VERTEX
  8
0
 10
271.796
 20
1142.9
 30
0.0
 40
0
 41
0
  0
SEQEND
  8
0
  0
POLYLINE
8
0
 62
     0
 66
     1
 10
0
 20
0
 30
0.0
 70
     1
 40
0
 41
0
  0
VERTEX
  8
0
 10
265.483
 20
1141.74
 30
0.0
 40
0
 41
0
  0
VERTEX
  8
0
 10
269.087
 20
1140.84
 30
0.0
 40
0
 41
0
  0
VERTEX
  8
0
 10
265.483
 20
1139.94
 30
0.0
 40
0
 41
0
  0
VERTEX
  8
0
 10
265.483
 20
1141.74
 30
0.0
 40
0
 41
0
  0
SEQEND
  8
0
  0
POLYLINE
8
0
 62
     0
 66
     1
 10
0
 20
0
 30
0.0
 70
     1
 40
0
 41
0
  0
VERTEX
  8
0
 10
265.483
 20
1141.74
 30
0.0
 40
0
 41
0
  0
VERTEX
  8
0
 10
269.087
 20
1140.84
 30
0.0
 40
0
 41
0
  0
VERTEX
  8
0
 10
265.483
 20
1139.94
 30
0.0
 40
0
 41
0
  0
VERTEX
  8
0
 10
265.483
 20
1141.74
 30
0.0
 40
0
 41
0
  0
SEQEND
  8
0
  0
POLYLINE
8
0
 62
     0
 66
     1
 10
0
 20
0
 30
0.0
 40
0
 41
0
  0
VERTEX
  8
0
 10
266.203
 20
1140.84
 30
0.0
 40
0
 41
0
  0
VERTEX
  8
0
 10
259.015
 20
1140.84
 30
0.0
 40
0
 41
0
  0
SEQEND
  8
0
  0
POLYLINE
8
0
 62
     0
 66
     1
 10
0
 20
0
 30
0.0
 70
     1
 40
0
 41
0
  0
VERTEX
  8
0
 10
276.156
 20
1140.04
 30
0.0
 40
0
 41
0
  0
VERTEX
  8
0
 10
272.552
 20
1140.93
 30
0.0
 40
0
 41
0
  0
VERTEX
  8
0
 10
276.156
 20
1141.83
 30
0.0
 40
0
 41
0
  0
VERTEX
  8
0
 10
276.156
 20
1140.04
 30
0.0
 40
0
 41
0
  0
SEQEND
  8
0
  0
POLYLINE
8
0
 62
     0
 66
     1
 10
0
 20
0
 30
0.0
 70
     1
 40
0
 41
0
  0
VERTEX
  8
0
 10
276.156
 20
1140.04
 30
0.0
 40
0
 41
0
  0
VERTEX
  8
0
 10
272.552
 20
1140.93
 30
0.0
 40
0
 41
0
  0
VERTEX
  8
0
 10
276.156
 20
1141.83
 30
0.0
 40
0
 41
0
  0
VERTEX
  8
0
 10
276.156
 20
1140.04
 30
0.0
 40
0
 41
0
  0
SEQEND
  8
0
  0
POLYLINE
8
0
 62
     0
 66
     1
 10
0
 20
0
 30
0.0
 40
0
 41
0
  0
VERTEX
  8
0
 10
275.4
 20
1140.94
 30
0.0
 40
0
 41
0
  0
VERTEX
  8
0
 10
289.338
 20
1140.94
 30
0.0
 40
0
 41
0
  0
SEQEND
  8
0
  0
TEXT
  8
0
 62
     0
 10
292.006
 20
1138.1
 30
0
 40
8.76119
  1
1/32"
 50
0
  0
TEXT
  8
0
 62
     0
 10
170.068
 20
108.73
 30
0
 40
8.32313
  1
laminated
 50
0
  0
TEXT
  8
0
 62
     0
 10
170.068
 20
100.407
 30
0
 40
8.32313
  1
very hard 1/32" balsa
 50
0
  0
TEXT
  8
0
 62
     0
 10
170.068
 20
92.084
 30
0
 40
8.32313
  1
or 0.020" basswood
 50
0
  0
POLYLINE
8
0
 62
     0
 66
     1
 10
0
 20
0
 30
0.0
 40
0.796472
 41
0.796472
  0
VERTEX
  8
0
 10
474.299
 20
209.074
 30
0.0
 40
0.796472
 41
0.796472
  0
VERTEX
  8
0
 10
517.308
 20
168.454
 30
0.0
 40
0.796472
 41
0.796472
  0
SEQEND
  8
0
  0
POLYLINE
8
0
 62
     0
 66
     1
 10
0
 20
0
 30
0.0
 40
0.796472
 41
0.796472
  0
VERTEX
  8
0
 10
143.962
 20
386.09
 30
0.0
 40
0.796472
 41
0.796472
  0
VERTEX
  8
0
 10
211.662
 20
1088.78
 30
0.0
 40
0.796472
 41
0.796472
  0
SEQEND
  8
0
  0
POLYLINE
8
0
 62
     0
 66
     1
 10
0
 20
0
 30
0.0
 40
0.796472
 41
0.796472
  0
VERTEX
  8
0
 10
255.866
 20
1113.47
 30
0.0
 40
0.796472
 41
0.796472
  0
VERTEX
  8
0
 10
211.861
 20
1088.58
 30
0.0
 40
0.796472
 41
0.796472
  0
SEQEND
  8
0
  0
POLYLINE
8
0
 62
     0
 66
     1
 10
0
 20
0
 30
0.0
 40
0.796472
 41
0.796472
  0
VERTEX
  8
0
 10
256.066
 20
1113.67
 30
0.0
 40
0.796472
 41
0.796472
  0
VERTEX
  8
0
 10
269.207
 20
1129.99
 30
0.0
 40
0.796472
 41
0.796472
  0
SEQEND
  8
0
  0
POLYLINE
8
0
 62
     0
 66
     1
 10
0
 20
0
 30
0.0
 40
0.796472
 41
0.796472
  0
VERTEX
  8
0
 10
243.72
 20
386.09
 30
0.0
 40
0.796472
 41
0.796472
  0
VERTEX
  8
0
 10
255.866
 20
1113.07
 30
0.0
 40
0.796472
 41
0.796472
  0
SEQEND
  8
0
  0
POLYLINE
8
0
 62
     0
 66
     1
 10
0
 20
0
 30
0.0
 40
0.796472
 41
0.796472
  0
VERTEX
  8
0
 10
240.335
 20
1104.51
 30
0.0
 40
0.796472
 41
0.796472
  0
VERTEX
  8
0
 10
255.468
 20
1096.34
 30
0.0
 40
0.796472
 41
0.796472
  0
SEQEND
  8
0
  0
POLYLINE
8
0
 62
     0
 66
     1
 10
0
 20
0
 30
0.0
 40
0.796472
 41
0.796472
  0
VERTEX
  8
0
 10
178.21
 20
1031.63
 30
0.0
 40
0.796472
 41
0.796472
  0
VERTEX
  8
0
 10
178.551
 20
1033.65
 30
0.0
 40
0.796472
 41
0.796472
  0
VERTEX
  8
0
 10
179.358
 20
1038.43
 30
0.0
 40
0.796472
 41
0.796472
  0
VERTEX
  8
0
 10
180.932
 20
1047.76
 30
0.0
 40
0.796472
 41
0.796472
  0
VERTEX
  8
0
 10
182.11
 20
1054.5
 30
0.0
 40
0.796472
 41
0.796472
  0
VERTEX
  8
0
 10
183.729
 20
1062.39
 30
0.0
 40
0.796472
 41
0.796472
  0
VERTEX
  8
0
 10
185.971
 20
1071.05
 30
0.0
 40
0.796472
 41
0.796472
  0
VERTEX
  8
0
 10
189.021
 20
1080.12
 30
0.0
 40
0.796472
 41
0.796472
  0
VERTEX
  8
0
 10
193.063
 20
1089.24
 30
0.0
 40
0.796472
 41
0.796472
  0
VERTEX
  8
0
 10
198.283
 20
1098.02
 30
0.0
 40
0.796472
 41
0.796472
  0
VERTEX
  8
0
 10
204.864
 20
1106.11
 30
0.0
 40
0.796472
 41
0.796472
  0
VERTEX
  8
0
 10
212.99
 20
1113.14
 30
0.0
 40
0.796472
 41
0.796472
  0
VERTEX
  8
0
 10
222.768
 20
1118.82
 30
0.0
 40
0.796472
 41
0.796472
  0
VERTEX
  8
0
 10
233.993
 20
1123.24
 30
0.0
 40
0.796472
 41
0.796472
  0
VERTEX
  8
0
 10
246.383
 20
1126.55
 30
0.0
 40
0.796472
 41
0.796472
  0
VERTEX
  8
0
 10
259.654
 20
1128.93
 30
0.0
 40
0.796472
 41
0.796472
  0
VERTEX
  8
0
 10
273.524
 20
1130.54
 30
0.0
 40
0.796472
 41
0.796472
  0
VERTEX
  8
0
 10
287.71
 20
1131.54
 30
0.0
 40
0.796472
 41
0.796472
  0
VERTEX
  8
0
 10
301.93
 20
1132.1
 30
0.0
 40
0.796472
 41
0.796472
  0
VERTEX
  8
0
 10
315.901
 20
1132.38
 30
0.0
 40
0.796472
 41
0.796472
  0
VERTEX
  8
0
 10
342.186
 20
1132.58
 30
0.0
 40
0.796472
 41
0.796472
  0
VERTEX
  8
0
 10
365.423
 20
1132.48
 30
0.0
 40
0.796472
 41
0.796472
  0
VERTEX
  8
0
 10
384.689
 20
1132.21
 30
0.0
 40
0.796472
 41
0.796472
  0
VERTEX
  8
0
 10
399.065
 20
1131.92
 30
0.0
 40
0.796472
 41
0.796472
  0
VERTEX
  8
0
 10
404.181
 20
1131.81
 30
0.0
 40
0.796472
 41
0.796472
  0
VERTEX
  8
0
 10
414.533
 20
1131.59
 30
0.0
 40
0.796472
 41
0.796472
  0
VERTEX
  8
0
 10
414.563
 20
1131.59
 30
0.0
 40
0.796472
 41
0.796472
  0
SEQEND
  8
0
  0
POLYLINE
8
0
 62
     0
 66
     1
 10
0
 20
0
 30
0.0
 40
0.796472
 41
0.796472
  0
VERTEX
  8
0
 10
211.463
 20
1088.58
 30
0.0
 40
0.796472
 41
0.796472
  0
VERTEX
  8
0
 10
198.919
 20
1098.53
 30
0.0
 40
0.796472
 41
0.796472
  0
SEQEND
  8
0
  0
POLYLINE
8
0
 62
     7
 66
     1
 10
0
 20
0
 30
0.0
 70
     1
 40
0
 41
0
  0
VERTEX
  8
0
 10
158.099
 20
251.834
 30
0.0
 40
0
 41
0
  0
VERTEX
  8
0
 10
247.901
 20
251.834
 30
0.0
 40
0
 41
0
  0
VERTEX
  8
0
 10
248.399
 20
238.394
 30
0.0
 40
0
 41
0
  0
VERTEX
  8
0
 10
159.891
 20
238.394
 30
0.0
 40
0
 41
0
  0
VERTEX
  8
0
 10
158.099
 20
251.834
 30
0.0
 40
0
 41
0
  0
SEQEND
  8
0
  0
POLYLINE
8
0
 62
     0
 66
     1
 10
0
 20
0
 30
0.0
 70
     1
 40
0.796472
 41
0.796472
  0
VERTEX
  8
0
 10
158.099
 20
251.834
 30
0.0
 40
0.796472
 41
0.796472
  0
VERTEX
  8
0
 10
247.901
 20
251.834
 30
0.0
 40
0.796472
 41
0.796472
  0
VERTEX
  8
0
 10
248.399
 20
238.394
 30
0.0
 40
0.796472
 41
0.796472
  0
VERTEX
  8
0
 10
159.891
 20
238.394
 30
0.0
 40
0.796472
 41
0.796472
  0
VERTEX
  8
0
 10
158.099
 20
251.834
 30
0.0
 40
0.796472
 41
0.796472
  0
SEQEND
  8
0
  0
POLYLINE
8
0
 62
     7
 66
     1
 10
0
 20
0
 30
0.0
 70
     1
 40
0
 41
0
  0
VERTEX
  8
0
 10
298.777
 20
373.894
 30
0.0
 40
0
 41
0
  0
VERTEX
  8
0
 10
475.792
 20
517.159
 30
0.0
 40
0
 41
0
  0
VERTEX
  8
0
 10
508.945
 20
521.141
 30
0.0
 40
0
 41
0
  0
VERTEX
  8
0
 10
327.25
 20
373.794
 30
0.0
 40
0
 41
0
  0
VERTEX
  8
0
 10
298.777
 20
373.894
 30
0.0
 40
0
 41
0
  0
SEQEND
  8
0
  0
POLYLINE
8
0
 62
     0
 66
     1
 10
0
 20
0
 30
0.0
 70
     1
 40
0.796472
 41
0.796472
  0
VERTEX
  8
0
 10
298.777
 20
373.894
 30
0.0
 40
0.796472
 41
0.796472
  0
VERTEX
  8
0
 10
475.792
 20
517.159
 30
0.0
 40
0.796472
 41
0.796472
  0
VERTEX
  8
0
 10
508.945
 20
521.141
 30
0.0
 40
0.796472
 41
0.796472
  0
VERTEX
  8
0
 10
327.25
 20
373.794
 30
0.0
 40
0.796472
 41
0.796472
  0
VERTEX
  8
0
 10
298.777
 20
373.894
 30
0.0
 40
0.796472
 41
0.796472
  0
SEQEND
  8
0
  0
POLYLINE
8
0
 62
     7
 66
     1
 10
0
 20
0
 30
0.0
 70
     1
 40
0
 41
0
  0
VERTEX
  8
0
 10
294.296
 20
625.678
 30
0.0
 40
0
 41
0
  0
VERTEX
  8
0
 10
508.945
 20
521.042
 30
0.0
 40
0
 41
0
  0
VERTEX
  8
0
 10
475.792
 20
517.159
 30
0.0
 40
0
 41
0
  0
VERTEX
  8
0
 10
294.595
 20
605.468
 30
0.0
 40
0
 41
0
  0
VERTEX
  8
0
 10
294.296
 20
625.678
 30
0.0
 40
0
 41
0
  0
SEQEND
  8
0
  0
POLYLINE
8
0
 62
     0
 66
     1
 10
0
 20
0
 30
0.0
 70
     1
 40
0.796472
 41
0.796472
  0
VERTEX
  8
0
 10
294.296
 20
625.678
 30
0.0
 40
0.796472
 41
0.796472
  0
VERTEX
  8
0
 10
508.945
 20
521.042
 30
0.0
 40
0.796472
 41
0.796472
  0
VERTEX
  8
0
 10
475.792
 20
517.159
 30
0.0
 40
0.796472
 41
0.796472
  0
VERTEX
  8
0
 10
294.595
 20
605.468
 30
0.0
 40
0.796472
 41
0.796472
  0
VERTEX
  8
0
 10
294.296
 20
625.678
 30
0.0
 40
0.796472
 41
0.796472
  0
SEQEND
  8
0
  0
POLYLINE
8
0
 62
     7
 66
     1
 10
0
 20
0
 30
0.0
 70
     1
 40
0
 41
0
  0
VERTEX
  8
0
 10
293.898
 20
643.499
 30
0.0
 40
0
 41
0
  0
VERTEX
  8
0
 10
439.354
 20
757.096
 30
0.0
 40
0
 41
0
  0
VERTEX
  8
0
 10
464.542
 20
759.685
 30
0.0
 40
0
 41
0
  0
VERTEX
  8
0
 10
294.296
 20
626.674
 30
0.0
 40
0
 41
0
  0
VERTEX
  8
0
 10
293.898
 20
643.499
 30
0.0
 40
0
 41
0
  0
SEQEND
  8
0
  0
POLYLINE
8
0
 62
     0
 66
     1
 10
0
 20
0
 30
0.0
 70
     1
 40
0.796472
 41
0.796472
  0
VERTEX
  8
0
 10
293.898
 20
643.499
 30
0.0
 40
0.796472
 41
0.796472
  0
VERTEX
  8
0
 10
439.354
 20
757.096
 30
0.0
 40
0.796472
 41
0.796472
  0
VERTEX
  8
0
 10
464.542
 20
759.685
 30
0.0
 40
0.796472
 41
0.796472
  0
VERTEX
  8
0
 10
294.296
 20
626.674
 30
0.0
 40
0.796472
 41
0.796472
  0
VERTEX
  8
0
 10
293.898
 20
643.499
 30
0.0
 40
0.796472
 41
0.796472
  0
SEQEND
  8
0
  0
POLYLINE
8
0
 62
     7
 66
     1
 10
0
 20
0
 30
0.0
 70
     1
 40
0
 41
0
  0
VERTEX
  8
0
 10
290.015
 20
856.554
 30
0.0
 40
0
 41
0
  0
VERTEX
  8
0
 10
408.689
 20
949.243
 30
0.0
 40
0
 41
0
  0
VERTEX
  8
0
 10
424.917
 20
950.936
 30
0.0
 40
0
 41
0
  0
VERTEX
  8
0
 10
290.413
 20
845.702
 30
0.0
 40
0
 41
0
  0
VERTEX
  8
0
 10
290.015
 20
856.554
 30
0.0
 40
0
 41
0
  0
SEQEND
  8
0
  0
POLYLINE
8
0
 62
     0
 66
     1
 10
0
 20
0
 30
0.0
 70
     1
 40
0.796472
 41
0.796472
  0
VERTEX
  8
0
 10
290.015
 20
856.554
 30
0.0
 40
0.796472
 41
0.796472
  0
VERTEX
  8
0
 10
408.689
 20
949.243
 30
0.0
 40
0.796472
 41
0.796472
  0
VERTEX
  8
0
 10
424.917
 20
950.936
 30
0.0
 40
0.796472
 41
0.796472
  0
VERTEX
  8
0
 10
290.413
 20
845.702
 30
0.0
 40
0.796472
 41
0.796472
  0
VERTEX
  8
0
 10
290.015
 20
856.554
 30
0.0
 40
0.796472
 41
0.796472
  0
SEQEND
  8
0
  0
POLYLINE
8
0
 62
     7
 66
     1
 10
0
 20
0
 30
0.0
 70
     1
 40
0
 41
0
  0
VERTEX
  8
0
 10
290.413
 20
845.104
 30
0.0
 40
0
 41
0
  0
VERTEX
  8
0
 10
464.542
 20
759.782
 30
0.0
 40
0
 41
0
  0
VERTEX
  8
0
 10
439.354
 20
757.094
 30
0.0
 40
0
 41
0
  0
VERTEX
  8
0
 10
290.513
 20
829.673
 30
0.0
 40
0
 41
0
  0
VERTEX
  8
0
 10
290.413
 20
845.104
 30
0.0
 40
0
 41
0
  0
SEQEND
  8
0
  0
POLYLINE
8
0
 62
     0
 66
     1
 10
0
 20
0
 30
0.0
 70
     1
 40
0.796472
 41
0.796472
  0
VERTEX
  8
0
 10
290.413
 20
845.104
 30
0.0
 40
0.796472
 41
0.796472
  0
VERTEX
  8
0
 10
464.542
 20
759.782
 30
0.0
 40
0.796472
 41
0.796472
  0
VERTEX
  8
0
 10
439.354
 20
757.094
 30
0.0
 40
0.796472
 41
0.796472
  0
VERTEX
  8
0
 10
290.513
 20
829.673
 30
0.0
 40
0.796472
 41
0.796472
  0
VERTEX
  8
0
 10
290.413
 20
845.104
 30
0.0
 40
0.796472
 41
0.796472
  0
SEQEND
  8
0
  0
POLYLINE
8
0
 62
     0
 66
     1
 10
0
 20
0
 30
0.0
 40
0
 41
0
  0
VERTEX
  8
0
 10
290.214
 20
863.232
 30
0.0
 40
0
 41
0
  0
VERTEX
  8
0
 10
290.214
 20
862.767
 30
0.0
 40
0
 41
0
  0
VERTEX
  8
0
 10
290.314
 20
860.643
 30
0.0
 40
0
 41
0
  0
VERTEX
  8
0
 10
290.978
 20
859.084
 30
0.0
 40
0
 41
0
  0
VERTEX
  8
0
 10
292.587
 20
859.034
 30
0.0
 40
0
 41
0
  0
VERTEX
  8
0
 10
293.715
 20
859.702
 30
0.0
 40
0
 41
0
  0
VERTEX
  8
0
 10
294.645
 20
860.395
 30
0.0
 40
0
 41
0
  0
VERTEX
  8
0
 10
295.036
 20
860.699
 30
0.0
 40
0
 41
0
  0
VERTEX
  8
0
 10
295.093
 20
860.743
 30
0.0
 40
0
 41
0
  0
SEQEND
  8
0
  0
POLYLINE
8
0
 62
     0
 66
     1
 10
0
 20
0
 30
0.0
 40
0
 41
0
  0
VERTEX
  8
0
 10
295.889
 20
849.688
 30
0.0
 40
0
 41
0
  0
VERTEX
  8
0
 10
295.441
 20
849.356
 30
0.0
 40
0
 41
0
  0
VERTEX
  8
0
 10
294.522
 20
848.657
 30
0.0
 40
0
 41
0
  0
VERTEX
  8
0
 10
293.467
 20
847.747
 30
0.0
 40
0
 41
0
  0
VERTEX
  8
0
 10
292.471
 20
845.955
 30
0.0
 40
0
 41
0
  0
VERTEX
  8
0
 10
293.5
 20
844.096
 30
0.0
 40
0
 41
0
  0
VERTEX
  8
0
 10
294.622
 20
843.308
 30
0.0
 40
0
 41
0
  0
VERTEX
  8
0
 10
295.607
 20
842.769
 30
0.0
 40
0
 41
0
  0
VERTEX
  8
0
 10
296.028
 20
842.551
 30
0.0
 40
0
 41
0
  0
VERTEX
  8
0
 10
296.088
 20
842.52
 30
0.0
 40
0
 41
0
  0
SEQEND
  8
0
  0
POLYLINE
8
0
 62
     0
 66
     1
 10
0
 20
0
 30
0.0
 40
0
 41
0
  0
VERTEX
  8
0
 10
290.712
 20
824.504
 30
0.0
 40
0
 41
0
  0
VERTEX
  8
0
 10
290.712
 20
824.835
 30
0.0
 40
0
 41
0
  0
VERTEX
  8
0
 10
290.812
 20
826.462
 30
0.0
 40
0
 41
0
  0
VERTEX
  8
0
 10
291.542
 20
827.971
 30
0.0
 40
0
 41
0
  0
VERTEX
  8
0
 10
293.466
 20
827.955
 30
0.0
 40
0
 41
0
  0
VERTEX
  8
0
 10
294.752
 20
827.443
 30
0.0
 40
0
 41
0
  0
VERTEX
  8
0
 10
295.79
 20
826.943
 30
0.0
 40
0
 41
0
  0
VERTEX
  8
0
 10
296.225
 20
826.725
 30
0.0
 40
0
 41
0
  0
VERTEX
  8
0
 10
296.287
 20
826.694
 30
0.0
 40
0
 41
0
  0
SEQEND
  8
0
  0
POLYLINE
8
0
 62
     7
 66
     1
 10
0
 20
0
 30
0.0
 70
     1
 40
0
 41
0
  0
VERTEX
  8
0
 10
287.128
 20
1018.04
 30
0.0
 40
0
 41
0
  0
VERTEX
  8
0
 10
424.818
 20
950.936
 30
0.0
 40
0
 41
0
  0
VERTEX
  8
0
 10
408.689
 20
949.243
 30
0.0
 40
0
 41
0
  0
VERTEX
  8
0
 10
287.228
 20
1008.48
 30
0.0
 40
0
 41
0
  0
VERTEX
  8
0
 10
287.128
 20
1018.04
 30
0.0
 40
0
 41
0
  0
SEQEND
  8
0
  0
POLYLINE
8
0
 62
     0
 66
     1
 10
0
 20
0
 30
0.0
 70
     1
 40
0.796472
 41
0.796472
  0
VERTEX
  8
0
 10
287.128
 20
1018.04
 30
0.0
 40
0.796472
 41
0.796472
  0
VERTEX
  8
0
 10
424.818
 20
950.936
 30
0.0
 40
0.796472
 41
0.796472
  0
VERTEX
  8
0
 10
408.689
 20
949.243
 30
0.0
 40
0.796472
 41
0.796472
  0
VERTEX
  8
0
 10
287.228
 20
1008.48
 30
0.0
 40
0.796472
 41
0.796472
  0
VERTEX
  8
0
 10
287.128
 20
1018.04
 30
0.0
 40
0.796472
 41
0.796472
  0
SEQEND
  8
0
  0
POLYLINE
8
0
 62
     7
 66
     1
 10
0
 20
0
 30
0.0
 70
     1
 40
0
 41
0
  0
VERTEX
  8
0
 10
287.028
 20
1028.49
 30
0.0
 40
0
 41
0
  0
VERTEX
  8
0
 10
383.8
 20
1101.07
 30
0.0
 40
0
 41
0
  0
VERTEX
  8
0
 10
392.561
 20
1104.06
 30
0.0
 40
0
 41
0
  0
VERTEX
  8
0
 10
390.271
 20
1094.9
 30
0.0
 40
0
 41
0
  0
VERTEX
  8
0
 10
287.128
 20
1017.94
 30
0.0
 40
0
 41
0
  0
VERTEX
  8
0
 10
287.028
 20
1028.49
 30
0.0
 40
0
 41
0
  0
SEQEND
  8
0
  0
POLYLINE
8
0
 62
     0
 66
     1
 10
0
 20
0
 30
0.0
 70
     1
 40
0.796472
 41
0.796472
  0
VERTEX
  8
0
 10
287.028
 20
1028.49
 30
0.0
 40
0.796472
 41
0.796472
  0
VERTEX
  8
0
 10
383.8
 20
1101.07
 30
0.0
 40
0.796472
 41
0.796472
  0
VERTEX
  8
0
 10
392.561
 20
1104.06
 30
0.0
 40
0.796472
 41
0.796472
  0
VERTEX
  8
0
 10
390.271
 20
1094.9
 30
0.0
 40
0.796472
 41
0.796472
  0
VERTEX
  8
0
 10
287.128
 20
1017.94
 30
0.0
 40
0.796472
 41
0.796472
  0
VERTEX
  8
0
 10
287.028
 20
1028.49
 30
0.0
 40
0.796472
 41
0.796472
  0
SEQEND
  8
0
  0
POLYLINE
8
0
 62
     0
 66
     1
 10
0
 20
0
 30
0.0
 40
0
 41
0
  0
VERTEX
  8
0
 10
411.875
 20
758.897
 30
0.0
 40
0
 41
0
  0
VERTEX
  8
0
 10
412.805
 20
758.765
 30
0.0
 40
0
 41
0
  0
VERTEX
  8
0
 10
414.613
 20
758.417
 30
0.0
 40
0
 41
0
  0
VERTEX
  8
0
 10
416.124
 20
757.57
 30
0.0
 40
0
 41
0
  0
VERTEX
  8
0
 10
416.333
 20
756.857
 30
0.0
 40
0
 41
0
  0
VERTEX
  8
0
 10
416.405
 20
755.844
 30
0.0
 40
0
 41
0
  0
VERTEX
  8
0
 10
416.702
 20
754.434
 30
0.0
 40
0
 41
0
  0
VERTEX
  8
0
 10
417.583
 20
752.526
 30
0.0
 40
0
 41
0
  0
VERTEX
  8
0
 10
419.278
 20
750.097
 30
0.0
 40
0
 41
0
  0
VERTEX
  8
0
 10
421.483
 20
747.432
 30
0.0
 40
0
 41
0
  0
VERTEX
  8
0
 10
423.762
 20
744.891
 30
0.0
 40
0
 41
0
  0
VERTEX
  8
0
 10
425.681
 20
742.835
 30
0.0
 40
0
 41
0
  0
VERTEX
  8
0
 10
426.909
 20
741.531
 30
0.0
 40
0
 41
0
  0
VERTEX
  8
0
 10
427.539
 20
740.861
 30
0.0
 40
0
 41
0
  0
VERTEX
  8
0
 10
427.805
 20
740.579
 30
0.0
 40
0
 41
0
  0
SEQEND
  8
0
  0
POLYLINE
8
0
 62
     0
 66
     1
 10
0
 20
0
 30
0.0
 40
0
 41
0
  0
VERTEX
  8
0
 10
411.776
 20
758.4
 30
0.0
 40
0
 41
0
  0
VERTEX
  8
0
 10
412.705
 20
758.466
 30
0.0
 40
0
 41
0
  0
VERTEX
  8
0
 10
413.533
 20
758.543
 30
0.0
 40
0
 41
0
  0
VERTEX
  8
0
 10
414.456
 20
758.728
 30
0.0
 40
0
 41
0
  0
VERTEX
  8
0
 10
415.216
 20
759.106
 30
0.0
 40
0
 41
0
  0
VERTEX
  8
0
 10
415.559
 20
759.76
 30
0.0
 40
0
 41
0
  0
VERTEX
  8
0
 10
415.342
 20
760.75
 30
0.0
 40
0
 41
0
  0
VERTEX
  8
0
 10
414.866
 20
762.03
 30
0.0
 40
0
 41
0
  0
VERTEX
  8
0
 10
414.546
 20
763.527
 30
0.0
 40
0
 41
0
  0
VERTEX
  8
0
 10
414.796
 20
765.17
 30
0.0
 40
0
 41
0
  0
VERTEX
  8
0
 10
415.891
 20
766.877
 30
0.0
 40
0
 41
0
  0
VERTEX
  8
0
 10
417.558
 20
768.526
 30
0.0
 40
0
 41
0
  0
VERTEX
  8
0
 10
419.388
 20
769.981
 30
0.0
 40
0
 41
0
  0
VERTEX
  8
0
 10
420.969
 20
771.11
 30
0.0
 40
0
 41
0
  0
VERTEX
  8
0
 10
421.985
 20
771.82
 30
0.0
 40
0
 41
0
  0
VERTEX
  8
0
 10
422.507
 20
772.185
 30
0.0
 40
0
 41
0
  0
VERTEX
  8
0
 10
422.727
 20
772.338
 30
0.0
 40
0
 41
0
  0
SEQEND
  8
0
  0
POLYLINE
8
0
 62
     0
 66
     1
 10
0
 20
0
 30
0.0
 40
0
 41
0
  0
VERTEX
  8
0
 10
314.507
 20
1020.13
 30
0.0
 40
0
 41
0
  0
VERTEX
  8
0
 10
314.332
 20
1020.13
 30
0.0
 40
0
 41
0
  0
VERTEX
  8
0
 10
313.113
 20
1020.16
 30
0.0
 40
0
 41
0
  0
VERTEX
  8
0
 10
311.866
 20
1020.21
 30
0.0
 40
0
 41
0
  0
VERTEX
  8
0
 10
310.46
 20
1020.4
 30
0.0
 40
0
 41
0
  0
VERTEX
  8
0
 10
309.256
 20
1020.83
 30
0.0
 40
0
 41
0
  0
VERTEX
  8
0
 10
308.616
 20
1021.64
 30
0.0
 40
0
 41
0
  0
VERTEX
  8
0
 10
308.772
 20
1022.89
 30
0.0
 40
0
 41
0
  0
VERTEX
  8
0
 10
309.429
 20
1024.48
 30
0.0
 40
0
 41
0
  0
VERTEX
  8
0
 10
310.161
 20
1026.26
 30
0.0
 40
0
 41
0
  0
VERTEX
  8
0
 10
310.541
 20
1028.06
 30
0.0
 40
0
 41
0
  0
VERTEX
  8
0
 10
310.262
 20
1029.76
 30
0.0
 40
0
 41
0
  0
VERTEX
  8
0
 10
309.493
 20
1031.26
 30
0.0
 40
0
 41
0
  0
VERTEX
  8
0
 10
308.522
 20
1032.52
 30
0.0
 40
0
 41
0
  0
VERTEX
  8
0
 10
307.637
 20
1033.45
 30
0.0
 40
0
 41
0
  0
VERTEX
  8
0
 10
306.766
 20
1034.34
 30
0.0
 40
0
 41
0
  0
VERTEX
  8
0
 10
306.642
 20
1034.47
 30
0.0
 40
0
 41
0
  0
SEQEND
  8
0
  0
POLYLINE
8
0
 62
     0
 66
     1
 10
0
 20
0
 30
0.0
 40
0
 41
0
  0
VERTEX
  8
0
 10
314.606
 20
1020.03
 30
0.0
 40
0
 41
0
  0
VERTEX
  8
0
 10
314.442
 20
1020.03
 30
0.0
 40
0
 41
0
  0
VERTEX
  8
0
 10
313.295
 20
1020
 30
0.0
 40
0
 41
0
  0
VERTEX
  8
0
 10
312.124
 20
1019.94
 30
0.0
 40
0
 41
0
  0
VERTEX
  8
0
 10
310.804
 20
1019.74
 30
0.0
 40
0
 41
0
  0
VERTEX
  8
0
 10
309.681
 20
1019.24
 30
0.0
 40
0
 41
0
  0
VERTEX
  8
0
 10
309.097
 20
1018.32
 30
0.0
 40
0
 41
0
  0
VERTEX
  8
0
 10
309.267
 20
1016.89
 30
0.0
 40
0
 41
0
  0
VERTEX
  8
0
 10
309.883
 20
1015.11
 30
0.0
 40
0
 41
0
  0
VERTEX
  8
0
 10
310.509
 20
1013.18
 30
0.0
 40
0
 41
0
  0
VERTEX
  8
0
 10
310.707
 20
1011.32
 30
0.0
 40
0
 41
0
  0
VERTEX
  8
0
 10
310.168
 20
1009.7
 30
0.0
 40
0
 41
0
  0
VERTEX
  8
0
 10
309.099
 20
1008.38
 30
0.0
 40
0
 41
0
  0
VERTEX
  8
0
 10
307.834
 20
1007.34
 30
0.0
 40
0
 41
0
  0
VERTEX
  8
0
 10
306.708
 20
1006.59
 30
0.0
 40
0
 41
0
  0
VERTEX
  8
0
 10
305.604
 20
1005.89
 30
0.0
 40
0
 41
0
  0
VERTEX
  8
0
 10
305.447
 20
1005.79
 30
0.0
 40
0
 41
0
  0
SEQEND
  8
0
  0
POLYLINE
8
0
 62
     0
 66
     1
 10
0
 20
0
 30
0.0
 40
0
 41
0
  0
VERTEX
  8
0
 10
388.419
 20
402.974
 30
0.0
 40
0
 41
0
  0
VERTEX
  8
0
 10
386.428
 20
402.974
 30
0.0
 40
0
 41
0
  0
VERTEX
  8
0
 10
384.635
 20
402.989
 30
0.0
 40
0
 41
0
  0
VERTEX
  8
0
 10
382.541
 20
403.086
 30
0.0
 40
0
 41
0
  0
VERTEX
  8
0
 10
380.59
 20
403.353
 30
0.0
 40
0
 41
0
  0
VERTEX
  8
0
 10
379.227
 20
403.87
 30
0.0
 40
0
 41
0
  0
VERTEX
  8
0
 10
378.743
 20
404.708
 30
0.0
 40
0
 41
0
  0
VERTEX
  8
0
 10
378.97
 20
407.343
 30
0.0
 40
0
 41
0
  0
VERTEX
  8
0
 10
378.729
 20
409.114
 30
0.0
 40
0
 41
0
  0
VERTEX
  8
0
 10
377.757
 20
411.136
 30
0.0
 40
0
 41
0
  0
VERTEX
  8
0
 10
376.277
 20
413.217
 30
0.0
 40
0
 41
0
  0
VERTEX
  8
0
 10
374.655
 20
415.129
 30
0.0
 40
0
 41
0
  0
VERTEX
  8
0
 10
373.253
 20
416.647
 30
0.0
 40
0
 41
0
  0
VERTEX
  8
0
 10
372.351
 20
417.606
 30
0.0
 40
0
 41
0
  0
VERTEX
  8
0
 10
371.888
 20
418.099
 30
0.0
 40
0
 41
0
  0
VERTEX
  8
0
 10
371.693
 20
418.306
 30
0.0
 40
0
 41
0
  0
SEQEND
  8
0
  0
POLYLINE
8
0
 62
     7
 66
     1
 10
0
 20
0
 30
0.0
 70
     1
 40
0
 41
0
  0
VERTEX
  8
0
 10
143.763
 20
958.215
 30
0.0
 40
0
 41
0
  0
VERTEX
  8
0
 10
143.763
 20
981.313
 30
0.0
 40
0
 41
0
  0
VERTEX
  8
0
 10
467.927
 20
981.313
 30
0.0
 40
0
 41
0
  0
VERTEX
  8
0
 10
467.927
 20
958.215
 30
0.0
 40
0
 41
0
  0
VERTEX
  8
0
 10
143.763
 20
958.215
 30
0.0
 40
0
 41
0
  0
SEQEND
  8
0
  0
POLYLINE
8
0
 62
     254
 66
     1
 10
0
 20
0
 30
0.0
 70
     1
 40
0
 41
0
  0
VERTEX
  8
0
 10
199.019
 20
961.835
 30
0.0
 40
0
 41
0
  0
VERTEX
  8
0
 10
191.448
 20
962.24
 30
0.0
 40
0
 41
0
  0
VERTEX
  8
0
 10
186.876
 20
962.587
 30
0.0
 40
0
 41
0
  0
VERTEX
  8
0
 10
182.894
 20
963.051
 30
0.0
 40
0
 41
0
  0
VERTEX
  8
0
 10
178.666
 20
963.571
 30
0.0
 40
0
 41
0
  0
VERTEX
  8
0
 10
175.225
 20
964.382
 30
0.0
 40
0
 41
0
  0
VERTEX
  8
0
 10
172.472
 20
965.134
 30
0.0
 40
0
 41
0
  0
VERTEX
  8
0
 10
170.555
 20
965.829
 30
0.0
 40
0
 41
0
  0
VERTEX
  8
0
 10
169.08
 20
966.755
 30
0.0
 40
0
 41
0
  0
VERTEX
  8
0
 10
168.244
 20
967.508
 30
0.0
 40
0
 41
0
  0
VERTEX
  8
0
 10
167.703
 20
968.491
 30
0.0
 40
0
 41
0
  0
VERTEX
  8
0
 10
167.556
 20
969.128
 30
0.0
 40
0
 41
0
  0
VERTEX
  8
0
 10
167.605
 20
969.591
 30
0.0
 40
0
 41
0
  0
VERTEX
  8
0
 10
167.802
 20
970.286
 30
0.0
 40
0
 41
0
  0
VERTEX
  8
0
 10
168.342
 20
971.096
 30
0.0
 40
0
 41
0
  0
VERTEX
  8
0
 10
169.08
 20
971.791
 30
0.0
 40
0
 41
0
  0
VERTEX
  8
0
 10
170.506
 20
972.659
 30
0.0
 40
0
 41
0
  0
VERTEX
  8
0
 10
172.57
 20
973.527
 30
0.0
 40
0
 41
0
  0
VERTEX
  8
0
 10
175.225
 20
974.164
 30
0.0
 40
0
 41
0
  0
VERTEX
  8
0
 10
178.519
 20
974.859
 30
0.0
 40
0
 41
0
  0
VERTEX
  8
0
 10
183.14
 20
975.553
 30
0.0
 40
0
 41
0
  0
VERTEX
  8
0
 10
186.729
 20
975.901
 30
0.0
 40
0
 41
0
  0
VERTEX
  8
0
 10
191.448
 20
976.306
 30
0.0
 40
0
 41
0
  0
VERTEX
  8
0
 10
199.019
 20
976.711
 30
0.0
 40
0
 41
0
  0
VERTEX
  8
0
 10
199.019
 20
961.835
 30
0.0
 40
0
 41
0
  0
SEQEND
  8
0
  0
POLYLINE
8
0
 62
     0
 66
     1
 10
0
 20
0
 30
0.0
 70
     1
 40
0.796472
 41
0.796472
  0
VERTEX
  8
0
 10
199.019
 20
961.835
 30
0.0
 40
0.796472
 41
0.796472
  0
VERTEX
  8
0
 10
191.448
 20
962.24
 30
0.0
 40
0.796472
 41
0.796472
  0
VERTEX
  8
0
 10
186.876
 20
962.587
 30
0.0
 40
0.796472
 41
0.796472
  0
VERTEX
  8
0
 10
182.894
 20
963.051
 30
0.0
 40
0.796472
 41
0.796472
  0
VERTEX
  8
0
 10
178.666
 20
963.571
 30
0.0
 40
0.796472
 41
0.796472
  0
VERTEX
  8
0
 10
175.225
 20
964.382
 30
0.0
 40
0.796472
 41
0.796472
  0
VERTEX
  8
0
 10
172.472
 20
965.134
 30
0.0
 40
0.796472
 41
0.796472
  0
VERTEX
  8
0
 10
170.555
 20
965.829
 30
0.0
 40
0.796472
 41
0.796472
  0
VERTEX
  8
0
 10
169.08
 20
966.755
 30
0.0
 40
0.796472
 41
0.796472
  0
VERTEX
  8
0
 10
168.244
 20
967.508
 30
0.0
 40
0.796472
 41
0.796472
  0
VERTEX
  8
0
 10
167.703
 20
968.492
 30
0.0
 40
0.796472
 41
0.796472
  0
VERTEX
  8
0
 10
167.556
 20
969.128
 30
0.0
 40
0.796472
 41
0.796472
  0
VERTEX
  8
0
 10
167.605
 20
969.591
 30
0.0
 40
0.796472
 41
0.796472
  0
VERTEX
  8
0
 10
167.802
 20
970.286
 30
0.0
 40
0.796472
 41
0.796472
  0
VERTEX
  8
0
 10
168.342
 20
971.096
 30
0.0
 40
0.796472
 41
0.796472
  0
VERTEX
  8
0
 10
169.08
 20
971.791
 30
0.0
 40
0.796472
 41
0.796472
  0
VERTEX
  8
0
 10
170.506
 20
972.659
 30
0.0
 40
0.796472
 41
0.796472
  0
VERTEX
  8
0
 10
172.57
 20
973.527
 30
0.0
 40
0.796472
 41
0.796472
  0
VERTEX
  8
0
 10
175.225
 20
974.164
 30
0.0
 40
0.796472
 41
0.796472
  0
VERTEX
  8
0
 10
178.519
 20
974.859
 30
0.0
 40
0.796472
 41
0.796472
  0
VERTEX
  8
0
 10
183.14
 20
975.553
 30
0.0
 40
0.796472
 41
0.796472
  0
VERTEX
  8
0
 10
186.729
 20
975.901
 30
0.0
 40
0.796472
 41
0.796472
  0
VERTEX
  8
0
 10
191.448
 20
976.306
 30
0.0
 40
0.796472
 41
0.796472
  0
VERTEX
  8
0
 10
199.019
 20
976.711
 30
0.0
 40
0.796472
 41
0.796472
  0
VERTEX
  8
0
 10
199.019
 20
961.835
 30
0.0
 40
0.796472
 41
0.796472
  0
SEQEND
  8
0
  0
POLYLINE
8
0
 62
     254
 66
     1
 10
0
 20
0
 30
0.0
 70
     1
 40
0
 41
0
  0
VERTEX
  8
0
 10
451.002
 20
971.955
 30
0.0
 40
0
 41
0
  0
VERTEX
  8
0
 10
451.002
 20
966.578
 30
0.0
 40
0
 41
0
  0
VERTEX
  8
0
 10
412.871
 20
965.782
 30
0.0
 40
0
 41
0
  0
VERTEX
  8
0
 10
412.871
 20
972.751
 30
0.0
 40
0
 41
0
  0
VERTEX
  8
0
 10
451.002
 20
971.955
 30
0.0
 40
0
 41
0
  0
SEQEND
  8
0
  0
POLYLINE
8
0
 62
     0
 66
     1
 10
0
 20
0
 30
0.0
 70
     1
 40
0
 41
0
  0
VERTEX
  8
0
 10
451.002
 20
971.955
 30
0.0
 40
0
 41
0
  0
VERTEX
  8
0
 10
451.002
 20
966.578
 30
0.0
 40
0
 41
0
  0
VERTEX
  8
0
 10
412.871
 20
965.782
 30
0.0
 40
0
 41
0
  0
VERTEX
  8
0
 10
412.871
 20
972.751
 30
0.0
 40
0
 41
0
  0
VERTEX
  8
0
 10
451.002
 20
971.955
 30
0.0
 40
0
 41
0
  0
SEQEND
  8
0
  0
POLYLINE
8
0
 62
     0
 66
     1
 10
0
 20
0
 30
0.0
 40
0
 41
0
  0
VERTEX
  8
0
 10
451.102
 20
971.95
 30
0.0
 40
0
 41
0
  0
VERTEX
  8
0
 10
450.685
 20
971.961
 30
0.0
 40
0
 41
0
  0
VERTEX
  8
0
 10
449.696
 20
971.986
 30
0.0
 40
0
 41
0
  0
VERTEX
  8
0
 10
447.77
 20
972.033
 30
0.0
 40
0
 41
0
  0
VERTEX
  8
0
 10
433.249
 20
972.395
 30
0.0
 40
0
 41
0
  0
VERTEX
  8
0
 10
424.453
 20
972.614
 30
0.0
 40
0
 41
0
  0
VERTEX
  8
0
 10
413.304
 20
972.892
 30
0.0
 40
0
 41
0
  0
VERTEX
  8
0
 10
400.221
 20
973.218
 30
0.0
 40
0
 41
0
  0
VERTEX
  8
0
 10
385.767
 20
973.578
 30
0.0
 40
0
 41
0
  0
VERTEX
  8
0
 10
370.504
 20
973.958
 30
0.0
 40
0
 41
0
  0
VERTEX
  8
0
 10
354.998
 20
974.345
 30
0.0
 40
0
 41
0
  0
VERTEX
  8
0
 10
339.811
 20
974.724
 30
0.0
 40
0
 41
0
  0
VERTEX
  8
0
 10
325.506
 20
975.081
 30
0.0
 40
0
 41
0
  0
VERTEX
  8
0
 10
312.648
 20
975.402
 30
0.0
 40
0
 41
0
  0
VERTEX
  8
0
 10
301.664
 20
975.676
 30
0.0
 40
0
 41
0
  0
VERTEX
  8
0
 10
292.439
 20
975.906
 30
0.0
 40
0
 41
0
  0
VERTEX
  8
0
 10
284.721
 20
976.095
 30
0.0
 40
0
 41
0
  0
VERTEX
  8
0
 10
268.099
 20
976.466
 30
0.0
 40
0
 41
0
  0
VERTEX
  8
0
 10
263.898
 20
976.54
 30
0.0
 40
0
 41
0
  0
VERTEX
  8
0
 10
259.948
 20
976.597
 30
0.0
 40
0
 41
0
  0
VERTEX
  8
0
 10
229.649
 20
976.762
 30
0.0
 40
0
 41
0
  0
VERTEX
  8
0
 10
216.325
 20
976.816
 30
0.0
 40
0
 41
0
  0
VERTEX
  8
0
 10
205.291
 20
976.796
 30
0.0
 40
0
 41
0
  0
VERTEX
  8
0
 10
197.002
 20
976.593
 30
0.0
 40
0
 41
0
  0
VERTEX
  8
0
 10
190.357
 20
976.165
 30
0.0
 40
0
 41
0
  0
VERTEX
  8
0
 10
178.177
 20
974.572
 30
0.0
 40
0
 41
0
  0
VERTEX
  8
0
 10
172.793
 20
973.357
 30
0.0
 40
0
 41
0
  0
VERTEX
  8
0
 10
168.952
 20
971.619
 30
0.0
 40
0
 41
0
  0
VERTEX
  8
0
 10
167.608
 20
969.263
 30
0.0
 40
0
 41
0
  0
VERTEX
  8
0
 10
168.952
 20
966.906
 30
0.0
 40
0
 41
0
  0
VERTEX
  8
0
 10
172.793
 20
965.172
 30
0.0
 40
0
 41
0
  0
VERTEX
  8
0
 10
178.177
 20
963.986
 30
0.0
 40
0
 41
0
  0
VERTEX
  8
0
 10
190.357
 20
962.492
 30
0.0
 40
0
 41
0
  0
VERTEX
  8
0
 10
197.002
 20
962.024
 30
0.0
 40
0
 41
0
  0
VERTEX
  8
0
 10
205.291
 20
961.729
 30
0.0
 40
0
 41
0
  0
VERTEX
  8
0
 10
216.325
 20
961.613
 30
0.0
 40
0
 41
0
  0
VERTEX
  8
0
 10
229.649
 20
961.596
 30
0.0
 40
0
 41
0
  0
VERTEX
  8
0
 10
259.948
 20
961.729
 30
0.0
 40
0
 41
0
  0
VERTEX
  8
0
 10
263.898
 20
961.786
 30
0.0
 40
0
 41
0
  0
VERTEX
  8
0
 10
272.802
 20
961.956
 30
0.0
 40
0
 41
0
  0
VERTEX
  8
0
 10
278.259
 20
962.078
 30
0.0
 40
0
 41
0
  0
VERTEX
  8
0
 10
292.439
 20
962.42
 30
0.0
 40
0
 41
0
  0
VERTEX
  8
0
 10
301.664
 20
962.649
 30
0.0
 40
0
 41
0
  0
VERTEX
  8
0
 10
312.648
 20
962.924
 30
0.0
 40
0
 41
0
  0
VERTEX
  8
0
 10
325.506
 20
963.245
 30
0.0
 40
0
 41
0
  0
VERTEX
  8
0
 10
339.811
 20
963.602
 30
0.0
 40
0
 41
0
  0
VERTEX
  8
0
 10
354.998
 20
963.981
 30
0.0
 40
0
 41
0
  0
VERTEX
  8
0
 10
370.504
 20
964.367
 30
0.0
 40
0
 41
0
  0
VERTEX
  8
0
 10
385.767
 20
964.748
 30
0.0
 40
0
 41
0
  0
VERTEX
  8
0
 10
400.221
 20
965.108
 30
0.0
 40
0
 41
0
  0
VERTEX
  8
0
 10
413.304
 20
965.434
 30
0.0
 40
0
 41
0
  0
VERTEX
  8
0
 10
424.453
 20
965.711
 30
0.0
 40
0
 41
0
  0
VERTEX
  8
0
 10
433.249
 20
965.931
 30
0.0
 40
0
 41
0
  0
VERTEX
  8
0
 10
439.859
 20
966.095
 30
0.0
 40
0
 41
0
  0
VERTEX
  8
0
 10
451.049
 20
966.374
 30
0.0
 40
0
 41
0
  0
VERTEX
  8
0
 10
451.102
 20
966.375
 30
0.0
 40
0
 41
0
  0
SEQEND
  8
0
  0
POLYLINE
8
0
 62
     7
 66
     1
 10
0
 20
0
 30
0.0
 70
     1
 40
0
 41
0
  0
VERTEX
  8
0
 10
273.842
 20
961.132
 30
0.0
 40
0
 41
0
  0
VERTEX
  8
0
 10
273.072
 20
963.058
 30
0.0
 40
0
 41
0
  0
VERTEX
  8
0
 10
267.898
 20
962.948
 30
0.0
 40
0
 41
0
  0
VERTEX
  8
0
 10
267.073
 20
961.242
 30
0.0
 40
0
 41
0
  0
VERTEX
  8
0
 10
273.842
 20
961.132
 30
0.0
 40
0
 41
0
  0
SEQEND
  8
0
  0
POLYLINE
8
0
 62
     7
 66
     1
 10
0
 20
0
 30
0.0
 70
     1
 40
0
 41
0
  0
VERTEX
  8
0
 10
274.267
 20
977.168
 30
0.0
 40
0
 41
0
  0
VERTEX
  8
0
 10
273.497
 20
975.297
 30
0.0
 40
0
 41
0
  0
VERTEX
  8
0
 10
267.718
 20
975.407
 30
0.0
 40
0
 41
0
  0
VERTEX
  8
0
 10
266.948
 20
977.388
 30
0.0
 40
0
 41
0
  0
VERTEX
  8
0
 10
274.267
 20
977.168
 30
0.0
 40
0
 41
0
  0
SEQEND
  8
0
  0
POLYLINE
8
0
 62
     254
 66
     1
 10
0
 20
0
 30
0.0
 70
     1
 40
0
 41
0
  0
VERTEX
  8
0
 10
287.925
 20
962.498
 30
0.0
 40
0
 41
0
  0
VERTEX
  8
0
 10
273.887
 20
962.15
 30
0.0
 40
0
 41
0
  0
VERTEX
  8
0
 10
271.846
 20
966.879
 30
0.0
 40
0
 41
0
  0
VERTEX
  8
0
 10
271.896
 20
971.459
 30
0.0
 40
0
 41
0
  0
VERTEX
  8
0
 10
274.235
 20
976.188
 30
0.0
 40
0
 41
0
  0
VERTEX
  8
0
 10
287.925
 20
975.839
 30
0.0
 40
0
 41
0
  0
VERTEX
  8
0
 10
287.925
 20
962.498
 30
0.0
 40
0
 41
0
  0
SEQEND
  8
0
  0
POLYLINE
8
0
 62
     0
 66
     1
 10
0
 20
0
 30
0.0
 70
     1
 40
0
 41
0
  0
VERTEX
  8
0
 10
287.925
 20
962.498
 30
0.0
 40
0
 41
0
  0
VERTEX
  8
0
 10
273.887
 20
962.15
 30
0.0
 40
0
 41
0
  0
VERTEX
  8
0
 10
271.846
 20
966.879
 30
0.0
 40
0
 41
0
  0
VERTEX
  8
0
 10
271.896
 20
971.459
 30
0.0
 40
0
 41
0
  0
VERTEX
  8
0
 10
274.235
 20
976.188
 30
0.0
 40
0
 41
0
  0
VERTEX
  8
0
 10
287.925
 20
975.839
 30
0.0
 40
0
 41
0
  0
VERTEX
  8
0
 10
287.925
 20
962.498
 30
0.0
 40
0
 41
0
  0
SEQEND
  8
0
  0
POLYLINE
8
0
 62
     254
 66
     1
 10
0
 20
0
 30
0.0
 70
     1
 40
0
 41
0
  0
VERTEX
  8
0
 10
253.676
 20
961.901
 30
0.0
 40
0
 41
0
  0
VERTEX
  8
0
 10
267.117
 20
962.1
 30
0.0
 40
0
 41
0
  0
VERTEX
  8
0
 10
269.705
 20
967.227
 30
0.0
 40
0
 41
0
  0
VERTEX
  8
0
 10
269.655
 20
970.961
 30
0.0
 40
0
 41
0
  0
VERTEX
  8
0
 10
267.117
 20
976.337
 30
0.0
 40
0
 41
0
  0
VERTEX
  8
0
 10
253.626
 20
976.536
 30
0.0
 40
0
 41
0
  0
VERTEX
  8
0
 10
253.676
 20
961.901
 30
0.0
 40
0
 41
0
  0
SEQEND
  8
0
  0
POLYLINE
8
0
 62
     0
 66
     1
 10
0
 20
0
 30
0.0
 70
     1
 40
0
 41
0
  0
VERTEX
  8
0
 10
253.676
 20
961.901
 30
0.0
 40
0
 41
0
  0
VERTEX
  8
0
 10
267.117
 20
962.1
 30
0.0
 40
0
 41
0
  0
VERTEX
  8
0
 10
269.705
 20
967.227
 30
0.0
 40
0
 41
0
  0
VERTEX
  8
0
 10
269.655
 20
970.961
 30
0.0
 40
0
 41
0
  0
VERTEX
  8
0
 10
267.117
 20
976.337
 30
0.0
 40
0
 41
0
  0
VERTEX
  8
0
 10
253.626
 20
976.536
 30
0.0
 40
0
 41
0
  0
VERTEX
  8
0
 10
253.676
 20
961.901
 30
0.0
 40
0
 41
0
  0
SEQEND
  8
0
  0
POLYLINE
8
0
 62
     0
 66
     1
 10
0
 20
0
 30
0.0
 40
0.796472
 41
0.796472
  0
VERTEX
  8
0
 10
255.819
 20
969.073
 30
0.0
 40
0.796472
 41
0.796472
  0
VERTEX
  8
0
 10
284.911
 20
969.073
 30
0.0
 40
0.796472
 41
0.796472
  0
SEQEND
  8
0
  0
POLYLINE
8
0
 62
     0
 66
     1
 10
0
 20
0
 30
0.0
 40
0
 41
0
  0
VERTEX
  8
0
 10
263.05
 20
704.786
 30
0.0
 40
0
 41
0
  0
VERTEX
  8
0
 10
278.385
 20
662.859
 30
0.0
 40
0
 41
0
  0
SEQEND
  8
0
  0
POLYLINE
8
0
 62
     0
 66
     1
 10
0
 20
0
 30
0.0
 40
0
 41
0
  0
VERTEX
  8
0
 10
267.459
 20
704.786
 30
0.0
 40
0
 41
0
  0
VERTEX
  8
0
 10
278.385
 20
675.065
 30
0.0
 40
0
 41
0
  0
SEQEND
  8
0
  0
POLYLINE
8
0
 62
     0
 66
     1
 10
0
 20
0
 30
0.0
 40
0
 41
0
  0
VERTEX
  8
0
 10
271.867
 20
704.786
 30
0.0
 40
0
 41
0
  0
VERTEX
  8
0
 10
278.385
 20
686.741
 30
0.0
 40
0
 41
0
  0
SEQEND
  8
0
  0
POLYLINE
8
0
 62
     0
 66
     1
 10
0
 20
0
 30
0.0
 40
0
 41
0
  0
VERTEX
  8
0
 10
276.084
 20
704.786
 30
0.0
 40
0
 41
0
  0
VERTEX
  8
0
 10
278.385
 20
698.948
 30
0.0
 40
0
 41
0
  0
SEQEND
  8
0
  0
POLYLINE
8
0
 62
     0
 66
     1
 10
0
 20
0
 30
0.0
 40
0
 41
0
  0
VERTEX
  8
0
 10
265.35
 20
704.786
 30
0.0
 40
0
 41
0
  0
VERTEX
  8
0
 10
263.05
 20
698.948
 30
0.0
 40
0
 41
0
  0
SEQEND
  8
0
  0
POLYLINE
8
0
 62
     0
 66
     1
 10
0
 20
0
 30
0.0
 40
0
 41
0
  0
VERTEX
  8
0
 10
269.567
 20
704.786
 30
0.0
 40
0
 41
0
  0
VERTEX
  8
0
 10
263.05
 20
686.741
 30
0.0
 40
0
 41
0
  0
SEQEND
  8
0
  0
POLYLINE
8
0
 62
     0
 66
     1
 10
0
 20
0
 30
0.0
 40
0
 41
0
  0
VERTEX
  8
0
 10
273.976
 20
704.786
 30
0.0
 40
0
 41
0
  0
VERTEX
  8
0
 10
263.05
 20
675.065
 30
0.0
 40
0
 41
0
  0
SEQEND
  8
0
  0
POLYLINE
8
0
 62
     0
 66
     1
 10
0
 20
0
 30
0.0
 40
0
 41
0
  0
VERTEX
  8
0
 10
278.385
 20
704.786
 30
0.0
 40
0
 41
0
  0
VERTEX
  8
0
 10
263.05
 20
662.859
 30
0.0
 40
0
 41
0
  0
SEQEND
  8
0
  0
POLYLINE
8
0
 62
     0
 66
     1
 10
0
 20
0
 30
0.0
 40
0
 41
0
  0
VERTEX
  8
0
 10
263.05
 20
693.11
 30
0.0
 40
0
 41
0
  0
VERTEX
  8
0
 10
273.976
 20
662.859
 30
0.0
 40
0
 41
0
  0
SEQEND
  8
0
  0
POLYLINE
8
0
 62
     0
 66
     1
 10
0
 20
0
 30
0.0
 40
0
 41
0
  0
VERTEX
  8
0
 10
263.05
 20
680.904
 30
0.0
 40
0
 41
0
  0
VERTEX
  8
0
 10
269.567
 20
662.859
 30
0.0
 40
0
 41
0
  0
SEQEND
  8
0
  0
POLYLINE
8
0
 62
     0
 66
     1
 10
0
 20
0
 30
0.0
 40
0
 41
0
  0
VERTEX
  8
0
 10
263.05
 20
668.697
 30
0.0
 40
0
 41
0
  0
VERTEX
  8
0
 10
265.35
 20
662.859
 30
0.0
 40
0
 41
0
  0
SEQEND
  8
0
  0
POLYLINE
8
0
 62
     0
 66
     1
 10
0
 20
0
 30
0.0
 40
0
 41
0
  0
VERTEX
  8
0
 10
278.385
 20
693.11
 30
0.0
 40
0
 41
0
  0
VERTEX
  8
0
 10
267.459
 20
662.859
 30
0.0
 40
0
 41
0
  0
SEQEND
  8
0
  0
POLYLINE
8
0
 62
     0
 66
     1
 10
0
 20
0
 30
0.0
 40
0
 41
0
  0
VERTEX
  8
0
 10
278.385
 20
680.904
 30
0.0
 40
0
 41
0
  0
VERTEX
  8
0
 10
271.867
 20
662.859
 30
0.0
 40
0
 41
0
  0
SEQEND
  8
0
  0
POLYLINE
8
0
 62
     0
 66
     1
 10
0
 20
0
 30
0.0
 40
0
 41
0
  0
VERTEX
  8
0
 10
278.385
 20
668.697
 30
0.0
 40
0
 41
0
  0
VERTEX
  8
0
 10
276.084
 20
662.859
 30
0.0
 40
0
 41
0
  0
SEQEND
  8
0
  0
POLYLINE
8
0
 62
     0
 66
     1
 10
0
 20
0
 30
0.0
 40
0
 41
0
  0
VERTEX
  8
0
 10
317.394
 20
631.142
 30
0.0
 40
0
 41
0
  0
VERTEX
  8
0
 10
316.962
 20
631.109
 30
0.0
 40
0
 41
0
  0
VERTEX
  8
0
 10
315.938
 20
631.03
 30
0.0
 40
0
 41
0
  0
VERTEX
  8
0
 10
313.943
 20
630.876
 30
0.0
 40
0
 41
0
  0
VERTEX
  8
0
 10
310.846
 20
630.698
 30
0.0
 40
0
 41
0
  0
VERTEX
  8
0
 10
307.289
 20
630.844
 30
0.0
 40
0
 41
0
  0
VERTEX
  8
0
 10
304.105
 20
631.735
 30
0.0
 40
0
 41
0
  0
VERTEX
  8
0
 10
302.128
 20
633.797
 30
0.0
 40
0
 41
0
  0
VERTEX
  8
0
 10
301.877
 20
637.3
 30
0.0
 40
0
 41
0
  0
VERTEX
  8
0
 10
302.609
 20
641.911
 30
0.0
 40
0
 41
0
  0
VERTEX
  8
0
 10
303.267
 20
647.144
 30
0.0
 40
0
 41
0
  0
VERTEX
  8
0
 10
302.792
 20
652.514
 30
0.0
 40
0
 41
0
  0
VERTEX
  8
0
 10
300.454
 20
657.583
 30
0.0
 40
0
 41
0
  0
VERTEX
  8
0
 10
296.835
 20
662.105
 30
0.0
 40
0
 41
0
  0
VERTEX
  8
0
 10
292.842
 20
665.88
 30
0.0
 40
0
 41
0
  0
VERTEX
  8
0
 10
289.385
 20
668.709
 30
0.0
 40
0
 41
0
  0
VERTEX
  8
0
 10
287.159
 20
670.474
 30
0.0
 40
0
 41
0
  0
VERTEX
  8
0
 10
286.016
 20
671.381
 30
0.0
 40
0
 41
0
  0
VERTEX
  8
0
 10
285.595
 20
671.715
 30
0.0
 40
0
 41
0
  0
VERTEX
  8
0
 10
285.535
 20
671.762
 30
0.0
 40
0
 41
0
  0
SEQEND
  8
0
  0
POLYLINE
8
0
 62
     7
 66
     1
 10
0
 20
0
 30
0.0
 40
0
 41
0
  0
VERTEX
  8
0
 10
290.538
 20
665.253
 30
0.0
 40
0
 41
0
  0
VERTEX
  8
0
 10
285.535
 20
671.762
 30
0.0
 40
0
 41
0
  0
VERTEX
  8
0
 10
293.013
 20
668.373
 30
0.0
 40
0
 41
0
  0
SEQEND
  8
0
  0
POLYLINE
8
0
 62
     0
 66
     1
 10
0
 20
0
 30
0.0
 40
0
 41
0
  0
VERTEX
  8
0
 10
290.538
 20
665.253
 30
0.0
 40
0
 41
0
  0
VERTEX
  8
0
 10
285.535
 20
671.762
 30
0.0
 40
0
 41
0
  0
VERTEX
  8
0
 10
293.013
 20
668.373
 30
0.0
 40
0
 41
0
  0
SEQEND
  8
0
  0
TEXT
  8
0
 62
     0
 10
326.385
 20
643.198
 30
0
 40
8.32313
  1
0.8 oz Kevlar or
 50
0
  0
TEXT
  8
0
 62
     0
 10
326.385
 20
634.874
 30
0
 40
8.32313
  1
2 oz glass hinge,
 50
0
  0
TEXT
  8
0
 62
     0
 10
326.385
 20
626.551
 30
0
 40
8.32313
  1
sheared bias,
 50
0
  0
TEXT
  8
0
 62
     0
 10
326.385
 20
618.228
 30
0
 40
8.32313
  1
glued into slits
 50
0
  0
TEXT
  8
0
 62
     0
 10
105.134
 20
1195.35
 30
0
 40
8.76119
  1
Hinge spar construction:
 50
0
  0
TEXT
  8
0
 62
     0
 10
105.134
 20
1186.59
 30
0
 40
8.76119
  1
1) Sand bevels in 3/8" sheet stock
 50
0
  0
TEXT
  8
0
 62
     0
 10
105.134
 20
1177.83
 30
0
 40
8.76119
  1
2) Cut slits and join by installing hinge
 50
0
  0
TEXT
  8
0
 62
     0
 10
105.134
 20
1169.07
 30
0
 40
8.76119
  1
3) Trim hinge spar and LE widths, taper to 5% chord thickness
 50
0
  0
TEXT
  8
0
 62
     0
 10
105.134
 20
1160.31
 30
0
 40
8.76119
  1
    (0.28" bottom, 0.35" root, 0.15" top)
 50
0
  0
POLYLINE
8
0
 62
     7
 66
     1
 10
0
 20
0
 30
0.0
 70
     1
 40
0
 41
0
  0
VERTEX
  8
0
 10
301.465
 20
373.944
 30
0.0
 40
0
 41
0
  0
VERTEX
  8
0
 10
470.117
 20
202.304
 30
0.0
 40
0
 41
0
  0
VERTEX
  8
0
 10
483.856
 20
200.114
 30
0.0
 40
0
 41
0
  0
VERTEX
  8
0
 10
481.069
 20
215.844
 30
0.0
 40
0
 41
0
  0
VERTEX
  8
0
 10
327.35
 20
373.744
 30
0.0
 40
0
 41
0
  0
VERTEX
  8
0
 10
301.465
 20
373.944
 30
0.0
 40
0
 41
0
  0
SEQEND
  8
0
  0
POLYLINE
8
0
 62
     0
 66
     1
 10
0
 20
0
 30
0.0
 70
     1
 40
0.796472
 41
0.796472
  0
VERTEX
  8
0
 10
301.465
 20
373.944
 30
0.0
 40
0.796472
 41
0.796472
  0
VERTEX
  8
0
 10
470.117
 20
202.304
 30
0.0
 40
0.796472
 41
0.796472
  0
VERTEX
  8
0
 10
483.856
 20
200.114
 30
0.0
 40
0.796472
 41
0.796472
  0
VERTEX
  8
0
 10
481.069
 20
215.844
 30
0.0
 40
0.796472
 41
0.796472
  0
VERTEX
  8
0
 10
327.35
 20
373.744
 30
0.0
 40
0.796472
 41
0.796472
  0
VERTEX
  8
0
 10
301.465
 20
373.944
 30
0.0
 40
0.796472
 41
0.796472
  0
SEQEND
  8
0
  0
POLYLINE
8
0
 62
     0
 66
     1
 10
0
 20
0
 30
0.0
 40
0.796472
 41
0.796472
  0
VERTEX
  8
0
 10
291.509
 20
149.438
 30
0.0
 40
0.796472
 41
0.796472
  0
VERTEX
  8
0
 10
298.776
 20
374.143
 30
0.0
 40
0.796472
 41
0.796472
  0
VERTEX
  8
0
 10
285.436
 20
1113.27
 30
0.0
 40
0.796472
 41
0.796472
  0
SEQEND
  8
0
  0
POLYLINE
8
0
 62
     0
 66
     1
 10
0
 20
0
 30
0.0
 40
0.796472
 41
0.796472
  0
VERTEX
  8
0
 10
291.708
 20
149.239
 30
0.0
 40
0.796472
 41
0.796472
  0
VERTEX
  8
0
 10
271.896
 20
122.358
 30
0.0
 40
0.796472
 41
0.796472
  0
SEQEND
  8
0
  0
POLYLINE
8
0
 62
     0
 66
     1
 10
0
 20
0
 30
0.0
 40
0.796472
 41
0.796472
  0
VERTEX
  8
0
 10
245.512
 20
316.199
 30
0.0
 40
0.796472
 41
0.796472
  0
VERTEX
  8
0
 10
216.043
 20
348.456
 30
0.0
 40
0.796472
 41
0.796472
  0
SEQEND
  8
0
  0
POLYLINE
8
0
 62
     0
 66
     1
 10
0
 20
0
 30
0.0
 40
0
 41
0
  0
VERTEX
  8
0
 10
264.959
 20
332.627
 30
0.0
 40
0
 41
0
  0
VERTEX
  8
0
 10
266.434
 20
341.607
 30
0.0
 40
0
 41
0
  0
VERTEX
  8
0
 10
267.1
 20
352.097
 30
0.0
 40
0
 41
0
  0
VERTEX
  8
0
 10
267.293
 20
363.566
 30
0.0
 40
0
 41
0
  0
VERTEX
  8
0
 10
267.349
 20
375.487
 30
0.0
 40
0
 41
0
  0
VERTEX
  8
0
 10
267.489
 20
387.325
 30
0.0
 40
0
 41
0
  0
VERTEX
  8
0
 10
267.473
 20
398.529
 30
0.0
 40
0
 41
0
  0
VERTEX
  8
0
 10
266.948
 20
408.543
 30
0.0
 40
0
 41
0
  0
VERTEX
  8
0
 10
265.557
 20
416.814
 30
0.0
 40
0
 41
0
  0
VERTEX
  8
0
 10
263.051
 20
422.88
 30
0.0
 40
0
 41
0
  0
VERTEX
  8
0
 10
259.6
 20
426.667
 30
0.0
 40
0
 41
0
  0
VERTEX
  8
0
 10
255.476
 20
428.192
 30
0.0
 40
0
 41
0
  0
VERTEX
  8
0
 10
250.955
 20
427.477
 30
0.0
 40
0
 41
0
  0
VERTEX
  8
0
 10
246.252
 20
424.63
 30
0.0
 40
0
 41
0
  0
VERTEX
  8
0
 10
241.355
 20
420.124
 30
0.0
 40
0
 41
0
  0
VERTEX
  8
0
 10
236.198
 20
414.521
 30
0.0
 40
0
 41
0
  0
VERTEX
  8
0
 10
230.711
 20
408.381
 30
0.0
 40
0
 41
0
  0
VERTEX
  8
0
 10
219.229
 20
396.046
 30
0.0
 40
0
 41
0
  0
VERTEX
  8
0
 10
210.136
 20
384.129
 30
0.0
 40
0
 41
0
  0
VERTEX
  8
0
 10
206.775
 20
372.891
 30
0.0
 40
0
 41
0
  0
VERTEX
  8
0
 10
209.937
 20
362.385
 30
0.0
 40
0
 41
0
  0
VERTEX
  8
0
 10
213.918
 20
357.365
 30
0.0
 40
0
 41
0
  0
VERTEX
  8
0
 10
219.038
 20
352.28
 30
0.0
 40
0
 41
0
  0
VERTEX
  8
0
 10
224.768
 20
346.881
 30
0.0
 40
0
 41
0
  0
VERTEX
  8
0
 10
230.578
 20
340.92
 30
0.0
 40
0
 41
0
  0
VERTEX
  8
0
 10
236.043
 20
334.348
 30
0.0
 40
0
 41
0
  0
VERTEX
  8
0
 10
241.14
 20
327.914
 30
0.0
 40
0
 41
0
  0
VERTEX
  8
0
 10
245.951
 20
322.564
 30
0.0
 40
0
 41
0
  0
VERTEX
  8
0
 10
250.557
 20
319.246
 30
0.0
 40
0
 41
0
  0
VERTEX
  8
0
 10
252.801
 20
318.62
 30
0.0
 40
0
 41
0
  0
VERTEX
  8
0
 10
254.982
 20
318.71
 30
0.0
 40
0
 41
0
  0
VERTEX
  8
0
 10
257.068
 20
319.486
 30
0.0
 40
0
 41
0
  0
VERTEX
  8
0
 10
259.027
 20
320.919
 30
0.0
 40
0
 41
0
  0
VERTEX
  8
0
 10
260.828
 20
322.978
 30
0.0
 40
0
 41
0
  0
VERTEX
  8
0
 10
262.438
 20
325.636
 30
0.0
 40
0
 41
0
  0
VERTEX
  8
0
 10
263.826
 20
328.862
 30
0.0
 40
0
 41
0
  0
VERTEX
  8
0
 10
264.959
 20
332.627
 30
0.0
 40
0
 41
0
  0
SEQEND
  8
0
  0
POLYLINE
8
0
 62
     0
 66
     1
 10
0
 20
0
 30
0.0
 40
0
 41
0
  0
VERTEX
  8
0
 10
274.683
 20
373.903
 30
0.0
 40
0
 41
0
  0
VERTEX
  8
0
 10
274.685
 20
374.081
 30
0.0
 40
0
 41
0
  0
VERTEX
  8
0
 10
274.7
 20
375.33
 30
0.0
 40
0
 41
0
  0
VERTEX
  8
0
 10
274.749
 20
376.672
 30
0.0
 40
0
 41
0
  0
VERTEX
  8
0
 10
275.007
 20
378.576
 30
0.0
 40
0
 41
0
  0
VERTEX
  8
0
 10
275.675
 20
381.068
 30
0.0
 40
0
 41
0
  0
VERTEX
  8
0
 10
276.956
 20
384.174
 30
0.0
 40
0
 41
0
  0
VERTEX
  8
0
 10
279.017
 20
387.844
 30
0.0
 40
0
 41
0
  0
VERTEX
  8
0
 10
281.88
 20
391.714
 30
0.0
 40
0
 41
0
  0
VERTEX
  8
0
 10
285.534
 20
395.344
 30
0.0
 40
0
 41
0
  0
VERTEX
  8
0
 10
289.965
 20
398.295
 30
0.0
 40
0
 41
0
  0
VERTEX
  8
0
 10
295.093
 20
400.229
 30
0.0
 40
0
 41
0
  0
VERTEX
  8
0
 10
300.56
 20
401.224
 30
0.0
 40
0
 41
0
  0
VERTEX
  8
0
 10
305.94
 20
401.459
 30
0.0
 40
0
 41
0
  0
VERTEX
  8
0
 10
310.806
 20
401.116
 30
0.0
 40
0
 41
0
  0
VERTEX
  8
0
 10
314.857
 20
400.344
 30
0.0
 40
0
 41
0
  0
VERTEX
  8
0
 10
318.281
 20
399.174
 30
0.0
 40
0
 41
0
  0
VERTEX
  8
0
 10
321.396
 20
397.606
 30
0.0
 40
0
 41
0
  0
VERTEX
  8
0
 10
324.512
 20
395.64
 30
0.0
 40
0
 41
0
  0
VERTEX
  8
0
 10
331.313
 20
390.73
 30
0.0
 40
0
 41
0
  0
VERTEX
  8
0
 10
337.704
 20
385.535
 30
0.0
 40
0
 41
0
  0
VERTEX
  8
0
 10
342.313
 20
381.156
 30
0.0
 40
0
 41
0
  0
VERTEX
  8
0
 10
345.005
 20
377.885
 30
0.0
 40
0
 41
0
  0
VERTEX
  8
0
 10
346.069
 20
375.757
 30
0.0
 40
0
 41
0
  0
VERTEX
  8
0
 10
346.25
 20
374.6
 30
0.0
 40
0
 41
0
  0
VERTEX
  8
0
 10
346.266
 20
374.102
 30
0.0
 40
0
 41
0
  0
SEQEND
  8
0
  0
POLYLINE
8
0
 62
     0
 66
     1
 10
0
 20
0
 30
0.0
 40
0
 41
0
  0
VERTEX
  8
0
 10
274.732
 20
373.505
 30
0.0
 40
0
 41
0
  0
VERTEX
  8
0
 10
274.734
 20
373.327
 30
0.0
 40
0
 41
0
  0
VERTEX
  8
0
 10
274.749
 20
372.078
 30
0.0
 40
0
 41
0
  0
VERTEX
  8
0
 10
274.798
 20
370.736
 30
0.0
 40
0
 41
0
  0
VERTEX
  8
0
 10
275.056
 20
368.832
 30
0.0
 40
0
 41
0
  0
VERTEX
  8
0
 10
275.724
 20
366.34
 30
0.0
 40
0
 41
0
  0
VERTEX
  8
0
 10
277.006
 20
363.234
 30
0.0
 40
0
 41
0
  0
VERTEX
  8
0
 10
279.066
 20
359.564
 30
0.0
 40
0
 41
0
  0
VERTEX
  8
0
 10
281.93
 20
355.694
 30
0.0
 40
0
 41
0
  0
VERTEX
  8
0
 10
285.583
 20
352.064
 30
0.0
 40
0
 41
0
  0
VERTEX
  8
0
 10
290.015
 20
349.113
 30
0.0
 40
0
 41
0
  0
VERTEX
  8
0
 10
295.142
 20
347.179
 30
0.0
 40
0
 41
0
  0
VERTEX
  8
0
 10
300.609
 20
346.184
 30
0.0
 40
0
 41
0
  0
VERTEX
  8
0
 10
305.989
 20
345.949
 30
0.0
 40
0
 41
0
  0
VERTEX
  8
0
 10
310.856
 20
346.292
 30
0.0
 40
0
 41
0
  0
VERTEX
  8
0
 10
314.906
 20
347.064
 30
0.0
 40
0
 41
0
  0
VERTEX
  8
0
 10
318.331
 20
348.234
 30
0.0
 40
0
 41
0
  0
VERTEX
  8
0
 10
321.445
 20
349.802
 30
0.0
 40
0
 41
0
  0
VERTEX
  8
0
 10
324.562
 20
351.768
 30
0.0
 40
0
 41
0
  0
VERTEX
  8
0
 10
331.363
 20
356.677
 30
0.0
 40
0
 41
0
  0
VERTEX
  8
0
 10
337.753
 20
361.873
 30
0.0
 40
0
 41
0
  0
VERTEX
  8
0
 10
342.362
 20
366.252
 30
0.0
 40
0
 41
0
  0
VERTEX
  8
0
 10
345.054
 20
369.522
 30
0.0
 40
0
 41
0
  0
VERTEX
  8
0
 10
346.118
 20
371.651
 30
0.0
 40
0
 41
0
  0
VERTEX
  8
0
 10
346.299
 20
372.808
 30
0.0
 40
0
 41
0
  0
VERTEX
  8
0
 10
346.315
 20
373.306
 30
0.0
 40
0
 41
0
  0
SEQEND
  8
0
  0
TEXT
  8
0
 62
     0
 10
308.234
 20
507.837
 30
0
 40
8.76119
  1
17mm rudder horn
 50
0
  0
TEXT
  8
0
 62
     0
 10
308.234
 20
499.075
 30
0
 40
8.76119
  1
11mm servo horn
 50
0
  0
POLYLINE
8
0
 62
     7
 66
     1
 10
0
 20
0
 30
0.0
 70
     1
 40
0
 41
0
  0
VERTEX
  8
0
 10
72.479
 20
481.049
 30
0.0
 40
0
 41
0
  0
VERTEX
  8
0
 10
272.393
 20
503.629
 30
0.0
 40
0
 41
0
  0
VERTEX
  8
0
 10
395.05
 20
471.85
 30
0.0
 40
0
 41
0
  0
VERTEX
  8
0
 10
594.965
 20
463.487
 30
0.0
 40
0
 41
0
  0
VERTEX
  8
0
 10
594.965
 20
425.854
 30
0.0
 40
0
 41
0
  0
VERTEX
  8
0
 10
72.479
 20
425.854
 30
0.0
 40
0
 41
0
  0
VERTEX
  8
0
 10
72.479
 20
481.049
 30
0.0
 40
0
 41
0
  0
SEQEND
  8
0
  0
POLYLINE
8
0
 62
     0
 66
     1
 10
0
 20
0
 30
0.0
 40
0
 41
0
  0
VERTEX
  8
0
 10
270.601
 20
445.626
 30
0.0
 40
0
 41
0
  0
VERTEX
  8
0
 10
265.424
 20
502.972
 30
0.0
 40
0
 41
0
  0
SEQEND
  8
0
  0
POLYLINE
8
0
 62
     254
 66
     1
 10
0
 20
0
 30
0.0
 70
     1
 40
0
 41
0
  0
VERTEX
  8
0
 10
584.909
 20
443.249
 30
0.0
 40
0
 41
0
  0
VERTEX
  8
0
 10
519.2
 20
440.906
 30
0.0
 40
0
 41
0
  0
VERTEX
  8
0
 10
519.2
 20
450.067
 30
0.0
 40
0
 41
0
  0
VERTEX
  8
0
 10
584.909
 20
447.936
 30
0.0
 40
0
 41
0
  0
VERTEX
  8
0
 10
584.909
 20
443.249
 30
0.0
 40
0
 41
0
  0
SEQEND
  8
0
  0
POLYLINE
8
0
 62
     0
 66
     1
 10
0
 20
0
 30
0.0
 70
     1
 40
0
 41
0
  0
VERTEX
  8
0
 10
584.909
 20
443.249
 30
0.0
 40
0
 41
0
  0
VERTEX
  8
0
 10
519.2
 20
440.905
 30
0.0
 40
0
 41
0
  0
VERTEX
  8
0
 10
519.2
 20
450.067
 30
0.0
 40
0
 41
0
  0
VERTEX
  8
0
 10
584.909
 20
447.936
 30
0.0
 40
0
 41
0
  0
VERTEX
  8
0
 10
584.909
 20
443.249
 30
0.0
 40
0
 41
0
  0
SEQEND
  8
0
  0
POLYLINE
8
0
 62
     254
 66
     1
 10
0
 20
0
 30
0.0
 70
     1
 40
0
 41
0
  0
VERTEX
  8
0
 10
143.863
 20
432.941
 30
0.0
 40
0
 41
0
  0
VERTEX
  8
0
 10
128.53
 20
433.638
 30
0.0
 40
0
 41
0
  0
VERTEX
  8
0
 10
119.271
 20
434.236
 30
0.0
 40
0
 41
0
  0
VERTEX
  8
0
 10
111.207
 20
435.032
 30
0.0
 40
0
 41
0
  0
VERTEX
  8
0
 10
102.645
 20
435.928
 30
0.0
 40
0
 41
0
  0
VERTEX
  8
0
 10
95.6758
 20
437.322
 30
0.0
 40
0
 41
0
  0
VERTEX
  8
0
 10
90.1006
 20
438.616
 30
0.0
 40
0
 41
0
  0
VERTEX
  8
0
 10
86.2178
 20
439.811
 30
0.0
 40
0
 41
0
  0
VERTEX
  8
0
 10
83.231
 20
441.404
 30
0.0
 40
0
 41
0
  0
VERTEX
  8
0
 10
81.5386
 20
442.698
 30
0.0
 40
0
 41
0
  0
VERTEX
  8
0
 10
80.4434
 20
444.391
 30
0.0
 40
0
 41
0
  0
VERTEX
  8
0
 10
80.1448
 20
445.486
 30
0.0
 40
0
 41
0
  0
VERTEX
  8
0
 10
80.2441
 20
446.282
 30
0.0
 40
0
 41
0
  0
VERTEX
  8
0
 10
80.6426
 20
447.477
 30
0.0
 40
0
 41
0
  0
VERTEX
  8
0
 10
81.7375
 20
448.871
 30
0.0
 40
0
 41
0
  0
VERTEX
  8
0
 10
83.231
 20
450.066
 30
0.0
 40
0
 41
0
  0
VERTEX
  8
0
 10
86.1182
 20
451.559
 30
0.0
 40
0
 41
0
  0
VERTEX
  8
0
 10
90.2998
 20
453.052
 30
0.0
 40
0
 41
0
  0
VERTEX
  8
0
 10
95.6758
 20
454.147
 30
0.0
 40
0
 41
0
  0
VERTEX
  8
0
 10
102.346
 20
455.342
 30
0.0
 40
0
 41
0
  0
VERTEX
  8
0
 10
111.705
 20
456.537
 30
0.0
 40
0
 41
0
  0
VERTEX
  8
0
 10
118.973
 20
457.134
 30
0.0
 40
0
 41
0
  0
VERTEX
  8
0
 10
128.53
 20
457.831
 30
0.0
 40
0
 41
0
  0
VERTEX
  8
0
 10
143.863
 20
458.528
 30
0.0
 40
0
 41
0
  0
VERTEX
  8
0
 10
143.863
 20
432.941
 30
0.0
 40
0
 41
0
  0
SEQEND
  8
0
  0
POLYLINE
8
0
 62
     0
 66
     1
 10
0
 20
0
 30
0.0
 70
     1
 40
0.796472
 41
0.796472
  0
VERTEX
  8
0
 10
143.863
 20
432.941
 30
0.0
 40
0.796472
 41
0.796472
  0
VERTEX
  8
0
 10
128.53
 20
433.638
 30
0.0
 40
0.796472
 41
0.796472
  0
VERTEX
  8
0
 10
119.271
 20
434.236
 30
0.0
 40
0.796472
 41
0.796472
  0
VERTEX
  8
0
 10
111.207
 20
435.032
 30
0.0
 40
0.796472
 41
0.796472
  0
VERTEX
  8
0
 10
102.645
 20
435.928
 30
0.0
 40
0.796472
 41
0.796472
  0
VERTEX
  8
0
 10
95.6758
 20
437.322
 30
0.0
 40
0.796472
 41
0.796472
  0
VERTEX
  8
0
 10
90.1006
 20
438.616
 30
0.0
 40
0.796472
 41
0.796472
  0
VERTEX
  8
0
 10
86.2178
 20
439.811
 30
0.0
 40
0.796472
 41
0.796472
  0
VERTEX
  8
0
 10
83.231
 20
441.404
 30
0.0
 40
0.796472
 41
0.796472
  0
VERTEX
  8
0
 10
81.5386
 20
442.698
 30
0.0
 40
0.796472
 41
0.796472
  0
VERTEX
  8
0
 10
80.4434
 20
444.391
 30
0.0
 40
0.796472
 41
0.796472
  0
VERTEX
  8
0
 10
80.1448
 20
445.486
 30
0.0
 40
0.796472
 41
0.796472
  0
VERTEX
  8
0
 10
80.2441
 20
446.282
 30
0.0
 40
0.796472
 41
0.796472
  0
VERTEX
  8
0
 10
80.6426
 20
447.477
 30
0.0
 40
0.796472
 41
0.796472
  0
VERTEX
  8
0
 10
81.7375
 20
448.871
 30
0.0
 40
0.796472
 41
0.796472
  0
VERTEX
  8
0
 10
83.231
 20
450.066
 30
0.0
 40
0.796472
 41
0.796472
  0
VERTEX
  8
0
 10
86.1182
 20
451.559
 30
0.0
 40
0.796472
 41
0.796472
  0
VERTEX
  8
0
 10
90.2998
 20
453.052
 30
0.0
 40
0.796472
 41
0.796472
  0
VERTEX
  8
0
 10
95.6758
 20
454.147
 30
0.0
 40
0.796472
 41
0.796472
  0
VERTEX
  8
0
 10
102.346
 20
455.342
 30
0.0
 40
0.796472
 41
0.796472
  0
VERTEX
  8
0
 10
111.705
 20
456.537
 30
0.0
 40
0.796472
 41
0.796472
  0
VERTEX
  8
0
 10
118.973
 20
457.134
 30
0.0
 40
0.796472
 41
0.796472
  0
VERTEX
  8
0
 10
128.53
 20
457.831
 30
0.0
 40
0.796472
 41
0.796472
  0
VERTEX
  8
0
 10
143.863
 20
458.528
 30
0.0
 40
0.796472
 41
0.796472
  0
VERTEX
  8
0
 10
143.863
 20
432.941
 30
0.0
 40
0.796472
 41
0.796472
  0
SEQEND
  8
0
  0
POLYLINE
8
0
 62
     254
 66
     1
 10
0
 20
0
 30
0.0
 70
     1
 40
0
 41
0
  0
VERTEX
  8
0
 10
245.114
 20
432.842
 30
0.0
 40
0
 41
0
  0
VERTEX
  8
0
 10
264.827
 20
433.29
 30
0.0
 40
0
 41
0
  0
VERTEX
  8
0
 10
269.606
 20
443.595
 30
0.0
 40
0
 41
0
  0
VERTEX
  8
0
 10
269.606
 20
447.776
 30
0.0
 40
0
 41
0
  0
VERTEX
  8
0
 10
264.976
 20
457.981
 30
0.0
 40
0
 41
0
  0
VERTEX
  8
0
 10
245.114
 20
458.379
 30
0.0
 40
0
 41
0
  0
VERTEX
  8
0
 10
245.114
 20
432.842
 30
0.0
 40
0
 41
0
  0
SEQEND
  8
0
  0
POLYLINE
8
0
 62
     0
 66
     1
 10
0
 20
0
 30
0.0
 70
     1
 40
0
 41
0
  0
VERTEX
  8
0
 10
245.114
 20
432.842
 30
0.0
 40
0
 41
0
  0
VERTEX
  8
0
 10
264.827
 20
433.29
 30
0.0
 40
0
 41
0
  0
VERTEX
  8
0
 10
269.606
 20
443.595
 30
0.0
 40
0
 41
0
  0
VERTEX
  8
0
 10
269.606
 20
447.776
 30
0.0
 40
0
 41
0
  0
VERTEX
  8
0
 10
264.976
 20
457.981
 30
0.0
 40
0
 41
0
  0
VERTEX
  8
0
 10
245.114
 20
458.379
 30
0.0
 40
0
 41
0
  0
VERTEX
  8
0
 10
245.114
 20
432.842
 30
0.0
 40
0
 41
0
  0
SEQEND
  8
0
  0
POLYLINE
8
0
 62
     254
 66
     1
 10
0
 20
0
 30
0.0
 70
     1
 40
0
 41
0
  0
VERTEX
  8
0
 10
297.233
 20
434.087
 30
0.0
 40
0
 41
0
  0
VERTEX
  8
0
 10
277.222
 20
433.589
 30
0.0
 40
0
 41
0
  0
VERTEX
  8
0
 10
271.796
 20
443.495
 30
0.0
 40
0
 41
0
  0
VERTEX
  8
0
 10
271.895
 20
447.975
 30
0.0
 40
0
 41
0
  0
VERTEX
  8
0
 10
277.073
 20
457.682
 30
0.0
 40
0
 41
0
  0
VERTEX
  8
0
 10
297.233
 20
457.135
 30
0.0
 40
0
 41
0
  0
VERTEX
  8
0
 10
297.233
 20
434.087
 30
0.0
 40
0
 41
0
  0
SEQEND
  8
0
  0
POLYLINE
8
0
 62
     0
 66
     1
 10
0
 20
0
 30
0.0
 70
     1
 40
0
 41
0
  0
VERTEX
  8
0
 10
297.233
 20
434.087
 30
0.0
 40
0
 41
0
  0
VERTEX
  8
0
 10
277.222
 20
433.589
 30
0.0
 40
0
 41
0
  0
VERTEX
  8
0
 10
271.796
 20
443.495
 30
0.0
 40
0
 41
0
  0
VERTEX
  8
0
 10
271.895
 20
447.975
 30
0.0
 40
0
 41
0
  0
VERTEX
  8
0
 10
277.073
 20
457.682
 30
0.0
 40
0
 41
0
  0
VERTEX
  8
0
 10
297.233
 20
457.135
 30
0.0
 40
0
 41
0
  0
VERTEX
  8
0
 10
297.233
 20
434.087
 30
0.0
 40
0
 41
0
  0
SEQEND
  8
0
  0
POLYLINE
8
0
 62
     0
 66
     1
 10
0
 20
0
 30
0.0
 40
0.796472
 41
0.796472
  0
VERTEX
  8
0
 10
255.956
 20
445.686
 30
0.0
 40
0.796472
 41
0.796472
  0
VERTEX
  8
0
 10
285.048
 20
445.686
 30
0.0
 40
0.796472
 41
0.796472
  0
SEQEND
  8
0
  0
POLYLINE
8
0
 62
     0
 66
     1
 10
0
 20
0
 30
0.0
 40
0
 41
0
  0
VERTEX
  8
0
 10
584.71
 20
448.074
 30
0.0
 40
0
 41
0
  0
VERTEX
  8
0
 10
583.97
 20
448.099
 30
0.0
 40
0
 41
0
  0
VERTEX
  8
0
 10
573.148
 20
448.455
 30
0.0
 40
0
 41
0
  0
VERTEX
  8
0
 10
564.731
 20
448.732
 30
0.0
 40
0
 41
0
  0
VERTEX
  8
0
 10
552.984
 20
449.119
 30
0.0
 40
0
 41
0
  0
VERTEX
  8
0
 10
537.353
 20
449.634
 30
0.0
 40
0
 41
0
  0
VERTEX
  8
0
 10
517.541
 20
450.287
 30
0.0
 40
0
 41
0
  0
VERTEX
  8
0
 10
494.29
 20
451.051
 30
0.0
 40
0
 41
0
  0
VERTEX
  8
0
 10
468.603
 20
451.894
 30
0.0
 40
0
 41
0
  0
VERTEX
  8
0
 10
441.479
 20
452.781
 30
0.0
 40
0
 41
0
  0
VERTEX
  8
0
 10
413.921
 20
453.678
 30
0.0
 40
0
 41
0
  0
VERTEX
  8
0
 10
386.929
 20
454.551
 30
0.0
 40
0
 41
0
  0
VERTEX
  8
0
 10
361.505
 20
455.366
 30
0.0
 40
0
 41
0
  0
VERTEX
  8
0
 10
338.65
 20
456.089
 30
0.0
 40
0
 41
0
  0
VERTEX
  8
0
 10
319.123
 20
456.694
 30
0.0
 40
0
 41
0
  0
VERTEX
  8
0
 10
302.72
 20
457.186
 30
0.0
 40
0
 41
0
  0
VERTEX
  8
0
 10
288.995
 20
457.577
 30
0.0
 40
0
 41
0
  0
VERTEX
  8
0
 10
277.502
 20
457.881
 30
0.0
 40
0
 41
0
  0
VERTEX
  8
0
 10
267.793
 20
458.11
 30
0.0
 40
0
 41
0
  0
VERTEX
  8
0
 10
251.946
 20
458.396
 30
0.0
 40
0
 41
0
  0
VERTEX
  8
0
 10
244.915
 20
458.478
 30
0.0
 40
0
 41
0
  0
VERTEX
  8
0
 10
217.3
 20
458.611
 30
0.0
 40
0
 41
0
  0
VERTEX
  8
0
 10
190.954
 20
458.644
 30
0.0
 40
0
 41
0
  0
VERTEX
  8
0
 10
167.192
 20
458.756
 30
0.0
 40
0
 41
0
  0
VERTEX
  8
0
 10
147.513
 20
458.744
 30
0.0
 40
0
 41
0
  0
VERTEX
  8
0
 10
132.753
 20
458.366
 30
0.0
 40
0
 41
0
  0
VERTEX
  8
0
 10
120.931
 20
457.615
 30
0.0
 40
0
 41
0
  0
VERTEX
  8
0
 10
99.1938
 20
454.96
 30
0.0
 40
0
 41
0
  0
VERTEX
  8
0
 10
89.5137
 20
452.803
 30
0.0
 40
0
 41
0
  0
VERTEX
  8
0
 10
82.5842
 20
449.75
 30
0.0
 40
0
 41
0
  0
VERTEX
  8
0
 10
80.7639
 20
447.819
 30
0.0
 40
0
 41
0
  0
VERTEX
  8
0
 10
80.1572
 20
445.737
 30
0.0
 40
0
 41
0
  0
VERTEX
  8
0
 10
80.7639
 20
443.658
 30
0.0
 40
0
 41
0
  0
VERTEX
  8
0
 10
82.5842
 20
441.736
 30
0.0
 40
0
 41
0
  0
VERTEX
  8
0
 10
89.5137
 20
438.716
 30
0.0
 40
0
 41
0
  0
VERTEX
  8
0
 10
99.1938
 20
436.592
 30
0.0
 40
0
 41
0
  0
VERTEX
  8
0
 10
120.948
 20
433.937
 30
0.0
 40
0
 41
0
  0
VERTEX
  8
0
 10
132.797
 20
433.145
 30
0.0
 40
0
 41
0
  0
VERTEX
  8
0
 10
147.546
 20
432.676
 30
0.0
 40
0
 41
0
  0
VERTEX
  8
0
 10
167.145
 20
432.521
 30
0.0
 40
0
 41
0
  0
VERTEX
  8
0
 10
190.838
 20
432.527
 30
0.0
 40
0
 41
0
  0
VERTEX
  8
0
 10
217.204
 20
432.566
 30
0.0
 40
0
 41
0
  0
VERTEX
  8
0
 10
244.865
 20
432.742
 30
0.0
 40
0
 41
0
  0
VERTEX
  8
0
 10
251.9
 20
432.829
 30
0.0
 40
0
 41
0
  0
VERTEX
  8
0
 10
259.378
 20
432.947
 30
0.0
 40
0
 41
0
  0
VERTEX
  8
0
 10
267.745
 20
433.112
 30
0.0
 40
0
 41
0
  0
VERTEX
  8
0
 10
277.45
 20
433.336
 30
0.0
 40
0
 41
0
  0
VERTEX
  8
0
 10
288.938
 20
433.633
 30
0.0
 40
0
 41
0
  0
VERTEX
  8
0
 10
302.659
 20
434.017
 30
0.0
 40
0
 41
0
  0
VERTEX
  8
0
 10
319.058
 20
434.501
 30
0.0
 40
0
 41
0
  0
VERTEX
  8
0
 10
338.583
 20
435.099
 30
0.0
 40
0
 41
0
  0
VERTEX
  8
0
 10
361.44
 20
435.816
 30
0.0
 40
0
 41
0
  0
VERTEX
  8
0
 10
386.868
 20
436.627
 30
0.0
 40
0
 41
0
  0
VERTEX
  8
0
 10
413.866
 20
437.497
 30
0.0
 40
0
 41
0
  0
VERTEX
  8
0
 10
441.432
 20
438.392
 30
0.0
 40
0
 41
0
  0
VERTEX
  8
0
 10
468.563
 20
439.278
 30
0.0
 40
0
 41
0
  0
VERTEX
  8
0
 10
494.259
 20
440.12
 30
0.0
 40
0
 41
0
  0
VERTEX
  8
0
 10
517.517
 20
440.885
 30
0.0
 40
0
 41
0
  0
VERTEX
  8
0
 10
537.336
 20
441.537
 30
0.0
 40
0
 41
0
  0
VERTEX
  8
0
 10
552.973
 20
442.051
 30
0.0
 40
0
 41
0
  0
VERTEX
  8
0
 10
564.724
 20
442.438
 30
0.0
 40
0
 41
0
  0
VERTEX
  8
0
 10
573.144
 20
442.716
 30
0.0
 40
0
 41
0
  0
VERTEX
  8
0
 10
578.788
 20
442.902
 30
0.0
 40
0
 41
0
  0
VERTEX
  8
0
 10
582.211
 20
443.014
 30
0.0
 40
0
 41
0
  0
VERTEX
  8
0
 10
584.617
 20
443.094
 30
0.0
 40
0
 41
0
  0
VERTEX
  8
0
 10
584.71
 20
443.096
 30
0.0
 40
0
 41
0
  0
SEQEND
  8
0
  0
POLYLINE
8
0
 62
     7
 66
     1
 10
0
 20
0
 30
0.0
 70
     1
 40
0
 41
0
  0
VERTEX
  8
0
 10
277.57
 20
460.021
 30
0.0
 40
0
 41
0
  0
VERTEX
  8
0
 10
275.679
 20
455.94
 30
0.0
 40
0
 41
0
  0
VERTEX
  8
0
 10
266.519
 20
455.94
 30
0.0
 40
0
 41
0
  0
VERTEX
  8
0
 10
265.125
 20
460.221
 30
0.0
 40
0
 41
0
  0
VERTEX
  8
0
 10
277.57
 20
460.021
 30
0.0
 40
0
 41
0
  0
SEQEND
  8
0
  0
POLYLINE
8
0
 62
     7
 66
     1
 10
0
 20
0
 30
0.0
 70
     1
 40
0
 41
0
  0
VERTEX
  8
0
 10
278.168
 20
431.149
 30
0.0
 40
0
 41
0
  0
VERTEX
  8
0
 10
275.878
 20
434.833
 30
0.0
 40
0
 41
0
  0
VERTEX
  8
0
 10
266.021
 20
434.734
 30
0.0
 40
0
 41
0
  0
VERTEX
  8
0
 10
264.329
 20
431.05
 30
0.0
 40
0
 41
0
  0
VERTEX
  8
0
 10
278.168
 20
431.149
 30
0.0
 40
0
 41
0
  0
SEQEND
  8
0
  0
TEXT
  8
0
 62
     0
 10
168.055
 20
443.322
 30
0
 40
8.76119
  1
HT21  5%
 50
0
  0
POLYLINE
8
0
 62
     0
 66
     1
 10
0
 20
0
 30
0.0
 40
0
 41
0
  0
VERTEX
  8
0
 10
341.288
 20
455.98
 30
0.0
 40
0
 41
0
  0
VERTEX
  8
0
 10
341.686
 20
435.471
 30
0.0
 40
0
 41
0
  0
SEQEND
  8
0
  0
POLYLINE
8
0
 62
     0
 66
     1
 10
0
 20
0
 30
0.0
 40
0.796472
 41
0.796472
  0
VERTEX
  8
0
 10
266.534
 20
492.03
 30
0.0
 40
0.796472
 41
0.796472
  0
VERTEX
  8
0
 10
266.494
 20
492.025
 30
0.0
 40
0.796472
 41
0.796472
  0
VERTEX
  8
0
 10
266.21
 20
491.993
 30
0.0
 40
0.796472
 41
0.796472
  0
VERTEX
  8
0
 10
263.938
 20
491.731
 30
0.0
 40
0.796472
 41
0.796472
  0
VERTEX
  8
0
 10
261.462
 20
491.447
 30
0.0
 40
0.796472
 41
0.796472
  0
VERTEX
  8
0
 10
257.77
 20
491.022
 30
0.0
 40
0.796472
 41
0.796472
  0
VERTEX
  8
0
 10
252.617
 20
490.429
 30
0.0
 40
0.796472
 41
0.796472
  0
VERTEX
  8
0
 10
245.76
 20
489.641
 30
0.0
 40
0.796472
 41
0.796472
  0
VERTEX
  8
0
 10
237.057
 20
488.64
 30
0.0
 40
0.796472
 41
0.796472
  0
VERTEX
  8
0
 10
226.773
 20
487.459
 30
0.0
 40
0.796472
 41
0.796472
  0
VERTEX
  8
0
 10
215.276
 20
486.141
 30
0.0
 40
0.796472
 41
0.796472
  0
VERTEX
  8
0
 10
202.933
 20
484.729
 30
0.0
 40
0.796472
 41
0.796472
  0
VERTEX
  8
0
 10
190.11
 20
483.268
 30
0.0
 40
0.796472
 41
0.796472
  0
VERTEX
  8
0
 10
177.176
 20
481.801
 30
0.0
 40
0.796472
 41
0.796472
  0
VERTEX
  8
0
 10
164.497
 20
480.37
 30
0.0
 40
0.796472
 41
0.796472
  0
VERTEX
  8
0
 10
152.44
 20
479.021
 30
0.0
 40
0.796472
 41
0.796472
  0
VERTEX
  8
0
 10
131.166
 20
476.677
 30
0.0
 40
0.796472
 41
0.796472
  0
VERTEX
  8
0
 10
113.819
 20
474.806
 30
0.0
 40
0.796472
 41
0.796472
  0
VERTEX
  8
0
 10
100.367
 20
473.384
 30
0.0
 40
0.796472
 41
0.796472
  0
VERTEX
  8
0
 10
90.7795
 20
472.384
 30
0.0
 40
0.796472
 41
0.796472
  0
VERTEX
  8
0
 10
87.4055
 20
472.033
 30
0.0
 40
0.796472
 41
0.796472
  0
VERTEX
  8
0
 10
84.8701
 20
471.77
 30
0.0
 40
0.796472
 41
0.796472
  0
VERTEX
  8
0
 10
83.0535
 20
471.581
 30
0.0
 40
0.796472
 41
0.796472
  0
VERTEX
  8
0
 10
81.8357
 20
471.455
 30
0.0
 40
0.796472
 41
0.796472
  0
VERTEX
  8
0
 10
80.7178
 20
471.338
 30
0.0
 40
0.796472
 41
0.796472
  0
VERTEX
  8
0
 10
80.5581
 20
471.322
 30
0.0
 40
0.796472
 41
0.796472
  0
SEQEND
  8
0
  0
POLYLINE
8
0
 62
     0
 66
     1
 10
0
 20
0
 30
0.0
 40
0
 41
0
  0
VERTEX
  8
0
 10
267.61
 20
492.911
 30
0.0
 40
0
 41
0
  0
VERTEX
  8
0
 10
267.295
 20
493.671
 30
0.0
 40
0
 41
0
  0
VERTEX
  8
0
 10
266.534
 20
493.986
 30
0.0
 40
0
 41
0
  0
VERTEX
  8
0
 10
265.774
 20
493.671
 30
0.0
 40
0
 41
0
  0
VERTEX
  8
0
 10
265.459
 20
492.911
 30
0.0
 40
0
 41
0
  0
VERTEX
  8
0
 10
265.774
 20
492.151
 30
0.0
 40
0
 41
0
  0
VERTEX
  8
0
 10
266.534
 20
491.836
 30
0.0
 40
0
 41
0
  0
VERTEX
  8
0
 10
267.295
 20
492.151
 30
0.0
 40
0
 41
0
  0
VERTEX
  8
0
 10
267.61
 20
492.911
 30
0.0
 40
0
 41
0
  0
SEQEND
  8
0
  0
POLYLINE
8
0
 62
     0
 66
     1
 10
0
 20
0
 30
0.0
 40
2.38942
 41
2.38942
  0
VERTEX
  8
0
 10
58.0625
 20
374.342
 30
0.0
 40
2.38942
 41
2.38942
  0
VERTEX
  8
0
 10
57.7566
 20
377.376
 30
0.0
 40
2.38942
 41
2.38942
  0
VERTEX
  8
0
 10
56.8794
 20
380.201
 30
0.0
 40
2.38942
 41
2.38942
  0
VERTEX
  8
0
 10
55.4915
 20
382.759
 30
0.0
 40
2.38942
 41
2.38942
  0
VERTEX
  8
0
 10
53.6533
 20
384.986
 30
0.0
 40
2.38942
 41
2.38942
  0
VERTEX
  8
0
 10
51.4255
 20
386.824
 30
0.0
 40
2.38942
 41
2.38942
  0
VERTEX
  8
0
 10
48.8684
 20
388.212
 30
0.0
 40
2.38942
 41
2.38942
  0
VERTEX
  8
0
 10
46.043
 20
389.09
 30
0.0
 40
2.38942
 41
2.38942
  0
VERTEX
  8
0
 10
43.0093
 20
389.395
 30
0.0
 40
2.38942
 41
2.38942
  0
VERTEX
  8
0
 10
39.9753
 20
389.09
 30
0.0
 40
2.38942
 41
2.38942
  0
VERTEX
  8
0
 10
37.1499
 20
388.212
 30
0.0
 40
2.38942
 41
2.38942
  0
VERTEX
  8
0
 10
34.5928
 20
386.824
 30
0.0
 40
2.38942
 41
2.38942
  0
VERTEX
  8
0
 10
32.365
 20
384.986
 30
0.0
 40
2.38942
 41
2.38942
  0
VERTEX
  8
0
 10
30.5269
 20
382.759
 30
0.0
 40
2.38942
 41
2.38942
  0
VERTEX
  8
0
 10
29.1389
 20
380.201
 30
0.0
 40
2.38942
 41
2.38942
  0
VERTEX
  8
0
 10
28.2617
 20
377.376
 30
0.0
 40
2.38942
 41
2.38942
  0
VERTEX
  8
0
 10
27.9561
 20
374.342
 30
0.0
 40
2.38942
 41
2.38942
  0
VERTEX
  8
0
 10
28.2617
 20
371.308
 30
0.0
 40
2.38942
 41
2.38942
  0
VERTEX
  8
0
 10
29.1389
 20
368.483
 30
0.0
 40
2.38942
 41
2.38942
  0
VERTEX
  8
0
 10
30.5269
 20
365.926
 30
0.0
 40
2.38942
 41
2.38942
  0
VERTEX
  8
0
 10
32.365
 20
363.698
 30
0.0
 40
2.38942
 41
2.38942
  0
VERTEX
  8
0
 10
34.5928
 20
361.86
 30
0.0
 40
2.38942
 41
2.38942
  0
VERTEX
  8
0
 10
37.1499
 20
360.472
 30
0.0
 40
2.38942
 41
2.38942
  0
VERTEX
  8
0
 10
39.9753
 20
359.595
 30
0.0
 40
2.38942
 41
2.38942
  0
VERTEX
  8
0
 10
43.0093
 20
359.289
 30
0.0
 40
2.38942
 41
2.38942
  0
VERTEX
  8
0
 10
46.043
 20
359.595
 30
0.0
 40
2.38942
 41
2.38942
  0
VERTEX
  8
0
 10
48.8684
 20
360.472
 30
0.0
 40
2.38942
 41
2.38942
  0
VERTEX
  8
0
 10
51.4255
 20
361.86
 30
0.0
 40
2.38942
 41
2.38942
  0
VERTEX
  8
0
 10
53.6533
 20
363.698
 30
0.0
 40
2.38942
 41
2.38942
  0
VERTEX
  8
0
 10
55.4915
 20
365.926
 30
0.0
 40
2.38942
 41
2.38942
  0
VERTEX
  8
0
 10
56.8794
 20
368.483
 30
0.0
 40
2.38942
 41
2.38942
  0
VERTEX
  8
0
 10
57.7566
 20
371.308
 30
0.0
 40
2.38942
 41
2.38942
  0
VERTEX
  8
0
 10
58.0625
 20
374.342
 30
0.0
 40
2.38942
 41
2.38942
  0
SEQEND
  8
0
  0
POLYLINE
8
0
 62
     0
 66
     1
 10
0
 20
0
 30
0.0
 40
1.59294
 41
1.59294
  0
VERTEX
  8
0
 10
252.481
 20
388.579
 30
0.0
 40
1.59294
 41
1.59294
  0
VERTEX
  8
0
 10
252.481
 20
360.205
 30
0.0
 40
1.59294
 41
1.59294
  0
SEQEND
  8
0
  0
POLYLINE
8
0
 62
     0
 66
     1
 10
0
 20
0
 30
0.0
 40
0.796472
 41
0.796472
  0
VERTEX
  8
0
 10
292.305
 20
177.314
 30
0.0
 40
0.796472
 41
0.796472
  0
VERTEX
  8
0
 10
318.29
 20
157.303
 30
0.0
 40
0.796472
 41
0.796472
  0
SEQEND
  8
0
  0
POLYLINE
8
0
 62
     0
 66
     1
 10
0
 20
0
 30
0.0
 40
0.796472
 41
0.796472
  0
VERTEX
  8
0
 10
80.9412
 20
358.198
 30
0.0
 40
0.796472
 41
0.796472
  0
VERTEX
  8
0
 10
81.439
 20
358.283
 30
0.0
 40
0.796472
 41
0.796472
  0
VERTEX
  8
0
 10
82.646
 20
358.493
 30
0.0
 40
0.796472
 41
0.796472
  0
VERTEX
  8
0
 10
85.1226
 20
358.942
 30
0.0
 40
0.796472
 41
0.796472
  0
VERTEX
  8
0
 10
89.1797
 20
359.714
 30
0.0
 40
0.796472
 41
0.796472
  0
VERTEX
  8
0
 10
94.282
 20
360.79
 30
0.0
 40
0.796472
 41
0.796472
  0
VERTEX
  8
0
 10
99.936
 20
362.066
 30
0.0
 40
0.796472
 41
0.796472
  0
VERTEX
  8
0
 10
106.661
 20
363.232
 30
0.0
 40
0.796472
 41
0.796472
  0
VERTEX
  8
0
 10
114.936
 20
364.009
 30
0.0
 40
0.796472
 41
0.796472
  0
VERTEX
  8
0
 10
124.083
 20
364.474
 30
0.0
 40
0.796472
 41
0.796472
  0
VERTEX
  8
0
 10
128.654
 20
364.64
 30
0.0
 40
0.796472
 41
0.796472
  0
VERTEX
  8
0
 10
136.6
 20
364.872
 30
0.0
 40
0.796472
 41
0.796472
  0
VERTEX
  8
0
 10
139.416
 20
364.942
 30
0.0
 40
0.796472
 41
0.796472
  0
VERTEX
  8
0
 10
141.181
 20
364.985
 30
0.0
 40
0.796472
 41
0.796472
  0
VERTEX
  8
0
 10
142.087
 20
365.007
 30
0.0
 40
0.796472
 41
0.796472
  0
VERTEX
  8
0
 10
142.469
 20
365.016
 30
0.0
 40
0.796472
 41
0.796472
  0
SEQEND
  8
0
  0
POLYLINE
8
0
 62
     0
 66
     1
 10
0
 20
0
 30
0.0
 40
0.796472
 41
0.796472
  0
VERTEX
  8
0
 10
81.041
 20
358.313
 30
0.0
 40
0.796472
 41
0.796472
  0
VERTEX
  8
0
 10
81.1924
 20
357.724
 30
0.0
 40
0.796472
 41
0.796472
  0
VERTEX
  8
0
 10
81.3997
 20
356.917
 30
0.0
 40
0.796472
 41
0.796472
  0
VERTEX
  8
0
 10
81.7417
 20
355.586
 30
0.0
 40
0.796472
 41
0.796472
  0
VERTEX
  8
0
 10
82.252
 20
353.602
 30
0.0
 40
0.796472
 41
0.796472
  0
VERTEX
  8
0
 10
82.9639
 20
350.832
 30
0.0
 40
0.796472
 41
0.796472
  0
VERTEX
  8
0
 10
83.9116
 20
347.146
 30
0.0
 40
0.796472
 41
0.796472
  0
VERTEX
  8
0
 10
86.6169
 20
336.582
 30
0.0
 40
0.796472
 41
0.796472
  0
VERTEX
  8
0
 10
90.4844
 20
321.267
 30
0.0
 40
0.796472
 41
0.796472
  0
VERTEX
  8
0
 10
95.5996
 20
300.634
 30
0.0
 40
0.796472
 41
0.796472
  0
VERTEX
  8
0
 10
102.048
 20
274.119
 30
0.0
 40
0.796472
 41
0.796472
  0
VERTEX
  8
0
 10
105.817
 20
258.581
 30
0.0
 40
0.796472
 41
0.796472
  0
VERTEX
  8
0
 10
110.066
 20
241.966
 30
0.0
 40
0.796472
 41
0.796472
  0
VERTEX
  8
0
 10
114.918
 20
224.811
 30
0.0
 40
0.796472
 41
0.796472
  0
VERTEX
  8
0
 10
120.497
 20
207.651
 30
0.0
 40
0.796472
 41
0.796472
  0
VERTEX
  8
0
 10
126.928
 20
191.021
 30
0.0
 40
0.796472
 41
0.796472
  0
VERTEX
  8
0
 10
134.335
 20
175.458
 30
0.0
 40
0.796472
 41
0.796472
  0
VERTEX
  8
0
 10
142.842
 20
161.496
 30
0.0
 40
0.796472
 41
0.796472
  0
VERTEX
  8
0
 10
152.574
 20
149.67
 30
0.0
 40
0.796472
 41
0.796472
  0
VERTEX
  8
0
 10
163.573
 20
140.373
 30
0.0
 40
0.796472
 41
0.796472
  0
VERTEX
  8
0
 10
175.557
 20
133.412
 30
0.0
 40
0.796472
 41
0.796472
  0
VERTEX
  8
0
 10
188.162
 20
128.451
 30
0.0
 40
0.796472
 41
0.796472
  0
VERTEX
  8
0
 10
201.024
 20
125.156
 30
0.0
 40
0.796472
 41
0.796472
  0
VERTEX
  8
0
 10
213.78
 20
123.19
 30
0.0
 40
0.796472
 41
0.796472
  0
VERTEX
  8
0
 10
226.065
 20
122.218
 30
0.0
 40
0.796472
 41
0.796472
  0
VERTEX
  8
0
 10
237.516
 20
121.903
 30
0.0
 40
0.796472
 41
0.796472
  0
VERTEX
  8
0
 10
247.769
 20
121.91
 30
0.0
 40
0.796472
 41
0.796472
  0
VERTEX
  8
0
 10
264.144
 20
122.03
 30
0.0
 40
0.796472
 41
0.796472
  0
VERTEX
  8
0
 10
276.871
 20
122.306
 30
0.0
 40
0.796472
 41
0.796472
  0
VERTEX
  8
0
 10
288.55
 20
122.953
 30
0.0
 40
0.796472
 41
0.796472
  0
VERTEX
  8
0
 10
301.78
 20
124.183
 30
0.0
 40
0.796472
 41
0.796472
  0
VERTEX
  8
0
 10
318.66
 20
126.196
 30
0.0
 40
0.796472
 41
0.796472
  0
VERTEX
  8
0
 10
339.289
 20
129.13
 30
0.0
 40
0.796472
 41
0.796472
  0
VERTEX
  8
0
 10
363.265
 20
133.114
 30
0.0
 40
0.796472
 41
0.796472
  0
VERTEX
  8
0
 10
390.188
 20
138.271
 30
0.0
 40
0.796472
 41
0.796472
  0
VERTEX
  8
0
 10
404.581
 20
141.309
 30
0.0
 40
0.796472
 41
0.796472
  0
VERTEX
  8
0
 10
419.27
 20
144.567
 30
0.0
 40
0.796472
 41
0.796472
  0
VERTEX
  8
0
 10
433.914
 20
147.937
 30
0.0
 40
0.796472
 41
0.796472
  0
VERTEX
  8
0
 10
448.175
 20
151.313
 30
0.0
 40
0.796472
 41
0.796472
  0
VERTEX
  8
0
 10
461.712
 20
154.59
 30
0.0
 40
0.796472
 41
0.796472
  0
VERTEX
  8
0
 10
474.184
 20
157.662
 30
0.0
 40
0.796472
 41
0.796472
  0
VERTEX
  8
0
 10
485.252
 20
160.421
 30
0.0
 40
0.796472
 41
0.796472
  0
VERTEX
  8
0
 10
494.576
 20
162.762
 30
0.0
 40
0.796472
 41
0.796472
  0
VERTEX
  8
0
 10
501.915
 20
164.608
 30
0.0
 40
0.796472
 41
0.796472
  0
VERTEX
  8
0
 10
507.43
 20
165.995
 30
0.0
 40
0.796472
 41
0.796472
  0
VERTEX
  8
0
 10
511.382
 20
166.989
 30
0.0
 40
0.796472
 41
0.796472
  0
VERTEX
  8
0
 10
514.031
 20
167.656
 30
0.0
 40
0.796472
 41
0.796472
  0
VERTEX
  8
0
 10
515.638
 20
168.06
 30
0.0
 40
0.796472
 41
0.796472
  0
VERTEX
  8
0
 10
516.767
 20
168.344
 30
0.0
 40
0.796472
 41
0.796472
  0
VERTEX
  8
0
 10
516.811
 20
168.354
 30
0.0
 40
0.796472
 41
0.796472
  0
SEQEND
  8
0
  0
POLYLINE
8
0
 62
     0
 66
     1
 10
0
 20
0
 30
0.0
 40
0.796472
 41
0.796472
  0
VERTEX
  8
0
 10
83.1316
 20
358.512
 30
0.0
 40
0.796472
 41
0.796472
  0
VERTEX
  8
0
 10
83.1448
 20
358.464
 30
0.0
 40
0.796472
 41
0.796472
  0
VERTEX
  8
0
 10
83.4885
 20
357.218
 30
0.0
 40
0.796472
 41
0.796472
  0
VERTEX
  8
0
 10
83.9778
 20
355.444
 30
0.0
 40
0.796472
 41
0.796472
  0
VERTEX
  8
0
 10
84.7844
 20
352.521
 30
0.0
 40
0.796472
 41
0.796472
  0
VERTEX
  8
0
 10
85.9875
 20
348.159
 30
0.0
 40
0.796472
 41
0.796472
  0
VERTEX
  8
0
 10
87.6667
 20
342.071
 30
0.0
 40
0.796472
 41
0.796472
  0
VERTEX
  8
0
 10
89.9016
 20
333.971
 30
0.0
 40
0.796472
 41
0.796472
  0
VERTEX
  8
0
 10
92.7371
 20
323.701
 30
0.0
 40
0.796472
 41
0.796472
  0
VERTEX
  8
0
 10
96.0835
 20
311.629
 30
0.0
 40
0.796472
 41
0.796472
  0
VERTEX
  8
0
 10
99.8174
 20
298.254
 30
0.0
 40
0.796472
 41
0.796472
  0
VERTEX
  8
0
 10
103.815
 20
284.075
 30
0.0
 40
0.796472
 41
0.796472
  0
VERTEX
  8
0
 10
107.952
 20
269.592
 30
0.0
 40
0.796472
 41
0.796472
  0
VERTEX
  8
0
 10
112.106
 20
255.302
 30
0.0
 40
0.796472
 41
0.796472
  0
VERTEX
  8
0
 10
116.153
 20
241.706
 30
0.0
 40
0.796472
 41
0.796472
  0
VERTEX
  8
0
 10
119.969
 20
229.301
 30
0.0
 40
0.796472
 41
0.796472
  0
VERTEX
  8
0
 10
123.456
 20
218.476
 30
0.0
 40
0.796472
 41
0.796472
  0
VERTEX
  8
0
 10
126.625
 20
209.171
 30
0.0
 40
0.796472
 41
0.796472
  0
VERTEX
  8
0
 10
129.513
 20
201.215
 30
0.0
 40
0.796472
 41
0.796472
  0
VERTEX
  8
0
 10
132.156
 20
194.437
 30
0.0
 40
0.796472
 41
0.796472
  0
VERTEX
  8
0
 10
134.59
 20
188.666
 30
0.0
 40
0.796472
 41
0.796472
  0
VERTEX
  8
0
 10
136.853
 20
183.732
 30
0.0
 40
0.796472
 41
0.796472
  0
VERTEX
  8
0
 10
138.98
 20
179.463
 30
0.0
 40
0.796472
 41
0.796472
  0
VERTEX
  8
0
 10
141.009
 20
175.688
 30
0.0
 40
0.796472
 41
0.796472
  0
VERTEX
  8
0
 10
148.6
 20
163.601
 30
0.0
 40
0.796472
 41
0.796472
  0
VERTEX
  8
0
 10
155.942
 20
154.648
 30
0.0
 40
0.796472
 41
0.796472
  0
VERTEX
  8
0
 10
163.808
 20
147.14
 30
0.0
 40
0.796472
 41
0.796472
  0
VERTEX
  8
0
 10
173.067
 20
140.777
 30
0.0
 40
0.796472
 41
0.796472
  0
VERTEX
  8
0
 10
184.391
 20
135.6
 30
0.0
 40
0.796472
 41
0.796472
  0
VERTEX
  8
0
 10
197.558
 20
131.617
 30
0.0
 40
0.796472
 41
0.796472
  0
VERTEX
  8
0
 10
212.301
 20
128.738
 30
0.0
 40
0.796472
 41
0.796472
  0
VERTEX
  8
0
 10
229.085
 20
126.506
 30
0.0
 40
0.796472
 41
0.796472
  0
VERTEX
  8
0
 10
238.295
 20
125.483
 30
0.0
 40
0.796472
 41
0.796472
  0
VERTEX
  8
0
 10
247.362
 20
124.54
 30
0.0
 40
0.796472
 41
0.796472
  0
VERTEX
  8
0
 10
255.471
 20
123.734
 30
0.0
 40
0.796472
 41
0.796472
  0
VERTEX
  8
0
 10
261.807
 20
123.121
 30
0.0
 40
0.796472
 41
0.796472
  0
VERTEX
  8
0
 10
265.797
 20
122.738
 30
0.0
 40
0.796472
 41
0.796472
  0
VERTEX
  8
0
 10
267.847
 20
122.541
 30
0.0
 40
0.796472
 41
0.796472
  0
VERTEX
  8
0
 10
268.602
 20
122.468
 30
0.0
 40
0.796472
 41
0.796472
  0
VERTEX
  8
0
 10
268.71
 20
122.458
 30
0.0
 40
0.796472
 41
0.796472
  0
SEQEND
  8
0
  0
POLYLINE
8
0
 62
     0
 66
     1
 10
0
 20
0
 30
0.0
 40
0.796472
 41
0.796472
  0
VERTEX
  8
0
 10
266.534
 20
494.19
 30
0.0
 40
0.796472
 41
0.796472
  0
VERTEX
  8
0
 10
266.494
 20
494.186
 30
0.0
 40
0.796472
 41
0.796472
  0
VERTEX
  8
0
 10
265.439
 20
494.064
 30
0.0
 40
0.796472
 41
0.796472
  0
VERTEX
  8
0
 10
263.938
 20
493.892
 30
0.0
 40
0.796472
 41
0.796472
  0
VERTEX
  8
0
 10
261.462
 20
493.607
 30
0.0
 40
0.796472
 41
0.796472
  0
VERTEX
  8
0
 10
257.77
 20
493.182
 30
0.0
 40
0.796472
 41
0.796472
  0
VERTEX
  8
0
 10
252.617
 20
492.59
 30
0.0
 40
0.796472
 41
0.796472
  0
VERTEX
  8
0
 10
245.76
 20
491.801
 30
0.0
 40
0.796472
 41
0.796472
  0
VERTEX
  8
0
 10
237.057
 20
490.8
 30
0.0
 40
0.796472
 41
0.796472
  0
VERTEX
  8
0
 10
226.773
 20
489.619
 30
0.0
 40
0.796472
 41
0.796472
  0
VERTEX
  8
0
 10
215.276
 20
488.301
 30
0.0
 40
0.796472
 41
0.796472
  0
VERTEX
  8
0
 10
202.933
 20
486.889
 30
0.0
 40
0.796472
 41
0.796472
  0
VERTEX
  8
0
 10
190.11
 20
485.428
 30
0.0
 40
0.796472
 41
0.796472
  0
VERTEX
  8
0
 10
177.176
 20
483.961
 30
0.0
 40
0.796472
 41
0.796472
  0
VERTEX
  8
0
 10
164.497
 20
482.53
 30
0.0
 40
0.796472
 41
0.796472
  0
VERTEX
  8
0
 10
152.44
 20
481.181
 30
0.0
 40
0.796472
 41
0.796472
  0
VERTEX
  8
0
 10
131.166
 20
478.837
 30
0.0
 40
0.796472
 41
0.796472
  0
VERTEX
  8
0
 10
113.819
 20
476.967
 30
0.0
 40
0.796472
 41
0.796472
  0
VERTEX
  8
0
 10
100.367
 20
475.544
 30
0.0
 40
0.796472
 41
0.796472
  0
VERTEX
  8
0
 10
90.7795
 20
474.544
 30
0.0
 40
0.796472
 41
0.796472
  0
VERTEX
  8
0
 10
87.4055
 20
474.194
 30
0.0
 40
0.796472
 41
0.796472
  0
VERTEX
  8
0
 10
84.8701
 20
473.93
 30
0.0
 40
0.796472
 41
0.796472
  0
VERTEX
  8
0
 10
81.0969
 20
473.538
 30
0.0
 40
0.796472
 41
0.796472
  0
VERTEX
  8
0
 10
80.7178
 20
473.499
 30
0.0
 40
0.796472
 41
0.796472
  0
VERTEX
  8
0
 10
80.5581
 20
473.482
 30
0.0
 40
0.796472
 41
0.796472
  0
SEQEND
  8
0
  0
POLYLINE
8
0
 62
     0
 66
     1
 10
0
 20
0
 30
0.0
 40
1.59294
 41
1.59294
  0
VERTEX
  8
0
 10
58.8391
 20
390.072
 30
0.0
 40
1.59294
 41
1.59294
  0
VERTEX
  8
0
 10
80.1448
 20
389.972
 30
0.0
 40
1.59294
 41
1.59294
  0
SEQEND
  8
0
  0
POLYLINE
8
0
 62
     0
 66
     1
 10
0
 20
0
 30
0.0
 40
1.59294
 41
1.59294
  0
VERTEX
  8
0
 10
59.6357
 20
358.214
 30
0.0
 40
1.59294
 41
1.59294
  0
VERTEX
  8
0
 10
80.9414
 20
358.313
 30
0.0
 40
1.59294
 41
1.59294
  0
SEQEND
  8
0
  0
POLYLINE
8
0
 62
     0
 66
     1
 10
0
 20
0
 30
0.0
 40
1.59294
 41
1.59294
  0
VERTEX
  8
0
 10
252.083
 20
359.906
 30
0.0
 40
1.59294
 41
1.59294
  0
VERTEX
  8
0
 10
81.1404
 20
358.313
 30
0.0
 40
1.59294
 41
1.59294
  0
SEQEND
  8
0
  0
POLYLINE
8
0
 62
     0
 66
     1
 10
0
 20
0
 30
0.0
 40
1.59294
 41
1.59294
  0
VERTEX
  8
0
 10
252.282
 20
388.38
 30
0.0
 40
1.59294
 41
1.59294
  0
VERTEX
  8
0
 10
80.3438
 20
389.972
 30
0.0
 40
1.59294
 41
1.59294
  0
SEQEND
  8
0
  0
POLYLINE
8
0
 62
     0
 66
     1
 10
0
 20
0
 30
0.0
 40
1.59294
 41
1.59294
  0
VERTEX
  8
0
 10
59.0386
 20
461.555
 30
0.0
 40
1.59294
 41
1.59294
  0
VERTEX
  8
0
 10
250.789
 20
461.456
 30
0.0
 40
1.59294
 41
1.59294
  0
SEQEND
  8
0
  0
POLYLINE
8
0
 62
     0
 66
     1
 10
0
 20
0
 30
0.0
 40
1.59294
 41
1.59294
  0
VERTEX
  8
0
 10
59.835
 20
429.697
 30
0.0
 40
1.59294
 41
1.59294
  0
VERTEX
  8
0
 10
251.586
 20
429.797
 30
0.0
 40
1.59294
 41
1.59294
  0
SEQEND
  8
0
  0
POLYLINE
8
0
 62
     0
 66
     1
 10
0
 20
0
 30
0.0
 40
1.59294
 41
1.59294
  0
VERTEX
  8
0
 10
251.088
 20
461.356
 30
0.0
 40
1.59294
 41
1.59294
  0
VERTEX
  8
0
 10
251.486
 20
429.498
 30
0.0
 40
1.59294
 41
1.59294
  0
SEQEND
  8
0
  0
POLYLINE
8
0
 62
     0
 66
     1
 10
0
 20
0
 30
0.0
 40
0.796472
 41
0.796472
  0
VERTEX
  8
0
 10
231.375
 20
485.052
 30
0.0
 40
0.796472
 41
0.796472
  0
VERTEX
  8
0
 10
248.101
 20
462.75
 30
0.0
 40
0.796472
 41
0.796472
  0
SEQEND
  8
0
  0
POLYLINE
8
0
 62
     7
 66
     1
 10
0
 20
0
 30
0.0
 40
0
 41
0
  0
VERTEX
  8
0
 10
59.5361
 20
469.918
 30
0.0
 40
0
 41
0
  0
VERTEX
  8
0
 10
104.338
 20
473.503
 30
0.0
 40
0
 41
0
  0
VERTEX
  8
0
 10
148.94
 20
477.485
 30
0.0
 40
0
 41
0
  0
VERTEX
  8
0
 10
233.366
 20
486.645
 30
0.0
 40
0
 41
0
  0
VERTEX
  8
0
 10
232.57
 20
491.025
 30
0.0
 40
0
 41
0
  0
VERTEX
  8
0
 10
147.347
 20
481.468
 30
0.0
 40
0
 41
0
  0
VERTEX
  8
0
 10
104.338
 20
478.083
 30
0.0
 40
0
 41
0
  0
VERTEX
  8
0
 10
59.7354
 20
474.896
 30
0.0
 40
0
 41
0
  0
SEQEND
  8
0
  0
POLYLINE
8
0
 62
     0
 66
     1
 10
0
 20
0
 30
0.0
 40
0.796472
 41
0.796472
  0
VERTEX
  8
0
 10
59.5361
 20
469.918
 30
0.0
 40
0.796472
 41
0.796472
  0
VERTEX
  8
0
 10
104.338
 20
473.503
 30
0.0
 40
0.796472
 41
0.796472
  0
VERTEX
  8
0
 10
148.94
 20
477.485
 30
0.0
 40
0.796472
 41
0.796472
  0
VERTEX
  8
0
 10
233.366
 20
486.645
 30
0.0
 40
0.796472
 41
0.796472
  0
VERTEX
  8
0
 10
232.57
 20
491.025
 30
0.0
 40
0.796472
 41
0.796472
  0
VERTEX
  8
0
 10
147.347
 20
481.468
 30
0.0
 40
0.796472
 41
0.796472
  0
VERTEX
  8
0
 10
104.338
 20
478.083
 30
0.0
 40
0.796472
 41
0.796472
  0
VERTEX
  8
0
 10
59.7354
 20
474.896
 30
0.0
 40
0.796472
 41
0.796472
  0
SEQEND
  8
0
  0
TEXT
  8
0
 62
     0
 10
45.9363
 20
1336.61
 30
0
 40
11.1506
  1
MD  20 Feb 02
 50
6.10663e-013
  0
POLYLINE
8
0
 62
     0
 66
     1
 10
0
 20
0
 30
0.0
 40
0
 41
0
  0
VERTEX
  8
0
 10
290.115
 20
434.077
 30
0.0
 40
0
 41
0
  0
VERTEX
  8
0
 10
289.854
 20
434.562
 30
0.0
 40
0
 41
0
  0
VERTEX
  8
0
 10
289.496
 20
435.227
 30
0.0
 40
0
 41
0
  0
VERTEX
  8
0
 10
288.907
 20
436.322
 30
0.0
 40
0
 41
0
  0
VERTEX
  8
0
 10
288.028
 20
437.956
 30
0.0
 40
0
 41
0
  0
VERTEX
  8
0
 10
286.802
 20
440.236
 30
0.0
 40
0
 41
0
  0
VERTEX
  8
0
 10
285.17
 20
443.27
 30
0.0
 40
0
 41
0
  0
VERTEX
  8
0
 10
280.687
 20
451.607
 30
0.0
 40
0
 41
0
  0
VERTEX
  8
0
 10
275.264
 20
461.709
 30
0.0
 40
0
 41
0
  0
VERTEX
  8
0
 10
269.816
 20
471.892
 30
0.0
 40
0
 41
0
  0
VERTEX
  8
0
 10
265.258
 20
480.472
 30
0.0
 40
0
 41
0
  0
VERTEX
  8
0
 10
263.57
 20
483.687
 30
0.0
 40
0
 41
0
  0
VERTEX
  8
0
 10
262.279
 20
486.186
 30
0.0
 40
0
 41
0
  0
VERTEX
  8
0
 10
261.331
 20
488.07
 30
0.0
 40
0
 41
0
  0
VERTEX
  8
0
 10
260.67
 20
489.445
 30
0.0
 40
0
 41
0
  0
VERTEX
  8
0
 10
260.242
 20
490.413
 30
0.0
 40
0
 41
0
  0
VERTEX
  8
0
 10
259.994
 20
491.08
 30
0.0
 40
0
 41
0
  0
VERTEX
  8
0
 10
259.87
 20
491.548
 30
0.0
 40
0
 41
0
  0
VERTEX
  8
0
 10
259.815
 20
491.921
 30
0.0
 40
0
 41
0
  0
VERTEX
  8
0
 10
260.015
 20
494.908
 30
0.0
 40
0
 41
0
  0
VERTEX
  8
0
 10
261.143
 20
497.397
 30
0.0
 40
0
 41
0
  0
VERTEX
  8
0
 10
262.902
 20
498.923
 30
0.0
 40
0
 41
0
  0
VERTEX
  8
0
 10
265.092
 20
499.819
 30
0.0
 40
0
 41
0
  0
VERTEX
  8
0
 10
267.647
 20
499.886
 30
0.0
 40
0
 41
0
  0
VERTEX
  8
0
 10
270.203
 20
499.189
 30
0.0
 40
0
 41
0
  0
VERTEX
  8
0
 10
270.768
 20
498.805
 30
0.0
 40
0
 41
0
  0
VERTEX
  8
0
 10
271.592
 20
498.056
 30
0.0
 40
0
 41
0
  0
VERTEX
  8
0
 10
273.007
 20
496.655
 30
0.0
 40
0
 41
0
  0
VERTEX
  8
0
 10
275.347
 20
494.311
 30
0.0
 40
0
 41
0
  0
VERTEX
  8
0
 10
278.831
 20
490.839
 30
0.0
 40
0
 41
0
  0
VERTEX
  8
0
 10
283.232
 20
486.475
 30
0.0
 40
0
 41
0
  0
VERTEX
  8
0
 10
288.213
 20
481.556
 30
0.0
 40
0
 41
0
  0
VERTEX
  8
0
 10
293.433
 20
476.423
 30
0.0
 40
0
 41
0
  0
VERTEX
  8
0
 10
303.874
 20
466.774
 30
0.0
 40
0
 41
0
  0
VERTEX
  8
0
 10
315.038
 20
459.763
 30
0.0
 40
0
 41
0
  0
VERTEX
  8
0
 10
321.125
 20
457.823
 30
0.0
 40
0
 41
0
  0
VERTEX
  8
0
 10
327.13
 20
456.785
 30
0.0
 40
0
 41
0
  0
VERTEX
  8
0
 10
332.505
 20
456.357
 30
0.0
 40
0
 41
0
  0
VERTEX
  8
0
 10
336.708
 20
456.246
 30
0.0
 40
0
 41
0
  0
VERTEX
  8
0
 10
339.356
 20
456.208
 30
0.0
 40
0
 41
0
  0
VERTEX
  8
0
 10
341.216
 20
456.181
 30
0.0
 40
0
 41
0
  0
VERTEX
  8
0
 10
341.288
 20
456.179
 30
0.0
 40
0
 41
0
  0
SEQEND
  8
0
  0
POLYLINE
8
0
 62
     0
 66
     1
 10
0
 20
0
 30
0.0
 40
0
 41
0
  0
VERTEX
  8
0
 10
226.098
 20
299.971
 30
0.0
 40
0
 41
0
  0
VERTEX
  8
0
 10
227.337
 20
300
 30
0.0
 40
0
 41
0
  0
VERTEX
  8
0
 10
229.035
 20
300.038
 30
0.0
 40
0
 41
0
  0
VERTEX
  8
0
 10
231.645
 20
300.135
 30
0.0
 40
0
 41
0
  0
VERTEX
  8
0
 10
234.494
 20
300.463
 30
0.0
 40
0
 41
0
  0
VERTEX
  8
0
 10
236.721
 20
301.23
 30
0.0
 40
0
 41
0
  0
VERTEX
  8
0
 10
237.465
 20
302.643
 30
0.0
 40
0
 41
0
  0
VERTEX
  8
0
 10
236.176
 20
304.86
 30
0.0
 40
0
 41
0
  0
VERTEX
  8
0
 10
233.563
 20
307.849
 30
0.0
 40
0
 41
0
  0
VERTEX
  8
0
 10
230.648
 20
311.529
 30
0.0
 40
0
 41
0
  0
VERTEX
  8
0
 10
228.454
 20
315.818
 30
0.0
 40
0
 41
0
  0
VERTEX
  8
0
 10
227.739
 20
320.569
 30
0.0
 40
0
 41
0
  0
VERTEX
  8
0
 10
228.206
 20
325.365
 30
0.0
 40
0
 41
0
  0
VERTEX
  8
0
 10
229.294
 20
329.723
 30
0.0
 40
0
 41
0
  0
VERTEX
  8
0
 10
230.446
 20
333.158
 30
0.0
 40
0
 41
0
  0
VERTEX
  8
0
 10
231.213
 20
335.326
 30
0.0
 40
0
 41
0
  0
VERTEX
  8
0
 10
231.607
 20
336.439
 30
0.0
 40
0
 41
0
  0
VERTEX
  8
0
 10
231.752
 20
336.849
 30
0.0
 40
0
 41
0
  0
VERTEX
  8
0
 10
231.773
 20
336.908
 30
0.0
 40
0
 41
0
  0
SEQEND
  8
0
  0
POLYLINE
8
0
 62
     7
 66
     1
 10
0
 20
0
 30
0.0
 40
0
 41
0
  0
VERTEX
  8
0
 10
227.239
 20
330.064
 30
0.0
 40
0
 41
0
  0
VERTEX
  8
0
 10
231.773
 20
336.908
 30
0.0
 40
0
 41
0
  0
VERTEX
  8
0
 10
230.992
 20
328.735
 30
0.0
 40
0
 41
0
  0
SEQEND
  8
0
  0
POLYLINE
8
0
 62
     0
 66
     1
 10
0
 20
0
 30
0.0
 40
0
 41
0
  0
VERTEX
  8
0
 10
227.239
 20
330.064
 30
0.0
 40
0
 41
0
  0
VERTEX
  8
0
 10
231.773
 20
336.908
 30
0.0
 40
0
 41
0
  0
VERTEX
  8
0
 10
230.992
 20
328.735
 30
0.0
 40
0
 41
0
  0
SEQEND
  8
0
  0
TEXT
  8
0
 62
     0
 10
327.571
 20
269.021
 30
0
 40
8.32313
  1
horn anchored 
 50
0
  0
TEXT
  8
0
 62
     0
 10
327.571
 20
260.697
 30
0
 40
8.32313
  1
with 0.75oz glass
 50
0
  0
POLYLINE
8
0
 62
     7
 66
     1
 10
0
 20
0
 30
0.0
 70
     1
 40
0
 41
0
  0
VERTEX
  8
0
 10
121.86
 20
285.934
 30
0.0
 40
0
 41
0
  0
VERTEX
  8
0
 10
121.86
 20
308.235
 30
0.0
 40
0
 41
0
  0
VERTEX
  8
0
 10
170.445
 20
308.235
 30
0.0
 40
0
 41
0
  0
VERTEX
  8
0
 10
170.445
 20
285.934
 30
0.0
 40
0
 41
0
  0
VERTEX
  8
0
 10
121.86
 20
285.934
 30
0.0
 40
0
 41
0
  0
SEQEND
  8
0
  0
TEXT
  8
0
 62
     0
 10
127.535
 20
298.625
 30
0
 40
8.32313
  1
0.75oz glass patches
 50
0
  0
TEXT
  8
0
 62
     0
 10
127.535
 20
290.302
 30
0
 40
8.32313
  1
around fin/boom joints
 50
0
  0
POLYLINE
8
0
 62
     0
 66
     1
 10
0
 20
0
 30
0.0
 40
0
 41
0
  0
VERTEX
  8
0
 10
122.856
 20
296.347
 30
0.0
 40
0
 41
0
  0
VERTEX
  8
0
 10
120.35
 20
296.396
 30
0.0
 40
0
 41
0
  0
VERTEX
  8
0
 10
118.116
 20
296.471
 30
0.0
 40
0
 41
0
  0
VERTEX
  8
0
 10
115.635
 20
296.735
 30
0.0
 40
0
 41
0
  0
VERTEX
  8
0
 10
113.599
 20
297.355
 30
0.0
 40
0
 41
0
  0
VERTEX
  8
0
 10
112.701
 20
298.504
 30
0.0
 40
0
 41
0
  0
VERTEX
  8
0
 10
113.389
 20
300.305
 30
0.0
 40
0
 41
0
  0
VERTEX
  8
0
 10
115.15
 20
302.708
 30
0.0
 40
0
 41
0
  0
VERTEX
  8
0
 10
117.225
 20
305.618
 30
0.0
 40
0
 41
0
  0
VERTEX
  8
0
 10
118.857
 20
308.941
 30
0.0
 40
0
 41
0
  0
VERTEX
  8
0
 10
119.477
 20
312.541
 30
0.0
 40
0
 41
0
  0
VERTEX
  8
0
 10
119.273
 20
316.12
 30
0.0
 40
0
 41
0
  0
VERTEX
  8
0
 10
118.625
 20
319.341
 30
0.0
 40
0
 41
0
  0
VERTEX
  8
0
 10
117.911
 20
321.867
 30
0.0
 40
0
 41
0
  0
VERTEX
  8
0
 10
117.431
 20
323.459
 30
0.0
 40
0
 41
0
  0
VERTEX
  8
0
 10
117.094
 20
324.578
 30
0.0
 40
0
 41
0
  0
VERTEX
  8
0
 10
117.081
 20
324.621
 30
0.0
 40
0
 41
0
  0
SEQEND
  8
0
  0
POLYLINE
8
0
 62
     7
 66
     1
 10
0
 20
0
 30
0.0
 40
0
 41
0
  0
VERTEX
  8
0
 10
117.472
 20
316.421
 30
0.0
 40
0
 41
0
  0
VERTEX
  8
0
 10
117.081
 20
324.621
 30
0.0
 40
0
 41
0
  0
VERTEX
  8
0
 10
121.285
 20
317.569
 30
0.0
 40
0
 41
0
  0
SEQEND
  8
0
  0
POLYLINE
8
0
 62
     0
 66
     1
 10
0
 20
0
 30
0.0
 40
0
 41
0
  0
VERTEX
  8
0
 10
117.472
 20
316.421
 30
0.0
 40
0
 41
0
  0
VERTEX
  8
0
 10
117.081
 20
324.621
 30
0.0
 40
0
 41
0
  0
VERTEX
  8
0
 10
121.285
 20
317.569
 30
0.0
 40
0
 41
0
  0
SEQEND
  8
0
  0
POLYLINE
8
0
 62
     0
 66
     1
 10
0
 20
0
 30
0.0
 40
0
 41
0
  0
VERTEX
  8
0
 10
388.419
 20
402.974
 30
0.0
 40
0
 41
0
  0
VERTEX
  8
0
 10
387.075
 20
402.918
 30
0.0
 40
0
 41
0
  0
VERTEX
  8
0
 10
385.233
 20
402.842
 30
0.0
 40
0
 41
0
  0
VERTEX
  8
0
 10
382.367
 20
402.685
 30
0.0
 40
0
 41
0
  0
VERTEX
  8
0
 10
379.028
 20
402.286
 30
0.0
 40
0
 41
0
  0
VERTEX
  8
0
 10
375.937
 20
401.451
 30
0.0
 40
0
 41
0
  0
VERTEX
  8
0
 10
373.817
 20
399.988
 30
0.0
 40
0
 41
0
  0
VERTEX
  8
0
 10
373.111
 20
397.688
 30
0.0
 40
0
 41
0
  0
VERTEX
  8
0
 10
373.145
 20
394.284
 30
0.0
 40
0
 41
0
  0
VERTEX
  8
0
 10
372.968
 20
389.492
 30
0.0
 40
0
 41
0
  0
VERTEX
  8
0
 10
371.627
 20
383.029
 30
0.0
 40
0
 41
0
  0
VERTEX
  8
0
 10
368.485
 20
374.859
 30
0.0
 40
0
 41
0
  0
VERTEX
  8
0
 10
364.16
 20
365.93
 30
0.0
 40
0
 41
0
  0
VERTEX
  8
0
 10
359.586
 20
357.437
 30
0.0
 40
0
 41
0
  0
VERTEX
  8
0
 10
355.698
 20
350.573
 30
0.0
 40
0
 41
0
  0
VERTEX
  8
0
 10
354.273
 20
348.087
 30
0.0
 40
0
 41
0
  0
VERTEX
  8
0
 10
353.203
 20
346.218
 30
0.0
 40
0
 41
0
  0
VERTEX
  8
0
 10
352.437
 20
344.879
 30
0.0
 40
0
 41
0
  0
VERTEX
  8
0
 10
351.922
 20
343.981
 30
0.0
 40
0
 41
0
  0
VERTEX
  8
0
 10
351.611
 20
343.437
 30
0.0
 40
0
 41
0
  0
VERTEX
  8
0
 10
351.451
 20
343.158
 30
0.0
 40
0
 41
0
  0
VERTEX
  8
0
 10
351.383
 20
343.04
 30
0.0
 40
0
 41
0
  0
SEQEND
  8
0
  0
POLYLINE
8
0
 62
     0
 66
     1
 10
0
 20
0
 30
0.0
 70
     1
 40
0.796472
 41
0.796472
  0
VERTEX
  8
0
 10
143.763
 20
365.182
 30
0.0
 40
0.796472
 41
0.796472
  0
VERTEX
  8
0
 10
243.72
 20
365.182
 30
0.0
 40
0.796472
 41
0.796472
  0
VERTEX
  8
0
 10
244.318
 20
348.855
 30
0.0
 40
0.796472
 41
0.796472
  0
VERTEX
  8
0
 10
145.754
 20
348.855
 30
0.0
 40
0.796472
 41
0.796472
  0
VERTEX
  8
0
 10
143.763
 20
365.182
 30
0.0
 40
0.796472
 41
0.796472
  0
SEQEND
  8
0
  0
POLYLINE
8
0
 62
     0
 66
     1
 10
0
 20
0
 30
0.0
 70
     1
 40
0.796472
 41
0.796472
  0
VERTEX
  8
0
 10
145.356
 20
399.829
 30
0.0
 40
0.796472
 41
0.796472
  0
VERTEX
  8
0
 10
243.919
 20
399.829
 30
0.0
 40
0.796472
 41
0.796472
  0
VERTEX
  8
0
 10
243.521
 20
383.501
 30
0.0
 40
0.796472
 41
0.796472
  0
VERTEX
  8
0
 10
143.763
 20
383.501
 30
0.0
 40
0.796472
 41
0.796472
  0
VERTEX
  8
0
 10
145.356
 20
399.829
 30
0.0
 40
0.796472
 41
0.796472
  0
SEQEND
  8
0
  0
POLYLINE
8
0
 62
     0
 66
     1
 10
0
 20
0
 30
0.0
 40
2.38942
 41
2.38942
  0
VERTEX
  8
0
 10
277.57
 20
373.704
 30
0.0
 40
2.38942
 41
2.38942
  0
VERTEX
  8
0
 10
342.483
 20
373.903
 30
0.0
 40
2.38942
 41
2.38942
  0
SEQEND
  8
0
  0
ENDSEC
  0
EOF
